<svg width="51" height="51" viewBox="0 0 51 51" fill="none" xmlns="http://www.w3.org/2000/svg">
<path d="M7.06177 19.2827C9.33199 19.2827 11.1724 17.4423 11.1724 15.1721C11.1724 12.9019 9.33199 11.0615 7.06177 11.0615C4.79155 11.0615 2.95117 12.9019 2.95117 15.1721C2.95117 17.4423 4.79155 19.2827 7.06177 19.2827Z" stroke="#5D38DE" stroke-width="2.46636" stroke-miterlimit="10" stroke-linecap="round" stroke-linejoin="round"/>
<path d="M44.0569 19.2827C46.3271 19.2827 48.1675 17.4423 48.1675 15.1721C48.1675 12.9019 46.3271 11.0615 44.0569 11.0615C41.7867 11.0615 39.9463 12.9019 39.9463 15.1721C39.9463 17.4423 41.7867 19.2827 44.0569 19.2827Z" stroke="#5D38DE" stroke-width="2.46636" stroke-miterlimit="10" stroke-linecap="round" stroke-linejoin="round"/>
<path d="M39.9458 15.1719H31.7246" stroke="#5D38DE" stroke-width="2.46636" stroke-miterlimit="10" stroke-linecap="round" stroke-linejoin="round"/>
<path d="M19.3941 15.1719H11.1729" stroke="#5D38DE" stroke-width="2.46636" stroke-miterlimit="10" stroke-linecap="round" stroke-linejoin="round"/>
<path d="M16.3107 34.6962V38.8068C16.3107 40.0606 15.5502 41.1498 14.4815 41.602C14.091 41.787 13.6799 41.8898 13.2277 41.8898H9.11713C7.41123 41.8898 6.03418 40.5127 6.03418 38.8068V34.6962C6.03418 32.9903 7.41123 31.6133 9.11713 31.6133H13.2277C14.9336 31.6133 16.3107 32.9903 16.3107 34.6962Z" stroke="#5D38DE" stroke-width="2.46636" stroke-miterlimit="10" stroke-linecap="round" stroke-linejoin="round"/>
<path d="M45.0841 34.6962V38.8068C45.0841 40.5127 43.7071 41.8898 42.0012 41.8898H37.8906C37.4384 41.8898 37.0273 41.787 36.6368 41.602C35.5681 41.1498 34.8076 40.0606 34.8076 38.8068V34.6962C34.8076 32.9903 36.1847 31.6133 37.8906 31.6133H42.0012C43.7071 31.6133 45.0841 32.9903 45.0841 34.6962Z" stroke="#5D38DE" stroke-width="2.46636" stroke-miterlimit="10" stroke-linecap="round" stroke-linejoin="round"/>
<path d="M31.7254 12.0888V18.2547C31.7254 19.9401 30.3278 21.3377 28.6424 21.3377H22.4765C20.7912 21.3377 19.3936 19.9401 19.3936 18.2547V12.0888C19.3936 10.4035 20.7912 9.00586 22.4765 9.00586H28.6424C30.3278 9.00586 31.7254 10.4035 31.7254 12.0888Z" stroke="#5D38DE" stroke-width="2.46636" stroke-miterlimit="10" stroke-linecap="round" stroke-linejoin="round"/>
<path d="M31.7246 16.6719C36.5957 19.1382 39.9458 24.441 39.9458 30.5863C39.9458 30.9357 39.9253 31.2645 39.8841 31.6139" stroke="#5D38DE" stroke-width="2.46636" stroke-miterlimit="10" stroke-linecap="round" stroke-linejoin="round"/>
<path d="M11.2345 31.6139C11.1934 31.2645 11.1729 30.9357 11.1729 30.5863C11.1729 24.441 14.523 19.1382 19.3941 16.6719" stroke="#5D38DE" stroke-width="2.46636" stroke-miterlimit="10" stroke-linecap="round" stroke-linejoin="round"/>
</svg>
