<svg width="33" height="33" viewBox="0 0 33 33" fill="none" xmlns="http://www.w3.org/2000/svg">
<g clip-path="url(#clip0_203_142)">
<path d="M15.8537 30.6454C19.7522 30.6454 22.9125 24.1492 22.9125 16.1357C22.9125 8.1222 19.7522 1.62598 15.8537 1.62598C11.9552 1.62598 8.79492 8.1222 8.79492 16.1357C8.79492 24.1492 11.9552 30.6454 15.8537 30.6454Z" stroke="#5D38DE" stroke-width="1.56862" stroke-miterlimit="10"/>
<path d="M19.6685 10.0571C12.6792 6.02186 5.44872 5.46042 3.5188 8.80314C1.58888 12.1459 5.69034 18.1269 12.6797 22.1622C19.669 26.1975 26.8995 26.7589 28.8294 23.4162C30.7593 20.0735 26.6579 14.0924 19.6685 10.0571Z" stroke="#5D38DE" stroke-width="1.56862" stroke-miterlimit="10"/>
<path d="M12.6801 10.056C5.69073 14.0913 1.58927 20.0723 3.51919 23.415C5.44912 26.7578 12.6796 26.1963 19.6689 22.161C26.6582 18.1257 30.7597 12.1447 28.8298 8.80196C26.8999 5.45924 19.6694 6.02068 12.6801 10.056Z" stroke="#5D38DE" stroke-width="1.56862" stroke-miterlimit="10"/>
<path d="M16.2451 14.9585C17.7612 14.9585 18.9902 14.2562 18.9902 13.3899C18.9902 12.5236 17.7612 11.8213 16.2451 11.8213C14.729 11.8213 13.5 12.5236 13.5 13.3899C13.5 14.2562 14.729 14.9585 16.2451 14.9585Z" stroke="#5D38DE" stroke-width="1.56862" stroke-miterlimit="10" stroke-linecap="round" stroke-linejoin="round"/>
<path d="M18.9902 13.3906V15.9849C18.9902 16.7089 17.732 17.3122 16.2451 17.3122C14.7582 17.3122 13.5 16.7089 13.5 15.9849V13.3906C13.5 14.1146 14.7582 14.7179 16.2451 14.7179C17.732 14.7179 18.9902 14.1146 18.9902 13.3906Z" stroke="#5D38DE" stroke-width="1.56862" stroke-miterlimit="10" stroke-linecap="round" stroke-linejoin="round"/>
<path d="M18.9902 15.7432V18.8563C18.9902 19.725 17.732 20.449 16.2451 20.449C14.7582 20.449 13.5 19.725 13.5 18.8563V15.7432C13.5 16.6119 14.7582 17.3359 16.2451 17.3359C17.732 17.3359 18.9902 16.6119 18.9902 15.7432Z" stroke="#5D38DE" stroke-width="1.56862" stroke-miterlimit="10" stroke-linecap="round" stroke-linejoin="round"/>
</g>
<defs>
<clipPath id="clip0_203_142">
<rect width="32.3" height="32.3" fill="white" transform="translate(0.354492 0.389648)"/>
</clipPath>
</defs>
</svg>
