<svg width="67" height="49" viewBox="0 0 67 49" fill="none" xmlns="http://www.w3.org/2000/svg">
<g clip-path="url(#clip0_203_136)">
<path d="M42.5169 7.49481H39.6159V3.03748C39.6159 2.00933 38.7795 1.17285 37.7513 1.17285H31.04C30.0118 1.17285 29.1754 2.00933 29.1754 3.03748V6.52229H24.475C23.4468 6.52229 22.6104 7.35877 22.6104 8.38692V14.8548C22.6104 15.883 23.4468 16.7195 24.475 16.7195H27.4733V21.2742C27.4733 22.3024 28.3098 23.1389 29.338 23.1389H35.8544C36.8826 23.1389 37.7191 22.3024 37.7191 21.2742V17.5949H42.5169C43.545 17.5949 44.3815 16.7584 44.3815 15.7303V9.35944C44.3815 8.33129 43.545 7.49481 42.5169 7.49481ZM24.475 16.0538C23.8139 16.0538 23.2761 15.516 23.2761 14.8548V8.38692C23.2761 7.72581 23.8139 7.188 24.475 7.188H34.5659C34.7498 7.188 34.8986 7.0392 34.8986 6.85532C34.8986 6.67144 34.7498 6.52264 34.5659 6.52264H29.8411V3.03748C29.8411 2.37638 30.3789 1.83856 31.04 1.83856H37.751C38.4121 1.83856 38.9499 2.37638 38.9499 3.03748V10.2349C38.9499 11.0749 38.2665 11.758 37.4268 11.758H29.6622C28.4551 11.758 27.4733 12.7401 27.4733 13.9472V16.0538H24.475ZM43.7162 15.7303C43.7162 16.3914 43.1783 16.9292 42.5172 16.9292H32.426C32.2421 16.9292 32.0933 17.078 32.0933 17.2619C32.0933 17.4458 32.2421 17.5946 32.426 17.5946H37.0537V21.2739C37.0537 21.935 36.5159 22.4728 35.8548 22.4728H29.338C28.6769 22.4728 28.1391 21.935 28.1391 21.2739V13.9468C28.1391 13.1068 28.8225 12.4234 29.6622 12.4234H37.4271C38.6342 12.4234 39.6159 11.4416 39.6159 10.2345V8.16017H42.5169C43.178 8.16017 43.7158 8.69798 43.7158 9.35909V15.7299L43.7162 15.7303Z" fill="#5D38DE" fill-opacity="0.3" stroke="#5D38DE" stroke-opacity="0.3" stroke-width="0.850297"/>
</g>
<path d="M1.86402 45.5645H0.607897L4.24099 35.6701H5.47778L9.11087 45.5645H7.85475L4.89803 37.2354H4.82073L1.86402 45.5645ZM2.32782 41.6995H7.39095V42.7623H2.32782V41.6995ZM10.4974 48.3472V38.1437H11.599V39.3225H11.7342C11.818 39.1937 11.9339 39.0294 12.0821 38.8297C12.2335 38.6268 12.4493 38.4464 12.7295 38.2886C13.0129 38.1276 13.3962 38.0471 13.8793 38.0471C14.5041 38.0471 15.0549 38.2033 15.5316 38.5157C16.0083 38.8281 16.3803 39.271 16.6476 39.8443C16.9149 40.4176 17.0486 41.0939 17.0486 41.8734C17.0486 42.6593 16.9149 43.3405 16.6476 43.917C16.3803 44.4903 16.0099 44.9348 15.5364 45.2504C15.063 45.5628 14.517 45.7191 13.8986 45.7191C13.4219 45.7191 13.0403 45.6401 12.7536 45.4823C12.467 45.3213 12.2463 45.1393 12.0917 44.9364C11.9371 44.7303 11.818 44.5596 11.7342 44.4243H11.6376V48.3472H10.4974ZM11.6183 41.8541C11.6183 42.4145 11.7004 42.9089 11.8647 43.3373C12.0289 43.7624 12.2689 44.0958 12.5845 44.3373C12.9002 44.5757 13.2867 44.6948 13.744 44.6948C14.2207 44.6948 14.6185 44.5692 14.9373 44.318C15.2594 44.0635 15.501 43.7221 15.662 43.2938C15.8263 42.8622 15.9084 42.3823 15.9084 41.8541C15.9084 41.3323 15.8279 40.8621 15.6669 40.4433C15.509 40.0214 15.2691 39.6881 14.947 39.4433C14.6281 39.1953 14.2271 39.0713 13.744 39.0713C13.2802 39.0713 12.8905 39.1888 12.5749 39.424C12.2592 39.6559 12.0209 39.9812 11.8598 40.3999C11.6988 40.8153 11.6183 41.3001 11.6183 41.8541ZM18.7878 48.3472V38.1437H19.8894V39.3225H20.0246C20.1084 39.1937 20.2243 39.0294 20.3725 38.8297C20.5239 38.6268 20.7397 38.4464 21.0199 38.2886C21.3033 38.1276 21.6866 38.0471 22.1697 38.0471C22.7945 38.0471 23.3453 38.2033 23.822 38.5157C24.2987 38.8281 24.6707 39.271 24.938 39.8443C25.2053 40.4176 25.339 41.0939 25.339 41.8734C25.339 42.6593 25.2053 43.3405 24.938 43.917C24.6707 44.4903 24.3003 44.9348 23.8268 45.2504C23.3534 45.5628 22.8074 45.7191 22.189 45.7191C21.7123 45.7191 21.3307 45.6401 21.044 45.4823C20.7574 45.3213 20.5367 45.1393 20.3821 44.9364C20.2275 44.7303 20.1084 44.5596 20.0246 44.4243H19.928V48.3472H18.7878ZM19.9087 41.8541C19.9087 42.4145 19.9908 42.9089 20.1551 43.3373C20.3193 43.7624 20.5593 44.0958 20.8749 44.3373C21.1906 44.5757 21.5771 44.6948 22.0344 44.6948C22.5111 44.6948 22.9089 44.5692 23.2277 44.318C23.5498 44.0635 23.7914 43.7221 23.9524 43.2938C24.1167 42.8622 24.1988 42.3823 24.1988 41.8541C24.1988 41.3323 24.1183 40.8621 23.9573 40.4433C23.7994 40.0214 23.5595 39.6881 23.2374 39.4433C22.9185 39.1953 22.5176 39.0713 22.0344 39.0713C21.5706 39.0713 21.1809 39.1888 20.8653 39.424C20.5496 39.6559 20.3113 39.9812 20.1502 40.3999C19.9892 40.8153 19.9087 41.3001 19.9087 41.8541ZM27.0782 45.5645V38.1437H28.1798V39.2645H28.2571C28.3923 38.8973 28.6371 38.5994 28.9914 38.3707C29.3457 38.1421 29.7451 38.0277 30.1896 38.0277C30.2733 38.0277 30.378 38.0293 30.5036 38.0326C30.6292 38.0358 30.7242 38.0406 30.7886 38.0471V39.2065C30.75 39.1969 30.6614 39.1824 30.5229 39.1631C30.3876 39.1405 30.2443 39.1292 30.0929 39.1292C29.7322 39.1292 29.4101 39.2049 29.1267 39.3563C28.8465 39.5045 28.6242 39.7106 28.46 39.9747C28.2989 40.2356 28.2184 40.5335 28.2184 40.8685V45.5645H27.0782ZM34.929 45.7191C34.2591 45.7191 33.6713 45.5596 33.1656 45.2408C32.6631 44.9219 32.2702 44.4758 31.9868 43.9025C31.7066 43.3292 31.5665 42.6593 31.5665 41.8927C31.5665 41.1197 31.7066 40.445 31.9868 39.8684C32.2702 39.2919 32.6631 38.8442 33.1656 38.5253C33.6713 38.2065 34.2591 38.0471 34.929 38.0471C35.5989 38.0471 36.1851 38.2065 36.6876 38.5253C37.1932 38.8442 37.5862 39.2919 37.8664 39.8684C38.1498 40.445 38.2915 41.1197 38.2915 41.8927C38.2915 42.6593 38.1498 43.3292 37.8664 43.9025C37.5862 44.4758 37.1932 44.9219 36.6876 45.2408C36.1851 45.5596 35.5989 45.7191 34.929 45.7191ZM34.929 44.6948C35.4379 44.6948 35.8566 44.5644 36.1851 44.3035C36.5136 44.0426 36.7568 43.6996 36.9146 43.2744C37.0725 42.8493 37.1514 42.3887 37.1514 41.8927C37.1514 41.3967 37.0725 40.9345 36.9146 40.5061C36.7568 40.0778 36.5136 39.7315 36.1851 39.4674C35.8566 39.2033 35.4379 39.0713 34.929 39.0713C34.4201 39.0713 34.0014 39.2033 33.6729 39.4674C33.3444 39.7315 33.1012 40.0778 32.9434 40.5061C32.7855 40.9345 32.7066 41.3967 32.7066 41.8927C32.7066 42.3887 32.7855 42.8493 32.9434 43.2744C33.1012 43.6996 33.3444 44.0426 33.6729 44.3035C34.0014 44.5644 34.4201 44.6948 34.929 44.6948ZM43.0467 45.7191C42.351 45.7191 41.7519 45.5548 41.2495 45.2263C40.747 44.8977 40.3605 44.4452 40.09 43.8687C39.8194 43.2922 39.6841 42.6335 39.6841 41.8927C39.6841 41.139 39.8226 40.4739 40.0996 39.8974C40.3798 39.3177 40.7696 38.8651 41.2688 38.5398C41.7712 38.2113 42.3574 38.0471 43.0274 38.0471C43.5491 38.0471 44.0194 38.1437 44.4381 38.3369C44.8568 38.5302 45.1998 38.8007 45.4671 39.1486C45.7345 39.4964 45.9003 39.9022 45.9647 40.366H44.8246C44.7376 40.0279 44.5444 39.7283 44.2448 39.4674C43.9485 39.2033 43.5491 39.0713 43.0467 39.0713C42.6022 39.0713 42.2125 39.1872 41.8775 39.4191C41.5458 39.6478 41.2865 39.9715 41.0997 40.3902C40.9161 40.8057 40.8243 41.2936 40.8243 41.8541C40.8243 42.4274 40.9145 42.9266 41.0949 43.3517C41.2784 43.7769 41.5361 44.107 41.8679 44.3422C42.2028 44.5773 42.5958 44.6948 43.0467 44.6948C43.343 44.6948 43.6119 44.6433 43.8535 44.5402C44.0951 44.4372 44.2996 44.289 44.4671 44.0958C44.6345 43.9025 44.7537 43.6706 44.8246 43.4001H45.9647C45.9003 43.8381 45.7409 44.2326 45.4865 44.5837C45.2352 44.9316 44.9019 45.2086 44.4864 45.4147C44.0741 45.6176 43.5942 45.7191 43.0467 45.7191ZM48.7717 41.1004V45.5645H47.6315V35.6701H48.7717V39.3032H48.8683C49.0422 38.9199 49.3031 38.6155 49.651 38.3901C50.002 38.1614 50.4691 38.0471 51.052 38.0471C51.5577 38.0471 52.0006 38.1485 52.3806 38.3514C52.7607 38.5511 53.0554 38.8587 53.2647 39.2742C53.4773 39.6864 53.5836 40.2114 53.5836 40.8492V45.5645H52.4434V40.9265C52.4434 40.3371 52.2904 39.8813 51.9845 39.5592C51.6817 39.2339 51.2614 39.0713 50.7235 39.0713C50.3499 39.0713 50.0149 39.1502 49.7186 39.308C49.4255 39.4658 49.1936 39.6961 49.0229 39.9989C48.8554 40.3016 48.7717 40.6688 48.7717 41.1004ZM62.5685 45.6997C62.0016 45.6997 61.4911 45.587 61.037 45.3615C60.5829 45.1361 60.2189 44.8269 59.9451 44.4339C59.6714 44.041 59.5216 43.5933 59.4958 43.0909H60.6553C60.7004 43.5386 60.9033 43.9089 61.2641 44.202C61.628 44.4919 62.0628 44.6369 62.5685 44.6369C62.9743 44.6369 63.335 44.5418 63.6507 44.3518C63.9695 44.1618 64.2192 43.9009 64.3995 43.5692C64.5831 43.2342 64.6749 42.8557 64.6749 42.4338C64.6749 42.0022 64.5799 41.6173 64.3899 41.2791C64.2031 40.9377 63.9454 40.6688 63.6169 40.4723C63.2883 40.2759 62.9131 40.176 62.4912 40.1728C62.1884 40.1696 61.8776 40.2163 61.5588 40.3129C61.2399 40.4063 60.9774 40.5271 60.7713 40.6752L59.6504 40.54L60.2495 35.6701H65.3899V36.733H61.2544L60.9065 39.651H60.9645C61.1674 39.49 61.4219 39.3563 61.7279 39.25C62.0338 39.1437 62.3527 39.0906 62.6844 39.0906C63.29 39.0906 63.8294 39.2355 64.3029 39.5254C64.7796 39.8121 65.1532 40.205 65.4238 40.7042C65.6975 41.2035 65.8344 41.7735 65.8344 42.4145C65.8344 43.0458 65.6927 43.6094 65.4093 44.1054C65.129 44.5982 64.7425 44.9879 64.2498 45.2746C63.757 45.558 63.1966 45.6997 62.5685 45.6997Z" fill="#141219" fill-opacity="0.2"/>
<defs>
<clipPath id="clip0_203_136">
<rect width="22.6746" height="22.6746" fill="white" transform="translate(22.1572 0.820312)"/>
</clipPath>
</defs>
</svg>
