<svg width="1049" height="471" viewBox="0 0 1049 471" fill="none" xmlns="http://www.w3.org/2000/svg">
<path d="M655.82 161.762H775.614C778.566 161.762 781.32 160.283 782.95 157.822L824.37 95.3021C826 92.8418 828.755 91.3623 831.706 91.3623H896.94" stroke="white" stroke-width="1.76"/>
<path d="M671.66 207.523H773.351C776.092 207.523 778.677 206.245 780.342 204.068L809.379 166.097C811.044 163.92 813.628 162.643 816.369 162.643H867.9" stroke="white" stroke-width="1.76"/>
<path d="M671.66 255.042H773.351C776.092 255.042 778.677 256.319 780.342 258.496L809.379 296.467C811.044 298.645 813.628 299.922 816.369 299.922H867.9" stroke="white" stroke-width="1.76"/>
<path d="M655.82 306.082H775.614C778.566 306.082 781.32 307.562 782.95 310.022L824.37 372.543C826 375.003 828.755 376.482 831.706 376.482H896.94" stroke="white" stroke-width="1.76"/>
<path d="M820.051 105.455C820.723 104.443 820.448 103.078 819.436 102.405C818.424 101.733 817.059 102.008 816.386 103.02L818.218 104.238L820.051 105.455ZM785.184 153.94L787.016 155.158L820.051 105.455L818.218 104.238L816.386 103.02L783.351 152.723L785.184 153.94Z" fill="url(#paint0_linear_1181_481)"/>
<path d="M790.898 318.091C790.24 317.069 788.878 316.775 787.857 317.433C786.836 318.091 786.541 319.453 787.2 320.474L789.049 319.282L790.898 318.091ZM821.381 369.445L823.23 368.253L790.898 318.091L789.049 319.282L787.2 320.474L819.532 370.637L821.381 369.445Z" fill="url(#paint1_linear_1181_481)"/>
<path d="M782.573 204.454C781.813 205.403 780.429 205.556 779.48 204.797C778.532 204.038 778.378 202.654 779.137 201.705L780.855 203.08L782.573 204.454ZM818.143 156.482L819.86 157.857L782.573 204.454L780.855 203.08L779.137 201.705L816.425 155.108L818.143 156.482Z" fill="url(#paint2_linear_1181_481)"/>
<path d="M808.162 291.249C808.898 292.215 808.712 293.596 807.746 294.333C806.78 295.07 805.4 294.884 804.663 293.918L806.412 292.584L808.162 291.249ZM770.221 245.13L771.97 243.796L808.162 291.249L806.412 292.584L804.663 293.918L768.471 246.464L770.221 245.13Z" fill="url(#paint3_linear_1181_481)"/>
<rect x="889.44" y="67.442" width="159.12" height="41.12" rx="20.56" fill="#4D5586" stroke="#2F3761" stroke-width="0.88"/>
<rect x="866.44" y="141.442" width="159.12" height="41.12" rx="20.56" fill="#4D5586" stroke="#2F3761" stroke-width="0.88"/>
<rect x="866.44" y="280.442" width="159.12" height="41.12" rx="20.56" fill="#4D5586" stroke="#2F3761" stroke-width="0.88"/>
<rect x="889.44" y="355.442" width="159.12" height="42.12" rx="21.06" fill="#4D5586" stroke="#2F3761" stroke-width="0.88"/>
<path d="M401.1 164.122H281.306C278.354 164.122 275.599 162.642 273.969 160.182L232.55 97.6615C230.92 95.2011 228.165 93.7217 225.214 93.7217H159.98" stroke="white" stroke-width="1.76"/>
<path d="M385.26 209.882H283.568C280.828 209.882 278.243 208.605 276.578 206.428L247.541 168.456C245.876 166.279 243.292 165.002 240.551 165.002H189.02" stroke="white" stroke-width="1.76"/>
<path d="M385.26 257.401H283.568C280.828 257.401 278.243 258.678 276.578 260.856L247.541 298.827C245.876 301.004 243.292 302.281 240.551 302.281H189.02" stroke="white" stroke-width="1.76"/>
<path d="M401.1 308.442H281.306C278.354 308.442 275.599 309.921 273.969 312.382L232.55 374.902C230.92 377.362 228.165 378.842 225.214 378.842H159.98" stroke="white" stroke-width="1.76"/>
<path d="M236.454 107.328C235.792 106.309 236.081 104.946 237.099 104.284C238.118 103.622 239.481 103.911 240.143 104.93L238.298 106.129L236.454 107.328ZM270.824 156.166L268.98 157.365L236.454 107.328L238.298 106.129L240.143 104.93L272.669 154.967L270.824 156.166Z" fill="url(#paint4_linear_1181_481)"/>
<path d="M265.61 320.45C266.268 319.429 267.629 319.134 268.651 319.793C269.672 320.451 269.966 321.812 269.308 322.834L267.459 321.642L265.61 320.45ZM235.127 371.805L233.278 370.613L265.61 320.45L267.459 321.642L269.308 322.834L236.976 372.997L235.127 371.805Z" fill="url(#paint5_linear_1181_481)"/>
<path d="M274.528 207.279C275.26 208.248 276.639 208.441 277.609 207.708C278.579 206.976 278.771 205.597 278.039 204.627L276.283 205.953L274.528 207.279ZM240.318 158.327L238.563 159.653L274.528 207.279L276.283 205.953L278.039 204.627L242.074 157.001L240.318 158.327Z" fill="url(#paint6_linear_1181_481)"/>
<path d="M248.87 293.609C248.133 294.575 248.319 295.955 249.285 296.692C250.251 297.429 251.631 297.243 252.368 296.277L250.619 294.943L248.87 293.609ZM286.811 247.489L285.061 246.155L248.87 293.609L250.619 294.943L252.368 296.277L288.56 248.823L286.811 247.489Z" fill="url(#paint7_linear_1181_481)"/>
<rect x="0.44" y="73.442" width="159.12" height="41.12" rx="20.56" fill="#4D5586" stroke="#2F3761" stroke-width="0.88"/>
<rect x="29.44" y="145.442" width="159.12" height="41.12" rx="20.56" fill="#4D5586" stroke="#2F3761" stroke-width="0.88"/>
<rect x="29.44" y="280.442" width="159.12" height="42.12" rx="21.06" fill="#4D5586" stroke="#2F3761" stroke-width="0.88"/>
<rect x="0.44" y="358.442" width="159.12" height="41.12" rx="20.56" fill="#4D5586" stroke="#2F3761" stroke-width="0.88"/>
<path fill-rule="evenodd" clip-rule="evenodd" d="M528.799 99.9988C720.445 94.9863 738.742 235.889 698.507 237.034C620.753 239.246 615.637 281.961 564.398 329.265C481.639 405.674 384.252 410.036 390.062 210.844C392.505 127.243 451.037 102.032 528.799 99.9988Z" fill="#F5F2FD"/>
<path fill-rule="evenodd" clip-rule="evenodd" d="M661.8 255.675C717.177 243.309 727.832 268.2 716.209 270.814C693.749 275.864 696.809 283.669 681.158 296.153C658.317 314.375 631.965 307.24 625.783 284.399C621.665 269.181 639.33 260.692 661.8 255.675Z" fill="#F5F2FD"/>
<path d="M642.681 311.546C639.023 310.488 635.745 309.457 632.342 308.037C627.914 306.297 624.018 303.392 619.694 301.445C615.576 299.467 611.08 298.672 606.79 297.188C604.44 296.478 601.902 295.184 599.279 294.415C600.215 294.151 601.19 293.865 602.154 293.611C602.754 293.472 603.364 293.303 603.935 293.154C604.788 293.582 605.663 293.965 606.555 294.303C608.523 295.088 610.541 295.821 612.605 296.328C617.356 297.418 622.192 298.261 627.115 298.476C632.305 298.577 637.231 297.098 642.177 296.872C643.819 296.817 645.502 297.018 647.043 297.067C647.306 297.055 647.645 296.826 647.615 296.538C647.392 296.15 646.849 296.031 646.486 295.767C642.978 293.619 639.13 292.079 634.998 291.826C629.817 291.418 624.698 292.518 619.813 291.347C618.521 291.107 617.246 290.781 615.997 290.372C617.819 289.515 619.651 288.626 621.419 287.646C624.398 285.978 627.146 283.849 629.968 281.884C634.069 278.943 638.414 276.328 642.151 272.846C642.702 272.379 644.041 271.042 642.562 271.188C640.652 271.739 638.775 272.473 636.839 272.911C625.375 274.552 614.795 279.994 606.793 288.364C605.664 289.565 604.581 290.817 603.68 292.201C603.616 292.279 603.564 292.366 603.526 292.459C601.666 292.957 599.853 293.507 598.001 294.077C597.932 294.088 597.893 294.109 597.824 294.119C597.135 294.331 596.445 294.542 595.784 294.763C596.276 293.999 596.8 293.142 597.213 292.697C598.5 291.135 599.733 290.385 601.228 289.068C604.86 285.792 608.048 281.738 609.8 277.05C611.421 272.835 613.2 269.194 615.763 265.444C616.986 261.818 602.929 275.71 602.256 276.343C599.073 279.256 597.01 283.248 595.327 287.268C594.531 289.381 593.892 291.79 592.931 293.534C592.513 294.462 591.855 295.238 591.36 296.105C591.358 296.153 591.363 296.201 591.375 296.248C589.906 296.743 588.444 297.31 586.993 297.846C586.953 297.867 586.924 297.857 586.884 297.878C586.213 298.13 585.542 298.382 584.888 298.675C584.92 298.583 584.924 298.48 584.956 298.387C585.087 297.867 585.283 297.365 585.538 296.893C588.505 292.071 592.285 287.807 595.49 283.138C597.185 280.679 598.872 278.148 599.972 275.345C600.776 273.304 601.168 270.671 602.02 268.959C603.073 267.04 604.338 265.262 605.62 263.526C605.796 263.206 607.055 261.912 607.38 261.159C607.544 259.936 605.847 261.183 605.363 261.361C600.971 263.925 597.086 267.46 593.964 271.605C591.887 274.139 589.875 276.765 588.476 279.776C585.909 284.944 584.895 291.342 582.532 296.199C581.828 297.611 580.965 298.937 579.963 300.155C579.751 300.393 579.813 300.588 579.987 300.648C578.118 301.454 576.295 302.312 574.463 303.2C574.929 300.351 576.658 297.419 578.264 294.653C580.158 291.433 581.812 288.059 583.437 284.677C584.513 282.316 585.514 279.893 586.04 277.341C586.726 273.391 586.815 269.477 587.726 265.812C588.028 264.627 588.418 263.467 588.894 262.341C589.076 261.815 589.453 261.288 589.324 260.725C589.196 260.438 588.802 260.544 588.582 260.71C588.039 261.249 587.684 261.991 587.188 262.581C585.625 264.566 583.538 267.409 581.944 269.764C578.671 274.722 575.688 280.057 574.3 285.944C573.27 290.329 573.279 295.177 572.414 299.272C572.129 300.939 571.863 302.646 571.075 304.173C571.053 304.235 570.982 304.349 570.992 304.318C570.928 304.503 570.727 304.71 570.789 304.905C570.796 304.92 570.807 304.934 570.82 304.944C570.833 304.955 570.849 304.962 570.865 304.966C568.416 306.229 566.022 307.615 563.645 309.043C563.676 308.672 563.62 308.272 563.719 307.891C563.781 307.151 564.118 305.988 564.432 304.989C565.266 302.578 566.532 300.421 567.477 297.876C569.522 293.185 569.659 288.007 570.123 283.011C570.572 277.491 570.122 272.04 570.073 266.555C570.094 265.631 570.165 264.708 570.283 263.79L570.315 263.698C570.524 262.77 570.686 261.833 570.8 260.889C570.871 260.498 570.407 260.338 570.137 260.556C569.74 260.765 569.793 261.268 569.694 261.649C569.545 262.359 569.466 263.058 569.386 263.756C568.785 266.524 567.856 269.491 566.954 272.189C565.251 276.549 562.91 280.687 561.805 285.288C560.83 289.138 561.118 293.183 561.704 297.019C562.083 299.019 562.547 300.495 562.405 302.591C562.404 304.563 562.265 306.28 561.803 307.989C561.586 308.71 561.322 309.38 561.047 310.081C561.032 310.123 561.028 310.169 561.035 310.214C561.043 310.259 561.061 310.301 561.088 310.337C561.119 310.365 561.156 310.387 561.196 310.401C561.235 310.414 561.278 310.42 561.32 310.417C559.643 311.426 557.979 312.453 556.326 313.5C556.69 312.921 556.999 312.309 557.25 311.674C558.351 309.148 558.688 306.392 559.043 303.677C559.507 300.273 559.602 296.811 558.942 293.468C558.45 290.668 557.486 288.016 556.846 285.268C556.145 282.045 555.792 278.756 555.796 275.457C555.803 275.278 555.821 275.099 555.851 274.922C555.953 274.439 556.045 273.986 556.108 273.523C555.378 272.821 555.06 273.645 554.929 275.053C554.273 278.356 553.044 282.188 552.715 285.673C552.346 290.771 552.932 295.922 554.024 300.833C554.613 303.633 555.971 306.179 556.017 308.86C556.047 310.462 555.619 311.698 555.11 313.356C555.065 313.582 554.842 313.851 555.02 314.086L555.078 314.106C555.052 314.168 555.039 314.235 555.043 314.302C547.505 319.203 540.289 324.769 533.902 331.314C533.114 332.183 532.287 333.074 531.547 333.994C531.39 334.355 531.824 334.505 532.102 334.359C533.045 333.509 533.792 332.383 534.717 331.492C541.928 324.159 550.107 318.061 558.89 312.657C561.69 314.975 563.793 318.091 566.492 320.513C571.733 325.06 578.752 326.347 584.896 329.131C585.516 329.311 586.502 329.929 586.947 329.114C586.965 329.06 586.966 329.001 586.95 328.947C586.934 328.892 586.902 328.843 586.858 328.807C586.466 328.533 586.042 328.351 585.629 328.139C583.185 326.947 581.377 325.422 579.407 323.425C578.716 322.701 578.014 322.009 577.302 321.347C578.307 322.006 579.363 322.614 580.418 323.221C583.676 325.248 587.726 326.581 591.055 327.559C594.373 328.827 597.436 330.684 600.095 333.041C600.708 333.426 601.272 334.141 601.992 334.217C603.133 333.92 602.153 333.096 601.727 332.637C598.17 329.226 595.097 325.256 591.195 322.278C588.93 320.664 586.787 319.542 584.76 317.802C582.564 316.177 580.694 314.077 578.376 312.617C575.394 310.824 571.881 310.473 568.973 309.121C568.136 308.727 567.515 308.27 566.895 307.813C569.08 306.562 571.244 305.373 573.484 304.245L575.053 305.619C577.907 308.44 581.216 310.693 584.64 312.709C587.307 314.289 590.266 315.209 592.789 317.016C598.308 320.761 602.824 327.03 608.695 330.792C610.178 331.755 611.591 332.832 613.096 333.734C613.713 334.016 614.58 334.697 615.177 334.004C615.417 333.499 614.772 333.206 614.517 332.91C613.663 332.096 612.78 331.271 612.027 330.353C608.159 325.588 604.664 320.399 599.889 316.567C594.834 312.326 589.516 308.374 583.578 305.558C581.384 304.487 579.168 303.201 576.661 303.13C576.375 303.132 576.088 303.113 575.804 303.075C577.915 302.041 580.091 301.098 582.314 300.206C582.996 299.924 583.668 299.671 584.35 299.388C585.611 300.621 586.397 302.381 587.889 303.416C592.844 307.103 598.333 309.903 604.09 311.929C613.138 315.233 622.03 319.453 631.759 320.224C632.559 320.258 633.388 320.58 634.187 320.337C635.311 319.619 633.32 319.276 632.878 319.054C631.237 318.451 630.074 318.153 628.378 317.427C626.514 316.436 624.733 315.301 622.912 314.186C618.148 311.257 613.399 308.195 608.21 306.122C602.785 304.072 597.51 302.904 592.365 300.328C590.825 299.621 589.334 298.863 587.876 298.013C590.493 297.015 593.089 296.079 595.75 295.235C595.838 295.543 596.349 295.754 596.557 295.999C598.413 297.575 600.699 298.47 602.792 299.645C606.071 301.61 609.164 303.926 612.619 305.572C618.008 307.817 623.233 309.694 629.043 310.909C632.689 311.721 636.404 312.522 640.183 312.48C640.81 312.733 643.677 312.514 642.681 311.546ZM565.039 309.144C565.057 309.185 565.086 309.195 565.104 309.236C565.123 309.277 565.629 309.971 565.45 309.736C566.356 311.434 567.6 312.903 568.866 314.31C569.091 314.595 569.327 314.85 569.564 315.105C567.364 313.7 564.948 312.665 562.413 312.042C561.852 311.882 561.406 311.763 560.971 311.612C562.305 310.759 563.657 309.946 565.039 309.144Z" fill="url(#paint8_linear_1181_481)"/>
<path d="M605.642 230.649C602.068 233.258 598.803 235.56 595.15 237.798C590.479 240.757 585.336 242.764 580.588 245.546C575.972 248.142 571.96 251.568 567.586 254.522C565.267 256.185 562.367 257.753 559.797 259.619C560.309 258.719 560.835 257.778 561.376 256.859C561.727 256.296 562.063 255.71 562.385 255.167C563.362 254.638 564.308 254.064 565.239 253.468C567.324 252.158 569.408 250.783 571.357 249.272C575.784 245.761 580.091 242.07 583.993 238.035C588.011 233.725 590.64 228.953 594.227 224.705C595.433 223.305 596.862 221.981 598.07 220.71C598.261 220.483 598.346 220.1 598.107 220C597.646 220.019 597.144 220.423 596.67 220.613C592.391 222.623 588.31 225.183 584.982 228.538C580.74 232.707 577.679 237.477 573.088 241.066C572.056 241.958 570.682 242.984 569.456 243.844C570.196 241.944 570.92 240.022 571.525 238.114C572.534 234.892 573.021 231.663 573.688 228.444C574.591 223.729 575.926 218.951 576.146 214.306C576.214 213.642 576.226 211.94 575.213 213.243C574.175 215.084 573.302 216.976 572.16 218.79C564.868 228.829 560.715 240.202 560.956 250.692C561.001 252.16 561.12 253.611 561.476 254.966C561.485 255.051 561.511 255.133 561.553 255.208C560.515 256.984 559.551 258.742 558.572 260.543C558.528 260.606 558.513 260.648 558.47 260.71C558.105 261.38 557.74 262.05 557.404 262.7C557.203 261.956 556.957 261.146 556.936 260.605C556.74 258.848 557.113 257.489 557.257 255.664C557.554 251.197 556.928 246.765 554.734 243.262C552.797 240.074 551.411 237.003 550.539 233.226C548.742 230.628 548.508 248.443 548.472 249.282C548.245 253.215 549.679 256.677 551.423 259.832C552.406 261.416 553.732 262.997 554.313 264.559C554.693 265.313 554.777 266.201 555.053 266.992C555.112 267.017 555.127 267.039 555.172 267.042C554.428 268.489 553.744 269.961 553.045 271.41C553.03 271.452 553 271.472 552.986 271.515C552.665 272.187 552.345 272.86 552.069 273.535C552.024 273.467 551.949 273.42 551.903 273.353C551.612 273.017 551.381 272.632 551.222 272.217C549.851 267.637 549.517 262.618 548.441 257.903C547.88 255.415 547.259 252.903 545.987 250.764C545.064 249.205 543.382 247.735 542.742 246.277C542.099 244.561 541.724 242.73 541.392 240.901C541.285 240.615 541.269 238.997 540.95 238.398C540.154 237.73 539.803 239.694 539.569 240.177C538.161 244.973 537.868 249.764 538.612 254.181C538.939 257.022 539.385 259.849 540.586 262.329C542.521 266.724 546.56 270.348 548.418 274.437C548.95 275.669 549.295 276.974 549.44 278.308C549.457 278.589 549.652 278.621 549.828 278.501C549.015 280.419 548.275 282.319 547.551 284.242C545.764 282.614 544.873 279.893 544.013 277.346C543.03 274.361 541.751 271.511 540.442 268.681C539.485 266.753 538.424 264.863 536.905 263.315C534.456 261.027 531.582 259.255 529.519 256.901C528.858 256.136 528.281 255.302 527.797 254.415C527.54 254.035 527.43 253.49 526.908 253.354C526.596 253.337 526.376 253.713 526.334 253.969C526.326 254.659 526.615 255.278 526.682 255.95C526.987 258.122 527.538 261.105 528.098 263.464C529.339 268.36 531.085 273.175 534.456 276.893C536.969 279.659 540.621 281.754 543.043 284.256C544.079 285.218 545.161 286.182 545.71 287.505C545.74 287.55 545.771 287.659 545.756 287.637C545.847 287.771 545.849 288.03 546.043 288.062C546.081 288.062 546.118 288.049 546.147 288.024C545.236 290.627 544.459 293.236 543.727 295.848C543.473 295.662 543.129 295.535 542.918 295.287C542.408 294.914 541.79 294.126 541.277 293.43C540.098 291.685 539.438 289.688 538.243 287.79C536.27 284.04 532.481 281.679 529.078 279.124C525.27 276.352 520.83 274.366 516.669 272.028C515.998 271.614 515.357 271.155 514.75 270.652L514.705 270.585C514.162 270.004 513.58 269.461 512.962 268.96C512.722 268.732 512.249 269.051 512.207 269.372C512.063 269.796 512.481 269.969 512.692 270.218C513.117 270.637 513.569 271.028 514.043 271.39C515.668 273.095 517.192 275.161 518.536 277.087C520.52 280.407 521.853 284.165 524.472 287.088C526.625 289.576 529.884 291.089 533.215 292.261C535.006 292.81 536.467 293.061 537.935 294.09C539.417 294.946 540.602 295.808 541.536 296.936C541.898 297.43 542.231 297.945 542.534 298.478C542.56 298.51 542.595 298.534 542.635 298.548C542.674 298.562 542.717 298.564 542.757 298.555C542.85 298.525 542.932 298.47 542.994 298.395C542.481 300.231 541.989 302.073 541.518 303.92C541.362 303.371 541.136 302.845 540.847 302.353C539.784 300.334 537.969 298.856 536.198 297.38C533.991 295.515 531.46 293.933 528.445 293.037C525.967 292.235 523.241 291.893 520.69 291.238C517.831 290.468 515.084 289.334 512.516 287.863C512.388 287.781 512.268 287.688 512.156 287.585C511.884 287.297 511.599 287.022 511.299 286.763C510.216 287.071 510.595 287.695 511.554 288.415C513.539 290.398 515.486 293.09 517.855 294.878C521.408 297.399 525.726 299.142 530.247 300.356C532.799 301.077 535.744 301.042 537.794 302.166C539.021 302.836 539.626 303.731 540.486 304.877C540.621 305.014 540.654 305.318 540.966 305.27L541.025 305.23C541.052 305.28 541.094 305.32 541.145 305.344C539.104 313.792 537.807 322.258 537.877 330.454C537.932 331.492 537.973 332.572 538.102 333.592C538.254 333.88 538.697 333.581 538.798 333.285C538.876 332.125 538.596 331.01 538.629 329.848C538.594 320.62 540.222 311.115 542.831 301.404C546.7 300.062 550.639 299.65 554.51 298.437C561.91 296.014 568.209 290.685 574.969 286.74C575.574 286.298 576.789 285.739 576.513 285.012C576.476 284.972 576.428 284.945 576.374 284.934C576.32 284.923 576.265 284.93 576.215 284.953C575.711 285.163 575.253 285.44 574.779 285.695C572.028 287.228 569.507 288.083 566.509 288.869C565.441 289.135 564.387 289.423 563.349 289.733C564.608 289.176 565.866 288.554 567.124 287.932C571.123 286.079 575.201 283.261 578.465 280.894C581.884 278.686 585.578 276.936 589.452 275.689C590.207 275.342 591.173 275.179 591.777 274.608C592.421 273.522 591.057 273.987 590.389 274.145C585.122 275.649 579.804 276.503 574.601 278.485C571.667 279.684 569.196 280.995 566.349 281.94C563.459 283.077 560.46 283.734 557.602 285.045C553.989 286.768 551.056 289.563 547.832 291.415C547.008 291.871 546.152 292.264 545.27 292.591C545.989 290.215 546.739 287.885 547.592 285.516L549.817 284.796C554.105 283.627 558.313 281.829 562.428 279.831C565.641 278.28 568.581 276.197 571.855 274.866C578.863 271.861 587.006 270.792 594.293 267.501C596.144 266.674 598.026 265.957 599.848 265.085C600.528 264.691 601.699 264.258 601.631 263.457C601.434 263.037 600.724 263.451 600.308 263.536C599.047 263.899 597.756 264.282 596.494 264.516C589.974 265.693 583.419 266.373 576.911 268.715C569.882 271.116 562.873 273.862 556.246 277.621C553.775 278.996 551.125 280.297 549.167 282.368C548.948 282.612 548.717 282.844 548.475 283.064C549.3 280.845 550.244 278.611 551.263 276.359C551.568 275.665 551.889 274.992 552.194 274.297C554.078 273.774 555.999 273.878 557.91 273.076C564.445 270.52 570.72 267.13 576.616 263.181C585.972 257.026 595.898 251.398 603.868 243.573C604.501 242.918 605.373 242.361 605.797 241.587C606.111 240.332 604.341 241.853 603.838 242.127C602.138 243.242 601.031 244.088 599.197 245.196C597.036 246.329 594.83 247.331 592.609 248.374C586.789 251.099 580.879 253.754 575.379 257.207C569.718 260.867 564.833 264.785 558.989 267.982C557.288 268.968 555.586 269.889 553.839 270.743C555.077 268.115 556.345 265.533 557.731 262.934C558.03 262.993 558.577 262.657 558.918 262.589C561.513 261.716 563.923 260.187 566.395 258.941C570.364 257.043 574.454 255.454 578.315 253.27C584.097 249.724 589.476 246.157 594.803 241.81C598.183 239.105 601.606 236.337 604.445 233.149C605.113 232.733 607.125 230.233 605.642 230.649ZM544.862 294.725C544.907 294.727 544.936 294.707 544.981 294.71C545.026 294.712 545.932 294.589 545.62 294.636C547.584 294.613 549.633 294.207 551.652 293.756C552.038 293.69 552.409 293.603 552.781 293.515C550.03 294.765 547.434 296.332 545.046 298.184C544.5 298.585 544.072 298.907 543.629 299.207C544 297.718 544.416 296.231 544.862 294.725Z" fill="url(#paint9_linear_1181_481)"/>
<path d="M387.594 313.552C387.025 310.997 388.035 308.064 389.903 306.304L390.458 305.837C390.005 305.523 389.484 305.203 389.11 304.759C388.42 304.013 388.13 302.993 388.114 301.995C388.138 301.26 388.417 300.556 388.904 300.004C389.323 299.525 389.903 299.164 390.416 298.796C391.236 298.043 392.305 297.587 393.347 297.848C393.866 296.212 395.255 295.233 397.56 295.57C399.357 295.829 401.128 297.183 401.099 299.103C401.178 300.173 400.663 301.365 401.001 302.218C401.389 303.281 402.878 303.925 403.436 302.635C403.902 301.61 403.483 300.51 402.705 299.585C401.143 297.802 398.95 296.17 399.731 293.492C401.019 289.313 407.994 288.441 409.901 292.587C409.987 292.756 410.052 292.935 410.095 293.119C410.132 293.088 410.132 293.088 410.2 293.094C410.19 292.739 410.233 292.384 410.326 292.041C410.57 291.204 410.975 290.484 411.04 289.734C411.136 289.021 410.905 288.521 410.469 288.003C409.648 287.177 408.177 286.329 407.923 284.899C407.803 284.305 407.936 283.562 408.443 283.263C408.912 282.994 409.73 283.065 409.844 283.727C409.883 284.074 409.618 284.36 409.333 284.473C409.191 284.529 408.924 284.437 408.942 284.233C408.985 284.134 409.127 284.077 409.164 284.046L409.238 283.984C409.447 283.556 409.124 283.322 408.723 283.596C408.118 284.23 408.452 285.529 409.242 286.318C409.678 286.836 410.497 287.285 410.989 287.945C411.357 288.458 411.644 289.101 411.554 289.745C411.478 290.631 410.875 291.643 410.779 292.355C410.769 292.55 410.741 292.742 410.695 292.931C411.046 292.796 411.411 292.701 411.784 292.648C413.474 292.554 415.249 293.463 416.079 294.977C416.537 295.744 416.859 296.585 417.031 297.462C417.897 297.365 418.881 297.107 419.792 297.289C419.86 297.295 419.959 297.338 420.027 297.343C419.909 297.127 419.821 296.948 419.703 296.732C417.264 291.2 415.962 285.218 413.418 279.712C413.162 279.106 412.868 278.531 412.581 277.888C412.506 277.951 412.395 278.044 412.39 278.112C411.785 278.746 411.2 279.554 410.348 279.892C409.91 280.046 409.441 280.084 408.985 280.002C408.529 279.92 408.102 279.722 407.745 279.426C407.298 279.044 407.029 278.575 406.656 278.131C406.158 277.539 405.444 277.065 404.755 276.697C403.731 276.23 402.528 275.852 401.929 274.839C401.474 274.147 401.235 273.337 401.096 272.57C398.981 273.21 396.665 273.388 394.852 272.132C394.71 272.189 394.53 272.276 394.525 272.344C393.674 272.892 392.772 273.353 391.83 273.723C388.48 275.149 384.739 273.556 383.851 269.943C383.806 269.665 383.73 269.349 383.686 269.071C382.076 269.035 381.364 267.737 380.912 266.222C380.71 265.381 380.75 264.527 380.585 263.654C380.521 263.202 380.395 262.676 380.275 262.082C379.201 262.985 377.977 264.835 376.418 263.808C374.007 261.917 373.792 258.054 375.578 255.669C375.214 255.556 374.844 255.466 374.468 255.401C374.133 255.303 372.92 255.439 372.282 255.28C370.826 255.052 370.998 253.453 371.595 252.509C372.612 250.71 374.164 249.273 376.036 248.397C376.141 248.372 376.215 248.31 376.32 248.284C376.233 248.105 376.151 247.858 376.095 247.716C375.968 247.192 376.016 246.642 376.23 246.148C377.482 243.579 381.176 244.139 383.766 244.741C383.648 244.042 383.684 243.325 383.874 242.641C384.064 241.957 384.402 241.324 384.864 240.786C386.374 239.2 388.864 237.802 390.962 238.945C391.833 238.402 392.928 238.429 393.896 238.753C394.652 238.992 395.363 239.356 396 239.827C396.13 239.907 396.224 240.018 396.354 240.098C395.828 238.645 395.369 237.198 394.806 235.777C394.664 235.759 394.535 235.686 394.446 235.574C393.915 234.567 393.282 234.34 392.364 233.849C390.713 233.088 389.399 232.803 387.527 232.229C385.685 231.692 383.887 231.056 382.094 230.351C381.373 231.147 380.571 231.696 379.861 232.355C379.257 232.989 379.044 233.863 378.695 234.726C378.143 235.948 377.35 237.183 376.101 237.728C375.21 238.128 374.219 238.257 373.254 238.099C373.186 238.093 373.155 238.056 373.118 238.087C373.11 238.161 373.08 238.23 373.032 238.286C372.492 239.372 371.748 240.441 370.641 240.928C369.671 241.427 368.092 241.428 367.288 241.599C365.957 241.896 365.095 242.748 363.716 243.212C362.51 243.657 361.073 243.601 359.968 242.888C358.956 242.285 358.418 240.968 358.79 239.834C358.939 239.407 359.159 239.008 359.442 238.655C359.05 238.362 358.687 238.032 358.36 237.668C357.383 236.657 357.167 235.197 358.09 234.041C358.472 233.593 359.188 232.866 359.359 232.469C360.073 231.364 359.609 229.984 359.863 228.634C360.306 226.681 361.811 225.164 363.597 224.357C362.848 223.091 363.456 221.633 364.069 220.485C364.413 219.691 364.378 218.898 364.003 218.076C363.56 217.249 363.204 216.6 363.777 215.929C363.516 215.769 363.293 215.578 363.001 215.381C362.094 214.753 361.482 213.499 361.917 212.438C362.18 211.774 362.736 211.308 363.223 210.835C363.789 210.182 364.197 209.406 364.414 208.569C364.627 207.695 364.747 206.71 365.437 205.878C367.181 203.969 370.85 203.222 372.649 205.438C373.483 206.505 373.435 208.252 374.743 208.605C374.882 208.628 375.024 208.617 375.158 208.572C374.112 207.178 373.541 205.446 372.106 204.567C371.032 203.89 369.549 203.178 368.695 201.937C368.246 201.178 368.031 200.095 368.48 199.276C368.879 198.624 369.627 198.311 370.313 197.924L370.424 197.831C370.025 197.428 369.625 197.028 369.224 196.628L369.187 196.659C368.852 196.893 368.441 196.989 368.037 196.929C367.634 196.868 367.269 196.656 367.018 196.334C366.707 195.964 366.551 195.779 366.228 195.546C366.153 195.484 366.058 195.452 365.961 195.454C365.484 195.412 365.095 195.55 364.513 195.534C362.767 195.486 362.375 193.667 363.075 192.321C363.321 191.861 363.691 191.55 364.092 191.276C363.812 190.943 363.495 190.641 363.215 190.307C363.141 190.37 362.999 190.426 362.925 190.488C362.048 191.099 361.768 192.345 361.526 193.56C361.289 194.706 360.632 195.954 359.433 196.33C357.806 196.876 356.026 196.036 355.004 194.746C354.326 193.863 353.931 192.868 352.944 192.37C352.622 192.137 351.549 191.838 351.027 191.518C350.431 191.185 349.977 190.645 349.751 190C349.635 189.677 349.583 189.335 349.598 188.992L349.524 189.054C349.048 189.595 348.73 190.256 348.604 190.965C348.502 191.746 348.846 192.531 349.176 193.074C349.744 194.05 350.933 195.389 350.083 196.482C349.621 197.06 348.871 196.995 348.215 197.041C348.178 197.072 348.215 197.041 348.283 197.047C347.497 197.013 346.836 197.506 346.753 198.082C346.674 198.59 347.325 198.612 347.8 198.275L347.948 198.151C348.047 198.194 347.744 198.133 347.713 198.096C347.52 197.942 347.742 197.756 347.946 197.773C348.256 197.766 348.684 197.974 348.481 198.334C348.242 198.726 347.747 198.889 347.332 198.921C346.02 199.014 345.916 197.838 346.835 197.128C347.539 196.536 348.722 196.742 349.211 196.647C350.163 196.352 349.892 195.127 349.406 194.398C348.583 193.194 347.648 191.706 348.291 190.217C348.549 189.621 348.849 188.926 349.461 188.602C349.447 188.58 349.427 188.561 349.405 188.547C349.382 188.533 349.357 188.525 349.331 188.522C348.877 188.208 348.685 188.054 348.219 187.876C347.196 187.41 345.41 188.217 343.786 187.939C342.12 187.76 340.583 186.083 341.04 184.371C341.376 183.267 342.338 182.458 343.345 181.927C342.084 181.029 340.4 181.055 339.063 179.841C338.118 178.866 339.812 178.326 340.492 178.008C341.03 177.745 342.16 176.985 343.051 176.993C343.157 176.968 343.256 177.011 343.361 176.986L343.33 176.949C343.26 176.565 343.233 176.082 343.504 175.728C344.631 174.212 348.596 174.796 350.373 176.082L350.342 176.046C349.84 175.11 349.69 174.025 349.92 172.988C350.285 171.999 350.961 171.155 351.846 170.582C352.731 170.009 353.777 169.738 354.829 169.809L354.897 169.815C354.552 169.541 354.222 169.249 353.909 168.94C353.374 168.462 352.789 168.043 352.163 167.69C350.034 166.511 347.5 166.051 345.573 164.511C345.126 164.129 344.509 163.321 345.071 162.786C345.546 162.449 346.184 162.608 346.73 162.655C347.845 162.854 349.183 162.867 350.209 162.51C351.44 162.17 352.632 161.484 353.958 161.633C354.097 161.516 354.214 161.375 354.303 161.216C355.645 159.582 357.893 159.399 359.892 159.297C361.273 159.211 362.399 158.897 363.48 158.303C365.821 157.03 368.004 154.816 370.821 154.785C371.449 154.784 372.067 154.937 372.622 155.231C373.177 155.524 373.652 155.949 374.005 156.468C374.859 157.709 374.594 159.574 373.073 160.095C371.243 160.623 370.347 158.28 368.834 157.909C368.667 157.86 368.159 157.781 367.911 157.863C367.584 157.979 367.279 158.15 367.009 158.369C366.639 158.68 366.331 159.065 365.936 159.271C366.029 159.382 366.086 159.524 365.926 159.785C365.39 160.425 364.461 160.448 363.775 160.835C362.916 161.241 361.905 162.217 361.166 163.218C360.507 164.087 359.963 165.62 359.355 166.699C358.857 167.613 358.168 168.408 357.334 169.031C357.178 169.151 357.007 169.251 356.827 169.33C356.83 170.086 356.871 170.81 356.88 171.497C356.917 171.466 356.985 171.472 357.022 171.44C357.338 171.332 357.639 171.185 357.918 171.003C358.789 170.461 359.547 169.634 360.562 169.413C361.155 169.292 361.8 169.383 362.284 169.733C362.738 170.047 363.136 170.597 363.157 171.148C363.279 172.119 362.689 172.995 362.172 173.809C361.926 174.268 361.749 174.733 361.824 175.049C361.923 175.298 362.115 175.499 362.359 175.61C362.762 175.713 363.22 175.581 363.882 175.467C364.018 175.437 364.158 175.425 364.297 175.434L364.32 175.162C364.376 173.725 365.43 172.649 366.867 172.705C369.864 172.587 372.058 177.376 368.228 178.006C367.671 178.095 367.046 178.178 366.5 178.131C366.557 178.498 366.594 178.868 366.611 179.239C366.817 179.346 367.003 179.49 367.157 179.664C367.661 180.188 367.701 180.912 367.642 181.594C367.559 182.572 367.099 183.48 366.359 184.125C365.507 184.841 364.51 184.858 363.895 185.628C363.63 185.914 363.546 186.49 363.615 186.874C363.741 187.4 363.967 187.969 363.988 188.519C364.014 188.875 363.972 189.233 363.862 189.573L364.796 190.683L364.907 190.59C365.618 190.113 366.304 189.6 366.962 189.052C368.269 187.826 369.1 186.559 369.824 184.94C369.995 184.543 370.167 184.146 370.302 183.78C368.884 181.117 371.568 180.251 371.42 177.595C371.394 177.036 371.328 176.48 371.221 175.93C370.821 175.405 370.578 174.777 370.52 174.119C370.485 173.326 370.686 172.588 370.436 171.915C370.222 171.21 369.798 170.555 369.863 169.806C369.89 168.71 371.17 168.58 372.002 168.892C373.608 169.375 374.913 170.552 375.792 171.898C376.366 172.806 376.76 173.801 376.839 174.872C376.833 174.94 376.864 174.977 376.827 175.008C377.22 174.932 377.601 174.804 377.959 174.626C378.027 174.631 378.651 174.17 378.96 174.163C379.432 174.117 379.905 174.23 380.305 174.485C381.299 175.292 381.596 176.622 382.115 177.766C382.984 179.626 383.841 181.622 383.553 183.76C383.535 183.964 383.486 184.132 383.468 184.336C384.007 184.308 384.547 184.366 385.067 184.509C385.799 184.778 386.525 185.115 387.023 185.708C387.23 186.048 387.345 186.436 387.359 186.834C387.373 187.232 387.284 187.627 387.1 187.98C386.566 188.998 385.707 189.404 385.023 190.169C384.123 191.052 384.161 192.6 383.373 193.768C382.82 194.612 382.135 195.377 381.265 195.919C381.19 195.982 381.048 196.038 380.974 196.1C381.036 196.174 381.062 196.279 381.124 196.353C381.293 196.78 381.487 197.312 381.655 197.36C382.225 197.513 383.176 196.84 384.124 196.991C385.611 197.257 386.763 198.626 386.837 200.143C386.824 201.481 385.932 202.674 385.372 203.586C385.196 203.852 385.056 204.14 384.955 204.443C386.945 204.855 388.793 205.702 390.323 207.07C391.274 207.976 392.344 209.098 392.393 210.51C392.301 211.978 390.725 212.734 390.005 213.907C389.686 214.429 389.572 215.346 389.754 216.014C390.009 217.307 390.444 218.558 391.046 219.73C391.715 221.126 392.588 222.541 392.483 224.145C392.441 224.673 392.292 225.186 392.044 225.653C392.001 225.752 391.921 225.882 391.878 225.982C392.659 227.663 393.41 229.306 394.117 231.05C395.306 233.967 396.322 236.904 397.369 239.878C397.449 239.888 397.531 239.884 397.61 239.865C399.777 239.812 402.658 241.434 402.03 243.92C401.917 244.58 401.675 245.212 401.32 245.781C401.283 245.812 401.24 245.911 401.203 245.942C401.753 246.324 402.245 246.782 402.664 247.304C403.637 248.761 403.8 250.835 402.946 252.375C402.758 252.668 402.55 252.948 402.324 253.213L402.176 253.338C402.596 254.438 403.016 255.539 403.472 256.608C405.384 256.327 405.922 257.644 407.029 258.735C407.564 259.296 408.166 259.486 408.598 259.248C409.21 258.924 409.275 258.174 409.037 257.741C408.477 257.075 407.225 256.863 406.301 256.44C405.538 256.134 404.799 255.555 404.455 254.77C404.122 253.852 404.077 252.854 404.325 251.91C404.568 250.695 406.06 247.735 407.584 247.97C407.721 247.409 408.015 246.898 408.432 246.498C409.776 245.241 411.978 244.78 413.611 245.745C414.071 245.991 414.524 246.304 414.798 246.706C415.1 247.224 415.284 247.803 415.338 248.4C415.374 248.5 415.377 248.608 415.346 248.71C415.563 248.701 415.78 248.708 415.996 248.732C416.975 248.919 418.285 249.65 418.986 249.883C419.822 250.127 420.74 250.241 421.448 250.782C423.181 252.168 423.296 254.409 422.277 256.278C422.111 256.607 421.914 256.898 421.754 257.159C422.908 257.705 424.025 258.283 425.179 258.829C427.408 260.051 428.535 261.694 427.609 263.673C429.485 265.002 430.803 267.622 429.586 269.783C428.399 271.602 425.949 272.145 424.661 273.544C424.094 274.147 423.558 274.787 422.841 275.137C422.247 275.379 421.602 275.465 420.966 275.387C420.892 275.449 420.812 275.579 420.738 275.642C420.034 276.233 419.043 276.181 418.206 275.937C416.929 275.621 416.05 274.275 415.032 273.74C414.735 273.612 414.283 273.675 413.993 273.856C413.418 274.15 412.869 274.549 412.238 274.7C413.025 276.313 413.807 277.994 414.52 279.669C417.033 285.138 418.266 291.114 420.779 296.584C421.58 298.438 422.745 300.049 424.034 301.809C424.112 301.301 424.259 300.798 424.604 300.382C425.294 299.549 426.164 299.007 426.619 298.119C427.27 296.94 427.158 295.454 428.008 294.361C429.474 292.497 432.424 292.924 433.972 294.465C434.836 295.192 435.1 296.107 435.154 297.073C436.796 295.945 438.5 294.891 440.475 294.685C442.14 294.485 444.248 295.114 444.93 296.752C445.19 298.113 444.229 299.3 443.683 300.454C443.277 301.174 443.076 301.912 442.905 302.687L442.974 302.693C444.405 302.817 445.873 302.909 447.321 302.829C448.764 302.816 450.409 302.444 451.75 303.212C452.669 303.704 453.157 304.81 452.696 305.766C451.684 307.943 448.771 308.687 446.535 308.733C444.133 308.731 442.25 308.671 440.356 310.326C439.758 310.892 438.834 312.048 438.051 312.77C437.114 313.684 436.077 314.556 434.86 315.137C434.731 315.173 434.61 315.233 434.501 315.312C436.238 317.453 437.969 319.662 439.558 321.928C439.77 322.255 440.05 322.588 440.225 322.947C440.276 323.157 440.022 323.307 439.812 323.357C439.187 323.44 438.968 322.804 438.693 322.402C437.933 321.272 437.068 320.168 436.233 319.1C433.456 315.496 430.525 312.084 427.784 308.449C425.423 305.189 422.778 302.043 420.744 298.571C420.269 298.908 419.737 299.102 419.293 299.475C418.633 299.967 417.777 301.129 417.762 302.089C417.57 303.514 417.955 305.024 418.547 306.105C419.146 307.117 419.854 307.659 420.888 307.612C421.093 307.63 421.568 307.293 421.418 307.04C421.263 306.855 421.163 306.812 420.854 306.82C420.681 306.839 420.531 306.586 420.71 306.498C420.889 306.411 421.057 306.46 421.23 306.44C422.005 306.61 422.318 307.359 421.527 307.771C420.841 308.158 419.936 307.908 419.278 307.576C417.886 306.598 417.284 304.829 417.184 303.208C417.095 302.445 417.211 301.672 417.519 300.969C417.827 300.266 418.317 299.657 418.938 299.206C419.376 298.901 419.809 298.664 420.278 298.395C419.367 298.213 418.378 298.54 417.239 298.613C416.997 298.626 416.762 298.571 416.521 298.585L416.583 298.659C416.707 298.807 417.1 299.424 417.17 299.808C417.748 301.849 415.423 302.54 413.838 302.609C412.179 302.74 410.653 302.127 409.299 302.697C408.783 302.872 408.305 303.146 407.891 303.502C408.381 303.784 408.909 304.036 409.399 304.319C410.976 305.142 412.54 306.101 413.433 307.688C414.512 309.498 415.078 311.675 414.524 313.721C414.233 315.103 413.421 316.544 412 317.107C410.874 317.421 410.117 317.047 409.6 316.281C409.901 318.745 409.443 321.657 407.68 323.392C406.404 324.655 404.421 325.753 402.641 324.913C401.82 324.542 401.131 323.932 400.664 323.162C400.127 322.224 399.962 321.351 399.161 320.698C398.577 320.304 397.989 320.357 397.289 320.124C396.86 319.953 396.476 319.687 396.167 319.345C395.857 319.002 395.63 318.594 395.503 318.15C395.402 317.73 395.332 317.346 395.268 316.894C394.742 317.021 394.18 317.178 393.518 317.292C392.187 317.589 391.186 316.472 390.106 315.864C389.459 315.396 387.934 314.783 387.594 313.552ZM375.76 228.979L375.834 228.917C376.007 228.898 376.124 228.736 376.21 228.538C376.496 228.041 376.705 227.503 376.829 226.944C377.023 225.896 376.918 224.72 376.308 223.844C375.697 222.967 374.755 222.748 373.816 223.285C373.167 223.64 371.974 223.949 372.164 224.926C372.683 226.07 373.93 226.727 374.597 227.746C374.798 227.981 374.971 228.237 375.114 228.511C375.295 228.802 375.402 229.155 375.76 228.979H375.76ZM373.924 198.236C374.324 197.584 375.368 197.023 375.769 196.748C376.219 196.307 376.533 195.853 376.68 195.351C375.183 194.397 373.151 194.085 371.758 194.307C370.991 194.447 370.554 195.13 370.124 195.745C371.231 196.836 372.332 197.995 373.402 199.118C373.529 198.798 373.705 198.501 373.924 198.236H373.924ZM369.722 198.799C368.555 199.591 368.91 201.441 370.028 202.396C370.942 203.333 372.679 203.895 373.712 205.049C374.371 205.758 374.709 206.611 375.258 207.414C375.376 207.63 375.656 207.963 375.806 208.216C375.945 208.111 376.06 207.978 376.144 207.826C376.229 207.674 376.28 207.505 376.295 207.332C376.31 207.158 376.288 206.984 376.231 206.819C376.175 206.655 376.084 206.504 375.965 206.377C375.811 206.18 375.613 206.022 375.387 205.915C375.509 206.131 375.582 206.372 375.601 206.62C375.637 206.719 375.64 206.828 375.608 206.929C375.492 207.091 375.083 207.055 375.1 206.851C375.048 206.263 374.698 205.546 374.126 205.016C373.448 204.133 371.136 203.487 371.45 201.832C371.577 201.157 371.965 200.641 372.446 200.237L372.742 199.988C372.145 199.352 371.548 198.717 370.982 198.119C370.587 198.325 370.093 198.488 369.722 198.799L369.722 198.799ZM351.46 177.001C351.905 178.206 351.763 179.842 352.775 180.444C353.073 180.573 353.128 180.338 353.038 179.781C352.992 179.124 352.611 178.37 352.113 177.778C351.933 177.488 351.678 177.26 351.46 177.001ZM376.919 184.662C376.615 184.602 376.095 184.66 376.06 185.068C376.007 185.682 376.022 186.301 376.284 186.838C376.403 187.055 376.478 187.37 376.757 187.326L376.794 187.294C376.819 187.4 376.986 187.448 377.091 187.423C377.333 187.41 377.388 187.174 377.437 187.007C377.62 186.473 377.815 185.804 377.553 185.266C377.526 185.111 377.449 184.968 377.335 184.86C377.221 184.751 377.075 184.682 376.919 184.662ZM387.164 249.91C387.434 250.757 388.331 251.899 389.148 251.969C390.089 251.81 389.543 250.184 388.927 249.376C388.534 248.758 387.627 248.13 386.975 247.731C386.978 248.486 386.982 249.242 387.164 249.91ZM401.349 253.78C400.589 254.23 399.649 254.388 398.794 254.349C398.849 255.692 398.836 257.03 398.216 258.246C397.405 259.687 395.663 260.771 394.399 259.118C394.212 258.895 394.063 258.642 393.907 258.457C393.208 258.603 392.49 258.575 391.958 258.769C390.734 259.418 391.002 261.089 392.298 261.579C393.228 261.934 394.239 262.159 394.961 262.942C395.396 263.46 395.721 264.072 396.194 264.559L396.349 264.744L396.355 264.676C396.315 263.952 395.747 262.976 395.824 262.09C396.057 260.188 397.879 258.973 399.423 258.179C400.283 257.773 400.861 257.034 401.782 256.702C401.993 256.651 402.24 256.57 402.45 256.519C402.056 255.524 401.687 254.634 401.349 253.78ZM430.785 310.665C431.041 310.957 431.278 311.264 431.495 311.585L431.632 311.597C432.003 311.663 432.344 311.693 432.554 311.642C433.006 311.579 433.729 311.161 433.764 310.752C433.847 309.798 432.65 309.351 431.758 309.342C431.554 309.325 430.88 309.575 430.663 309.694C430.521 309.75 430.41 309.844 430.23 309.931C430.397 310.189 430.582 310.435 430.785 310.666V310.665Z" fill="url(#paint10_linear_1181_481)"/>
<path fill-rule="evenodd" clip-rule="evenodd" d="M472.684 103.393C472.873 103.101 473.267 102.754 473.713 102.388C475.033 101.314 476.918 100.173 477.098 100.051C479.96 98.1636 482.968 96.4319 485.856 94.5657C487.107 93.7522 488.341 92.9145 489.533 92.0264C489.918 91.7331 492.489 89.9813 493.046 88.7306C493.185 88.4371 493.224 88.1063 493.158 87.7886C493.111 87.6184 493.029 87.4601 492.917 87.324C492.804 87.1878 492.665 87.077 492.506 86.9988C491.907 86.6722 491.075 86.5769 490.167 86.6464C488.461 86.7759 486.439 87.462 485.402 87.7405C481.96 88.6803 478.57 89.8025 475.247 91.1022C471.905 92.392 468.631 93.8135 465.409 95.2719C456.239 99.427 447.206 103.909 438.465 108.779C429.604 113.719 421.043 119.06 412.962 124.872C409.268 127.523 405.197 130.354 401.692 133.543C399.224 135.792 397.039 138.221 395.453 140.883C395.396 140.98 395.358 141.087 395.343 141.199C395.327 141.31 395.333 141.423 395.361 141.532C395.389 141.641 395.438 141.744 395.505 141.834C395.573 141.924 395.657 141.999 395.754 142.057C395.851 142.114 395.958 142.152 396.069 142.168C396.181 142.183 396.294 142.177 396.403 142.149C396.512 142.121 396.614 142.072 396.704 142.005C396.794 141.937 396.87 141.853 396.927 141.756C398.418 139.222 400.483 136.913 402.815 134.766C406.251 131.6 410.254 128.788 413.879 126.151C421.891 120.33 430.375 114.974 439.16 110.018C447.841 105.123 456.822 100.62 465.94 96.4378C469.128 94.9777 472.376 93.5529 475.693 92.2598C478.973 90.9642 482.32 89.844 485.719 88.9039C486.585 88.6698 488.153 88.1304 489.627 87.9081C490.518 87.7728 491.367 87.7314 491.932 88.0402C492.095 88.1274 491.967 88.2678 491.864 88.4288C491.626 88.779 491.344 89.0968 491.024 89.3744C490.15 90.1811 489.061 90.9119 488.83 91.0884C487.664 91.9632 486.448 92.7892 485.222 93.5907C482.334 95.465 479.335 97.202 476.472 99.0963C476.232 99.2545 473.301 101.046 472.102 102.309C471.857 102.55 471.662 102.837 471.528 103.152C471.348 103.652 471.476 104.042 471.93 104.298C472.805 104.779 474.347 104.784 476.121 104.486C479.343 103.941 483.38 102.483 484.879 102.096C491.907 100.291 498.934 98.4753 506.047 96.9381C510.752 95.9192 515.499 95.0238 520.298 94.33C537.189 91.9002 555.357 91.3002 573.294 92.7668C591.299 94.24 609.073 97.7965 625.064 103.649C625.17 103.688 625.282 103.705 625.395 103.7C625.507 103.694 625.617 103.667 625.719 103.619C625.821 103.572 625.913 103.504 625.988 103.421C626.064 103.338 626.123 103.241 626.161 103.135C626.199 103.029 626.216 102.917 626.211 102.804C626.206 102.692 626.179 102.582 626.131 102.48C626.083 102.378 626.016 102.287 625.933 102.211C625.85 102.135 625.753 102.076 625.647 102.038C609.501 96.2244 591.565 92.7387 573.405 91.3386C555.366 89.9492 537.095 90.6161 520.118 93.1284C515.302 93.8399 510.529 94.7568 505.79 95.7918C498.677 97.3484 491.632 99.1747 484.597 100.994C483.114 101.379 479.12 102.828 475.932 103.366C474.595 103.59 473.421 103.682 472.684 103.393ZM660.929 315.376C666.036 314.564 671.264 312.87 676.106 310.44C680.948 308.006 685.404 304.835 688.917 300.994C692.242 297.434 694.65 292.954 697.752 289.143C699.046 287.549 700.469 286.08 702.14 284.849C703.811 283.614 705.671 282.792 707.625 282.232C709.596 281.664 711.67 281.37 713.735 281.198C713.961 281.175 714.168 281.064 714.312 280.889C714.456 280.714 714.524 280.489 714.503 280.263C714.481 280.038 714.371 279.83 714.197 279.685C714.023 279.541 713.798 279.471 713.572 279.491C711.404 279.725 709.236 280.093 707.171 280.739C705.071 281.397 703.074 282.339 701.283 283.72C699.552 285.053 698.087 286.635 696.741 288.336C693.716 292.174 691.36 296.646 688.086 300.222C684.624 303.912 680.261 306.964 675.514 309.242C670.828 311.48 665.824 312.977 660.679 313.679C660.566 313.693 660.456 313.729 660.357 313.786C660.258 313.843 660.171 313.919 660.102 314.01C660.033 314.101 659.982 314.204 659.954 314.315C659.925 314.426 659.919 314.541 659.936 314.654C659.952 314.767 659.991 314.876 660.05 314.973C660.109 315.071 660.188 315.156 660.28 315.223C660.372 315.29 660.477 315.338 660.589 315.364C660.7 315.39 660.815 315.394 660.928 315.375L660.929 315.376Z" fill="#E3DBF9"/>
<path fill-rule="evenodd" clip-rule="evenodd" d="M520.346 240.203C528.946 261.68 558.465 295.802 584.986 295.798C623.295 295.8 664.303 195.478 664.303 195.478C679.787 184.934 670.309 170.294 663.312 158.02L652.653 184.33C652.653 184.33 606.539 248.825 586.664 245.92C566.786 243.02 544.445 167.875 533.392 166.921C522.34 165.967 511.748 218.721 520.346 240.203Z" fill="#FB9C9A"/>
<mask id="mask0_1181_481" style="mask-type:luminance" maskUnits="userSpaceOnUse" x="517" y="158" width="156" height="138">
<path d="M520.346 240.203C528.946 261.68 558.465 295.802 584.986 295.798C623.295 295.8 664.303 195.478 664.303 195.478C679.787 184.934 670.309 170.294 663.312 158.02L652.653 184.33C652.653 184.33 606.539 248.825 586.664 245.92C566.786 243.02 544.445 167.875 533.392 166.921C522.34 165.967 511.748 218.721 520.346 240.203Z" fill="white"/>
</mask>
<g mask="url(#mask0_1181_481)">
<path fill-rule="evenodd" clip-rule="evenodd" d="M632.343 186.905C612.075 160.755 599.958 123.473 565.893 111.838C541.991 103.674 520.507 116.026 506.967 135.782C485.885 166.547 479.072 210.691 491.301 246.044C508.861 296.804 568.318 313.952 615.083 294.224C629.575 288.109 643.981 278.951 652.011 264.997C658.009 254.574 663.674 233.963 653.125 223.995C649.645 220.706 643.784 222.092 640.801 218.3C638.53 215.419 639.644 211.585 638.325 208.369C636.174 203.094 628.024 201.919 623.045 202.552L632.343 186.905Z" fill="url(#paint11_linear_1181_481)"/>
</g>
<path fill-rule="evenodd" clip-rule="evenodd" d="M516.916 267.552C529.184 252.635 547.885 188.508 538.321 170.513C528.758 152.517 478.051 133.33 459.537 159.577C443.266 182.64 455.154 242.02 464.718 260.016C472.964 275.541 505.75 281.131 516.916 267.552Z" fill="url(#paint12_linear_1181_481)"/>
<path fill-rule="evenodd" clip-rule="evenodd" d="M513.01 187.374C512.365 185.666 511.068 184.284 509.404 183.532C507.74 182.78 505.846 182.72 504.137 183.364L407.447 219.857C406.602 220.176 405.828 220.659 405.169 221.278C404.51 221.896 403.98 222.639 403.608 223.462C403.236 224.286 403.03 225.175 403.001 226.078C402.973 226.982 403.123 227.882 403.442 228.727L460.508 379.923C461.151 381.631 462.447 383.013 464.11 383.765C465.773 384.517 467.666 384.578 469.374 383.935L566.064 347.442C567.772 346.796 569.154 345.499 569.906 343.836C570.658 342.172 570.719 340.278 570.075 338.57L513.01 187.374Z" fill="white"/>
<path fill-rule="evenodd" clip-rule="evenodd" d="M440.036 234.805C439.867 234.358 439.527 233.996 439.092 233.799C438.656 233.602 438.16 233.586 437.713 233.755L421.077 240.034C420.63 240.203 420.268 240.542 420.071 240.978C419.874 241.414 419.858 241.91 420.027 242.357L420.027 242.358C420.196 242.805 420.536 243.167 420.972 243.364C421.407 243.561 421.903 243.577 422.35 243.408L438.986 237.129C439.434 236.96 439.795 236.621 439.992 236.185C440.189 235.75 440.205 235.254 440.036 234.807L440.036 234.805ZM437.422 227.879C437.253 227.432 436.913 227.07 436.477 226.873C436.042 226.676 435.546 226.66 435.099 226.829L418.462 233.108C418.015 233.277 417.654 233.616 417.457 234.052C417.26 234.488 417.244 234.983 417.413 235.431V235.432C417.582 235.879 417.921 236.241 418.357 236.438C418.792 236.635 419.288 236.65 419.736 236.482L436.372 230.203C436.819 230.034 437.181 229.695 437.378 229.259C437.575 228.824 437.591 228.328 437.422 227.881L437.422 227.879Z" fill="#E3E3FE"/>
<path fill-rule="evenodd" clip-rule="evenodd" d="M512.722 186.61C512.441 185.865 512.016 185.182 511.471 184.601C510.925 184.02 510.271 183.553 509.545 183.225C508.819 182.897 508.036 182.715 507.24 182.69C506.444 182.664 505.65 182.796 504.905 183.078L406.688 220.147C405.943 220.428 405.26 220.853 404.679 221.398C404.098 221.943 403.63 222.597 403.302 223.323C402.974 224.049 402.792 224.832 402.767 225.629C402.741 226.425 402.873 227.218 403.154 227.963V227.965C403.436 228.71 403.861 229.393 404.406 229.973C404.951 230.554 405.605 231.022 406.331 231.35C407.057 231.678 407.841 231.86 408.637 231.885C409.433 231.91 410.227 231.779 410.972 231.497L509.188 194.428C509.934 194.147 510.616 193.722 511.197 193.177C511.778 192.632 512.246 191.978 512.575 191.252C512.903 190.526 513.085 189.742 513.11 188.946C513.135 188.15 513.004 187.357 512.722 186.611V186.61Z" fill="white"/>
<path fill-rule="evenodd" clip-rule="evenodd" d="M486.833 274.086C486.77 274.092 486.707 274.078 486.653 274.045C486.599 274.012 486.558 273.962 486.536 273.903L474.601 242.283C474.078 240.897 473.025 239.776 471.676 239.166C470.326 238.556 468.789 238.507 467.403 239.03L467.398 239.031C466.712 239.29 466.084 239.682 465.549 240.184C465.014 240.685 464.583 241.288 464.281 241.956C463.98 242.625 463.812 243.346 463.79 244.079C463.767 244.812 463.889 245.542 464.148 246.228L476.179 278.105V278.106L476.175 278.108L475.651 278.305C475.506 278.361 475.346 278.361 475.201 278.305C475.057 278.25 474.938 278.142 474.868 278.004C473.381 275.115 465.835 260.429 461.998 252.965C461.703 252.392 461.298 251.882 460.807 251.464C460.315 251.047 459.746 250.731 459.132 250.534C458.519 250.336 457.872 250.262 457.229 250.315C456.587 250.367 455.961 250.546 455.387 250.841C455.383 250.842 455.383 250.842 455.383 250.843C454.809 251.138 454.299 251.542 453.881 252.034C453.464 252.526 453.148 253.095 452.95 253.71C452.753 254.324 452.679 254.971 452.731 255.614C452.784 256.257 452.963 256.883 453.258 257.457C455.795 262.393 459.997 270.568 463.262 276.921C466.399 283.028 469.186 289.309 471.61 295.732C471.61 295.732 467.061 291.098 463.499 287.468C462.39 286.34 460.878 285.698 459.295 285.683C457.712 285.669 456.189 286.284 455.059 287.392V287.393C454.501 287.941 454.057 288.595 453.753 289.315C453.448 290.036 453.29 290.81 453.286 291.592C453.282 292.375 453.434 293.15 453.731 293.874C454.029 294.597 454.466 295.255 455.019 295.808C459.009 299.806 465.179 305.979 470.579 311.39C473.905 314.719 478.12 317.018 482.72 318.01C487.319 319.003 492.108 318.647 496.51 316.985C509.268 312.17 515.706 297.926 510.892 285.171L508.823 279.689C508.823 279.689 506.753 258.317 505.798 248.447C505.672 247.151 505.036 245.957 504.03 245.129C503.024 244.301 501.73 243.907 500.434 244.033V244.032C499.137 244.158 497.943 244.793 497.114 245.799C496.286 246.805 495.89 248.098 496.015 249.395C496.732 256.765 498.001 269.871 498.001 269.871L497.903 269.908C497.802 269.919 497.701 269.894 497.617 269.838C497.533 269.781 497.473 269.696 497.446 269.598C496.707 266.765 492.573 250.935 490.34 242.384C489.96 240.931 489.019 239.688 487.723 238.928C486.427 238.169 484.883 237.955 483.429 238.333L483.425 238.335C482.705 238.523 482.029 238.851 481.436 239.3C480.843 239.749 480.345 240.31 479.969 240.952C479.593 241.594 479.347 242.304 479.246 243.041C479.144 243.778 479.189 244.527 479.377 245.247C481.907 254.932 486.9 274.062 486.9 274.062L486.833 274.086Z" fill="url(#paint13_linear_1181_481)"/>
<path fill-rule="evenodd" clip-rule="evenodd" d="M549.549 313.217L553.843 324.593C554.483 326.292 554.423 328.175 553.676 329.83C552.928 331.484 551.554 332.774 549.856 333.415L537.847 337.948L536.728 334.982L548.737 330.45C549.189 330.28 549.604 330.022 549.956 329.692C550.309 329.362 550.593 328.965 550.793 328.525C550.992 328.085 551.103 327.61 551.118 327.127C551.134 326.644 551.055 326.162 550.884 325.71L546.591 314.334L549.549 313.217ZM461.763 346.35L466.056 357.727C466.226 358.178 466.483 358.592 466.814 358.945C467.144 359.297 467.54 359.581 467.98 359.78C468.42 359.978 468.895 360.089 469.377 360.104C469.86 360.119 470.341 360.039 470.792 359.868L482.801 355.336L483.92 358.301L471.911 362.834C470.212 363.474 468.329 363.414 466.675 362.666C465.02 361.918 463.731 360.544 463.09 358.846L458.796 347.47L461.763 346.35ZM441.116 244.889L442.235 247.854L430.226 252.386C429.774 252.556 429.361 252.814 429.008 253.144C428.656 253.475 428.373 253.871 428.174 254.311C427.975 254.751 427.865 255.226 427.85 255.708C427.835 256.191 427.915 256.672 428.086 257.123L432.38 268.5L429.414 269.619L425.12 258.243C424.48 256.544 424.54 254.661 425.287 253.006C426.035 251.352 427.409 250.062 429.107 249.421L441.116 244.889ZM495.043 224.536L507.052 220.003C508.75 219.362 510.634 219.423 512.288 220.17C513.942 220.918 515.232 222.292 515.873 223.991L520.167 235.367L517.208 236.484L512.914 225.107C512.743 224.655 512.485 224.242 512.154 223.889C511.823 223.537 511.426 223.254 510.985 223.055C510.545 222.857 510.07 222.747 509.587 222.732C509.104 222.717 508.623 222.797 508.171 222.968L496.162 227.501L495.043 224.536Z" fill="#E3E3FE"/>
<path d="M469.972 334.461C470.549 334.243 471.078 334.279 471.56 334.569C472.133 334.91 472.633 335.647 473.061 336.778C473.487 337.907 473.591 338.794 473.389 339.435C473.223 339.962 472.848 340.336 472.272 340.553C472.005 340.663 471.715 340.708 471.427 340.683C471.139 340.659 470.861 340.566 470.616 340.413C470.086 340.103 469.613 339.373 469.18 338.228C468.756 337.105 468.646 336.223 468.848 335.582C469.021 335.052 469.396 334.679 469.972 334.461ZM470.33 335.409C470.193 335.46 470.078 335.557 470.005 335.683C469.927 335.862 469.902 336.059 469.934 336.251C469.969 336.576 470.115 337.09 470.38 337.79C470.644 338.49 470.86 338.958 471.028 339.193C471.203 339.426 471.353 339.569 471.497 339.614C471.632 339.661 471.78 339.658 471.914 339.605C472.048 339.555 472.161 339.459 472.232 339.334C472.316 339.157 472.341 338.958 472.302 338.765C472.275 338.441 472.123 337.932 471.858 337.232C471.594 336.532 471.378 336.064 471.21 335.828C471.041 335.593 470.885 335.452 470.748 335.403C470.612 335.356 470.464 335.358 470.33 335.409ZM474.605 332.712C475.182 332.495 475.711 332.531 476.193 332.82C476.766 333.162 477.266 333.898 477.693 335.03C478.119 336.158 478.231 337.043 478.029 337.683C477.856 338.214 477.481 338.588 476.905 338.805C476.637 338.914 476.348 338.958 476.06 338.934C475.772 338.91 475.494 338.818 475.249 338.665C474.726 338.352 474.245 337.625 473.813 336.48C473.389 335.357 473.279 334.475 473.488 333.832C473.654 333.304 474.029 332.93 474.605 332.712ZM474.963 333.661C474.827 333.71 474.715 333.806 474.645 333.932C474.561 334.11 474.533 334.309 474.567 334.503C474.602 334.827 474.755 335.339 475.02 336.039C475.284 336.739 475.5 337.206 475.668 337.442C475.836 337.678 475.992 337.818 476.13 337.865C476.266 337.911 476.413 337.907 476.547 337.856C476.681 337.805 476.793 337.71 476.865 337.586C476.949 337.408 476.976 337.208 476.943 337.014C476.909 336.692 476.763 336.181 476.499 335.48C476.235 334.78 476.018 334.313 475.85 334.077C475.675 333.844 475.526 333.7 475.381 333.654C475.245 333.606 475.097 333.608 474.963 333.661H474.963ZM482.492 336.58L481.353 337.01L479.726 332.7C479.452 333.254 479.058 333.74 478.574 334.125L478.182 333.087C478.488 332.826 478.746 332.513 478.945 332.164C479.182 331.799 479.308 331.373 479.307 330.937L480.231 330.589L482.492 336.58ZM486.673 335.002L485.527 335.434L483.901 331.124C483.626 331.678 483.233 332.165 482.748 332.549L482.357 331.511C482.662 331.25 482.92 330.938 483.12 330.589C483.357 330.224 483.482 329.797 483.482 329.362L484.412 329.011L486.673 335.002ZM490.848 333.426L489.702 333.859L488.075 329.549C487.8 330.103 487.407 330.589 486.923 330.974L486.531 329.936C486.838 329.673 487.098 329.36 487.301 329.011C487.533 328.645 487.656 328.22 487.656 327.786L488.586 327.435L490.848 333.426ZM492.226 326.062C492.803 325.844 493.332 325.88 493.814 326.169C494.387 326.511 494.887 327.247 495.315 328.379C495.741 329.508 495.852 330.392 495.65 331.033C495.477 331.563 495.102 331.937 494.526 332.155C494.258 332.264 493.969 332.308 493.681 332.283C493.393 332.259 493.115 332.167 492.87 332.015C492.347 331.702 491.867 330.974 491.434 329.829C491.01 328.706 490.9 327.824 491.109 327.181C491.275 326.653 491.65 326.279 492.226 326.062ZM492.584 327.01C492.449 327.06 492.337 327.156 492.266 327.281C492.181 327.458 492.156 327.657 492.195 327.849C492.223 328.177 492.376 328.688 492.641 329.388C492.905 330.088 493.121 330.556 493.289 330.791C493.458 331.027 493.614 331.167 493.751 331.215C493.886 331.261 494.034 331.258 494.168 331.206C494.305 331.156 494.42 331.059 494.493 330.933C494.571 330.754 494.596 330.557 494.564 330.364C494.529 330.042 494.384 329.53 494.12 328.83C493.855 328.13 493.639 327.663 493.471 327.427C493.303 327.191 493.146 327.05 493.002 327.004C492.867 326.955 492.718 326.957 492.584 327.01ZM496.866 324.311C497.443 324.093 497.972 324.129 498.454 324.418C499.027 324.76 499.52 325.499 499.948 326.63C500.373 327.759 500.485 328.644 500.283 329.284C500.117 329.812 499.742 330.186 499.166 330.403C498.898 330.513 498.609 330.557 498.321 330.533C498.033 330.509 497.755 330.416 497.51 330.263C496.98 329.952 496.506 329.223 496.074 328.077C495.65 326.954 495.539 326.072 495.742 325.432C495.915 324.902 496.283 324.531 496.866 324.311ZM497.224 325.259C497.087 325.31 496.972 325.407 496.899 325.533C496.82 325.711 496.796 325.909 496.828 326.101C496.863 326.426 497.009 326.94 497.273 327.64C497.538 328.34 497.754 328.807 497.922 329.043C498.09 329.279 498.246 329.419 498.39 329.464C498.526 329.511 498.674 329.507 498.807 329.455C498.942 329.405 499.055 329.309 499.125 329.184C499.21 329.007 499.235 328.807 499.196 328.615C499.169 328.291 499.016 327.782 498.752 327.081C498.488 326.381 498.272 325.914 498.103 325.678C497.935 325.442 497.779 325.301 497.641 325.253C497.506 325.205 497.358 325.208 497.224 325.259ZM501.499 322.562C502.075 322.345 502.605 322.38 503.087 322.67C503.66 323.011 504.16 323.748 504.587 324.879C505.013 326.008 505.125 326.893 504.922 327.533C504.75 328.063 504.375 328.437 503.798 328.655C503.531 328.765 503.242 328.809 502.954 328.785C502.666 328.761 502.388 328.668 502.143 328.515C501.62 328.202 501.139 327.475 500.707 326.33C500.283 325.206 500.172 324.325 500.382 323.681C500.548 323.154 500.922 322.78 501.499 322.562ZM501.857 323.51C501.721 323.559 501.608 323.656 501.539 323.782C501.454 323.959 501.427 324.159 501.46 324.353C501.496 324.677 501.642 325.191 501.906 325.891C502.171 326.591 502.387 327.059 502.562 327.292C502.73 327.528 502.886 327.668 503.023 327.716C503.159 327.761 503.307 327.758 503.441 327.707C503.575 327.656 503.687 327.56 503.759 327.436C503.843 327.258 503.87 327.059 503.837 326.865C503.802 326.543 503.657 326.031 503.393 325.331C503.128 324.631 502.912 324.164 502.737 323.931C502.569 323.695 502.419 323.551 502.275 323.505C502.139 323.456 501.991 323.458 501.857 323.51H501.857ZM509.386 326.429L508.247 326.859L506.62 322.55C506.345 323.104 505.952 323.59 505.468 323.974L505.076 322.937C505.382 322.675 505.64 322.363 505.839 322.014C506.073 321.648 506.199 321.222 506.201 320.787L507.125 320.438L509.386 326.429ZM513.56 324.854L512.421 325.284L510.794 320.974C510.52 321.528 510.126 322.015 509.642 322.399L509.251 321.361C509.556 321.1 509.814 320.788 510.013 320.439C510.25 320.073 510.376 319.647 510.375 319.212L511.299 318.863L513.56 324.854ZM517.741 323.276L516.595 323.708L514.969 319.399C514.694 319.953 514.3 320.439 513.816 320.823L513.425 319.786C513.73 319.524 513.988 319.212 514.187 318.863C514.424 318.498 514.55 318.072 514.549 317.636L515.48 317.285L517.741 323.276ZM521.916 321.7L520.77 322.133L519.143 317.823C518.869 318.377 518.475 318.864 517.991 319.248L517.599 318.21C517.907 317.948 518.167 317.635 518.369 317.285C518.601 316.919 518.725 316.494 518.724 316.06L519.654 315.709L521.916 321.7ZM523.294 314.336C523.878 314.116 524.4 314.154 524.882 314.444C525.455 314.785 525.956 315.522 526.383 316.653C526.809 317.782 526.92 318.666 526.718 319.307C526.545 319.837 526.177 320.209 525.594 320.429C525.327 320.538 525.037 320.582 524.749 320.558C524.461 320.533 524.184 320.441 523.938 320.289C523.415 319.976 522.935 319.249 522.502 318.103C522.079 316.98 521.968 316.098 522.177 315.455C522.343 314.928 522.718 314.554 523.294 314.336ZM523.652 315.284C523.518 315.334 523.405 315.431 523.334 315.556C523.249 315.732 523.224 315.932 523.263 316.124C523.291 316.451 523.445 316.962 523.709 317.662C523.973 318.362 524.189 318.83 524.357 319.066C524.526 319.301 524.682 319.442 524.819 319.489C524.955 319.535 525.102 319.532 525.236 319.48C525.373 319.429 525.488 319.333 525.561 319.207C525.639 319.028 525.664 318.83 525.632 318.638C525.598 318.316 525.452 317.804 525.188 317.104C524.924 316.404 524.708 315.936 524.539 315.701C524.371 315.465 524.215 315.324 524.07 315.278C523.935 315.229 523.786 315.232 523.652 315.284ZM527.934 312.585C528.511 312.367 529.04 312.403 529.522 312.693C530.095 313.034 530.595 313.771 531.023 314.902C531.448 316.031 531.553 316.918 531.351 317.559C531.185 318.086 530.81 318.46 530.234 318.677C529.966 318.787 529.677 318.832 529.389 318.807C529.101 318.783 528.823 318.69 528.578 318.537C528.048 318.227 527.574 317.497 527.142 316.352C526.718 315.229 526.608 314.347 526.81 313.706C526.983 313.176 527.358 312.803 527.934 312.585ZM528.292 313.533C528.155 313.584 528.04 313.681 527.967 313.807C527.888 313.986 527.864 314.183 527.896 314.375C527.931 314.7 528.077 315.214 528.342 315.914C528.606 316.614 528.822 317.081 528.99 317.317C529.159 317.553 529.315 317.693 529.458 317.738C529.594 317.785 529.742 317.782 529.876 317.729C530.01 317.679 530.123 317.583 530.194 317.458C530.278 317.281 530.303 317.082 530.264 316.889C530.237 316.565 530.084 316.056 529.82 315.356C529.556 314.655 529.34 314.188 529.172 313.952C529.003 313.717 528.847 313.575 528.709 313.527C528.574 313.48 528.426 313.482 528.292 313.533H528.292ZM532.567 310.836C533.143 310.619 533.673 310.655 534.155 310.944C534.728 311.286 535.228 312.022 535.655 313.153C536.081 314.282 536.193 315.167 535.99 315.807C535.818 316.338 535.443 316.712 534.867 316.929C534.599 317.039 534.31 317.084 534.022 317.059C533.734 317.035 533.456 316.942 533.211 316.789C532.688 316.476 532.207 315.749 531.775 314.604C531.351 313.481 531.24 312.599 531.45 311.955C531.616 311.428 531.99 311.054 532.567 310.836ZM532.925 311.784C532.789 311.834 532.676 311.93 532.607 312.056C532.522 312.234 532.495 312.433 532.529 312.627C532.564 312.952 532.71 313.465 532.974 314.165C533.239 314.866 533.462 315.33 533.63 315.566C533.798 315.802 533.954 315.942 534.091 315.99C534.227 316.037 534.375 316.034 534.508 315.981C534.644 315.932 534.757 315.836 534.826 315.71C534.911 315.532 534.938 315.333 534.904 315.139C534.87 314.817 534.725 314.305 534.46 313.605C534.196 312.905 533.98 312.437 533.805 312.204C533.636 311.969 533.48 311.827 533.343 311.779C533.207 311.73 533.059 311.732 532.925 311.784Z" fill="#20238C"/>
<path d="M476.875 349.746L475.729 350.178L474.103 345.868C473.828 346.422 473.434 346.909 472.95 347.293L472.559 346.255C472.864 345.994 473.122 345.682 473.321 345.333C473.558 344.967 473.684 344.541 473.683 344.106L474.614 343.754L476.875 349.746ZM481.05 348.17L479.904 348.603L478.277 344.293C478.003 344.845 477.612 345.33 477.132 345.715L476.74 344.678C477.044 344.415 477.302 344.103 477.503 343.755C477.738 343.39 477.861 342.965 477.858 342.53L478.788 342.179L481.05 348.17ZM485.224 346.595L484.078 347.027L482.451 342.717C482.178 343.269 481.787 343.755 481.306 344.14L480.914 343.102C481.218 342.84 481.476 342.528 481.677 342.18C481.911 341.813 482.037 341.388 482.039 340.953L482.963 340.604L485.224 346.595ZM486.609 339.228C487.186 339.01 487.715 339.046 488.197 339.335C488.764 339.679 489.264 340.416 489.691 341.547C490.117 342.676 490.229 343.561 490.026 344.201C489.86 344.729 489.486 345.103 488.909 345.32C488.64 345.429 488.35 345.474 488.061 345.45C487.772 345.426 487.493 345.335 487.246 345.182C486.723 344.869 486.25 344.14 485.817 342.994C485.393 341.871 485.283 340.989 485.485 340.349C485.651 339.822 486.026 339.448 486.609 339.228ZM486.967 340.176C486.83 340.227 486.715 340.323 486.642 340.45C486.557 340.626 486.532 340.826 486.571 341.018C486.606 341.343 486.753 341.856 487.017 342.556C487.281 343.257 487.497 343.724 487.665 343.96C487.834 344.195 487.99 344.336 488.127 344.384C488.265 344.429 488.415 344.425 488.551 344.372C488.685 344.321 488.797 344.225 488.869 344.101C488.947 343.922 488.972 343.725 488.939 343.532C488.905 343.21 488.76 342.699 488.495 341.999C488.231 341.298 488.015 340.831 487.847 340.595C487.678 340.36 487.522 340.219 487.385 340.17C487.249 340.124 487.102 340.126 486.967 340.176ZM491.242 337.479C491.819 337.261 492.348 337.297 492.83 337.587C493.403 337.928 493.903 338.665 494.331 339.796C494.757 340.925 494.868 341.81 494.659 342.453C494.493 342.98 494.118 343.354 493.542 343.571C493.274 343.681 492.985 343.726 492.697 343.702C492.409 343.677 492.131 343.585 491.886 343.431C491.363 343.118 490.882 342.391 490.45 341.246C490.026 340.123 489.916 339.241 490.118 338.6C490.291 338.07 490.666 337.697 491.242 337.479ZM491.6 338.427C491.465 338.476 491.352 338.573 491.282 338.699C491.198 338.876 491.17 339.076 491.204 339.269C491.239 339.594 491.385 340.108 491.65 340.808C491.914 341.508 492.13 341.976 492.298 342.211C492.474 342.444 492.623 342.587 492.767 342.632C492.902 342.679 493.05 342.676 493.184 342.623C493.319 342.574 493.432 342.478 493.502 342.352C493.586 342.175 493.611 341.976 493.572 341.783C493.545 341.459 493.399 340.947 493.135 340.247C492.871 339.547 492.648 339.082 492.48 338.846C492.311 338.61 492.155 338.469 492.017 338.421C491.882 338.373 491.734 338.376 491.6 338.427L491.6 338.427ZM495.874 335.73C496.451 335.513 496.98 335.549 497.462 335.838C498.036 336.18 498.536 336.916 498.963 338.047C499.389 339.176 499.501 340.061 499.298 340.701C499.125 341.232 498.751 341.606 498.174 341.823C497.907 341.932 497.617 341.976 497.329 341.952C497.041 341.928 496.764 341.836 496.518 341.683C495.995 341.37 495.515 340.643 495.083 339.498C494.659 338.375 494.548 337.493 494.757 336.85C494.924 336.322 495.298 335.948 495.874 335.73ZM496.232 336.679C496.097 336.729 495.985 336.825 495.914 336.95C495.829 337.127 495.804 337.326 495.843 337.518C495.871 337.846 496.025 338.357 496.289 339.057C496.553 339.757 496.769 340.224 496.937 340.46C497.106 340.696 497.262 340.836 497.399 340.884C497.535 340.93 497.682 340.927 497.816 340.875C497.953 340.824 498.068 340.728 498.141 340.602C498.219 340.423 498.244 340.225 498.212 340.033C498.178 339.711 498.032 339.199 497.768 338.499C497.503 337.799 497.288 337.331 497.119 337.096C496.951 336.86 496.795 336.719 496.65 336.673C496.515 336.624 496.367 336.626 496.233 336.679L496.232 336.679ZM503.769 339.595L502.623 340.028L500.996 335.718C500.722 336.272 500.328 336.758 499.844 337.143L499.452 336.105C499.758 335.844 500.016 335.532 500.215 335.182C500.452 334.817 500.578 334.391 500.577 333.955L501.507 333.604L503.769 339.595ZM507.944 338.02L506.798 338.452L505.171 334.143C504.896 334.696 504.503 335.183 504.019 335.567L503.627 334.53C503.933 334.268 504.191 333.956 504.39 333.607C504.627 333.242 504.753 332.815 504.752 332.38L505.682 332.029L507.944 338.02ZM512.118 336.444L510.972 336.877L509.345 332.567C509.071 333.119 508.68 333.604 508.2 333.99L507.808 332.952C508.112 332.689 508.37 332.377 508.571 332.029C508.806 331.664 508.929 331.239 508.926 330.805L509.856 330.453L512.118 336.444ZM516.292 334.869L515.146 335.301L513.52 330.992C513.246 331.543 512.855 332.029 512.374 332.414L511.983 331.377C512.287 331.114 512.545 330.802 512.745 330.454C512.98 330.087 513.105 329.662 513.107 329.227L514.031 328.878L516.292 334.869ZM517.677 327.502C518.254 327.284 518.783 327.32 519.265 327.609C519.839 327.951 520.332 328.69 520.759 329.821C521.185 330.95 521.297 331.835 521.094 332.475C520.928 333.003 520.554 333.377 519.977 333.594C519.709 333.704 519.418 333.748 519.129 333.724C518.84 333.7 518.561 333.609 518.314 333.457C517.792 333.144 517.318 332.414 516.885 331.269C516.462 330.146 516.351 329.264 516.554 328.623C516.726 328.093 517.094 327.722 517.677 327.502ZM518.035 328.45C517.898 328.501 517.783 328.598 517.71 328.724C517.632 328.903 517.607 329.1 517.639 329.292C517.674 329.617 517.821 330.131 518.085 330.831C518.349 331.531 518.565 331.998 518.734 332.234C518.902 332.47 519.058 332.61 519.202 332.655C519.337 332.702 519.485 332.699 519.619 332.646C519.753 332.595 519.865 332.499 519.937 332.375C520.022 332.198 520.046 331.998 520.007 331.806C519.98 331.482 519.828 330.973 519.564 330.272C519.299 329.572 519.083 329.105 518.915 328.869C518.747 328.634 518.59 328.492 518.453 328.444C518.317 328.398 518.169 328.4 518.035 328.45H518.035ZM522.31 325.753C522.887 325.536 523.416 325.572 523.898 325.861C524.471 326.202 524.971 326.939 525.399 328.07C525.825 329.199 525.936 330.084 525.727 330.727C525.561 331.255 525.186 331.628 524.61 331.846C524.343 331.955 524.053 332 523.765 331.976C523.477 331.951 523.199 331.859 522.954 331.705C522.431 331.393 521.95 330.666 521.518 329.52C521.094 328.397 520.984 327.515 521.186 326.875C521.359 326.345 521.734 325.971 522.31 325.753ZM522.668 326.701C522.533 326.75 522.42 326.847 522.35 326.973C522.266 327.151 522.238 327.35 522.272 327.544C522.307 327.868 522.454 328.382 522.718 329.082C522.982 329.782 523.198 330.25 523.373 330.483C523.542 330.719 523.691 330.862 523.835 330.907C523.97 330.954 524.118 330.951 524.252 330.898C524.387 330.85 524.5 330.753 524.57 330.627C524.654 330.45 524.681 330.25 524.648 330.056C524.613 329.734 524.468 329.223 524.204 328.522C523.939 327.822 523.723 327.355 523.548 327.121C523.38 326.886 523.223 326.744 523.086 326.696C522.95 326.648 522.802 326.65 522.668 326.701ZM530.197 329.621L529.058 330.05L527.431 325.741C527.155 326.294 526.762 326.78 526.279 327.166L525.888 326.128C526.193 325.867 526.451 325.554 526.65 325.205C526.885 324.839 527.01 324.413 527.013 323.978L527.936 323.63L530.197 329.621ZM534.372 328.045L533.233 328.475L531.606 324.165C531.331 324.719 530.938 325.206 530.454 325.59L530.062 324.553C530.367 324.291 530.625 323.979 530.825 323.63C531.062 323.265 531.188 322.838 531.187 322.403L532.111 322.054L534.372 328.045ZM535.757 320.678C536.334 320.461 536.863 320.496 537.345 320.786C537.918 321.127 538.418 321.864 538.846 322.995C539.272 324.124 539.383 325.009 539.174 325.652C539.008 326.179 538.633 326.553 538.057 326.77C537.789 326.88 537.5 326.925 537.212 326.901C536.924 326.876 536.646 326.784 536.401 326.63C535.878 326.317 535.397 325.59 534.965 324.445C534.541 323.322 534.431 322.44 534.633 321.799C534.806 321.27 535.181 320.896 535.757 320.678ZM536.115 321.626C535.98 321.675 535.867 321.772 535.797 321.898C535.713 322.075 535.685 322.275 535.719 322.468C535.754 322.793 535.9 323.307 536.165 324.007C536.429 324.707 536.645 325.175 536.813 325.41C536.989 325.643 537.138 325.786 537.282 325.831C537.417 325.878 537.565 325.875 537.699 325.822C537.834 325.773 537.947 325.677 538.017 325.551C538.101 325.373 538.128 325.174 538.095 324.98C538.06 324.658 537.908 324.149 537.644 323.449C537.379 322.749 537.163 322.282 536.995 322.046C536.827 321.81 536.67 321.669 536.533 321.62C536.397 321.573 536.249 321.575 536.115 321.626Z" fill="#20238C"/>
<path fill-rule="evenodd" clip-rule="evenodd" d="M498.306 308.726C496.946 309.573 495.419 310.115 493.829 310.313C493.71 310.326 493.596 310.363 493.492 310.421C493.387 310.478 493.296 310.556 493.222 310.65C493.148 310.744 493.094 310.851 493.062 310.966C493.03 311.081 493.021 311.201 493.036 311.319C493.051 311.437 493.089 311.551 493.148 311.655C493.207 311.758 493.287 311.849 493.381 311.921C493.476 311.994 493.584 312.047 493.699 312.077C493.814 312.107 493.935 312.115 494.053 312.098C495.901 311.869 497.677 311.239 499.257 310.254C499.458 310.127 499.6 309.925 499.653 309.694C499.706 309.462 499.665 309.219 499.54 309.018C499.414 308.816 499.214 308.672 498.983 308.618C498.752 308.563 498.509 308.602 498.306 308.726ZM503.643 301.526C503.156 303.08 502.409 304.54 501.432 305.843C501.361 305.938 501.309 306.045 501.279 306.16C501.25 306.274 501.243 306.394 501.26 306.511C501.276 306.628 501.315 306.741 501.375 306.843C501.436 306.945 501.515 307.034 501.61 307.106C501.704 307.177 501.812 307.229 501.927 307.258C502.041 307.288 502.16 307.295 502.278 307.278C502.395 307.262 502.508 307.222 502.61 307.162C502.712 307.102 502.801 307.023 502.872 306.928C503.967 305.461 504.807 303.82 505.358 302.075C505.428 301.848 505.405 301.603 505.296 301.393C505.186 301.182 504.998 301.024 504.772 300.952C504.546 300.88 504.301 300.899 504.089 301.007C503.878 301.115 503.718 301.301 503.643 301.526ZM489.573 310.055C487.99 309.669 486.484 309.018 485.119 308.129C484.917 308.001 484.673 307.957 484.439 308.008C484.206 308.059 484.002 308.201 483.873 308.403C483.744 308.604 483.701 308.849 483.752 309.082C483.803 309.316 483.945 309.52 484.147 309.648C485.683 310.639 487.373 311.368 489.148 311.807C489.38 311.863 489.624 311.824 489.828 311.7C490.032 311.575 490.178 311.375 490.234 311.143C490.29 310.911 490.252 310.666 490.128 310.463C490.004 310.259 489.805 310.112 489.573 310.055V310.055ZM504.085 292.299C504.401 293.92 504.516 295.575 504.426 297.224C504.413 297.463 504.495 297.696 504.654 297.874C504.813 298.052 505.036 298.16 505.275 298.174C505.513 298.187 505.747 298.106 505.925 297.947C506.104 297.788 506.212 297.565 506.226 297.327C506.322 295.528 506.195 293.723 505.847 291.955C505.825 291.839 505.781 291.727 505.716 291.628C505.651 291.528 505.567 291.443 505.469 291.376C505.371 291.309 505.261 291.262 505.145 291.238C505.028 291.214 504.908 291.213 504.792 291.236C504.675 291.259 504.564 291.305 504.466 291.37C504.367 291.436 504.282 291.521 504.216 291.62C504.15 291.719 504.105 291.83 504.082 291.946C504.06 292.063 504.061 292.183 504.085 292.299ZM481.757 305.326C480.624 304.122 479.646 302.781 478.846 301.334C478.789 301.231 478.712 301.14 478.62 301.066C478.528 300.993 478.422 300.938 478.309 300.905C478.196 300.873 478.077 300.863 477.96 300.876C477.843 300.889 477.73 300.926 477.627 300.983C477.418 301.099 477.264 301.293 477.198 301.522C477.132 301.752 477.159 301.998 477.274 302.207C478.145 303.785 479.209 305.247 480.443 306.56C480.606 306.733 480.832 306.835 481.07 306.843C481.308 306.85 481.539 306.763 481.713 306.6C481.886 306.436 481.987 306.21 481.995 305.972C482.003 305.734 481.918 305.502 481.757 305.326ZM500.335 283.78C501.32 285.11 502.144 286.553 502.79 288.076C502.837 288.185 502.904 288.283 502.988 288.366C503.072 288.449 503.171 288.514 503.281 288.559C503.39 288.603 503.507 288.625 503.625 288.624C503.743 288.623 503.86 288.599 503.969 288.553C504.077 288.507 504.176 288.44 504.259 288.356C504.342 288.272 504.407 288.172 504.451 288.063C504.495 287.953 504.518 287.836 504.517 287.718C504.516 287.6 504.492 287.483 504.446 287.375C503.743 285.72 502.85 284.153 501.784 282.705C501.64 282.517 501.428 282.394 501.194 282.362C500.96 282.33 500.722 282.39 500.532 282.531C500.343 282.672 500.216 282.882 500.179 283.116C500.142 283.349 500.199 283.588 500.336 283.78H500.335ZM477.115 297.27C476.626 295.689 476.327 294.056 476.225 292.405C476.218 292.287 476.188 292.172 476.136 292.065C476.085 291.959 476.013 291.864 475.924 291.786C475.836 291.707 475.733 291.647 475.622 291.608C475.51 291.57 475.392 291.553 475.274 291.56C475.156 291.567 475.041 291.597 474.935 291.649C474.828 291.7 474.733 291.772 474.655 291.861C474.576 291.949 474.516 292.052 474.477 292.163C474.439 292.275 474.422 292.393 474.429 292.511C474.539 294.307 474.863 296.083 475.396 297.801C475.468 298.029 475.628 298.22 475.84 298.33C476.052 298.441 476.299 298.464 476.527 298.393C476.64 298.358 476.744 298.301 476.835 298.226C476.925 298.15 477 298.058 477.055 297.953C477.109 297.849 477.143 297.735 477.153 297.617C477.163 297.5 477.15 297.382 477.115 297.27L477.115 297.27ZM493.169 278.019C494.679 278.653 496.081 279.516 497.329 280.577C497.419 280.653 497.524 280.71 497.636 280.746C497.749 280.782 497.868 280.795 497.985 280.784C498.103 280.774 498.217 280.741 498.322 280.686C498.427 280.632 498.52 280.557 498.596 280.467C498.672 280.376 498.729 280.272 498.765 280.159C498.8 280.046 498.813 279.928 498.803 279.81C498.793 279.692 498.759 279.578 498.705 279.473C498.65 279.368 498.576 279.275 498.485 279.199C497.097 278.024 495.538 277.066 493.863 276.357C493.643 276.265 493.395 276.265 493.174 276.355C492.953 276.446 492.778 276.621 492.686 276.841C492.594 277.061 492.593 277.309 492.684 277.53C492.774 277.751 492.949 277.927 493.169 278.019ZM476.481 288.02C476.756 286.41 477.28 284.852 478.035 283.403C478.091 283.298 478.126 283.183 478.138 283.065C478.15 282.947 478.138 282.828 478.103 282.714C478.069 282.601 478.012 282.495 477.936 282.404C477.861 282.312 477.768 282.236 477.663 282.181C477.558 282.125 477.443 282.091 477.325 282.08C477.207 282.07 477.087 282.082 476.974 282.118C476.861 282.153 476.756 282.211 476.665 282.287C476.574 282.363 476.499 282.457 476.444 282.562C475.605 284.177 475.018 285.912 474.704 287.704C474.663 287.94 474.717 288.182 474.854 288.378C474.991 288.573 475.2 288.707 475.435 288.749C475.67 288.79 475.913 288.737 476.109 288.6C476.305 288.464 476.439 288.255 476.481 288.02H476.481ZM484.162 277.752L484.293 277.702C485.794 277.139 487.398 276.904 488.997 277.014C489.233 277.026 489.465 276.945 489.642 276.788C489.819 276.631 489.927 276.41 489.943 276.174C489.958 275.938 489.88 275.705 489.725 275.526C489.57 275.347 489.351 275.236 489.115 275.218C487.318 275.095 485.516 275.347 483.822 275.958L483.657 276.018C482.079 276.614 480.634 277.513 479.402 278.664C479.227 278.827 479.124 279.053 479.116 279.291C479.107 279.53 479.194 279.762 479.357 279.937C479.52 280.111 479.745 280.214 479.984 280.222C480.222 280.231 480.454 280.144 480.629 279.981C481.656 279.022 482.854 278.265 484.162 277.751L484.162 277.752ZM494.401 302.247C494.166 302.367 493.924 302.475 493.676 302.568C491.01 303.574 488.077 302.866 485.812 301.009C485.721 300.934 485.616 300.878 485.503 300.843C485.39 300.809 485.272 300.798 485.154 300.809C485.037 300.821 484.923 300.855 484.819 300.911C484.715 300.967 484.623 301.042 484.548 301.133C484.474 301.225 484.417 301.33 484.383 301.442C484.349 301.555 484.337 301.674 484.349 301.791C484.361 301.908 484.395 302.022 484.451 302.126C484.506 302.23 484.582 302.322 484.673 302.397C487.44 304.674 491.043 305.486 494.312 304.252C494.621 304.136 494.923 304.002 495.217 303.852C495.323 303.799 495.418 303.726 495.496 303.636C495.574 303.546 495.634 303.442 495.671 303.329C495.709 303.216 495.723 303.097 495.714 302.978C495.705 302.859 495.673 302.744 495.619 302.638C495.565 302.532 495.491 302.437 495.4 302.36C495.31 302.283 495.205 302.225 495.092 302.189C494.978 302.152 494.859 302.139 494.74 302.149C494.622 302.159 494.507 302.193 494.401 302.248V302.247ZM497.817 290.428C497.87 290.556 497.92 290.684 497.968 290.813C499.123 293.872 498.812 297.083 497.358 299.462C497.297 299.563 497.256 299.675 497.238 299.792C497.219 299.909 497.224 300.028 497.252 300.143C497.28 300.258 497.33 300.366 497.4 300.462C497.47 300.557 497.558 300.638 497.659 300.7C497.76 300.761 497.872 300.802 497.989 300.82C498.106 300.839 498.225 300.834 498.34 300.806C498.455 300.778 498.563 300.728 498.659 300.658C498.754 300.588 498.835 300.5 498.896 300.399C500.612 297.587 501.018 293.793 499.653 290.177C499.597 290.027 499.54 289.877 499.474 289.732C499.429 289.623 499.362 289.523 499.278 289.439C499.195 289.355 499.095 289.289 498.986 289.244C498.876 289.199 498.759 289.175 498.64 289.176C498.521 289.176 498.404 289.2 498.295 289.246C498.186 289.292 498.086 289.359 498.003 289.443C497.92 289.528 497.854 289.628 497.81 289.738C497.765 289.848 497.743 289.965 497.744 290.084C497.746 290.202 497.77 290.319 497.817 290.428ZM483.186 297.715C482.996 297.348 482.828 296.969 482.683 296.582C481.639 293.818 481.798 290.929 482.906 288.642C483.011 288.427 483.025 288.179 482.947 287.954C482.868 287.728 482.704 287.543 482.489 287.439C482.274 287.334 482.026 287.32 481.801 287.398C481.575 287.477 481.39 287.641 481.286 287.856C479.976 290.554 479.767 293.959 480.997 297.218C481.167 297.668 481.362 298.108 481.582 298.535C481.692 298.745 481.881 298.904 482.107 298.975C482.333 299.047 482.579 299.027 482.79 298.919C483.001 298.811 483.161 298.624 483.236 298.398C483.31 298.173 483.292 297.927 483.186 297.715ZM486.883 284.863L486.98 284.826C489.891 283.727 493.124 284.673 495.448 286.934C495.62 287.098 495.85 287.188 496.087 287.183C496.325 287.179 496.551 287.081 496.717 286.911C496.883 286.74 496.975 286.511 496.972 286.274C496.97 286.036 496.874 285.809 496.705 285.642C493.906 282.926 490.023 281.834 486.508 283.081L486.344 283.141C485.722 283.376 485.128 283.679 484.574 284.046C484.475 284.111 484.39 284.195 484.324 284.294C484.258 284.392 484.212 284.502 484.189 284.618C484.166 284.734 484.165 284.853 484.188 284.969C484.211 285.086 484.256 285.196 484.322 285.295C484.387 285.393 484.472 285.478 484.57 285.544C484.668 285.61 484.778 285.656 484.894 285.679C485.01 285.702 485.13 285.703 485.246 285.68C485.362 285.657 485.472 285.612 485.571 285.546C485.983 285.273 486.423 285.044 486.883 284.863L486.883 284.863ZM492.08 293.631C491.592 293.9 491.085 294.133 490.563 294.328C489.917 294.576 489.248 294.762 488.567 294.884C488.451 294.904 488.339 294.947 488.239 295.01C488.139 295.073 488.052 295.155 487.984 295.251C487.915 295.348 487.867 295.457 487.841 295.572C487.814 295.687 487.811 295.806 487.831 295.923C487.851 296.039 487.893 296.151 487.956 296.251C488.019 296.351 488.101 296.438 488.198 296.506C488.294 296.574 488.403 296.623 488.518 296.649C488.633 296.676 488.753 296.679 488.869 296.659C489.664 296.517 490.444 296.3 491.199 296.012C491.802 295.785 492.389 295.515 492.953 295.204C493.162 295.088 493.316 294.894 493.382 294.665C493.447 294.436 493.419 294.189 493.303 293.981C493.187 293.772 492.993 293.618 492.764 293.552C492.535 293.487 492.288 293.515 492.08 293.631L492.08 293.631ZM489.879 293.148L490.087 293.067C491.377 292.58 492.599 292.35 493.416 292.427C493.534 292.439 493.654 292.427 493.768 292.393C493.882 292.359 493.988 292.302 494.079 292.227C494.171 292.151 494.247 292.058 494.303 291.953C494.359 291.848 494.393 291.733 494.404 291.615C494.415 291.497 494.403 291.377 494.368 291.264C494.332 291.15 494.275 291.045 494.198 290.953C494.122 290.862 494.029 290.787 493.923 290.732C493.818 290.678 493.702 290.644 493.584 290.634C492.599 290.543 491.142 290.766 489.601 291.328L489.452 291.383C488.11 291.889 486.979 292.548 486.242 293.182C486.151 293.259 486.077 293.353 486.023 293.459C485.968 293.564 485.936 293.68 485.927 293.798C485.917 293.917 485.932 294.036 485.969 294.149C486.006 294.262 486.065 294.367 486.142 294.457C486.22 294.547 486.315 294.62 486.421 294.674C486.528 294.727 486.643 294.758 486.762 294.767C486.881 294.775 487 294.759 487.112 294.721C487.225 294.683 487.329 294.623 487.418 294.545C487.988 294.053 488.859 293.553 489.879 293.148Z" fill="#6562F9"/>
<path fill-rule="evenodd" clip-rule="evenodd" d="M431.051 167.095C413.376 178.01 374.212 212.287 379.856 238.197C388.014 275.63 426.681 315.115 426.681 315.115C428.164 328.062 439.223 331.037 441.543 331.869C443.548 332.586 435.7 314.393 436.547 312.935C439.272 308.252 444.636 315.339 445.88 310.76C446.667 307.868 439.811 302.57 433.715 303.246C433.715 303.246 406.171 251.688 414.006 228.538C421.847 205.389 476.962 207.121 480.741 164.351C481.751 152.921 477.227 138.58 431.051 167.095Z" fill="#FB9C9A"/>
<mask id="mask1_1181_481" style="mask-type:luminance" maskUnits="userSpaceOnUse" x="379" y="150" width="102" height="182">
<path d="M431.051 167.095C413.376 178.01 374.212 212.287 379.856 238.197C388.014 275.63 426.681 315.115 426.681 315.115C428.164 328.062 439.223 331.037 441.543 331.869C443.548 332.586 435.7 314.393 436.547 312.935C439.272 308.252 444.636 315.339 445.88 310.76C446.667 307.868 439.811 302.57 433.715 303.246C433.715 303.246 406.171 251.688 414.006 228.538C421.847 205.389 476.962 207.121 480.741 164.351C481.751 152.921 477.227 138.58 431.051 167.095Z" fill="white"/>
</mask>
<g mask="url(#mask1_1181_481)">
<path fill-rule="evenodd" clip-rule="evenodd" d="M450.953 275.286C471.925 249.698 505.566 229.572 509.312 193.77C511.941 168.65 495.109 150.462 472.831 141.667C438.14 127.977 393.589 131.179 361.853 150.983C316.286 179.42 312.827 241.203 342.487 282.392C351.679 295.155 363.819 307.156 379.212 311.872C390.711 315.396 412.066 316.322 419.43 303.815C421.861 299.69 419.203 294.285 422.234 290.532C424.536 287.676 428.522 287.907 431.363 285.904C436.026 282.63 435.354 274.424 433.626 269.711L450.953 275.286Z" fill="url(#paint14_linear_1181_481)"/>
</g>
<path fill-rule="evenodd" clip-rule="evenodd" d="M738.217 135.949C738.217 135.949 716.343 129.509 700.898 112.854C683.55 128.454 660.961 135.949 660.961 135.949V171.128C660.961 177.998 662.712 184.756 666.049 190.762C669.386 196.767 674.199 201.824 680.032 205.453C680.665 205.851 681.303 206.244 681.93 206.636C687.097 209.85 693.052 211.569 699.137 211.603C705.221 211.637 711.196 209.984 716.397 206.827C723.058 202.786 728.565 197.096 732.387 190.307C736.209 183.518 738.217 175.859 738.217 168.068V135.949Z" fill="url(#paint15_linear_1181_481)"/>
<path fill-rule="evenodd" clip-rule="evenodd" d="M727.986 143.558C727.986 143.558 711.905 138.801 700.551 126.495C687.797 138.021 671.191 143.558 671.191 143.558V169.598C671.191 174.662 672.479 179.642 674.933 184.071C677.386 188.501 680.926 192.233 685.22 194.918C685.677 195.201 686.134 195.486 686.587 195.772C690.387 198.149 694.774 199.42 699.256 199.445C703.738 199.47 708.138 198.247 711.965 195.914H711.969C716.86 192.93 720.902 188.738 723.707 183.742C726.512 178.746 727.985 173.112 727.986 167.382V143.558Z" fill="white"/>
<path fill-rule="evenodd" clip-rule="evenodd" d="M683.649 171.264L694.276 185.502C695.164 186.687 696.517 187.355 697.923 187.302C698.635 187.268 699.328 187.062 699.942 186.702C700.557 186.343 701.076 185.84 701.454 185.236L721.301 154.511C722.708 152.329 722.206 149.328 720.172 147.813C718.138 146.297 715.352 146.841 713.936 149.024L697.511 174.45L690.638 165.242C689.097 163.17 686.275 162.836 684.348 164.497C682.413 166.159 682.108 169.191 683.649 171.264Z" fill="url(#paint16_linear_1181_481)"/>
<path fill-rule="evenodd" clip-rule="evenodd" d="M657.157 170.609C657.802 166.97 659.87 163.251 661.093 162.824C669.253 159.986 673.573 168.142 665.161 170.672C661.093 171.896 657.017 182.4 657.017 182.4C657.017 182.4 656.669 173.399 657.157 170.609Z" fill="#FB9C9A"/>
<path fill-rule="evenodd" clip-rule="evenodd" d="M506.337 104.4C495.52 104.4 487.634 114.332 489.173 127.812C490.265 137.365 502.336 147.637 512.23 148.606C520.385 149.403 523.578 141.128 523.578 127.561C523.578 113.994 517.146 104.4 506.337 104.4Z" fill="url(#paint17_linear_1181_481)"/>
<path fill-rule="evenodd" clip-rule="evenodd" d="M510.468 139.498C510.674 138.556 511.471 137.719 512.122 137.052C512.696 136.465 513.296 135.895 514.008 135.479C514.43 135.214 514.889 135.013 515.37 134.881C518.173 134.207 519.509 136.583 521.686 137.736C522.526 138.181 523.426 138.261 524.36 138.294C527.017 142.345 522.303 146.778 518.849 148.223C517.127 148.946 512.628 154.663 507.143 148.09C505.9 146.604 499.165 147.054 501.273 139.501C501.821 137.525 501.024 135.007 500.879 132.972C500.664 129.989 500.904 126.52 497.99 124.691C497.531 124.405 497.042 124.167 496.534 123.982C496.174 123.849 495.762 123.565 495.419 123.726C492.891 124.901 497.048 129.527 490.817 131.428C491.22 133.493 489.241 134.942 487.424 135.216C484.579 135.646 481.528 134.411 479.643 132.25C477.903 130.253 475.795 127.145 475.435 124.566C474.998 121.409 475.152 114.559 478.083 110.505C480.371 107.339 483.747 104.88 487.775 105.127C487.732 104.327 488.264 103.529 488.675 102.889C489.643 101.386 490.867 100.064 492.291 98.9841C494.58 97.2702 497.408 95.9941 500.278 95.7782C504.126 95.4886 508.24 97.6189 509.911 101.163C510.64 100.382 511.745 100.131 512.756 99.9311C515.233 99.4418 517.564 99.7512 519.766 101.024C524.54 103.786 526.185 109.17 524.171 114.158C523.451 113.926 522.611 113.92 521.866 113.812C520.066 113.555 526.245 117.38 513.699 119.588C510.434 120.162 505.592 117.666 503.235 120.736C501.693 122.739 502.764 125.129 503.081 127.33C503.363 129.299 503.218 131.312 503.587 133.269C504.109 136.052 506.243 139.462 509.234 140.087L510.468 139.498Z" fill="url(#paint18_linear_1181_481)"/>
<defs>
<linearGradient id="paint0_linear_1181_481" x1="814.245" y1="236.415" x2="824.469" y2="-10.0009" gradientUnits="userSpaceOnUse">
<stop offset="0.355769" stop-color="#10AD33" stop-opacity="0"/>
<stop offset="0.538462" stop-color="#10AD33"/>
</linearGradient>
<linearGradient id="paint1_linear_1181_481" x1="908.594" y1="375.813" x2="686.856" y2="267.843" gradientUnits="userSpaceOnUse">
<stop offset="0.355769" stop-color="#10AD33" stop-opacity="0"/>
<stop offset="0.538462" stop-color="#10AD33"/>
</linearGradient>
<linearGradient id="paint2_linear_1181_481" x1="905.55" y1="159.058" x2="673.941" y2="243.809" gradientUnits="userSpaceOnUse">
<stop offset="0.355769" stop-color="#10AD33" stop-opacity="0"/>
<stop offset="0.538462" stop-color="#10AD33"/>
</linearGradient>
<linearGradient id="paint3_linear_1181_481" x1="793.867" y1="160.942" x2="820.065" y2="406.175" gradientUnits="userSpaceOnUse">
<stop offset="0.355769" stop-color="#10AD33" stop-opacity="0"/>
<stop offset="0.538462" stop-color="#10AD33"/>
</linearGradient>
<linearGradient id="paint4_linear_1181_481" x1="240.923" y1="238.34" x2="233.214" y2="-8.16771" gradientUnits="userSpaceOnUse">
<stop offset="0.355769" stop-color="#10AD33" stop-opacity="0"/>
<stop offset="0.538462" stop-color="#10AD33"/>
</linearGradient>
<linearGradient id="paint5_linear_1181_481" x1="147.914" y1="378.173" x2="369.652" y2="270.202" gradientUnits="userSpaceOnUse">
<stop offset="0.355769" stop-color="#10AD33" stop-opacity="0"/>
<stop offset="0.538462" stop-color="#10AD33"/>
</linearGradient>
<linearGradient id="paint6_linear_1181_481" x1="152.873" y1="158.448" x2="382.012" y2="249.668" gradientUnits="userSpaceOnUse">
<stop offset="0.355769" stop-color="#10AD33" stop-opacity="0"/>
<stop offset="0.538462" stop-color="#10AD33"/>
</linearGradient>
<linearGradient id="paint7_linear_1181_481" x1="263.164" y1="163.302" x2="236.966" y2="408.535" gradientUnits="userSpaceOnUse">
<stop offset="0.355769" stop-color="#10AD33" stop-opacity="0"/>
<stop offset="0.538462" stop-color="#10AD33"/>
</linearGradient>
<linearGradient id="paint8_linear_1181_481" x1="652" y1="244.779" x2="455.211" y2="406.49" gradientUnits="userSpaceOnUse">
<stop stop-color="#E3DBF9"/>
<stop offset="0.54" stop-color="#CCBBFA"/>
<stop offset="1" stop-color="#7848FC"/>
</linearGradient>
<linearGradient id="paint9_linear_1181_481" x1="581.755" y1="227.578" x2="518.675" y2="329.9" gradientUnits="userSpaceOnUse">
<stop stop-color="#E3DBF9"/>
<stop offset="0.54" stop-color="#CCBBFA"/>
<stop offset="1" stop-color="#7848FC"/>
</linearGradient>
<linearGradient id="paint10_linear_1181_481" x1="331.676" y1="194.666" x2="503.292" y2="335.608" gradientUnits="userSpaceOnUse">
<stop stop-color="#E3DBF9"/>
<stop offset="0.56" stop-color="#CDBDFA"/>
<stop offset="1" stop-color="#7848FC"/>
</linearGradient>
<linearGradient id="paint11_linear_1181_481" x1="568.628" y1="181.84" x2="579.497" y2="314.154" gradientUnits="userSpaceOnUse">
<stop stop-color="#272BAA"/>
<stop offset="0.45" stop-color="#1D2190"/>
<stop offset="1" stop-color="#050751"/>
</linearGradient>
<linearGradient id="paint12_linear_1181_481" x1="507.635" y1="130.721" x2="478.95" y2="278.021" gradientUnits="userSpaceOnUse">
<stop stop-color="#3E42D3"/>
<stop offset="1" stop-color="#050751"/>
</linearGradient>
<linearGradient id="paint13_linear_1181_481" x1="486.716" y1="235.657" x2="476.826" y2="329.184" gradientUnits="userSpaceOnUse">
<stop stop-color="#E3E3FE"/>
<stop offset="0.47" stop-color="#BBBBFE"/>
<stop offset="1" stop-color="#4F4FFF"/>
</linearGradient>
<linearGradient id="paint14_linear_1181_481" x1="470.628" y1="143.536" x2="364.609" y2="256.21" gradientUnits="userSpaceOnUse">
<stop stop-color="#292DB3"/>
<stop offset="0.56" stop-color="#22259F"/>
<stop offset="1" stop-color="#050751"/>
</linearGradient>
<linearGradient id="paint15_linear_1181_481" x1="722.464" y1="113.827" x2="650.123" y2="249.723" gradientUnits="userSpaceOnUse">
<stop stop-color="#AADBFF"/>
<stop offset="0.6" stop-color="#91D1FF"/>
<stop offset="0.81" stop-color="#5AB9FF"/>
<stop offset="1" stop-color="#22A1FF"/>
</linearGradient>
<linearGradient id="paint16_linear_1181_481" x1="717.72" y1="135.233" x2="672.682" y2="209.302" gradientUnits="userSpaceOnUse">
<stop stop-color="#AADBFF"/>
<stop offset="0.47" stop-color="#85CBFF"/>
<stop offset="1" stop-color="#22A1FF"/>
</linearGradient>
<linearGradient id="paint17_linear_1181_481" x1="519.726" y1="108.348" x2="490.412" y2="153.146" gradientUnits="userSpaceOnUse">
<stop stop-color="#FB9C9A"/>
<stop offset="0.64" stop-color="#FC8886"/>
<stop offset="0.84" stop-color="#FD5450"/>
<stop offset="1" stop-color="#FF1712"/>
</linearGradient>
<linearGradient id="paint18_linear_1181_481" x1="510.994" y1="149.648" x2="492.829" y2="92.1613" gradientUnits="userSpaceOnUse">
<stop/>
<stop offset="0.53" stop-color="#121212"/>
<stop offset="1" stop-color="#4D4D4D"/>
</linearGradient>
</defs>
</svg>
