<svg width="41" height="41" viewBox="0 0 41 41" fill="none" xmlns="http://www.w3.org/2000/svg">
<g clip-path="url(#clip0_203_123)">
<path d="M20.4697 34.6995C20.2729 34.6995 20.0841 34.6213 19.9449 34.4821C19.8057 34.3429 19.7275 34.1542 19.7275 33.9573V6.24121C19.7275 6.04437 19.8057 5.85559 19.9449 5.7164C20.0841 5.57722 20.2729 5.49902 20.4697 5.49902C20.6666 5.49902 20.8554 5.57722 20.9946 5.7164C21.1338 5.85559 21.2119 6.04437 21.2119 6.24121V33.9573C21.2119 34.1542 21.1338 34.3429 20.9946 34.4821C20.8554 34.6213 20.6666 34.6995 20.4697 34.6995Z" fill="#5D38DE" stroke="#5D38DE" stroke-width="0.997407"/>
<path d="M16.2206 39.0495C15.5619 39.0576 14.9082 38.9348 14.2973 38.6883C13.6865 38.4418 13.1306 38.0765 12.662 37.6136C12.1933 37.1506 11.8213 36.5993 11.5673 35.9915C11.3134 35.3837 11.1826 34.7315 11.1826 34.0728C11.1826 33.4141 11.3134 32.7619 11.5673 32.1541C11.8213 31.5463 12.1933 30.995 12.662 30.5321C13.1306 30.0691 13.6865 29.7038 14.2973 29.4573C14.9082 29.2108 15.5619 29.0881 16.2206 29.0961C16.4175 29.0961 16.6062 29.1743 16.7454 29.3135C16.8846 29.4527 16.9628 29.6414 16.9628 29.8383C16.9628 30.0351 16.8846 30.2239 16.7454 30.3631C16.6062 30.5023 16.4175 30.5805 16.2206 30.5805C15.5303 30.5828 14.8562 30.7897 14.2834 31.1749C13.7105 31.5601 13.2647 32.1064 13.0022 32.7448C12.7396 33.3832 12.6721 34.0851 12.8082 34.7618C12.9444 35.4386 13.2779 36.0598 13.7669 36.5471C14.2558 37.0344 14.8782 37.3658 15.5554 37.4996C16.2327 37.6334 16.9343 37.5636 17.5719 37.2989C18.2094 37.0342 18.7542 36.5865 19.1375 36.0124C19.5208 35.4383 19.7253 34.7635 19.7253 34.0732C19.7253 33.8763 19.8035 33.6876 19.9427 33.5484C20.0819 33.4092 20.2707 33.331 20.4675 33.331C20.6644 33.331 20.8531 33.4092 20.9923 33.5484C21.1315 33.6876 21.2097 33.8763 21.2097 34.0732C21.2066 35.3942 20.6795 36.6601 19.7442 37.593C18.8089 38.5259 17.5417 39.0497 16.2206 39.0495ZM16.2206 11.1026C15.2367 11.1002 14.2756 10.8064 13.4587 10.258C12.6417 9.70973 12.0056 8.93159 11.6307 8.02195C11.2558 7.1123 11.159 6.11195 11.3524 5.14727C11.5457 4.18259 12.0207 3.29687 12.7173 2.602C13.4138 1.90713 14.3007 1.43429 15.2658 1.24321C16.231 1.05213 17.2312 1.15138 18.1399 1.52843C19.0487 1.90548 19.8253 2.54341 20.3717 3.36163C20.9181 4.17985 21.2097 5.14164 21.2097 6.12551C21.2097 6.32235 21.1315 6.51113 20.9923 6.65031C20.8531 6.7895 20.6644 6.8677 20.4675 6.8677C20.2707 6.8677 20.0819 6.7895 19.9427 6.65031C19.8035 6.51113 19.7253 6.32235 19.7253 6.12551C19.7277 5.43187 19.5241 4.75313 19.1404 4.17524C18.7568 3.59735 18.2102 3.14631 17.5701 2.87924C16.9299 2.61216 16.2248 2.54106 15.5442 2.67494C14.8636 2.80882 14.238 3.14166 13.7467 3.63131C13.2553 4.12096 12.9204 4.7454 12.7842 5.42554C12.648 6.10569 12.7167 6.81096 12.9816 7.45203C13.2465 8.0931 13.6957 8.64115 14.2723 9.02676C14.8489 9.41238 15.527 9.61823 16.2206 9.61823C16.4175 9.61823 16.6062 9.69642 16.7454 9.83561C16.8846 9.9748 16.9628 10.1636 16.9628 10.3604C16.9628 10.5573 16.8846 10.746 16.7454 10.8852C16.6062 11.0244 16.4175 11.1026 16.2206 11.1026Z" fill="#5D38DE" stroke="#5D38DE" stroke-width="0.997407"/>
<path d="M11.9754 33.968C10.4295 33.968 8.94666 33.3549 7.85219 32.2631C6.75772 31.1713 6.14098 29.69 6.13725 28.1441C6.13596 27.6027 6.21092 27.0638 6.35991 26.5432C5.0295 25.9545 3.89872 24.9921 3.10497 23.7729C2.31122 22.5537 1.88867 21.1302 1.88867 19.6754C1.88867 18.2206 2.31122 16.7971 3.10497 15.5779C3.89872 14.3587 5.0295 13.3963 6.35991 12.8076C6.21092 12.2871 6.13596 11.7482 6.13725 11.2067C6.14098 9.66084 6.75772 8.17953 7.85219 7.08774C8.94666 5.99595 10.4295 5.38281 11.9754 5.38281C12.1723 5.38281 12.3611 5.46101 12.5002 5.60019C12.6394 5.73938 12.7176 5.92816 12.7176 6.125C12.7176 6.32184 12.6394 6.51061 12.5002 6.6498C12.3611 6.78899 12.1723 6.86718 11.9754 6.86718C10.8231 6.86678 9.71756 7.32341 8.90139 8.13691C8.08522 8.95042 7.625 10.0544 7.62166 11.2067C7.62084 11.8038 7.74444 12.3945 7.98459 12.9412C8.02624 13.0358 8.04768 13.138 8.04752 13.2414C8.04737 13.3447 8.02564 13.4469 7.98372 13.5414C7.9418 13.6358 7.88061 13.7205 7.80408 13.7899C7.72754 13.8594 7.63735 13.9121 7.53927 13.9446C6.32944 14.3383 5.27522 15.1047 4.52762 16.1342C3.78002 17.1636 3.37738 18.4032 3.37738 19.6754C3.37738 20.9477 3.78002 22.1873 4.52762 23.2167C5.27522 24.2461 6.32944 25.0125 7.53927 25.4062C7.63735 25.4388 7.72754 25.4915 7.80408 25.5609C7.88061 25.6304 7.9418 25.715 7.98372 25.8095C8.02564 25.9039 8.04737 26.0061 8.04752 26.1095C8.04768 26.2128 8.02624 26.315 7.98459 26.4096C7.74444 26.9563 7.62084 27.547 7.62166 28.1441C7.625 29.2964 8.08522 30.4004 8.90139 31.2139C9.71756 32.0274 10.8231 32.4841 11.9754 32.4837C12.1723 32.4837 12.3611 32.5619 12.5002 32.701C12.6394 32.8402 12.7176 33.029 12.7176 33.2258C12.7176 33.4227 12.6394 33.6115 12.5002 33.7506C12.3611 33.8898 12.1723 33.968 11.9754 33.968ZM29.2977 35.2431C29.1009 35.2431 28.9122 35.1648 28.773 35.0256L26.8507 33.1034H20.4677C20.2709 33.1034 20.0821 33.0252 19.9429 32.886C19.8037 32.7468 19.7255 32.558 19.7255 32.3612C19.7255 32.1644 19.8037 31.9756 19.9429 31.8364C20.0821 31.6972 20.2709 31.619 20.4677 31.619H27.1565C27.2541 31.6189 27.3507 31.6381 27.4409 31.6754C27.5311 31.7127 27.613 31.7675 27.682 31.8365L29.821 33.9762C29.9248 34.08 29.9954 34.2122 30.0241 34.3562C30.0527 34.5001 30.038 34.6493 29.9818 34.7849C29.9257 34.9205 29.8306 35.0364 29.7085 35.118C29.5865 35.1995 29.443 35.2431 29.2963 35.2431H29.2977Z" fill="#5D38DE" stroke="#5D38DE" stroke-width="0.997407"/>
<path d="M30.8737 39.0502C30.2865 39.0502 29.7125 38.8761 29.2243 38.5499C28.7361 38.2237 28.3556 37.76 28.1309 37.2176C27.9062 36.6751 27.8474 36.0782 27.9619 35.5023C28.0765 34.9264 28.3592 34.3974 28.7744 33.9823C29.1896 33.5671 29.7186 33.2843 30.2945 33.1698C30.8704 33.0552 31.4673 33.114 32.0098 33.3387C32.5523 33.5634 33.016 33.9439 33.3422 34.4321C33.6684 34.9203 33.8425 35.4943 33.8425 36.0815C33.841 36.8683 33.5277 37.6225 32.9712 38.179C32.4148 38.7354 31.6606 39.0486 30.8737 39.0502ZM30.8737 34.5912C30.5801 34.5912 30.2931 34.6782 30.049 34.8413C29.8049 35.0044 29.6146 35.2363 29.5023 35.5075C29.3899 35.7787 29.3605 36.0772 29.4178 36.3651C29.4751 36.6531 29.6165 36.9175 29.8241 37.1251C30.0317 37.3327 30.2962 37.4741 30.5841 37.5314C30.8721 37.5887 31.1705 37.5593 31.4418 37.4469C31.713 37.3346 31.9448 37.1443 32.1079 36.9002C32.2711 36.6561 32.3581 36.3691 32.3581 36.0755C32.3569 35.6822 32.2002 35.3053 31.922 35.0272C31.6439 34.7491 31.267 34.5923 30.8737 34.5912ZM32.2705 28.5557C32.0737 28.5557 31.8849 28.4775 31.7458 28.3383L29.8235 26.416H20.4717C20.2749 26.416 20.0861 26.3378 19.9469 26.1986C19.8077 26.0594 19.7295 25.8707 19.7295 25.6738C19.7295 25.477 19.8077 25.2882 19.9469 25.149C20.0861 25.0098 20.2749 24.9316 20.4717 24.9316H30.1308C30.3276 24.9317 30.5163 25.0099 30.6555 25.1491L32.7953 27.2888C32.899 27.3926 32.9697 27.5248 32.9983 27.6688C33.0269 27.8127 33.0123 27.9619 32.9561 28.0975C32.8999 28.2331 32.8048 28.349 32.6828 28.4306C32.5608 28.5121 32.4173 28.5557 32.2705 28.5557Z" fill="#5D38DE" stroke="#5D38DE" stroke-width="0.997407"/>
<path d="M33.848 32.3618C33.2608 32.3618 32.6868 32.1876 32.1986 31.8614C31.7104 31.5352 31.3299 31.0716 31.1052 30.5291C30.8805 29.9866 30.8217 29.3897 30.9362 28.8139C31.0508 28.238 31.3335 27.709 31.7487 27.2938C32.1639 26.8786 32.6929 26.5959 33.2688 26.4813C33.8447 26.3668 34.4416 26.4256 34.9841 26.6503C35.5266 26.875 35.9903 27.2555 36.3165 27.7437C36.6427 28.2319 36.8168 28.8059 36.8168 29.393C36.8152 30.1799 36.502 30.9341 35.9455 31.4905C35.3891 32.0469 34.6349 32.3602 33.848 32.3618ZM33.848 27.9027C33.5544 27.9027 33.2674 27.9898 33.0233 28.1529C32.7792 28.316 32.5889 28.5478 32.4766 28.819C32.3642 29.0903 32.3348 29.3887 32.3921 29.6767C32.4494 29.9646 32.5908 30.2291 32.7984 30.4367C33.0059 30.6443 33.2704 30.7857 33.5584 30.8429C33.8463 30.9002 34.1448 30.8708 34.416 30.7585C34.6873 30.6461 34.9191 30.4559 35.0822 30.2118C35.2453 29.9677 35.3324 29.6807 35.3324 29.3871C35.3312 28.9938 35.1745 28.6169 34.8963 28.3388C34.6182 28.0607 34.2413 27.9039 33.848 27.9027ZM30.1318 16.0114H20.4697C20.2729 16.0114 20.0841 15.9333 19.9449 15.7941C19.8057 15.6549 19.7275 15.4661 19.7275 15.2693C19.7275 15.0724 19.8057 14.8836 19.9449 14.7445C20.0841 14.6053 20.2729 14.5271 20.4697 14.5271H29.8215L31.7438 12.6048C31.8838 12.4696 32.0713 12.3948 32.2659 12.3965C32.4605 12.3982 32.6467 12.4763 32.7843 12.6139C32.9219 12.7515 32.9999 12.9376 33.0016 13.1322C33.0033 13.3268 32.9285 13.5143 32.7933 13.6543L30.6535 15.794C30.5151 15.9325 30.3276 16.0106 30.1318 16.0114Z" fill="#5D38DE" stroke="#5D38DE" stroke-width="0.997407"/>
<path d="M33.8487 14.5293C33.2615 14.5293 32.6875 14.3552 32.1993 14.0289C31.7111 13.7027 31.3306 13.2391 31.1059 12.6966C30.8812 12.1542 30.8224 11.5572 30.9369 10.9814C31.0515 10.4055 31.3342 9.87651 31.7494 9.46132C32.1646 9.04614 32.6936 8.76339 33.2695 8.64884C33.8454 8.53429 34.4423 8.59308 34.9848 8.81778C35.5273 9.04248 35.991 9.42299 36.3172 9.91119C36.6434 10.3994 36.8175 10.9734 36.8175 11.5605C36.8158 12.3474 36.5024 13.1014 35.946 13.6578C35.3896 14.2142 34.6355 14.5275 33.8487 14.5293ZM33.8487 10.0695C33.5553 10.0695 33.2684 10.1565 33.0244 10.3194C32.7804 10.4823 32.5901 10.7139 32.4776 10.985C32.3652 11.256 32.3356 11.5542 32.3926 11.8421C32.4495 12.1299 32.5905 12.3944 32.7978 12.6022C33.005 12.8099 33.2691 12.9516 33.5568 13.0092C33.8445 13.0669 34.1429 13.0381 34.4142 12.9263C34.6855 12.8145 34.9176 12.6248 35.0811 12.3812C35.2447 12.1376 35.3324 11.851 35.3331 11.5576C35.3329 11.1636 35.1766 10.7858 34.8983 10.5069C34.6201 10.2279 34.2427 10.0707 33.8487 10.0695ZM36.8212 23.0755C36.2341 23.0755 35.6601 22.9014 35.1718 22.5752C34.6836 22.249 34.3031 21.7853 34.0784 21.2429C33.8537 20.7004 33.7949 20.1035 33.9095 19.5276C34.024 18.9517 34.3068 18.4228 34.722 18.0076C35.1372 17.5924 35.6662 17.3096 36.242 17.1951C36.8179 17.0805 37.4149 17.1393 37.9574 17.364C38.4998 17.5887 38.9635 17.9692 39.2897 18.4574C39.6159 18.9456 39.7901 19.5196 39.7901 20.1068C39.7885 20.8937 39.4752 21.6479 38.9188 22.2043C38.3624 22.7607 37.6081 23.0739 36.8212 23.0755ZM36.8212 18.6165C36.5276 18.6165 36.2407 18.7035 35.9965 18.8666C35.7524 19.0297 35.5622 19.2616 35.4498 19.5328C35.3375 19.804 35.3081 20.1025 35.3653 20.3904C35.4226 20.6784 35.564 20.9429 35.7716 21.1505C35.9792 21.358 36.2437 21.4994 36.5316 21.5567C36.8196 21.614 37.1181 21.5846 37.3893 21.4722C37.6605 21.3599 37.8924 21.1696 38.0555 20.9255C38.2186 20.6814 38.3056 20.3944 38.3056 20.1008C38.3045 19.7075 38.1477 19.3307 37.8696 19.0525C37.5914 18.7744 37.2146 18.6177 36.8212 18.6165Z" fill="#5D38DE" stroke="#5D38DE" stroke-width="0.997407"/>
<path d="M34.5909 20.8422H20.4697C20.2729 20.8422 20.0841 20.764 19.9449 20.6248C19.8057 20.4856 19.7275 20.2968 19.7275 20.1C19.7275 19.9031 19.8057 19.7144 19.9449 19.5752C20.0841 19.436 20.2729 19.3578 20.4697 19.3578H34.5909C34.7878 19.3578 34.9766 19.436 35.1158 19.5752C35.2549 19.7144 35.3331 19.9031 35.3331 20.1C35.3331 20.2968 35.2549 20.4856 35.1158 20.6248C34.9766 20.764 34.7878 20.8422 34.5909 20.8422ZM27.1585 8.57981H20.4697C20.2729 8.57981 20.0841 8.50161 19.9449 8.36243C19.8057 8.22324 19.7275 8.03446 19.7275 7.83762C19.7275 7.64078 19.8057 7.45201 19.9449 7.31282C20.0841 7.17363 20.2729 7.09544 20.4697 7.09544H26.8527L28.775 5.17318C28.915 5.03799 29.1025 4.96318 29.2971 4.96487C29.4917 4.96656 29.6778 5.04462 29.8155 5.18222C29.9531 5.31983 30.0311 5.50598 30.0328 5.70058C30.0345 5.89518 29.9597 6.08265 29.8245 6.22263L27.684 8.36235C27.615 8.43136 27.5331 8.48609 27.4429 8.5234C27.3527 8.56072 27.2561 8.57988 27.1585 8.57981Z" fill="#5D38DE" stroke="#5D38DE" stroke-width="0.997407"/>
<path d="M30.8741 7.0947C30.2869 7.0947 29.7129 6.92059 29.2247 6.59438C28.7365 6.26817 28.356 5.80451 28.1313 5.26205C27.9066 4.71958 27.8478 4.12267 27.9623 3.54679C28.0769 2.97091 28.3596 2.44194 28.7748 2.02675C29.19 1.61157 29.719 1.32882 30.2949 1.21427C30.8708 1.09972 31.4677 1.15851 32.0102 1.38321C32.5527 1.60791 33.0164 1.98842 33.3426 2.47662C33.6688 2.96483 33.8429 3.5388 33.8429 4.12596C33.8413 4.91284 33.5281 5.66704 32.9716 6.22344C32.4152 6.77985 31.661 7.09313 30.8741 7.0947ZM30.8741 2.63566C30.5805 2.63566 30.2935 2.72271 30.0494 2.88582C29.8053 3.04892 29.615 3.28075 29.5027 3.55198C29.3903 3.82322 29.3609 4.12167 29.4182 4.40961C29.4755 4.69755 29.6169 4.96204 29.8245 5.16963C30.0321 5.37723 30.2966 5.5186 30.5845 5.57587C30.8724 5.63315 31.1709 5.60375 31.4422 5.4914C31.7134 5.37906 31.9452 5.1888 32.1083 4.9447C32.2714 4.70059 32.3585 4.41361 32.3585 4.12003C32.3573 3.72671 32.2006 3.34984 31.9224 3.07172C31.6443 2.7936 31.2674 2.63683 30.8741 2.63566Z" fill="#5D38DE" stroke="#5D38DE" stroke-width="0.997407"/>
</g>
<defs>
<clipPath id="clip0_203_123">
<rect width="39.8963" height="39.8963" fill="white" transform="translate(0.891602 0.152344)"/>
</clipPath>
</defs>
</svg>
