<svg width="471" height="471" viewBox="0 0 471 471" fill="none" xmlns="http://www.w3.org/2000/svg">
<path fill-rule="evenodd" clip-rule="evenodd" d="M225.799 99.9968C417.445 94.9843 435.742 235.888 395.507 237.032C317.753 239.244 312.637 281.959 261.398 329.263C178.639 405.672 81.2522 410.034 87.0625 210.842C89.5049 127.241 148.037 102.03 225.799 99.9968Z" fill="#F5F2FD"/>
<path fill-rule="evenodd" clip-rule="evenodd" d="M358.8 255.673C414.177 243.307 424.832 268.198 413.209 270.812C390.749 275.862 393.809 283.667 378.158 296.151C355.317 314.373 328.965 307.238 322.783 284.397C318.665 269.179 336.33 260.69 358.8 255.673Z" fill="#F5F2FD"/>
<path d="M339.681 311.544C336.023 310.486 332.745 309.455 329.342 308.035C324.914 306.295 321.018 303.39 316.694 301.444C312.576 299.465 308.08 298.67 303.79 297.186C301.44 296.476 298.902 295.182 296.279 294.413C297.215 294.149 298.19 293.863 299.154 293.609C299.754 293.47 300.364 293.301 300.935 293.152C301.788 293.58 302.663 293.963 303.555 294.301C305.523 295.086 307.541 295.819 309.605 296.326C314.356 297.416 319.192 298.259 324.115 298.475C329.305 298.575 334.231 297.096 339.177 296.87C340.819 296.815 342.502 297.016 344.043 297.065C344.306 297.053 344.645 296.824 344.615 296.536C344.392 296.148 343.849 296.029 343.486 295.765C339.978 293.617 336.13 292.077 331.998 291.824C326.817 291.416 321.698 292.517 316.813 291.345C315.521 291.105 314.246 290.779 312.997 290.37C314.819 289.513 316.651 288.625 318.419 287.644C321.398 285.976 324.146 283.847 326.968 281.882C331.069 278.941 335.414 276.326 339.151 272.844C339.702 272.377 341.041 271.041 339.562 271.186C337.652 271.737 335.775 272.471 333.838 272.909C322.375 274.55 311.795 279.992 303.793 288.362C302.664 289.563 301.581 290.815 300.68 292.199C300.616 292.277 300.564 292.364 300.526 292.457C298.666 292.955 296.853 293.505 295.001 294.075C294.932 294.086 294.893 294.107 294.824 294.117C294.135 294.329 293.445 294.54 292.784 294.761C293.276 293.997 293.8 293.14 294.213 292.695C295.5 291.133 296.733 290.383 298.228 289.066C301.86 285.79 305.048 281.736 306.8 277.048C308.421 272.833 310.2 269.192 312.763 265.442C313.986 261.816 299.929 275.709 299.256 276.341C296.073 279.254 294.01 283.246 292.327 287.266C291.531 289.379 290.892 291.788 289.931 293.532C289.513 294.46 288.855 295.236 288.36 296.103C288.358 296.151 288.363 296.199 288.375 296.246C286.906 296.741 285.444 297.308 283.993 297.844C283.953 297.865 283.924 297.855 283.884 297.876C283.213 298.128 282.542 298.38 281.888 298.673C281.92 298.581 281.924 298.478 281.956 298.385C282.087 297.865 282.283 297.363 282.538 296.891C285.505 292.069 289.285 287.805 292.49 283.136C294.185 280.677 295.872 278.146 296.972 275.343C297.776 273.302 298.168 270.67 299.02 268.957C300.073 267.038 301.338 265.26 302.62 263.524C302.796 263.204 304.055 261.91 304.38 261.157C304.544 259.934 302.847 261.181 302.363 261.359C297.971 263.923 294.086 267.458 290.964 271.603C288.887 274.137 286.875 276.763 285.476 279.774C282.909 284.942 281.895 291.34 279.532 296.198C278.828 297.609 277.965 298.936 276.963 300.153C276.751 300.391 276.813 300.586 276.987 300.646C275.118 301.453 273.295 302.31 271.463 303.198C271.929 300.349 273.658 297.417 275.264 294.651C277.158 291.431 278.812 288.057 280.437 284.675C281.513 282.314 282.514 279.891 283.04 277.339C283.726 273.389 283.815 269.475 284.726 265.81C285.028 264.625 285.418 263.465 285.894 262.339C286.076 261.813 286.453 261.286 286.324 260.723C286.196 260.436 285.802 260.542 285.582 260.708C285.039 261.247 284.684 261.989 284.188 262.579C282.625 264.564 280.538 267.407 278.944 269.762C275.671 274.72 272.688 280.055 271.3 285.942C270.27 290.327 270.279 295.175 269.414 299.271C269.129 300.937 268.863 302.644 268.075 304.171C268.053 304.233 267.982 304.347 267.992 304.316C267.928 304.501 267.727 304.708 267.789 304.903C267.796 304.918 267.807 304.932 267.82 304.942C267.833 304.953 267.849 304.96 267.865 304.964C265.416 306.227 263.022 307.613 260.645 309.041C260.676 308.671 260.62 308.27 260.719 307.889C260.781 307.149 261.118 305.986 261.432 304.987C262.266 302.576 263.532 300.419 264.477 297.874C266.522 293.183 266.659 288.005 267.123 283.009C267.572 277.489 267.122 272.038 267.073 266.553C267.094 265.629 267.165 264.706 267.283 263.788L267.315 263.696C267.524 262.768 267.686 261.831 267.8 260.887C267.871 260.497 267.407 260.336 267.137 260.554C266.74 260.763 266.793 261.266 266.694 261.647C266.545 262.357 266.466 263.056 266.386 263.754C265.785 266.522 264.856 269.489 263.954 272.187C262.251 276.547 259.91 280.685 258.805 285.286C257.83 289.137 258.118 293.181 258.704 297.017C259.083 299.017 259.547 300.493 259.405 302.589C259.404 304.562 259.265 306.278 258.803 307.987C258.586 308.708 258.322 309.378 258.047 310.079C258.032 310.121 258.028 310.167 258.035 310.212C258.043 310.257 258.061 310.299 258.088 310.335C258.119 310.363 258.156 310.385 258.196 310.399C258.235 310.412 258.278 310.418 258.32 310.415C256.643 311.424 254.979 312.451 253.326 313.498C253.69 312.919 253.999 312.307 254.25 311.672C255.351 309.146 255.688 306.39 256.043 303.675C256.507 300.272 256.602 296.809 255.942 293.466C255.45 290.666 254.486 288.014 253.846 285.266C253.145 282.043 252.792 278.754 252.796 275.455C252.803 275.276 252.821 275.097 252.851 274.921C252.953 274.437 253.045 273.984 253.108 273.521C252.378 272.819 252.06 273.643 251.929 275.051C251.273 278.354 250.044 282.186 249.715 285.671C249.346 290.769 249.932 295.92 251.024 300.831C251.613 303.631 252.971 306.177 253.017 308.858C253.047 310.46 252.619 311.696 252.11 313.354C252.065 313.58 251.842 313.849 252.02 314.084L252.078 314.104C252.052 314.166 252.039 314.233 252.043 314.3C244.505 319.201 237.289 324.767 230.902 331.312C230.114 332.181 229.287 333.072 228.547 333.992C228.39 334.353 228.824 334.503 229.102 334.357C230.045 333.507 230.792 332.381 231.717 331.49C238.928 324.157 247.107 318.059 255.89 312.655C258.69 314.973 260.793 318.089 263.492 320.511C268.733 325.058 275.752 326.345 281.896 329.129C282.516 329.309 283.502 329.927 283.947 329.112C283.965 329.058 283.966 329 283.95 328.945C283.934 328.89 283.902 328.841 283.858 328.805C283.466 328.531 283.042 328.349 282.629 328.137C280.185 326.945 278.377 325.42 276.407 323.423C275.716 322.699 275.014 322.007 274.302 321.345C275.307 322.004 276.363 322.612 277.418 323.219C280.676 325.246 284.726 326.579 288.055 327.557C291.373 328.825 294.436 330.682 297.095 333.039C297.708 333.424 298.272 334.139 298.992 334.215C300.133 333.918 299.153 333.094 298.727 332.635C295.17 329.224 292.097 325.254 288.195 322.277C285.93 320.662 283.787 319.54 281.76 317.8C279.564 316.175 277.694 314.075 275.376 312.615C272.394 310.822 268.881 310.471 265.973 309.119C265.136 308.725 264.515 308.268 263.895 307.811C266.08 306.56 268.244 305.371 270.484 304.243L272.053 305.617C274.907 308.438 278.216 310.691 281.64 312.707C284.307 314.287 287.266 315.207 289.789 317.014C295.308 320.759 299.824 327.028 305.695 330.79C307.178 331.753 308.591 332.83 310.096 333.732C310.713 334.014 311.58 334.695 312.177 334.002C312.417 333.497 311.772 333.204 311.517 332.908C310.663 332.094 309.78 331.269 309.027 330.351C305.159 325.586 301.664 320.397 296.889 316.565C291.834 312.324 286.516 308.372 280.578 305.556C278.384 304.485 276.168 303.199 273.661 303.128C273.375 303.13 273.088 303.111 272.804 303.073C274.915 302.039 277.091 301.096 279.314 300.205C279.996 299.922 280.668 299.669 281.35 299.386C282.611 300.619 283.397 302.379 284.889 303.414C289.844 307.101 295.333 309.901 301.09 311.927C310.138 315.231 319.03 319.451 328.759 320.222C329.559 320.257 330.388 320.578 331.187 320.335C332.311 319.617 330.32 319.274 329.878 319.052C328.237 318.449 327.074 318.151 325.378 317.425C323.514 316.434 321.733 315.299 319.912 314.184C315.148 311.255 310.399 308.193 305.21 306.12C299.785 304.07 294.51 302.902 289.365 300.326C287.825 299.619 286.334 298.861 284.876 298.011C287.493 297.013 290.089 296.077 292.75 295.233C292.838 295.541 293.349 295.752 293.557 295.997C295.413 297.574 297.699 298.469 299.792 299.643C303.071 301.608 306.164 303.924 309.619 305.57C315.008 307.815 320.233 309.692 326.043 310.907C329.689 311.719 333.404 312.52 337.183 312.478C337.81 312.731 340.677 312.512 339.681 311.544ZM262.039 309.142C262.057 309.183 262.086 309.193 262.104 309.234C262.123 309.275 262.629 309.969 262.45 309.734C263.356 311.432 264.6 312.901 265.866 314.308C266.091 314.593 266.327 314.848 266.564 315.103C264.364 313.698 261.948 312.663 259.413 312.04C258.852 311.88 258.406 311.761 257.971 311.61C259.305 310.757 260.657 309.944 262.039 309.142Z" fill="url(#paint0_linear_1177_228)"/>
<path d="M302.642 230.647C299.068 233.256 295.803 235.558 292.15 237.796C287.479 240.755 282.336 242.762 277.588 245.544C272.972 248.14 268.96 251.566 264.586 254.52C262.267 256.183 259.367 257.751 256.797 259.617C257.309 258.717 257.835 257.776 258.376 256.857C258.727 256.294 259.063 255.708 259.385 255.165C260.362 254.636 261.308 254.062 262.239 253.466C264.324 252.156 266.408 250.781 268.357 249.27C272.784 245.759 277.091 242.068 280.993 238.033C285.011 233.723 287.64 228.951 291.227 224.703C292.433 223.303 293.862 221.979 295.07 220.708C295.261 220.481 295.346 220.098 295.107 219.999C294.646 220.017 294.144 220.421 293.67 220.611C289.391 222.621 285.31 225.181 281.982 228.536C277.74 232.705 274.679 237.475 270.088 241.064C269.056 241.957 267.682 242.982 266.456 243.842C267.196 241.942 267.92 240.02 268.525 238.112C269.534 234.89 270.021 231.661 270.688 228.442C271.591 223.727 272.926 218.949 273.146 214.304C273.214 213.64 273.226 211.938 272.213 213.241C271.175 215.082 270.302 216.974 269.16 218.788C261.868 228.827 257.715 240.2 257.956 250.69C258.001 252.158 258.12 253.609 258.476 254.964C258.485 255.049 258.511 255.131 258.553 255.206C257.515 256.982 256.551 258.74 255.572 260.541C255.528 260.604 255.513 260.646 255.47 260.708C255.105 261.378 254.74 262.048 254.404 262.698C254.203 261.954 253.957 261.144 253.936 260.603C253.74 258.846 254.113 257.487 254.257 255.662C254.554 251.195 253.928 246.763 251.734 243.26C249.797 240.072 248.411 237.001 247.539 233.224C245.742 230.626 245.508 248.441 245.472 249.28C245.245 253.213 246.679 256.675 248.423 259.831C249.406 261.414 250.732 262.995 251.313 264.557C251.693 265.311 251.777 266.199 252.053 266.99C252.112 267.015 252.127 267.037 252.172 267.04C251.428 268.487 250.744 269.959 250.045 271.408C250.03 271.45 250.001 271.47 249.986 271.513C249.665 272.185 249.345 272.858 249.069 273.533C249.024 273.465 248.949 273.418 248.903 273.351C248.612 273.015 248.381 272.63 248.222 272.215C246.851 267.635 246.517 262.616 245.441 257.901C244.88 255.413 244.259 252.901 242.987 250.762C242.064 249.203 240.382 247.733 239.742 246.275C239.099 244.559 238.724 242.728 238.392 240.899C238.285 240.613 238.269 238.995 237.95 238.396C237.154 237.728 236.803 239.692 236.569 240.175C235.161 244.971 234.868 249.762 235.612 254.179C235.939 257.02 236.385 259.847 237.586 262.327C239.521 266.722 243.56 270.346 245.418 274.435C245.95 275.667 246.295 276.972 246.44 278.306C246.457 278.587 246.652 278.619 246.828 278.499C246.015 280.417 245.275 282.317 244.551 284.24C242.764 282.612 241.873 279.891 241.013 277.344C240.03 274.359 238.751 271.509 237.442 268.679C236.485 266.751 235.424 264.862 233.905 263.313C231.456 261.025 228.582 259.253 226.519 256.899C225.858 256.134 225.281 255.3 224.797 254.413C224.54 254.033 224.43 253.488 223.908 253.352C223.596 253.335 223.376 253.711 223.334 253.967C223.326 254.657 223.615 255.276 223.682 255.948C223.987 258.12 224.538 261.103 225.098 263.462C226.339 268.358 228.085 273.173 231.456 276.891C233.969 279.657 237.621 281.752 240.043 284.254C241.079 285.216 242.161 286.18 242.71 287.503C242.74 287.548 242.771 287.657 242.756 287.635C242.847 287.769 242.849 288.028 243.043 288.06C243.081 288.06 243.118 288.047 243.147 288.022C242.236 290.625 241.459 293.234 240.727 295.846C240.473 295.66 240.129 295.534 239.918 295.285C239.408 294.912 238.79 294.124 238.277 293.428C237.098 291.683 236.438 289.686 235.243 287.788C233.27 284.038 229.481 281.677 226.078 279.122C222.27 276.35 217.83 274.364 213.669 272.026C212.998 271.613 212.357 271.153 211.75 270.65L211.705 270.583C211.162 270.002 210.58 269.459 209.962 268.958C209.722 268.73 209.249 269.049 209.207 269.37C209.063 269.794 209.481 269.967 209.692 270.216C210.117 270.635 210.569 271.026 211.043 271.388C212.668 273.093 214.192 275.159 215.536 277.085C217.52 280.405 218.853 284.163 221.472 287.086C223.625 289.574 226.884 291.087 230.215 292.259C232.006 292.808 233.467 293.059 234.935 294.088C236.417 294.944 237.602 295.806 238.536 296.935C238.898 297.429 239.231 297.943 239.534 298.476C239.56 298.508 239.595 298.532 239.635 298.546C239.674 298.56 239.717 298.562 239.757 298.553C239.85 298.523 239.932 298.468 239.994 298.393C239.481 300.229 238.989 302.071 238.518 303.918C238.362 303.369 238.136 302.843 237.847 302.351C236.784 300.332 234.969 298.854 233.198 297.379C230.991 295.513 228.46 293.932 225.445 293.035C222.967 292.233 220.241 291.891 217.69 291.236C214.831 290.466 212.084 289.332 209.516 287.862C209.388 287.779 209.268 287.686 209.156 287.583C208.884 287.295 208.599 287.02 208.299 286.761C207.216 287.069 207.595 287.693 208.554 288.413C210.539 290.396 212.486 293.088 214.855 294.876C218.408 297.397 222.726 299.14 227.247 300.355C229.799 301.075 232.744 301.04 234.794 302.164C236.021 302.834 236.626 303.729 237.486 304.875C237.621 305.012 237.654 305.316 237.966 305.268L238.025 305.228C238.052 305.278 238.094 305.318 238.145 305.342C236.104 313.79 234.807 322.256 234.877 330.452C234.932 331.49 234.973 332.57 235.102 333.59C235.254 333.878 235.697 333.579 235.798 333.283C235.876 332.123 235.596 331.008 235.629 329.846C235.594 320.618 237.222 311.113 239.831 301.402C243.7 300.06 247.639 299.648 251.51 298.435C258.91 296.012 265.209 290.683 271.969 286.738C272.574 286.296 273.789 285.737 273.513 285.01C273.476 284.97 273.428 284.943 273.374 284.932C273.32 284.921 273.265 284.928 273.215 284.952C272.711 285.161 272.253 285.438 271.779 285.693C269.028 287.226 266.507 288.081 263.509 288.867C262.441 289.133 261.387 289.421 260.349 289.731C261.608 289.174 262.866 288.552 264.124 287.931C268.123 286.077 272.201 283.259 275.465 280.892C278.884 278.684 282.578 276.934 286.452 275.687C287.207 275.34 288.173 275.177 288.777 274.606C289.421 273.52 288.057 273.985 287.389 274.143C282.122 275.647 276.804 276.501 271.601 278.483C268.667 279.682 266.196 280.993 263.349 281.938C260.459 283.075 257.46 283.732 254.602 285.043C250.989 286.766 248.056 289.561 244.832 291.413C244.008 291.869 243.152 292.262 242.27 292.589C242.989 290.213 243.739 287.883 244.592 285.515L246.817 284.794C251.105 283.625 255.313 281.827 259.428 279.829C262.641 278.278 265.581 276.196 268.855 274.864C275.863 271.859 284.006 270.79 291.293 267.499C293.144 266.672 295.026 265.955 296.848 265.083C297.528 264.689 298.699 264.256 298.631 263.455C298.434 263.035 297.724 263.449 297.308 263.534C296.047 263.897 294.756 264.28 293.494 264.514C286.974 265.691 280.419 266.371 273.911 268.713C266.882 271.114 259.873 273.86 253.246 277.619C250.775 278.994 248.125 280.295 246.167 282.366C245.948 282.61 245.717 282.842 245.475 283.062C246.3 280.843 247.244 278.609 248.263 276.357C248.568 275.663 248.889 274.99 249.194 274.295C251.078 273.772 252.999 273.876 254.91 273.074C261.445 270.518 267.72 267.128 273.616 263.179C282.972 257.024 292.898 251.396 300.868 243.571C301.501 242.916 302.373 242.359 302.797 241.585C303.111 240.33 301.341 241.851 300.838 242.125C299.138 243.24 298.031 244.086 296.197 245.194C294.037 246.327 291.83 247.329 289.609 248.373C283.789 251.097 277.879 253.752 272.379 257.205C266.718 260.865 261.833 264.783 255.989 267.98C254.288 268.966 252.586 269.887 250.839 270.741C252.077 268.113 253.345 265.531 254.731 262.933C255.03 262.991 255.577 262.655 255.918 262.587C258.513 261.715 260.923 260.185 263.395 258.939C267.364 257.041 271.454 255.452 275.315 253.268C281.097 249.723 286.476 246.155 291.803 241.809C295.183 239.103 298.606 236.335 301.445 233.147C302.113 232.731 304.125 230.231 302.642 230.647ZM241.862 294.723C241.907 294.725 241.936 294.705 241.981 294.708C242.026 294.71 242.932 294.587 242.62 294.634C244.584 294.611 246.633 294.205 248.652 293.754C249.038 293.688 249.409 293.601 249.781 293.513C247.03 294.763 244.434 296.33 242.046 298.182C241.5 298.583 241.072 298.905 240.629 299.205C241 297.716 241.416 296.229 241.862 294.723Z" fill="url(#paint1_linear_1177_228)"/>
<path d="M84.5939 313.55C84.0255 310.995 85.0346 308.062 86.9033 306.302L87.4585 305.835C87.0051 305.521 86.4836 305.201 86.1101 304.757C85.4195 304.011 85.1303 302.991 85.1136 301.993C85.1376 301.258 85.417 300.554 85.9038 300.002C86.3228 299.524 86.9033 299.162 87.4157 298.794C88.236 298.041 89.3053 297.585 90.3468 297.847C90.866 296.21 92.2551 295.231 94.5601 295.568C96.357 295.827 98.1279 297.181 98.0988 299.101C98.1777 300.171 97.6632 301.363 98.0007 302.216C98.3893 303.279 99.8783 303.923 100.436 302.633C100.902 301.608 100.483 300.508 99.7047 299.583C98.1427 297.8 95.9498 296.168 96.7308 293.49C98.0193 289.311 104.994 288.439 106.901 292.585C106.987 292.754 107.052 292.933 107.095 293.117C107.132 293.086 107.132 293.086 107.2 293.092C107.19 292.737 107.233 292.382 107.326 292.039C107.57 291.202 107.975 290.482 108.04 289.732C108.136 289.02 107.905 288.519 107.469 288.001C106.648 287.175 105.177 286.327 104.923 284.897C104.803 284.303 104.936 283.56 105.443 283.261C105.912 282.992 106.73 283.063 106.844 283.725C106.883 284.072 106.618 284.358 106.333 284.471C106.191 284.527 105.924 284.435 105.942 284.231C105.985 284.132 106.127 284.075 106.164 284.044L106.238 283.982C106.447 283.554 106.124 283.32 105.723 283.594C105.118 284.228 105.452 285.527 106.242 286.316C106.678 286.834 107.497 287.283 107.989 287.944C108.357 288.456 108.644 289.099 108.554 289.743C108.478 290.629 107.875 291.641 107.779 292.353C107.769 292.548 107.741 292.741 107.695 292.93C108.046 292.794 108.411 292.699 108.784 292.646C110.474 292.552 112.249 293.461 113.079 294.975C113.537 295.742 113.859 296.583 114.031 297.46C114.897 297.363 115.881 297.105 116.792 297.287C116.86 297.293 116.959 297.336 117.027 297.341C116.909 297.125 116.821 296.946 116.703 296.73C114.264 291.198 112.962 285.216 110.418 279.71C110.162 279.104 109.868 278.529 109.581 277.886C109.506 277.949 109.395 278.042 109.39 278.11C108.785 278.744 108.2 279.552 107.348 279.89C106.91 280.044 106.441 280.082 105.985 280C105.529 279.918 105.102 279.72 104.745 279.424C104.298 279.042 104.029 278.573 103.656 278.129C103.158 277.537 102.444 277.063 101.755 276.695C100.731 276.228 99.5282 275.85 98.9288 274.837C98.4739 274.145 98.2351 273.335 98.0955 272.568C95.9805 273.208 93.6653 273.386 91.8517 272.13C91.7096 272.187 91.5304 272.274 91.5245 272.342C90.6741 272.89 89.7717 273.351 88.8304 273.721C85.4803 275.148 81.7394 273.554 80.8507 269.941C80.8061 269.663 80.7304 269.347 80.6858 269.069C79.0757 269.033 78.3642 267.735 77.9118 266.22C77.7099 265.379 77.7496 264.525 77.5849 263.652C77.5211 263.2 77.3949 262.674 77.2746 262.08C76.2011 262.983 74.9769 264.833 73.4181 263.806C71.0074 261.915 70.7923 258.052 72.5779 255.667C72.2143 255.554 71.8436 255.464 71.4684 255.399C71.1335 255.301 69.9204 255.437 69.2819 255.278C67.8258 255.05 67.9984 253.451 68.5949 252.507C69.6117 250.708 71.164 249.271 73.0357 248.395C73.1409 248.37 73.215 248.308 73.3201 248.282C73.2326 248.103 73.151 247.856 73.0946 247.714C72.9683 247.19 73.016 246.64 73.2304 246.146C74.4824 243.577 78.1759 244.137 80.7664 244.739C80.6476 244.04 80.6844 243.323 80.8741 242.639C81.0638 241.955 81.4018 241.322 81.8639 240.784C83.3742 239.198 85.8637 237.8 87.9616 238.943C88.833 238.401 89.928 238.427 90.896 238.751C91.6517 238.991 92.3625 239.354 92.9998 239.825C93.1303 239.905 93.2235 240.016 93.354 240.096C92.8275 238.643 92.3692 237.196 91.8058 235.775C91.664 235.757 91.5348 235.684 91.4457 235.572C90.915 234.565 90.2825 234.339 89.3639 233.847C87.7134 233.086 86.3994 232.801 84.5269 232.227C82.6854 231.69 80.8868 231.054 79.0942 230.349C78.3731 231.145 77.5705 231.694 76.8612 232.353C76.2571 232.987 76.0441 233.861 75.6955 234.724C75.1434 235.946 74.35 237.181 73.1014 237.726C72.2095 238.126 71.2194 238.255 70.2545 238.097C70.1864 238.091 70.1552 238.054 70.1183 238.085C70.1103 238.159 70.0803 238.228 70.0324 238.284C69.4922 239.37 68.7475 240.439 67.6411 240.926C66.6711 241.426 65.0921 241.426 64.2879 241.597C62.9573 241.894 62.0945 242.746 60.7157 243.21C59.51 243.655 58.0733 243.599 56.9679 242.886C55.956 242.283 55.4178 240.967 55.7904 239.832C55.9391 239.405 56.1593 239.006 56.4417 238.653C56.0497 238.36 55.6874 238.03 55.3599 237.666C54.3834 236.655 54.1665 235.195 55.0904 234.039C55.4724 233.592 56.1876 232.864 56.3593 232.467C57.0728 231.362 56.6086 229.982 56.8629 228.632C57.3065 226.679 58.8108 225.162 60.597 224.355C59.8483 223.089 60.4557 221.631 61.0694 220.483C61.4128 219.689 61.3784 218.896 61.0032 218.074C60.56 217.247 60.2043 216.598 60.7773 215.927C60.5164 215.767 60.2927 215.576 60.0008 215.379C59.0941 214.751 58.4818 213.497 58.9168 212.436C59.1802 211.772 59.7355 211.306 60.2227 210.833C60.7893 210.18 61.1971 209.404 61.4142 208.568C61.6272 207.693 61.7468 206.708 62.4367 205.876C64.1809 203.967 67.8497 203.221 69.6489 205.436C70.4833 206.503 70.4351 208.25 71.7432 208.603C71.882 208.626 72.0244 208.615 72.1579 208.57C71.1116 207.176 70.5406 205.444 69.1064 204.565C68.0322 203.888 66.5491 203.176 65.6954 201.935C65.2463 201.176 65.0311 200.093 65.4796 199.274C65.8792 198.622 66.6272 198.309 67.3129 197.922L67.4239 197.829C67.0253 197.426 66.6252 197.026 66.2237 196.626L66.1866 196.657C65.8521 196.891 65.4409 196.987 65.0375 196.927C64.6341 196.867 64.2692 196.654 64.0179 196.332C63.7066 195.962 63.551 195.777 63.228 195.544C63.1527 195.482 63.0583 195.45 62.9614 195.452C62.4844 195.41 62.0949 195.548 61.5131 195.532C59.7666 195.484 59.3749 193.665 60.0749 192.319C60.3206 191.859 60.6908 191.548 61.0921 191.274C60.812 190.941 60.4949 190.639 60.2149 190.305C60.1408 190.368 59.9986 190.424 59.9246 190.486C59.0479 191.097 58.7684 192.343 58.526 193.558C58.2894 194.704 57.6323 195.952 56.4326 196.328C54.8064 196.874 53.0255 196.034 52.0044 194.744C51.3256 193.861 50.9312 192.866 49.9445 192.369C49.6215 192.135 48.5489 191.836 48.0273 191.516C47.4312 191.183 46.9774 190.643 46.7514 189.998C46.635 189.675 46.583 189.333 46.5983 188.99L46.5242 189.052C46.0482 189.593 45.7298 190.254 45.6036 190.963C45.5018 191.744 45.8457 192.529 46.1763 193.072C46.7439 194.048 47.9325 195.387 47.0829 196.48C46.621 197.058 45.8714 196.993 45.2152 197.039C45.1782 197.071 45.2152 197.039 45.2834 197.045C44.4968 197.012 43.8363 197.504 43.7526 198.08C43.6743 198.588 44.3246 198.61 44.8 198.273L44.948 198.149C45.0473 198.192 44.7436 198.131 44.7125 198.094C44.5199 197.94 44.742 197.754 44.9464 197.771C45.256 197.764 45.6842 197.972 45.4814 198.332C45.2416 198.724 44.7469 198.887 44.3322 198.919C43.0197 199.012 42.9156 197.836 43.8352 197.126C44.5386 196.535 45.7222 196.74 46.211 196.645C47.1634 196.35 46.8917 195.125 46.4056 194.396C45.583 193.192 44.6478 191.704 45.2915 190.215C45.549 189.619 45.8494 188.924 46.4611 188.6C46.4467 188.578 46.4275 188.559 46.4049 188.545C46.3824 188.531 46.357 188.523 46.3308 188.52C45.8773 188.206 45.6847 188.052 45.2194 187.874C44.1957 187.408 42.4097 188.215 40.786 187.937C39.1195 187.758 37.5832 186.081 38.0397 184.369C38.3756 183.265 39.3382 182.456 40.3452 181.926C39.0843 181.027 37.4 181.053 36.0634 179.839C35.118 178.864 36.8123 178.324 37.4922 178.006C38.0297 177.743 39.1597 176.983 40.0514 176.991C40.1565 176.966 40.2558 177.009 40.3609 176.984L40.3299 176.947C40.26 176.563 40.2332 176.08 40.5041 175.726C41.6308 174.211 45.5965 174.794 47.373 176.081L47.3419 176.044C46.8401 175.108 46.6904 174.023 46.92 172.986C47.2852 171.997 47.9608 171.153 48.8457 170.58C49.7306 170.007 50.7772 169.736 51.8291 169.807L51.8973 169.813C51.5522 169.539 51.2223 169.247 50.9089 168.938C50.3737 168.46 49.7886 168.041 49.1635 167.688C47.0344 166.509 44.4997 166.049 42.5735 164.509C42.126 164.127 41.5094 163.319 42.0707 162.784C42.5459 162.447 43.1845 162.606 43.7297 162.653C44.8451 162.852 46.1827 162.865 47.209 162.508C48.4399 162.168 49.632 161.482 50.9579 161.631C51.0972 161.514 51.2141 161.373 51.3029 161.214C52.6452 159.58 54.8927 159.397 56.8923 159.295C58.2728 159.209 59.3985 158.895 60.4796 158.301C62.8211 157.028 65.0035 154.814 67.821 154.783C68.4487 154.782 69.0672 154.935 69.6222 155.229C70.1773 155.522 70.652 155.947 71.0049 156.466C71.8586 157.707 71.5937 159.572 70.0732 160.093C68.2425 160.621 67.3469 158.278 65.8342 157.907C65.6668 157.858 65.1587 157.779 64.9113 157.861C64.5842 157.977 64.2793 158.148 64.0095 158.367C63.6393 158.678 63.3313 159.063 62.9359 159.269C63.0292 159.38 63.0856 159.522 62.9257 159.783C62.3897 160.423 61.461 160.446 60.7753 160.833C59.9164 161.239 58.905 162.215 58.1663 163.216C57.5075 164.085 56.963 165.618 56.3546 166.697C55.857 167.611 55.1675 168.406 54.3335 169.029C54.1775 169.149 54.0075 169.249 53.8272 169.328C53.8305 170.084 53.8708 170.808 53.8799 171.495C53.9169 171.464 53.9851 171.47 54.0221 171.438C54.3376 171.33 54.6386 171.183 54.918 171.001C55.7894 170.459 56.547 169.632 57.5615 169.411C58.1554 169.29 58.7999 169.381 59.2844 169.731C59.7378 170.045 60.1365 170.595 60.1574 171.146C60.2793 172.117 59.6885 172.993 59.172 173.807C58.9262 174.266 58.7487 174.731 58.8244 175.047C58.9234 175.296 59.1152 175.497 59.3593 175.608C59.7623 175.712 60.22 175.579 60.8819 175.465C61.018 175.435 61.1576 175.424 61.2968 175.432L61.3203 175.16C61.376 173.723 62.4302 172.647 63.8671 172.703C66.8638 172.585 69.0579 177.374 65.2276 178.004C64.6707 178.093 64.0456 178.176 63.5005 178.129C63.557 178.496 63.5937 178.866 63.6106 179.237C63.8173 179.344 64.0026 179.488 64.1573 179.662C64.6611 180.186 64.7014 180.91 64.6424 181.592C64.5593 182.57 64.099 183.478 63.3589 184.123C62.5075 184.839 61.5103 184.856 60.8947 185.626C60.6297 185.912 60.5455 186.488 60.6152 186.872C60.7413 187.398 60.9667 187.967 60.9877 188.518C61.0142 188.873 60.9716 189.231 60.8622 189.571L61.7959 190.681L61.907 190.588C62.6181 190.111 63.3042 189.598 63.9623 189.05C65.2693 187.824 66.1003 186.557 66.8236 184.938C66.9953 184.541 67.167 184.144 67.3017 183.778C65.8844 181.115 68.5682 180.249 68.4203 177.593C68.3942 177.034 68.3276 176.478 68.2211 175.928C67.8207 175.403 67.5776 174.775 67.5198 174.117C67.4854 173.324 67.6865 172.586 67.4359 171.913C67.2223 171.208 66.7984 170.553 66.8633 169.804C66.8896 168.708 68.1703 168.578 69.0019 168.89C70.6077 169.373 71.9132 170.55 72.7922 171.896C73.3658 172.804 73.7603 173.799 73.8392 174.87C73.8333 174.938 73.8644 174.975 73.8274 175.006C74.2201 174.93 74.6007 174.802 74.959 174.624C75.027 174.629 75.6505 174.169 75.9598 174.161C76.4317 174.115 76.9053 174.228 77.305 174.483C78.2993 175.29 78.596 176.62 79.1149 177.764C79.9837 179.624 80.8407 181.62 80.5527 183.758C80.535 183.962 80.4861 184.13 80.4685 184.334C81.0071 184.306 81.5467 184.364 82.0668 184.507C82.7988 184.776 83.5247 185.113 84.0226 185.706C84.2295 186.046 84.3453 186.434 84.359 186.832C84.3726 187.23 84.2836 187.625 84.1005 187.978C83.5662 188.996 82.7073 189.402 82.0231 190.167C81.1229 191.05 81.1606 192.598 80.373 193.766C79.8196 194.61 79.1353 195.375 78.2646 195.917C78.1905 195.98 78.0482 196.036 77.9743 196.098C78.0365 196.172 78.0617 196.277 78.124 196.351C78.293 196.778 78.4872 197.31 78.6547 197.359C79.225 197.511 80.1758 196.838 81.1239 196.989C82.6112 197.255 83.7627 198.624 83.8373 200.141C83.8245 201.479 82.9318 202.672 82.3723 203.584C82.196 203.85 82.0557 204.138 81.9548 204.441C83.9448 204.853 85.7935 205.7 87.3226 207.068C88.2739 207.974 89.3439 209.096 89.3933 210.508C89.3006 211.976 87.7247 212.732 87.0054 213.905C86.6856 214.427 86.5719 215.344 86.7543 216.012C87.0089 217.305 87.4438 218.556 88.046 219.728C88.7146 221.124 89.5877 222.539 89.4832 224.143C89.4413 224.671 89.2918 225.184 89.0439 225.651C89.0009 225.75 88.9209 225.88 88.8781 225.98C89.6593 227.661 90.4095 229.304 91.1167 231.048C92.306 233.965 93.3218 236.902 94.3687 239.876C94.4494 239.886 94.5312 239.882 94.6103 239.863C96.7769 239.81 99.6576 241.432 99.0305 243.918C98.9166 244.579 98.6754 245.21 98.3202 245.779C98.2832 245.81 98.2402 245.909 98.2033 245.94C98.7532 246.322 99.2453 246.78 99.6643 247.302C100.637 248.759 100.8 250.833 99.9463 252.373C99.7582 252.666 99.5504 252.946 99.3245 253.211L99.1765 253.336C99.596 254.436 100.016 255.537 100.472 256.606C102.384 256.325 102.922 257.642 104.029 258.733C104.564 259.294 105.166 259.484 105.598 259.246C106.21 258.922 106.275 258.172 106.037 257.739C105.477 257.073 104.225 256.862 103.301 256.438C102.538 256.132 101.799 255.553 101.455 254.768C101.122 253.85 101.077 252.852 101.325 251.908C101.568 250.693 103.06 247.733 104.584 247.968C104.721 247.407 105.015 246.896 105.432 246.496C106.776 245.239 108.978 244.778 110.611 245.743C111.071 245.989 111.524 246.303 111.798 246.704C112.1 247.222 112.284 247.801 112.338 248.398C112.374 248.498 112.377 248.606 112.346 248.708C112.563 248.699 112.78 248.706 112.996 248.73C113.975 248.917 115.285 249.648 115.986 249.881C116.822 250.125 117.74 250.239 118.448 250.781C120.181 252.166 120.296 254.407 119.277 256.276C119.111 256.605 118.914 256.896 118.754 257.157C119.908 257.703 121.025 258.281 122.179 258.827C124.408 260.049 125.535 261.692 124.609 263.671C126.485 265.001 127.803 267.62 126.586 269.781C125.399 271.6 122.949 272.143 121.661 273.542C121.094 274.145 120.558 274.785 119.841 275.135C119.247 275.377 118.602 275.463 117.966 275.385C117.892 275.447 117.812 275.577 117.738 275.64C117.034 276.231 116.043 276.179 115.206 275.935C113.929 275.619 113.05 274.273 112.032 273.738C111.735 273.61 111.283 273.673 110.993 273.854C110.418 274.148 109.869 274.547 109.238 274.698C110.025 276.311 110.807 277.992 111.52 279.667C114.033 285.136 115.266 291.112 117.779 296.582C118.58 298.436 119.745 300.047 121.034 301.807C121.112 301.299 121.259 300.796 121.604 300.38C122.294 299.547 123.164 299.005 123.619 298.117C124.27 296.938 124.158 295.452 125.008 294.359C126.474 292.495 129.424 292.922 130.972 294.463C131.836 295.19 132.1 296.105 132.154 297.071C133.796 295.943 135.5 294.889 137.475 294.683C139.14 294.483 141.248 295.112 141.93 296.75C142.19 298.111 141.229 299.298 140.683 300.452C140.277 301.172 140.076 301.91 139.905 302.685L139.974 302.691C141.405 302.815 142.873 302.908 144.321 302.827C145.764 302.815 147.409 302.442 148.75 303.21C149.669 303.702 150.157 304.808 149.696 305.764C148.684 307.941 145.771 308.685 143.536 308.731C141.133 308.729 139.25 308.669 137.356 310.324C136.758 310.891 135.834 312.046 135.051 312.768C134.114 313.682 133.077 314.554 131.86 315.135C131.731 315.171 131.61 315.231 131.501 315.31C133.238 317.451 134.969 319.66 136.558 321.926C136.77 322.253 137.05 322.586 137.225 322.945C137.276 323.155 137.023 323.305 136.812 323.355C136.187 323.438 135.968 322.802 135.693 322.4C134.933 321.27 134.068 320.166 133.233 319.098C130.456 315.494 127.525 312.082 124.784 308.447C122.423 305.187 119.778 302.041 117.744 298.569C117.269 298.906 116.737 299.1 116.293 299.473C115.633 299.966 114.777 301.127 114.762 302.088C114.57 303.512 114.955 305.022 115.547 306.103C116.146 307.115 116.854 307.657 117.888 307.61C118.093 307.628 118.568 307.291 118.418 307.038C118.263 306.853 118.163 306.81 117.854 306.818C117.681 306.837 117.531 306.584 117.71 306.496C117.889 306.409 118.057 306.458 118.23 306.438C119.005 306.608 119.318 307.357 118.527 307.769C117.841 308.156 116.936 307.906 116.278 307.574C114.886 306.596 114.284 304.827 114.184 303.206C114.095 302.443 114.211 301.67 114.519 300.967C114.827 300.264 115.317 299.655 115.938 299.204C116.376 298.899 116.809 298.662 117.278 298.393C116.367 298.211 115.378 298.538 114.239 298.611C113.997 298.624 113.762 298.569 113.521 298.583L113.583 298.657C113.707 298.805 114.1 299.422 114.17 299.806C114.748 301.847 112.423 302.538 110.838 302.607C109.179 302.738 107.653 302.125 106.299 302.695C105.783 302.87 105.305 303.144 104.891 303.5C105.381 303.782 105.909 304.034 106.399 304.317C107.976 305.14 109.54 306.099 110.433 307.687C111.512 309.496 112.078 311.673 111.524 313.719C111.233 315.101 110.421 316.542 109 317.105C107.874 317.42 107.117 317.045 106.6 316.279C106.901 318.743 106.443 321.655 104.68 323.39C103.404 324.653 101.421 325.751 99.6405 324.911C98.82 324.54 98.1308 323.93 97.6639 323.161C97.1272 322.222 96.9624 321.349 96.1608 320.696C95.577 320.303 94.9889 320.355 94.2886 320.122C93.86 319.951 93.4763 319.685 93.1667 319.343C92.8572 319 92.6301 318.592 92.5029 318.149C92.402 317.728 92.3323 317.344 92.2683 316.892C91.7425 317.019 91.1797 317.176 90.5176 317.29C89.187 317.587 88.1862 316.47 87.1057 315.862C86.4595 315.394 84.9336 314.781 84.5939 313.55ZM72.76 228.977L72.834 228.915C73.0072 228.896 73.1243 228.734 73.21 228.536C73.4961 228.039 73.7049 227.501 73.829 226.942C74.0226 225.894 73.9184 224.718 73.3079 223.842C72.6973 222.965 71.755 222.746 70.8162 223.283C70.1675 223.638 68.9736 223.947 69.1637 224.925C69.6826 226.068 70.9299 226.725 71.5971 227.744C71.7979 227.979 71.9714 228.235 72.1142 228.509C72.295 228.8 72.4018 229.153 72.7602 228.977H72.76ZM70.9243 198.234C71.3239 197.582 72.368 197.021 72.7693 196.746C73.2194 196.305 73.5332 195.851 73.6797 195.349C72.1832 194.395 70.1509 194.083 68.7585 194.305C67.9912 194.445 67.5545 195.128 67.1238 195.743C68.2306 196.834 69.3318 197.993 70.4017 199.116C70.5287 198.796 70.7052 198.499 70.9245 198.234H70.9243ZM66.722 198.797C65.5551 199.589 65.9095 201.439 67.0281 202.394C67.9425 203.331 69.6788 203.893 70.7117 205.047C71.3711 205.756 71.7092 206.609 72.2575 207.412C72.3762 207.628 72.6562 207.961 72.806 208.214C72.9449 208.109 73.0601 207.976 73.1443 207.824C73.2285 207.672 73.2798 207.503 73.2948 207.33C73.3098 207.156 73.2882 206.982 73.2314 206.817C73.1747 206.653 73.084 206.502 72.9652 206.375C72.8109 206.178 72.6132 206.02 72.3874 205.913C72.5094 206.129 72.5823 206.37 72.601 206.618C72.6374 206.717 72.64 206.826 72.6084 206.927C72.4915 207.089 72.0827 207.053 72.1003 206.849C72.0483 206.261 71.6985 205.544 71.1264 205.014C70.4477 204.131 68.1356 203.485 68.45 201.83C68.5771 201.155 68.965 200.639 69.4463 200.235L69.7424 199.986C69.1452 199.35 68.5479 198.715 67.9819 198.117C67.5872 198.323 67.0926 198.486 66.7222 198.797L66.722 198.797ZM48.4598 176.999C48.9046 178.204 48.7631 179.84 49.7751 180.442C50.0728 180.571 50.1276 180.336 50.0385 179.779C49.9923 179.122 49.6113 178.369 49.1133 177.776C48.9326 177.486 48.6776 177.258 48.4598 176.999ZM73.9186 184.66C73.615 184.6 73.0951 184.658 73.0596 185.066C73.0065 185.68 73.0216 186.299 73.2841 186.836C73.4027 187.053 73.4782 187.368 73.7567 187.324L73.7938 187.292C73.819 187.398 73.9865 187.446 74.0915 187.421C74.333 187.408 74.3878 187.172 74.4365 187.005C74.62 186.472 74.8153 185.802 74.5528 185.264C74.5257 185.109 74.4495 184.966 74.3353 184.858C74.2211 184.749 74.0751 184.68 73.9186 184.66ZM84.1641 249.908C84.4339 250.755 85.3306 251.897 86.1483 251.967C87.0889 251.808 86.5431 250.182 85.9265 249.374C85.5337 248.756 84.6269 248.128 83.9751 247.729C83.9783 248.484 83.9816 249.24 84.1641 249.908ZM98.3488 253.778C97.5891 254.228 96.6485 254.387 95.7936 254.347C95.849 255.69 95.8362 257.028 95.216 258.244C94.4048 259.685 92.6633 260.77 91.3991 259.116C91.2123 258.894 91.0627 258.64 90.907 258.455C90.2079 258.601 89.4895 258.573 88.9578 258.767C87.7345 259.416 88.0018 261.087 89.2981 261.577C90.2283 261.932 91.2388 262.157 91.9605 262.94C92.3962 263.458 92.7208 264.071 93.1936 264.557L93.3492 264.742L93.3552 264.674C93.3148 263.95 92.7471 262.974 92.8238 262.088C93.057 260.186 94.8786 258.971 96.4231 258.177C97.2827 257.771 97.8611 257.032 98.7823 256.7C98.9927 256.649 99.2399 256.568 99.4503 256.517C99.056 255.522 98.6869 254.632 98.3488 253.778ZM127.785 310.663C128.041 310.955 128.278 311.262 128.495 311.583L128.632 311.595C129.003 311.661 129.344 311.691 129.554 311.64C130.006 311.577 130.729 311.159 130.764 310.75C130.847 309.796 129.65 309.349 128.758 309.34C128.554 309.323 127.88 309.573 127.663 309.692C127.521 309.748 127.41 309.842 127.23 309.929C127.397 310.187 127.582 310.433 127.785 310.664V310.663Z" fill="url(#paint2_linear_1177_228)"/>
<path fill-rule="evenodd" clip-rule="evenodd" d="M169.684 103.391C169.873 103.099 170.267 102.752 170.713 102.386C172.033 101.312 173.918 100.171 174.098 100.049C176.96 98.1617 179.968 96.4299 182.856 94.5637C184.107 93.7503 185.341 92.9125 186.533 92.0244C186.918 91.7311 189.489 89.9793 190.046 88.7286C190.185 88.4351 190.224 88.1044 190.158 87.7866C190.111 87.6165 190.029 87.4581 189.917 87.322C189.804 87.1859 189.665 87.0751 189.506 86.9969C188.907 86.6702 188.075 86.575 187.167 86.6444C185.461 86.774 183.439 87.4601 182.402 87.7386C178.96 88.6784 175.57 89.8005 172.247 91.1002C168.905 92.39 165.631 93.8115 162.409 95.27C153.239 99.425 144.206 103.907 135.465 108.777C126.604 113.717 118.043 119.058 109.962 124.87C106.268 127.521 102.197 130.352 98.6923 133.541C96.2241 135.79 94.0388 138.219 92.4534 140.881C92.3961 140.978 92.3585 141.085 92.3426 141.197C92.3267 141.308 92.3329 141.421 92.3608 141.53C92.3887 141.639 92.4378 141.742 92.5053 141.832C92.5728 141.922 92.6574 141.997 92.7542 142.055C92.8509 142.112 92.9581 142.15 93.0694 142.166C93.1807 142.181 93.2941 142.175 93.4031 142.147C93.512 142.119 93.6144 142.07 93.7044 142.003C93.7943 141.935 93.8701 141.851 93.9274 141.754C95.4185 139.22 97.4835 136.911 99.8149 134.764C103.251 131.598 107.254 128.786 110.879 126.149C118.891 120.328 127.375 114.972 136.16 110.016C144.841 105.121 153.822 100.618 162.94 96.4358C166.128 94.9757 169.376 93.5509 172.693 92.2578C175.973 90.9623 179.32 89.8421 182.719 88.9019C183.585 88.6678 185.153 88.1284 186.627 87.9061C187.518 87.7708 188.367 87.7295 188.932 88.0382C189.095 88.1255 188.967 88.2658 188.864 88.4268C188.626 88.777 188.344 89.0949 188.024 89.3725C187.15 90.1792 186.061 90.9099 185.83 91.0864C184.664 91.9612 183.448 92.7872 182.222 93.5887C179.334 95.4631 176.335 97.2 173.472 99.0944C173.232 99.2525 170.301 101.044 169.102 102.307C168.857 102.548 168.662 102.835 168.528 103.15C168.348 103.65 168.476 104.04 168.93 104.296C169.805 104.777 171.347 104.782 173.121 104.484C176.343 103.939 180.38 102.481 181.879 102.094C188.907 100.289 195.934 98.4734 203.047 96.9361C207.752 95.9172 212.499 95.0219 217.298 94.3281C234.189 91.8982 252.357 91.2983 270.294 92.7648C288.299 94.238 306.073 97.7945 322.064 103.647C322.17 103.686 322.282 103.703 322.395 103.698C322.507 103.692 322.617 103.665 322.719 103.617C322.821 103.57 322.913 103.502 322.988 103.419C323.064 103.336 323.123 103.239 323.161 103.133C323.199 103.027 323.216 102.915 323.211 102.803C323.206 102.69 323.179 102.58 323.131 102.478C323.083 102.376 323.016 102.285 322.933 102.209C322.85 102.133 322.753 102.074 322.647 102.036C306.501 96.2225 288.565 92.7367 270.405 91.3367C252.366 89.9472 234.095 90.6141 217.118 93.1265C212.302 93.8379 207.529 94.7548 202.79 95.7898C195.677 97.3465 188.632 99.1728 181.597 100.993C180.114 101.377 176.12 102.826 172.932 103.364C171.595 103.588 170.421 103.68 169.684 103.391ZM357.929 315.374C363.036 314.562 368.264 312.869 373.106 310.438C377.948 308.004 382.404 304.833 385.917 300.992C389.242 297.432 391.65 292.952 394.752 289.141C396.046 287.547 397.469 286.078 399.14 284.847C400.811 283.612 402.671 282.79 404.625 282.23C406.596 281.662 408.67 281.368 410.735 281.196C410.961 281.173 411.168 281.062 411.312 280.887C411.456 280.712 411.524 280.487 411.503 280.261C411.481 280.036 411.371 279.828 411.197 279.683C411.023 279.539 410.798 279.469 410.572 279.489C408.404 279.723 406.236 280.091 404.171 280.738C402.071 281.395 400.074 282.337 398.283 283.718C396.552 285.051 395.087 286.633 393.741 288.335C390.716 292.172 388.36 296.644 385.086 300.22C381.624 303.91 377.261 306.962 372.514 309.241C367.828 311.478 362.824 312.975 357.679 313.677C357.566 313.691 357.456 313.727 357.357 313.784C357.258 313.841 357.171 313.917 357.102 314.008C357.033 314.099 356.982 314.203 356.954 314.313C356.925 314.424 356.919 314.539 356.936 314.652C356.952 314.765 356.991 314.874 357.05 314.972C357.109 315.069 357.188 315.154 357.28 315.221C357.372 315.288 357.477 315.336 357.589 315.362C357.7 315.388 357.815 315.392 357.928 315.373L357.929 315.374Z" fill="#E3DBF9"/>
<path fill-rule="evenodd" clip-rule="evenodd" d="M217.346 240.201C225.946 261.678 255.465 295.8 281.986 295.796C320.295 295.798 361.303 195.476 361.303 195.476C376.787 184.932 367.309 170.292 360.312 158.018L349.653 184.328C349.653 184.328 303.539 248.823 283.664 245.918C263.786 243.018 241.445 167.873 230.392 166.919C219.34 165.965 208.748 218.719 217.346 240.201Z" fill="#FB9C9A"/>
<mask id="mask0_1177_228" style="mask-type:luminance" maskUnits="userSpaceOnUse" x="214" y="158" width="156" height="138">
<path d="M217.346 240.201C225.946 261.678 255.465 295.8 281.986 295.796C320.295 295.798 361.303 195.476 361.303 195.476C376.787 184.932 367.309 170.292 360.312 158.018L349.653 184.328C349.653 184.328 303.539 248.823 283.664 245.918C263.786 243.018 241.445 167.873 230.392 166.919C219.34 165.965 208.748 218.719 217.346 240.201Z" fill="white"/>
</mask>
<g mask="url(#mask0_1177_228)">
<path fill-rule="evenodd" clip-rule="evenodd" d="M329.343 186.903C309.075 160.753 296.958 123.471 262.893 111.836C238.991 103.672 217.507 116.024 203.967 135.78C182.885 166.545 176.072 210.689 188.301 246.042C205.861 296.802 265.318 313.95 312.083 294.222C326.575 288.107 340.981 278.949 349.011 264.995C355.009 254.572 360.674 233.961 350.125 223.993C346.645 220.704 340.784 222.09 337.801 218.298C335.53 215.418 336.644 211.583 335.325 208.367C333.174 203.092 325.024 201.917 320.045 202.55L329.343 186.903Z" fill="url(#paint3_linear_1177_228)"/>
</g>
<path fill-rule="evenodd" clip-rule="evenodd" d="M213.916 267.55C226.184 252.633 244.885 188.506 235.321 170.511C225.758 152.515 175.051 133.328 156.537 159.575C140.266 182.638 152.154 242.018 161.718 260.014C169.964 275.539 202.75 281.129 213.916 267.55Z" fill="url(#paint4_linear_1177_228)"/>
<path fill-rule="evenodd" clip-rule="evenodd" d="M210.01 187.372C209.365 185.664 208.068 184.282 206.404 183.53C204.74 182.778 202.846 182.718 201.137 183.362L104.447 219.855C103.602 220.174 102.828 220.657 102.169 221.276C101.51 221.894 100.98 222.637 100.608 223.46C100.236 224.284 100.03 225.173 100.001 226.076C99.9731 226.98 100.123 227.88 100.442 228.725L157.508 379.921C158.151 381.629 159.447 383.011 161.11 383.763C162.773 384.515 164.666 384.576 166.374 383.933L263.064 347.44C264.772 346.794 266.154 345.497 266.906 343.834C267.658 342.17 267.719 340.276 267.075 338.568L210.01 187.372Z" fill="white"/>
<path fill-rule="evenodd" clip-rule="evenodd" d="M137.036 234.803C136.867 234.356 136.527 233.994 136.092 233.797C135.656 233.6 135.16 233.584 134.713 233.753L118.077 240.032C117.63 240.201 117.268 240.541 117.071 240.976C116.874 241.412 116.858 241.908 117.027 242.355L117.027 242.356C117.196 242.803 117.536 243.165 117.972 243.362C118.407 243.559 118.903 243.575 119.35 243.406L135.986 237.127C136.434 236.958 136.795 236.619 136.992 236.183C137.189 235.748 137.205 235.252 137.036 234.805L137.036 234.803ZM134.422 227.877C134.253 227.43 133.913 227.068 133.477 226.871C133.042 226.674 132.546 226.658 132.099 226.827L115.462 233.106C115.015 233.275 114.654 233.614 114.457 234.05C114.26 234.486 114.244 234.982 114.413 235.429V235.43C114.582 235.877 114.921 236.239 115.357 236.436C115.792 236.633 116.288 236.649 116.736 236.48L133.372 230.202C133.819 230.033 134.181 229.693 134.378 229.257C134.575 228.822 134.591 228.326 134.422 227.879L134.422 227.877Z" fill="#E3E3FE"/>
<path fill-rule="evenodd" clip-rule="evenodd" d="M209.722 186.608C209.441 185.863 209.016 185.18 208.471 184.599C207.925 184.019 207.271 183.551 206.545 183.223C205.819 182.895 205.036 182.713 204.24 182.688C203.444 182.662 202.65 182.794 201.905 183.076L103.688 220.145C102.943 220.426 102.26 220.851 101.679 221.396C101.098 221.941 100.63 222.595 100.302 223.321C99.9741 224.047 99.7921 224.83 99.7667 225.627C99.7414 226.423 99.8731 227.216 100.154 227.961V227.963C100.436 228.708 100.861 229.391 101.406 229.971C101.951 230.552 102.605 231.02 103.331 231.348C104.057 231.676 104.841 231.858 105.637 231.883C106.433 231.909 107.227 231.777 107.972 231.495L206.188 194.426C206.934 194.145 207.616 193.72 208.197 193.175C208.778 192.63 209.246 191.976 209.575 191.25C209.903 190.524 210.085 189.74 210.11 188.944C210.135 188.148 210.004 187.355 209.722 186.609V186.608Z" fill="white"/>
<path fill-rule="evenodd" clip-rule="evenodd" d="M183.833 274.084C183.77 274.09 183.707 274.076 183.653 274.043C183.599 274.01 183.558 273.96 183.536 273.901L171.601 242.281C171.078 240.895 170.025 239.774 168.676 239.164C167.326 238.554 165.789 238.505 164.403 239.028L164.398 239.029C163.712 239.288 163.084 239.68 162.549 240.182C162.014 240.683 161.583 241.286 161.281 241.954C160.98 242.623 160.812 243.344 160.79 244.077C160.767 244.81 160.889 245.54 161.148 246.226L173.179 278.103V278.104L173.175 278.106L172.651 278.304C172.506 278.359 172.346 278.359 172.201 278.303C172.057 278.248 171.938 278.14 171.868 278.002C170.381 275.113 162.835 260.427 158.998 252.963C158.703 252.39 158.298 251.88 157.807 251.463C157.315 251.045 156.746 250.729 156.132 250.532C155.519 250.334 154.872 250.26 154.229 250.313C153.587 250.365 152.961 250.544 152.387 250.839C152.383 250.84 152.383 250.84 152.383 250.841C151.809 251.136 151.299 251.54 150.881 252.032C150.464 252.524 150.148 253.093 149.95 253.708C149.753 254.322 149.679 254.969 149.731 255.612C149.784 256.255 149.963 256.881 150.258 257.455C152.795 262.391 156.997 270.566 160.262 276.919C163.399 283.026 166.186 289.307 168.61 295.73C168.61 295.73 164.061 291.096 160.499 287.466C159.39 286.338 157.878 285.696 156.295 285.681C154.712 285.667 153.189 286.282 152.059 287.39V287.391C151.501 287.94 151.057 288.593 150.753 289.314C150.448 290.034 150.29 290.808 150.286 291.59C150.282 292.373 150.434 293.148 150.731 293.872C151.029 294.595 151.466 295.253 152.019 295.806C156.009 299.804 162.179 305.977 167.579 311.388C170.905 314.717 175.12 317.016 179.72 318.008C184.319 319.001 189.108 318.645 193.51 316.983C206.268 312.168 212.706 297.924 207.892 285.169L205.823 279.687C205.823 279.687 203.753 258.315 202.798 248.445C202.672 247.149 202.036 245.955 201.03 245.127C200.024 244.3 198.73 243.905 197.434 244.031V244.03C196.137 244.156 194.943 244.791 194.114 245.797C193.286 246.803 192.89 248.096 193.015 249.393C193.732 256.763 195.001 269.869 195.001 269.869L194.903 269.906C194.802 269.918 194.701 269.893 194.617 269.836C194.533 269.779 194.473 269.694 194.446 269.596C193.707 266.763 189.573 250.933 187.34 242.382C186.96 240.929 186.019 239.686 184.723 238.926C183.427 238.167 181.883 237.953 180.429 238.331L180.425 238.333C179.705 238.521 179.029 238.849 178.436 239.298C177.843 239.747 177.345 240.308 176.969 240.95C176.593 241.592 176.347 242.302 176.246 243.039C176.144 243.776 176.189 244.525 176.377 245.245C178.907 254.93 183.9 274.06 183.9 274.06L183.833 274.084Z" fill="url(#paint5_linear_1177_228)"/>
<path fill-rule="evenodd" clip-rule="evenodd" d="M246.549 313.215L250.843 324.592C251.483 326.29 251.423 328.174 250.676 329.828C249.928 331.482 248.554 332.772 246.856 333.413L234.847 337.946L233.728 334.981L245.737 330.448C246.189 330.278 246.604 330.02 246.956 329.69C247.309 329.36 247.593 328.963 247.793 328.523C247.992 328.083 248.103 327.608 248.118 327.125C248.134 326.642 248.055 326.16 247.884 325.708L243.591 314.332L246.549 313.215ZM158.763 346.348L163.056 357.725C163.226 358.176 163.483 358.59 163.814 358.943C164.144 359.295 164.54 359.579 164.98 359.778C165.42 359.977 165.895 360.087 166.377 360.102C166.86 360.117 167.341 360.037 167.792 359.866L179.801 355.334L180.92 358.299L168.911 362.832C167.212 363.472 165.329 363.412 163.675 362.664C162.02 361.917 160.731 360.542 160.09 358.844L155.796 347.468L158.763 346.348ZM138.116 244.887L139.235 247.852L127.226 252.384C126.774 252.554 126.361 252.812 126.008 253.142C125.656 253.473 125.373 253.869 125.174 254.309C124.975 254.749 124.865 255.224 124.85 255.706C124.835 256.189 124.915 256.67 125.086 257.121L129.38 268.498L126.414 269.617L122.12 258.241C121.48 256.542 121.54 254.659 122.287 253.004C123.035 251.35 124.409 250.06 126.107 249.419L138.116 244.887ZM192.043 224.534L204.052 220.001C205.75 219.36 207.634 219.421 209.288 220.168C210.942 220.916 212.232 222.29 212.873 223.989L217.167 235.365L214.208 236.482L209.914 225.105C209.743 224.653 209.485 224.24 209.154 223.888C208.823 223.535 208.426 223.252 207.985 223.053C207.545 222.855 207.07 222.745 206.587 222.73C206.104 222.715 205.623 222.795 205.171 222.966L193.162 227.499L192.043 224.534Z" fill="#E3E3FE"/>
<path d="M166.972 334.459C167.549 334.242 168.078 334.277 168.56 334.567C169.133 334.908 169.633 335.645 170.061 336.776C170.487 337.905 170.591 338.792 170.389 339.433C170.223 339.96 169.848 340.334 169.272 340.551C169.005 340.661 168.715 340.706 168.427 340.681C168.139 340.657 167.861 340.564 167.616 340.411C167.086 340.101 166.613 339.371 166.18 338.226C165.756 337.103 165.646 336.221 165.848 335.58C166.021 335.05 166.396 334.677 166.972 334.459ZM167.33 335.407C167.193 335.458 167.078 335.555 167.005 335.681C166.927 335.86 166.902 336.057 166.934 336.249C166.969 336.574 167.115 337.088 167.38 337.788C167.644 338.488 167.86 338.956 168.028 339.191C168.203 339.424 168.353 339.567 168.497 339.612C168.632 339.659 168.78 339.656 168.914 339.603C169.048 339.553 169.161 339.457 169.232 339.332C169.316 339.155 169.341 338.956 169.302 338.763C169.275 338.439 169.123 337.93 168.858 337.23C168.594 336.53 168.378 336.062 168.21 335.826C168.041 335.591 167.885 335.45 167.748 335.401C167.612 335.354 167.464 335.356 167.33 335.407ZM171.605 332.711C172.182 332.493 172.711 332.529 173.193 332.818C173.766 333.16 174.266 333.896 174.693 335.028C175.119 336.156 175.231 337.041 175.029 337.682C174.856 338.212 174.481 338.586 173.905 338.803C173.637 338.912 173.348 338.957 173.06 338.932C172.772 338.908 172.494 338.816 172.249 338.663C171.726 338.35 171.245 337.623 170.813 336.478C170.389 335.355 170.279 334.473 170.488 333.83C170.654 333.302 171.029 332.928 171.605 332.711ZM171.963 333.659C171.827 333.708 171.715 333.804 171.645 333.93C171.561 334.108 171.533 334.307 171.567 334.501C171.602 334.826 171.755 335.337 172.02 336.037C172.284 336.737 172.5 337.204 172.668 337.44C172.836 337.676 172.992 337.816 173.13 337.863C173.266 337.909 173.413 337.905 173.547 337.854C173.681 337.803 173.793 337.708 173.865 337.584C173.949 337.406 173.976 337.206 173.943 337.012C173.909 336.69 173.763 336.179 173.499 335.478C173.235 334.778 173.018 334.311 172.85 334.075C172.675 333.842 172.526 333.698 172.381 333.652C172.245 333.604 172.097 333.606 171.963 333.659H171.963ZM179.492 336.578L178.353 337.008L176.726 332.698C176.452 333.252 176.058 333.738 175.574 334.123L175.182 333.085C175.488 332.824 175.746 332.511 175.945 332.162C176.182 331.797 176.308 331.371 176.307 330.935L177.231 330.587L179.492 336.578ZM183.673 335L182.527 335.432L180.901 331.123C180.626 331.676 180.233 332.163 179.748 332.547L179.357 331.51C179.662 331.248 179.92 330.936 180.12 330.587C180.357 330.222 180.482 329.795 180.482 329.36L181.412 329.009L183.673 335ZM187.848 333.424L186.702 333.857L185.075 329.547C184.8 330.101 184.407 330.587 183.923 330.972L183.531 329.934C183.838 329.671 184.098 329.358 184.301 329.009C184.533 328.643 184.656 328.218 184.656 327.784L185.586 327.433L187.848 333.424ZM189.226 326.06C189.803 325.842 190.332 325.878 190.814 326.167C191.387 326.509 191.887 327.246 192.315 328.377C192.741 329.506 192.852 330.39 192.65 331.031C192.477 331.561 192.102 331.935 191.526 332.153C191.258 332.262 190.969 332.306 190.681 332.282C190.393 332.257 190.115 332.165 189.87 332.013C189.347 331.7 188.867 330.973 188.434 329.827C188.01 328.704 187.9 327.822 188.109 327.179C188.275 326.651 188.65 326.277 189.226 326.06ZM189.584 327.008C189.449 327.058 189.337 327.154 189.266 327.28C189.181 327.456 189.156 327.655 189.195 327.848C189.223 328.175 189.376 328.686 189.641 329.386C189.905 330.086 190.121 330.554 190.289 330.79C190.458 331.025 190.614 331.165 190.751 331.213C190.886 331.259 191.034 331.256 191.168 331.204C191.305 331.154 191.42 331.057 191.493 330.931C191.571 330.752 191.596 330.555 191.564 330.362C191.529 330.04 191.384 329.529 191.12 328.828C190.855 328.128 190.639 327.661 190.471 327.425C190.303 327.19 190.146 327.048 190.002 327.002C189.867 326.954 189.718 326.956 189.584 327.008ZM193.866 324.309C194.443 324.091 194.972 324.127 195.454 324.416C196.027 324.758 196.52 325.497 196.948 326.628C197.373 327.757 197.485 328.642 197.283 329.282C197.117 329.81 196.742 330.184 196.166 330.401C195.898 330.511 195.609 330.555 195.321 330.531C195.033 330.507 194.755 330.414 194.51 330.261C193.98 329.951 193.506 329.221 193.074 328.076C192.65 326.952 192.539 326.071 192.742 325.43C192.915 324.9 193.283 324.529 193.866 324.309ZM194.224 325.257C194.087 325.308 193.972 325.405 193.899 325.531C193.82 325.709 193.796 325.907 193.828 326.099C193.863 326.424 194.009 326.938 194.273 327.638C194.538 328.338 194.754 328.805 194.922 329.041C195.09 329.277 195.246 329.417 195.39 329.462C195.526 329.509 195.674 329.505 195.807 329.453C195.942 329.403 196.055 329.307 196.125 329.182C196.21 329.005 196.235 328.805 196.196 328.613C196.169 328.289 196.016 327.78 195.752 327.079C195.488 326.379 195.272 325.912 195.103 325.676C194.935 325.44 194.779 325.299 194.641 325.251C194.506 325.203 194.358 325.206 194.224 325.257ZM198.499 322.56C199.075 322.343 199.605 322.379 200.087 322.668C200.66 323.009 201.16 323.746 201.587 324.877C202.013 326.006 202.125 326.891 201.922 327.531C201.75 328.061 201.375 328.435 200.798 328.653C200.531 328.763 200.242 328.807 199.954 328.783C199.666 328.759 199.388 328.666 199.143 328.513C198.62 328.2 198.139 327.473 197.707 326.328C197.283 325.205 197.172 324.323 197.382 323.679C197.548 323.152 197.922 322.778 198.499 322.56ZM198.857 323.508C198.721 323.557 198.608 323.654 198.539 323.78C198.454 323.958 198.427 324.157 198.46 324.351C198.496 324.675 198.642 325.189 198.906 325.889C199.171 326.589 199.387 327.057 199.562 327.29C199.73 327.526 199.886 327.666 200.023 327.714C200.159 327.759 200.307 327.756 200.441 327.705C200.575 327.654 200.687 327.559 200.759 327.434C200.843 327.257 200.87 327.057 200.837 326.863C200.802 326.541 200.657 326.029 200.393 325.329C200.128 324.629 199.912 324.162 199.737 323.929C199.569 323.693 199.419 323.549 199.275 323.503C199.139 323.454 198.991 323.456 198.857 323.508H198.857ZM206.386 326.427L205.247 326.857L203.62 322.548C203.345 323.102 202.952 323.588 202.468 323.973L202.076 322.935C202.382 322.673 202.64 322.361 202.839 322.012C203.073 321.646 203.199 321.22 203.201 320.785L204.125 320.436L206.386 326.427ZM210.56 324.852L209.421 325.282L207.794 320.972C207.52 321.526 207.126 322.013 206.642 322.397L206.251 321.359C206.556 321.098 206.814 320.786 207.013 320.437C207.25 320.071 207.376 319.645 207.375 319.21L208.299 318.861L210.56 324.852ZM214.741 323.274L213.595 323.706L211.969 319.397C211.694 319.951 211.3 320.437 210.816 320.822L210.425 319.784C210.73 319.522 210.988 319.21 211.187 318.861C211.424 318.496 211.55 318.07 211.549 317.634L212.48 317.283L214.741 323.274ZM218.916 321.698L217.77 322.131L216.143 317.821C215.869 318.375 215.475 318.862 214.991 319.246L214.599 318.208C214.907 317.946 215.167 317.633 215.369 317.283C215.601 316.917 215.725 316.492 215.724 316.058L216.654 315.707L218.916 321.698ZM220.294 314.334C220.878 314.114 221.4 314.152 221.882 314.442C222.455 314.783 222.956 315.52 223.383 316.651C223.809 317.78 223.92 318.664 223.718 319.305C223.545 319.835 223.177 320.207 222.594 320.427C222.327 320.536 222.037 320.58 221.749 320.556C221.461 320.531 221.184 320.439 220.938 320.287C220.415 319.974 219.935 319.247 219.502 318.101C219.079 316.978 218.968 316.096 219.177 315.453C219.343 314.926 219.718 314.552 220.294 314.334ZM220.652 315.282C220.518 315.332 220.405 315.429 220.334 315.554C220.249 315.73 220.224 315.93 220.263 316.122C220.291 316.449 220.445 316.96 220.709 317.66C220.973 318.361 221.189 318.828 221.357 319.064C221.526 319.299 221.682 319.44 221.819 319.487C221.955 319.533 222.102 319.53 222.236 319.478C222.373 319.427 222.488 319.331 222.561 319.205C222.639 319.026 222.664 318.828 222.632 318.636C222.598 318.314 222.452 317.802 222.188 317.102C221.924 316.402 221.708 315.934 221.539 315.699C221.371 315.463 221.215 315.322 221.07 315.276C220.935 315.227 220.786 315.23 220.652 315.282ZM224.934 312.583C225.511 312.365 226.04 312.401 226.522 312.691C227.095 313.032 227.595 313.769 228.023 314.9C228.448 316.029 228.553 316.916 228.351 317.557C228.185 318.084 227.81 318.458 227.234 318.675C226.966 318.785 226.677 318.83 226.389 318.805C226.101 318.781 225.823 318.688 225.578 318.535C225.048 318.225 224.574 317.495 224.142 316.35C223.718 315.227 223.608 314.345 223.81 313.704C223.983 313.174 224.358 312.801 224.934 312.583ZM225.292 313.531C225.155 313.582 225.04 313.679 224.967 313.805C224.888 313.984 224.864 314.181 224.896 314.373C224.931 314.698 225.077 315.212 225.342 315.912C225.606 316.612 225.822 317.08 225.99 317.315C226.159 317.551 226.315 317.691 226.458 317.736C226.594 317.783 226.742 317.78 226.876 317.727C227.01 317.677 227.123 317.581 227.193 317.456C227.278 317.279 227.303 317.08 227.264 316.887C227.237 316.563 227.084 316.054 226.82 315.354C226.556 314.654 226.34 314.186 226.172 313.95C226.003 313.715 225.847 313.574 225.709 313.525C225.574 313.478 225.426 313.48 225.292 313.531H225.292ZM229.567 310.834C230.143 310.617 230.673 310.653 231.155 310.942C231.728 311.284 232.228 312.02 232.655 313.151C233.081 314.28 233.193 315.165 232.99 315.805C232.818 316.336 232.443 316.71 231.867 316.927C231.599 317.037 231.31 317.082 231.022 317.057C230.734 317.033 230.456 316.94 230.211 316.787C229.688 316.474 229.207 315.747 228.775 314.602C228.351 313.479 228.24 312.597 228.45 311.954C228.616 311.426 228.99 311.052 229.567 310.834ZM229.925 311.783C229.789 311.832 229.676 311.928 229.607 312.054C229.522 312.232 229.495 312.431 229.529 312.625C229.564 312.95 229.71 313.463 229.974 314.163C230.239 314.864 230.462 315.328 230.63 315.564C230.798 315.8 230.954 315.94 231.091 315.988C231.227 316.035 231.375 316.032 231.508 315.979C231.644 315.93 231.757 315.834 231.826 315.708C231.911 315.53 231.938 315.331 231.904 315.137C231.87 314.815 231.725 314.303 231.46 313.603C231.196 312.903 230.98 312.435 230.805 312.202C230.636 311.967 230.48 311.826 230.343 311.777C230.207 311.728 230.059 311.73 229.925 311.783Z" fill="#20238C"/>
<path d="M173.875 349.744L172.729 350.176L171.103 345.866C170.828 346.42 170.434 346.907 169.95 347.291L169.559 346.253C169.864 345.992 170.122 345.68 170.321 345.331C170.558 344.966 170.684 344.539 170.683 344.104L171.614 343.753L173.875 349.744ZM178.05 348.168L176.904 348.601L175.277 344.291C175.003 344.843 174.612 345.328 174.132 345.714L173.74 344.676C174.044 344.413 174.302 344.101 174.503 343.753C174.738 343.388 174.861 342.963 174.858 342.529L175.788 342.177L178.05 348.168ZM182.224 346.593L181.078 347.025L179.451 342.715C179.178 343.267 178.787 343.753 178.306 344.138L177.914 343.1C178.218 342.838 178.476 342.526 178.677 342.178C178.911 341.811 179.037 341.386 179.039 340.951L179.963 340.602L182.224 346.593ZM183.609 339.226C184.186 339.008 184.715 339.044 185.197 339.333C185.764 339.677 186.264 340.414 186.691 341.545C187.117 342.674 187.229 343.559 187.026 344.199C186.86 344.727 186.486 345.101 185.909 345.318C185.64 345.427 185.35 345.472 185.061 345.448C184.772 345.424 184.493 345.333 184.246 345.18C183.723 344.868 183.25 344.138 182.817 342.992C182.393 341.869 182.283 340.988 182.485 340.347C182.651 339.82 183.026 339.446 183.609 339.226ZM183.967 340.174C183.83 340.225 183.715 340.322 183.642 340.448C183.557 340.625 183.532 340.824 183.571 341.016C183.606 341.341 183.753 341.854 184.017 342.555C184.281 343.255 184.497 343.722 184.665 343.958C184.834 344.194 184.99 344.334 185.127 344.382C185.265 344.427 185.415 344.423 185.551 344.37C185.685 344.319 185.797 344.223 185.869 344.099C185.947 343.921 185.972 343.723 185.939 343.53C185.905 343.208 185.76 342.697 185.495 341.997C185.231 341.297 185.015 340.829 184.847 340.593C184.678 340.358 184.522 340.217 184.385 340.168C184.249 340.122 184.102 340.124 183.967 340.174ZM188.242 337.477C188.819 337.26 189.348 337.295 189.83 337.585C190.403 337.926 190.903 338.663 191.331 339.794C191.757 340.923 191.868 341.808 191.659 342.451C191.493 342.978 191.118 343.352 190.542 343.569C190.274 343.679 189.985 343.724 189.697 343.7C189.409 343.675 189.131 343.583 188.886 343.429C188.363 343.116 187.882 342.389 187.45 341.244C187.026 340.121 186.916 339.239 187.118 338.598C187.291 338.069 187.666 337.695 188.242 337.477ZM188.6 338.425C188.465 338.474 188.352 338.571 188.282 338.697C188.198 338.874 188.17 339.074 188.204 339.267C188.239 339.592 188.385 340.106 188.65 340.806C188.914 341.506 189.13 341.974 189.298 342.209C189.474 342.442 189.623 342.585 189.767 342.63C189.902 342.677 190.05 342.674 190.184 342.621C190.319 342.572 190.432 342.476 190.502 342.35C190.586 342.173 190.611 341.974 190.572 341.782C190.545 341.457 190.399 340.945 190.135 340.245C189.871 339.545 189.648 339.08 189.48 338.844C189.311 338.608 189.155 338.467 189.017 338.419C188.882 338.371 188.734 338.374 188.6 338.425L188.6 338.425ZM192.874 335.728C193.451 335.511 193.98 335.547 194.462 335.836C195.036 336.178 195.536 336.914 195.963 338.046C196.389 339.174 196.501 340.059 196.298 340.7C196.125 341.23 195.751 341.604 195.174 341.821C194.907 341.93 194.617 341.974 194.329 341.95C194.041 341.926 193.764 341.834 193.518 341.681C192.995 341.368 192.515 340.641 192.083 339.496C191.659 338.373 191.548 337.491 191.757 336.848C191.924 336.32 192.298 335.946 192.874 335.728ZM193.232 336.677C193.097 336.727 192.985 336.823 192.914 336.948C192.829 337.125 192.804 337.324 192.843 337.516C192.871 337.844 193.025 338.355 193.289 339.055C193.553 339.755 193.769 340.222 193.937 340.458C194.106 340.694 194.262 340.834 194.399 340.882C194.535 340.928 194.682 340.925 194.816 340.873C194.953 340.822 195.068 340.726 195.141 340.6C195.219 340.421 195.244 340.223 195.212 340.031C195.178 339.709 195.032 339.197 194.768 338.497C194.503 337.797 194.288 337.329 194.119 337.094C193.951 336.858 193.795 336.717 193.65 336.671C193.515 336.622 193.367 336.624 193.233 336.677L193.232 336.677ZM200.769 339.593L199.623 340.026L197.996 335.716C197.722 336.27 197.328 336.757 196.844 337.141L196.452 336.103C196.758 335.842 197.016 335.53 197.215 335.18C197.452 334.815 197.578 334.389 197.577 333.953L198.507 333.602L200.769 339.593ZM204.944 338.018L203.798 338.45L202.171 334.141C201.896 334.695 201.503 335.181 201.019 335.565L200.627 334.528C200.933 334.266 201.191 333.954 201.39 333.605C201.627 333.24 201.753 332.813 201.752 332.378L202.682 332.027L204.944 338.018ZM209.118 336.442L207.972 336.875L206.345 332.565C206.071 333.117 205.68 333.603 205.2 333.988L204.808 332.95C205.112 332.687 205.37 332.375 205.571 332.027C205.806 331.662 205.929 331.237 205.926 330.803L206.856 330.451L209.118 336.442ZM213.292 334.867L212.146 335.299L210.52 330.99C210.246 331.542 209.855 332.027 209.374 332.412L208.983 331.375C209.287 331.112 209.545 330.8 209.745 330.452C209.98 330.085 210.105 329.66 210.107 329.225L211.031 328.876L213.292 334.867ZM214.677 327.5C215.254 327.282 215.783 327.318 216.265 327.607C216.839 327.949 217.332 328.688 217.759 329.82C218.185 330.948 218.297 331.833 218.094 332.473C217.928 333.001 217.554 333.375 216.977 333.592C216.709 333.702 216.418 333.746 216.129 333.722C215.84 333.699 215.561 333.607 215.314 333.455C214.792 333.142 214.318 332.412 213.885 331.267C213.462 330.144 213.351 329.262 213.554 328.621C213.726 328.091 214.094 327.72 214.677 327.5ZM215.035 328.448C214.898 328.499 214.783 328.596 214.71 328.722C214.632 328.901 214.607 329.098 214.639 329.29C214.674 329.615 214.821 330.129 215.085 330.829C215.349 331.529 215.565 331.996 215.734 332.232C215.902 332.468 216.058 332.608 216.202 332.653C216.337 332.7 216.485 332.697 216.619 332.644C216.753 332.593 216.865 332.497 216.937 332.373C217.022 332.196 217.046 331.997 217.007 331.804C216.98 331.48 216.828 330.971 216.564 330.271C216.299 329.57 216.083 329.103 215.915 328.867C215.747 328.632 215.59 328.49 215.453 328.442C215.317 328.396 215.169 328.398 215.035 328.448H215.035ZM219.31 325.751C219.887 325.534 220.416 325.57 220.898 325.859C221.471 326.2 221.971 326.937 222.399 328.068C222.825 329.197 222.936 330.082 222.727 330.725C222.561 331.253 222.186 331.627 221.61 331.844C221.343 331.954 221.053 331.998 220.765 331.974C220.477 331.949 220.199 331.857 219.954 331.704C219.431 331.391 218.95 330.664 218.518 329.518C218.094 328.395 217.984 327.513 218.186 326.873C218.359 326.343 218.734 325.969 219.31 325.751ZM219.668 326.699C219.533 326.748 219.42 326.845 219.35 326.971C219.266 327.149 219.238 327.348 219.272 327.542C219.307 327.866 219.454 328.38 219.718 329.08C219.982 329.78 220.198 330.248 220.373 330.482C220.542 330.717 220.691 330.86 220.835 330.905C220.97 330.952 221.118 330.949 221.252 330.896C221.387 330.848 221.5 330.751 221.57 330.626C221.654 330.448 221.681 330.248 221.648 330.054C221.613 329.732 221.468 329.221 221.204 328.521C220.939 327.82 220.723 327.353 220.548 327.119C220.38 326.884 220.223 326.742 220.086 326.694C219.95 326.646 219.802 326.648 219.668 326.699ZM227.197 329.619L226.058 330.049L224.432 325.739C224.155 326.292 223.762 326.778 223.279 327.164L222.888 326.126C223.193 325.865 223.451 325.552 223.65 325.203C223.885 324.837 224.01 324.411 224.013 323.976L224.936 323.628L227.197 329.619ZM231.372 328.043L230.233 328.473L228.606 324.163C228.331 324.717 227.938 325.204 227.454 325.588L227.062 324.551C227.367 324.289 227.625 323.977 227.825 323.628C228.062 323.263 228.188 322.836 228.187 322.401L229.111 322.052L231.372 328.043ZM232.757 320.676C233.334 320.459 233.863 320.495 234.345 320.784C234.918 321.125 235.418 321.862 235.846 322.993C236.272 324.122 236.383 325.007 236.174 325.65C236.008 326.178 235.633 326.551 235.057 326.769C234.789 326.878 234.5 326.923 234.212 326.899C233.924 326.874 233.646 326.782 233.401 326.628C232.878 326.316 232.397 325.588 231.965 324.443C231.541 323.32 231.431 322.438 231.633 321.797C231.806 321.268 232.181 320.894 232.757 320.676ZM233.115 321.624C232.98 321.673 232.867 321.77 232.797 321.896C232.713 322.073 232.685 322.273 232.719 322.467C232.754 322.791 232.9 323.305 233.165 324.005C233.429 324.705 233.645 325.173 233.813 325.408C233.989 325.641 234.138 325.784 234.282 325.829C234.417 325.876 234.565 325.873 234.699 325.82C234.834 325.771 234.947 325.675 235.017 325.549C235.101 325.372 235.128 325.172 235.095 324.978C235.06 324.656 234.908 324.147 234.644 323.447C234.379 322.747 234.163 322.28 233.995 322.044C233.827 321.808 233.67 321.667 233.533 321.618C233.397 321.571 233.249 321.573 233.115 321.624Z" fill="#20238C"/>
<path fill-rule="evenodd" clip-rule="evenodd" d="M195.306 308.724C193.946 309.572 192.419 310.113 190.829 310.311C190.71 310.324 190.596 310.361 190.492 310.419C190.387 310.477 190.296 310.555 190.222 310.648C190.148 310.742 190.094 310.849 190.062 310.964C190.03 311.079 190.021 311.199 190.036 311.317C190.051 311.435 190.089 311.549 190.148 311.653C190.207 311.756 190.287 311.847 190.381 311.919C190.476 311.992 190.584 312.045 190.699 312.075C190.814 312.106 190.935 312.113 191.053 312.096C192.901 311.867 194.677 311.237 196.257 310.252C196.458 310.125 196.6 309.924 196.653 309.692C196.706 309.461 196.665 309.217 196.54 309.016C196.414 308.814 196.214 308.671 195.983 308.616C195.752 308.561 195.509 308.6 195.306 308.724ZM200.643 301.524C200.156 303.078 199.409 304.538 198.432 305.841C198.361 305.936 198.309 306.043 198.279 306.158C198.25 306.272 198.243 306.392 198.26 306.509C198.276 306.626 198.315 306.739 198.375 306.841C198.436 306.943 198.515 307.032 198.61 307.104C198.704 307.175 198.812 307.227 198.927 307.256C199.041 307.286 199.16 307.293 199.278 307.276C199.395 307.26 199.508 307.221 199.61 307.16C199.712 307.1 199.801 307.021 199.872 306.926C200.967 305.459 201.807 303.818 202.358 302.073C202.428 301.846 202.405 301.601 202.296 301.391C202.186 301.18 201.998 301.022 201.772 300.95C201.546 300.878 201.301 300.897 201.089 301.005C200.878 301.113 200.718 301.299 200.643 301.524ZM186.573 310.053C184.99 309.667 183.484 309.016 182.119 308.128C181.917 307.999 181.673 307.955 181.439 308.006C181.206 308.058 181.002 308.199 180.873 308.401C180.744 308.602 180.701 308.847 180.752 309.08C180.803 309.314 180.945 309.518 181.147 309.646C182.683 310.637 184.373 311.366 186.148 311.805C186.38 311.861 186.624 311.822 186.828 311.698C187.032 311.573 187.178 311.373 187.234 311.141C187.29 310.909 187.252 310.665 187.128 310.461C187.004 310.257 186.805 310.11 186.573 310.053V310.053ZM201.085 292.297C201.401 293.919 201.516 295.573 201.426 297.222C201.413 297.461 201.495 297.694 201.654 297.872C201.813 298.05 202.036 298.158 202.275 298.172C202.513 298.185 202.747 298.104 202.925 297.945C203.104 297.786 203.212 297.563 203.226 297.325C203.322 295.526 203.195 293.721 202.847 291.953C202.825 291.837 202.781 291.725 202.716 291.626C202.651 291.526 202.567 291.441 202.469 291.374C202.371 291.307 202.261 291.26 202.145 291.236C202.028 291.212 201.908 291.212 201.792 291.234C201.675 291.257 201.564 291.303 201.466 291.369C201.367 291.434 201.282 291.519 201.216 291.618C201.15 291.717 201.105 291.828 201.082 291.944C201.06 292.061 201.061 292.181 201.085 292.297ZM178.757 305.324C177.624 304.12 176.646 302.779 175.846 301.332C175.789 301.229 175.712 301.138 175.62 301.064C175.528 300.991 175.422 300.936 175.309 300.903C175.196 300.871 175.077 300.861 174.96 300.874C174.843 300.887 174.73 300.924 174.627 300.981C174.418 301.097 174.264 301.291 174.198 301.52C174.132 301.75 174.159 301.996 174.274 302.206C175.145 303.783 176.209 305.245 177.443 306.558C177.606 306.731 177.832 306.833 178.07 306.841C178.308 306.848 178.539 306.761 178.713 306.598C178.886 306.434 178.987 306.208 178.995 305.97C179.003 305.732 178.918 305.5 178.757 305.324ZM197.335 283.778C198.32 285.108 199.144 286.551 199.79 288.074C199.837 288.183 199.904 288.282 199.988 288.364C200.072 288.447 200.171 288.512 200.281 288.557C200.39 288.601 200.507 288.623 200.625 288.622C200.743 288.621 200.86 288.597 200.969 288.551C201.077 288.505 201.176 288.438 201.259 288.354C201.342 288.27 201.407 288.17 201.451 288.061C201.495 287.951 201.518 287.834 201.517 287.716C201.516 287.598 201.492 287.481 201.446 287.373C200.743 285.718 199.85 284.151 198.784 282.703C198.64 282.516 198.428 282.393 198.194 282.36C197.96 282.328 197.722 282.389 197.532 282.529C197.343 282.67 197.216 282.88 197.179 283.114C197.142 283.347 197.199 283.586 197.336 283.778H197.335ZM174.115 297.268C173.626 295.687 173.327 294.054 173.225 292.403C173.218 292.285 173.188 292.17 173.136 292.064C173.085 291.957 173.013 291.862 172.924 291.784C172.836 291.705 172.733 291.645 172.622 291.606C172.51 291.568 172.392 291.551 172.274 291.558C172.156 291.565 172.041 291.595 171.935 291.647C171.828 291.698 171.733 291.77 171.655 291.859C171.576 291.947 171.516 292.05 171.477 292.161C171.439 292.273 171.422 292.391 171.429 292.509C171.539 294.305 171.863 296.081 172.396 297.799C172.468 298.027 172.628 298.218 172.84 298.328C173.052 298.439 173.299 298.462 173.527 298.391C173.64 298.356 173.744 298.299 173.835 298.224C173.925 298.148 174 298.056 174.055 297.951C174.109 297.847 174.143 297.733 174.153 297.616C174.163 297.498 174.15 297.38 174.115 297.268L174.115 297.268ZM190.169 278.017C191.679 278.651 193.081 279.514 194.329 280.575C194.419 280.651 194.524 280.709 194.636 280.744C194.749 280.78 194.868 280.793 194.985 280.782C195.103 280.772 195.217 280.739 195.322 280.684C195.427 280.63 195.52 280.555 195.596 280.465C195.672 280.374 195.729 280.27 195.765 280.157C195.8 280.044 195.813 279.926 195.803 279.808C195.793 279.691 195.759 279.576 195.705 279.471C195.65 279.366 195.576 279.273 195.485 279.198C194.097 278.022 192.538 277.064 190.863 276.355C190.643 276.263 190.395 276.263 190.174 276.353C189.953 276.444 189.778 276.619 189.686 276.839C189.594 277.059 189.593 277.307 189.684 277.528C189.774 277.749 189.949 277.925 190.169 278.017ZM173.481 288.018C173.756 286.408 174.28 284.85 175.035 283.401C175.091 283.296 175.126 283.182 175.138 283.063C175.15 282.945 175.138 282.826 175.103 282.712C175.069 282.599 175.012 282.493 174.936 282.402C174.861 282.31 174.768 282.234 174.663 282.179C174.558 282.124 174.443 282.089 174.325 282.078C174.207 282.068 174.087 282.08 173.974 282.116C173.861 282.151 173.756 282.209 173.665 282.285C173.574 282.361 173.499 282.455 173.444 282.56C172.605 284.175 172.018 285.91 171.704 287.702C171.663 287.938 171.717 288.18 171.854 288.376C171.991 288.572 172.2 288.705 172.435 288.747C172.67 288.788 172.913 288.735 173.109 288.599C173.305 288.462 173.439 288.253 173.481 288.018H173.481ZM181.162 277.75L181.293 277.7C182.794 277.137 184.398 276.902 185.997 277.012C186.233 277.025 186.465 276.943 186.642 276.786C186.819 276.629 186.927 276.408 186.943 276.172C186.958 275.936 186.88 275.703 186.725 275.524C186.57 275.345 186.351 275.234 186.115 275.216C184.318 275.093 182.516 275.345 180.822 275.956L180.657 276.016C179.079 276.612 177.634 277.511 176.402 278.662C176.227 278.825 176.124 279.051 176.116 279.289C176.107 279.528 176.194 279.76 176.357 279.935C176.52 280.109 176.745 280.212 176.984 280.22C177.222 280.229 177.454 280.142 177.629 279.979C178.656 279.02 179.854 278.264 181.162 277.749L181.162 277.75ZM191.401 302.245C191.166 302.365 190.924 302.473 190.676 302.566C188.01 303.572 185.077 302.864 182.812 301.007C182.721 300.932 182.616 300.876 182.503 300.842C182.39 300.807 182.272 300.796 182.154 300.807C182.037 300.819 181.923 300.853 181.819 300.909C181.715 300.965 181.623 301.04 181.548 301.131C181.474 301.223 181.417 301.328 181.383 301.44C181.349 301.553 181.337 301.672 181.349 301.789C181.361 301.906 181.395 302.02 181.451 302.124C181.506 302.228 181.582 302.32 181.673 302.395C184.44 304.672 188.043 305.484 191.312 304.25C191.621 304.134 191.923 304 192.217 303.85C192.323 303.797 192.418 303.724 192.496 303.634C192.574 303.544 192.634 303.44 192.671 303.327C192.709 303.214 192.723 303.095 192.714 302.976C192.705 302.857 192.673 302.742 192.619 302.636C192.565 302.53 192.491 302.436 192.4 302.358C192.31 302.281 192.205 302.223 192.092 302.187C191.978 302.15 191.859 302.137 191.74 302.147C191.622 302.157 191.507 302.191 191.401 302.246V302.245ZM194.817 290.426C194.87 290.554 194.92 290.682 194.968 290.811C196.123 293.87 195.812 297.081 194.358 299.46C194.297 299.561 194.256 299.673 194.238 299.79C194.219 299.907 194.224 300.026 194.252 300.141C194.28 300.256 194.33 300.364 194.4 300.46C194.47 300.555 194.558 300.636 194.659 300.698C194.76 300.759 194.872 300.8 194.989 300.819C195.106 300.837 195.225 300.832 195.34 300.804C195.455 300.776 195.563 300.726 195.659 300.656C195.754 300.586 195.835 300.498 195.896 300.397C197.612 297.585 198.018 293.792 196.653 290.175C196.597 290.025 196.54 289.875 196.474 289.73C196.429 289.621 196.362 289.521 196.278 289.437C196.195 289.353 196.095 289.287 195.986 289.242C195.876 289.197 195.759 289.174 195.64 289.174C195.521 289.174 195.404 289.198 195.295 289.244C195.186 289.29 195.086 289.357 195.003 289.442C194.92 289.526 194.854 289.626 194.81 289.736C194.765 289.846 194.743 289.963 194.744 290.082C194.746 290.2 194.77 290.318 194.817 290.426ZM180.186 297.713C179.996 297.346 179.828 296.968 179.683 296.58C178.639 293.816 178.798 290.927 179.906 288.64C180.011 288.425 180.025 288.177 179.947 287.952C179.868 287.726 179.704 287.541 179.489 287.437C179.274 287.333 179.026 287.318 178.801 287.396C178.575 287.475 178.39 287.639 178.286 287.854C176.976 290.552 176.767 293.957 177.997 297.216C178.167 297.666 178.362 298.106 178.582 298.533C178.692 298.743 178.881 298.902 179.107 298.973C179.333 299.045 179.579 299.025 179.79 298.917C180.001 298.809 180.161 298.622 180.236 298.396C180.31 298.171 180.292 297.925 180.186 297.713ZM183.883 284.861L183.98 284.824C186.891 283.725 190.124 284.671 192.448 286.932C192.62 287.096 192.85 287.186 193.087 287.182C193.325 287.177 193.551 287.079 193.717 286.909C193.883 286.738 193.975 286.509 193.972 286.272C193.97 286.034 193.874 285.807 193.705 285.64C190.906 282.924 187.023 281.832 183.508 283.079L183.344 283.139C182.722 283.374 182.128 283.677 181.574 284.044C181.475 284.109 181.39 284.193 181.324 284.292C181.258 284.39 181.212 284.5 181.189 284.616C181.166 284.732 181.165 284.851 181.188 284.968C181.211 285.084 181.256 285.194 181.322 285.293C181.387 285.391 181.472 285.476 181.57 285.542C181.668 285.608 181.778 285.654 181.894 285.677C182.01 285.7 182.13 285.701 182.246 285.678C182.362 285.655 182.472 285.61 182.571 285.544C182.983 285.271 183.423 285.042 183.883 284.861L183.883 284.861ZM189.08 293.629C188.592 293.898 188.085 294.131 187.563 294.326C186.917 294.574 186.248 294.76 185.567 294.882C185.451 294.902 185.339 294.945 185.239 295.008C185.139 295.071 185.052 295.153 184.984 295.249C184.915 295.346 184.867 295.455 184.841 295.57C184.814 295.685 184.811 295.804 184.831 295.921C184.851 296.037 184.893 296.149 184.956 296.249C185.019 296.349 185.101 296.436 185.198 296.504C185.294 296.573 185.403 296.621 185.518 296.648C185.633 296.674 185.753 296.677 185.869 296.657C186.664 296.515 187.444 296.298 188.199 296.01C188.802 295.783 189.389 295.514 189.953 295.202C190.162 295.086 190.316 294.893 190.382 294.663C190.447 294.434 190.419 294.188 190.303 293.979C190.187 293.77 189.993 293.616 189.764 293.55C189.535 293.485 189.288 293.513 189.08 293.629L189.08 293.629ZM186.879 293.146L187.087 293.065C188.377 292.578 189.599 292.348 190.416 292.425C190.534 292.437 190.654 292.425 190.768 292.391C190.882 292.357 190.988 292.3 191.079 292.225C191.171 292.149 191.247 292.056 191.303 291.951C191.359 291.846 191.393 291.731 191.404 291.613C191.415 291.495 191.403 291.375 191.368 291.262C191.332 291.148 191.275 291.043 191.198 290.952C191.122 290.86 191.029 290.785 190.923 290.73C190.818 290.676 190.702 290.642 190.584 290.632C189.599 290.541 188.142 290.764 186.601 291.326L186.452 291.381C185.11 291.888 183.979 292.546 183.242 293.18C183.151 293.257 183.077 293.351 183.023 293.457C182.968 293.562 182.936 293.678 182.927 293.796C182.917 293.915 182.932 294.034 182.969 294.147C183.006 294.26 183.065 294.365 183.142 294.455C183.22 294.545 183.315 294.618 183.421 294.672C183.528 294.725 183.643 294.756 183.762 294.765C183.881 294.773 184 294.758 184.112 294.719C184.225 294.681 184.329 294.621 184.418 294.543C184.988 294.051 185.859 293.551 186.879 293.146Z" fill="#6562F9"/>
<path fill-rule="evenodd" clip-rule="evenodd" d="M128.051 167.093C110.376 178.008 71.2118 212.285 76.8557 238.195C85.0139 275.628 123.681 315.113 123.681 315.113C125.164 328.06 136.223 331.035 138.543 331.867C140.548 332.584 132.7 314.391 133.547 312.933C136.272 308.25 141.636 315.337 142.88 310.758C143.667 307.867 136.811 302.568 130.715 303.244C130.715 303.244 103.171 251.686 111.006 228.536C118.847 205.387 173.962 207.119 177.741 164.349C178.751 152.919 174.227 138.578 128.051 167.093Z" fill="#FB9C9A"/>
<mask id="mask1_1177_228" style="mask-type:luminance" maskUnits="userSpaceOnUse" x="76" y="150" width="102" height="182">
<path d="M128.051 167.093C110.376 178.008 71.2118 212.285 76.8557 238.195C85.0139 275.628 123.681 315.113 123.681 315.113C125.164 328.06 136.223 331.035 138.543 331.867C140.548 332.584 132.7 314.391 133.547 312.933C136.272 308.25 141.636 315.337 142.88 310.758C143.667 307.867 136.811 302.568 130.715 303.244C130.715 303.244 103.171 251.686 111.006 228.536C118.847 205.387 173.962 207.119 177.741 164.349C178.751 152.919 174.227 138.578 128.051 167.093Z" fill="white"/>
</mask>
<g mask="url(#mask1_1177_228)">
<path fill-rule="evenodd" clip-rule="evenodd" d="M147.953 275.284C168.925 249.696 202.566 229.57 206.312 193.768C208.941 168.648 192.109 150.46 169.831 141.665C135.14 127.975 90.5885 131.177 58.8526 150.981C13.2855 179.418 9.82731 241.201 39.4872 282.39C48.6792 295.153 60.8194 307.154 76.2121 311.87C87.7107 315.394 109.066 316.32 116.43 303.813C118.861 299.688 116.203 294.283 119.234 290.53C121.536 287.674 125.522 287.905 128.363 285.902C133.026 282.628 132.354 274.422 130.626 269.709L147.953 275.284Z" fill="url(#paint6_linear_1177_228)"/>
</g>
<path fill-rule="evenodd" clip-rule="evenodd" d="M435.217 135.947C435.217 135.947 413.343 129.507 397.898 112.852C380.55 128.452 357.961 135.947 357.961 135.947V171.126C357.961 177.996 359.712 184.754 363.049 190.76C366.386 196.765 371.199 201.822 377.032 205.451C377.665 205.849 378.303 206.242 378.93 206.634C384.097 209.848 390.052 211.568 396.137 211.601C402.221 211.635 408.196 209.982 413.397 206.825C420.058 202.784 425.565 197.094 429.387 190.305C433.209 183.516 435.217 175.857 435.217 168.066V135.947Z" fill="url(#paint7_linear_1177_228)"/>
<path fill-rule="evenodd" clip-rule="evenodd" d="M424.986 143.556C424.986 143.556 408.905 138.799 397.551 126.493C384.797 138.019 368.191 143.556 368.191 143.556V169.596C368.191 174.66 369.479 179.64 371.933 184.069C374.386 188.499 377.926 192.231 382.22 194.916C382.677 195.199 383.134 195.484 383.587 195.77C387.387 198.147 391.774 199.418 396.256 199.443C400.738 199.468 405.138 198.245 408.965 195.912H408.969C413.86 192.928 417.902 188.736 420.707 183.74C423.512 178.744 424.985 173.11 424.986 167.38V143.556Z" fill="white"/>
<path fill-rule="evenodd" clip-rule="evenodd" d="M380.649 171.262L391.276 185.5C392.164 186.686 393.517 187.353 394.923 187.3C395.635 187.266 396.328 187.06 396.942 186.7C397.557 186.341 398.076 185.838 398.454 185.234L418.301 154.509C419.708 152.327 419.206 149.326 417.172 147.811C415.138 146.295 412.352 146.839 410.936 149.022L394.511 174.448L387.638 165.241C386.097 163.168 383.275 162.834 381.348 164.496C379.413 166.157 379.108 169.189 380.649 171.262Z" fill="url(#paint8_linear_1177_228)"/>
<path fill-rule="evenodd" clip-rule="evenodd" d="M354.157 170.607C354.802 166.968 356.87 163.249 358.093 162.822C366.253 159.984 370.573 168.141 362.161 170.67C358.093 171.894 354.017 182.398 354.017 182.398C354.017 182.398 353.669 173.397 354.157 170.607Z" fill="#FB9C9A"/>
<path fill-rule="evenodd" clip-rule="evenodd" d="M203.337 104.398C192.52 104.398 184.634 114.33 186.173 127.81C187.265 137.363 199.336 147.635 209.23 148.604C217.385 149.401 220.578 141.127 220.578 127.559C220.578 113.992 214.146 104.398 203.337 104.398Z" fill="url(#paint9_linear_1177_228)"/>
<path fill-rule="evenodd" clip-rule="evenodd" d="M207.468 139.496C207.674 138.554 208.471 137.717 209.122 137.05C209.696 136.463 210.296 135.893 211.008 135.477C211.43 135.212 211.889 135.011 212.37 134.879C215.173 134.205 216.509 136.581 218.686 137.734C219.526 138.179 220.426 138.259 221.36 138.292C224.017 142.343 219.303 146.776 215.849 148.221C214.127 148.944 209.628 154.661 204.143 148.088C202.9 146.602 196.165 147.052 198.273 139.499C198.821 137.523 198.024 135.005 197.879 132.97C197.664 129.987 197.904 126.518 194.99 124.689C194.531 124.403 194.042 124.165 193.534 123.98C193.174 123.847 192.762 123.563 192.419 123.725C189.891 124.899 194.048 129.525 187.817 131.426C188.22 133.491 186.241 134.94 184.424 135.214C181.579 135.644 178.528 134.409 176.643 132.248C174.903 130.251 172.795 127.143 172.435 124.564C171.998 121.407 172.152 114.557 175.083 110.503C177.371 107.337 180.747 104.878 184.775 105.125C184.732 104.325 185.264 103.527 185.675 102.887C186.643 101.384 187.867 100.062 189.291 98.9822C191.58 97.2682 194.408 95.9922 197.278 95.7762C201.126 95.4867 205.24 97.617 206.911 101.161C207.64 100.38 208.745 100.129 209.756 99.9291C212.233 99.4399 214.564 99.7492 216.766 101.022C221.54 103.784 223.185 109.168 221.171 114.156C220.451 113.924 219.611 113.918 218.866 113.81C217.066 113.553 223.245 117.378 210.699 119.586C207.434 120.16 202.592 117.664 200.235 120.734C198.693 122.737 199.764 125.127 200.081 127.328C200.363 129.297 200.218 131.31 200.587 133.267C201.109 136.05 203.243 139.461 206.234 140.085L207.468 139.496Z" fill="url(#paint10_linear_1177_228)"/>
<defs>
<linearGradient id="paint0_linear_1177_228" x1="349" y1="244.778" x2="152.211" y2="406.488" gradientUnits="userSpaceOnUse">
<stop stop-color="#E3DBF9"/>
<stop offset="0.54" stop-color="#CCBBFA"/>
<stop offset="1" stop-color="#7848FC"/>
</linearGradient>
<linearGradient id="paint1_linear_1177_228" x1="278.755" y1="227.576" x2="215.675" y2="329.898" gradientUnits="userSpaceOnUse">
<stop stop-color="#E3DBF9"/>
<stop offset="0.54" stop-color="#CCBBFA"/>
<stop offset="1" stop-color="#7848FC"/>
</linearGradient>
<linearGradient id="paint2_linear_1177_228" x1="28.6758" y1="194.664" x2="200.292" y2="335.606" gradientUnits="userSpaceOnUse">
<stop stop-color="#E3DBF9"/>
<stop offset="0.56" stop-color="#CDBDFA"/>
<stop offset="1" stop-color="#7848FC"/>
</linearGradient>
<linearGradient id="paint3_linear_1177_228" x1="265.628" y1="181.838" x2="276.497" y2="314.152" gradientUnits="userSpaceOnUse">
<stop stop-color="#272BAA"/>
<stop offset="0.45" stop-color="#1D2190"/>
<stop offset="1" stop-color="#050751"/>
</linearGradient>
<linearGradient id="paint4_linear_1177_228" x1="204.635" y1="130.719" x2="175.95" y2="278.019" gradientUnits="userSpaceOnUse">
<stop stop-color="#3E42D3"/>
<stop offset="1" stop-color="#050751"/>
</linearGradient>
<linearGradient id="paint5_linear_1177_228" x1="183.716" y1="235.655" x2="173.826" y2="329.182" gradientUnits="userSpaceOnUse">
<stop stop-color="#E3E3FE"/>
<stop offset="0.47" stop-color="#BBBBFE"/>
<stop offset="1" stop-color="#4F4FFF"/>
</linearGradient>
<linearGradient id="paint6_linear_1177_228" x1="167.628" y1="143.534" x2="61.6088" y2="256.209" gradientUnits="userSpaceOnUse">
<stop stop-color="#292DB3"/>
<stop offset="0.56" stop-color="#22259F"/>
<stop offset="1" stop-color="#050751"/>
</linearGradient>
<linearGradient id="paint7_linear_1177_228" x1="419.464" y1="113.825" x2="347.123" y2="249.721" gradientUnits="userSpaceOnUse">
<stop stop-color="#AADBFF"/>
<stop offset="0.6" stop-color="#91D1FF"/>
<stop offset="0.81" stop-color="#5AB9FF"/>
<stop offset="1" stop-color="#22A1FF"/>
</linearGradient>
<linearGradient id="paint8_linear_1177_228" x1="414.72" y1="135.231" x2="369.682" y2="209.3" gradientUnits="userSpaceOnUse">
<stop stop-color="#AADBFF"/>
<stop offset="0.47" stop-color="#85CBFF"/>
<stop offset="1" stop-color="#22A1FF"/>
</linearGradient>
<linearGradient id="paint9_linear_1177_228" x1="216.726" y1="108.346" x2="187.412" y2="153.144" gradientUnits="userSpaceOnUse">
<stop stop-color="#FB9C9A"/>
<stop offset="0.64" stop-color="#FC8886"/>
<stop offset="0.84" stop-color="#FD5450"/>
<stop offset="1" stop-color="#FF1712"/>
</linearGradient>
<linearGradient id="paint10_linear_1177_228" x1="207.994" y1="149.646" x2="189.829" y2="92.1594" gradientUnits="userSpaceOnUse">
<stop/>
<stop offset="0.53" stop-color="#121212"/>
<stop offset="1" stop-color="#4D4D4D"/>
</linearGradient>
</defs>
</svg>
