<svg width="312" height="252" viewBox="0 0 312 252" fill="none" xmlns="http://www.w3.org/2000/svg">
<rect x="2.5" y="2.5" width="304" height="222" fill="url(#paint0_linear_1312_284)" stroke="url(#paint1_linear_1312_284)" stroke-width="5"/>
<g filter="url(#filter0_d_1312_284)">
<rect x="57.2637" y="116.539" width="110.055" height="26.0463" rx="13.0231" transform="rotate(0.0837497 57.2637 116.539)" fill="url(#paint2_linear_1312_284)"/>
<path d="M84.2614 128.43L82.706 128.423C82.6785 128.222 82.6213 128.043 82.5344 127.886C82.4474 127.727 82.3356 127.592 82.1988 127.48C82.0619 127.368 81.9037 127.282 81.724 127.222C81.5467 127.162 81.3539 127.132 81.1456 127.131C80.7692 127.129 80.4409 127.221 80.1607 127.407C79.8805 127.591 79.6628 127.86 79.5073 128.214C79.3519 128.566 79.2731 128.994 79.2709 129.499C79.2687 130.017 79.3437 130.453 79.4961 130.806C79.6508 131.16 79.8675 131.427 80.146 131.608C80.4246 131.789 80.7474 131.881 81.1143 131.882C81.3203 131.883 81.511 131.857 81.6864 131.803C81.8642 131.749 82.022 131.671 82.1597 131.567C82.2975 131.461 82.4117 131.333 82.5023 131.182C82.5953 131.03 82.66 130.858 82.6963 130.664L84.2517 130.678C84.21 131.011 84.108 131.333 83.9456 131.642C83.7857 131.949 83.5702 132.224 83.2993 132.467C83.0307 132.707 82.7103 132.898 82.338 133.038C81.9681 133.176 81.5499 133.244 81.0835 133.242C80.4349 133.239 79.8555 133.09 79.3454 132.794C78.8377 132.499 78.4371 132.072 78.1436 131.514C77.8524 130.957 77.7086 130.282 77.712 129.492C77.7154 128.699 77.8675 128.025 78.1682 127.47C78.4689 126.915 78.8756 126.492 79.3882 126.204C79.9008 125.912 80.4768 125.768 81.116 125.771C81.5374 125.773 81.9277 125.833 82.2871 125.953C82.6488 126.073 82.9688 126.247 83.2472 126.476C83.5255 126.702 83.7516 126.979 83.9254 127.306C84.1015 127.634 84.2135 128.008 84.2614 128.43ZM86.3085 135.211C86.1168 135.21 85.9369 135.194 85.769 135.162C85.6034 135.133 85.4662 135.096 85.3575 135.051L85.7033 133.923C85.8807 133.978 86.0403 134.008 86.1823 134.014C86.3267 134.019 86.4512 133.986 86.5556 133.916C86.6625 133.845 86.7494 133.725 86.8164 133.555L86.9062 133.324L84.9739 127.705L86.5648 127.712L87.6767 131.722L87.7335 131.723L88.8908 127.722L90.4923 127.729L88.3461 133.764C88.243 134.057 88.1034 134.312 87.9273 134.529C87.7535 134.748 87.5338 134.917 87.2681 135.034C87.0025 135.154 86.6826 135.213 86.3085 135.211ZM91.2712 133.187L91.3028 125.914L92.8155 125.921L92.8037 128.655L92.8498 128.655C92.9168 128.509 93.0133 128.36 93.1394 128.209C93.2679 128.056 93.4342 127.929 93.6382 127.828C93.8446 127.725 94.1005 127.674 94.4059 127.675C94.8037 127.677 95.1702 127.782 95.5054 127.992C95.8407 128.2 96.1081 128.512 96.3075 128.93C96.5069 129.345 96.6053 129.865 96.6026 130.49C96.5999 131.098 96.4994 131.612 96.3011 132.03C96.1052 132.446 95.8387 132.761 95.5016 132.974C95.1668 133.186 94.7923 133.291 94.378 133.289C94.0845 133.288 93.8349 133.238 93.6294 133.14C93.4262 133.042 93.2598 132.92 93.1303 132.772C93.0007 132.623 92.9019 132.472 92.8339 132.32L92.7665 132.32L92.7627 133.193L91.2712 133.187ZM92.7638 130.466C92.7624 130.79 92.8062 131.074 92.8951 131.315C92.984 131.557 93.1134 131.746 93.2833 131.882C93.4532 132.015 93.66 132.082 93.9039 132.083C94.1501 132.084 94.3587 132.018 94.5297 131.884C94.7008 131.747 94.8306 131.558 94.9193 131.317C95.0103 131.074 95.0565 130.793 95.0579 130.476C95.0592 130.161 95.0166 129.884 94.9301 129.645C94.8435 129.405 94.7153 129.217 94.5454 129.082C94.3756 128.946 94.1663 128.878 93.9178 128.877C93.6716 128.876 93.4629 128.94 93.2919 129.069C93.1233 129.199 92.9935 129.383 92.9025 129.622C92.8115 129.86 92.7653 130.142 92.7638 130.466ZM100.085 133.332C99.5244 133.329 99.0419 133.214 98.6381 132.985C98.2366 132.753 97.9279 132.427 97.7119 132.008C97.496 131.585 97.3892 131.086 97.3917 130.511C97.3941 129.95 97.5052 129.458 97.7248 129.035C97.9445 128.612 98.2525 128.283 98.6489 128.048C99.0476 127.813 99.5145 127.697 100.05 127.699C100.409 127.701 100.744 127.76 101.054 127.878C101.366 127.993 101.637 128.166 101.868 128.396C102.102 128.627 102.283 128.917 102.411 129.265C102.54 129.611 102.603 130.016 102.601 130.48L102.6 130.896L97.9938 130.876L97.9979 129.938L101.18 129.952C101.181 129.734 101.134 129.541 101.04 129.373C100.946 129.204 100.815 129.072 100.648 128.977C100.482 128.879 100.29 128.83 100.069 128.829C99.8399 128.828 99.636 128.88 99.458 128.986C99.2824 129.089 99.1445 129.23 99.0442 129.407C98.9441 129.581 98.8923 129.777 98.889 129.992L98.8851 130.883C98.884 131.153 98.9327 131.387 99.0313 131.584C99.1322 131.78 99.2748 131.933 99.459 132.04C99.6432 132.147 99.8619 132.201 100.115 132.203C100.283 132.203 100.437 132.18 100.577 132.134C100.717 132.087 100.837 132.016 100.937 131.922C101.037 131.828 101.113 131.712 101.166 131.575L102.564 131.673C102.492 132.009 102.345 132.302 102.124 132.552C101.905 132.8 101.622 132.993 101.276 133.131C100.932 133.267 100.535 133.334 100.085 133.332ZM103.577 133.24L103.6 127.786L105.067 127.792L105.063 128.744L105.12 128.744C105.221 128.406 105.389 128.151 105.624 127.979C105.859 127.805 106.129 127.719 106.434 127.72C106.51 127.72 106.592 127.725 106.679 127.735C106.767 127.745 106.844 127.758 106.91 127.775L106.904 129.118C106.833 129.096 106.735 129.077 106.61 129.06C106.484 129.042 106.37 129.034 106.265 129.033C106.043 129.032 105.844 129.08 105.668 129.176C105.495 129.27 105.357 129.402 105.255 129.572C105.154 129.742 105.104 129.938 105.103 130.161L105.089 133.247L103.577 133.24ZM112.224 129.379L110.838 129.458C110.815 129.339 110.765 129.233 110.687 129.138C110.609 129.04 110.507 128.963 110.379 128.905C110.254 128.846 110.104 128.815 109.928 128.815C109.694 128.814 109.496 128.863 109.335 128.961C109.173 129.058 109.092 129.188 109.092 129.351C109.091 129.481 109.143 129.591 109.246 129.682C109.35 129.772 109.529 129.845 109.782 129.901L110.768 130.104C111.298 130.215 111.692 130.392 111.952 130.635C112.211 130.877 112.34 131.195 112.338 131.588C112.337 131.945 112.23 132.259 112.018 132.528C111.809 132.797 111.521 133.006 111.156 133.156C110.793 133.304 110.375 133.376 109.902 133.374C109.18 133.371 108.605 133.218 108.178 132.916C107.753 132.611 107.505 132.198 107.434 131.677L108.922 131.605C108.966 131.825 109.074 131.994 109.247 132.111C109.419 132.225 109.64 132.283 109.91 132.284C110.175 132.285 110.388 132.235 110.55 132.134C110.714 132.031 110.797 131.897 110.8 131.734C110.798 131.597 110.741 131.484 110.628 131.396C110.514 131.305 110.339 131.236 110.103 131.188L109.159 130.995C108.627 130.887 108.231 130.7 107.972 130.436C107.715 130.172 107.587 129.837 107.589 129.43C107.591 129.079 107.687 128.778 107.877 128.525C108.07 128.273 108.34 128.079 108.686 127.943C109.034 127.807 109.442 127.74 109.908 127.742C110.597 127.745 111.139 127.893 111.533 128.186C111.929 128.479 112.16 128.876 112.224 129.379ZM115.769 133.4C115.208 133.397 114.725 133.282 114.322 133.053C113.92 132.821 113.611 132.496 113.395 132.076C113.179 131.653 113.073 131.154 113.075 130.579C113.078 130.018 113.189 129.526 113.408 129.103C113.628 128.68 113.936 128.352 114.332 128.116C114.731 127.881 115.198 127.765 115.733 127.767C116.093 127.769 116.428 127.828 116.737 127.946C117.049 128.061 117.321 128.234 117.552 128.464C117.785 128.695 117.966 128.985 118.095 129.333C118.224 129.679 118.287 130.084 118.285 130.548L118.283 130.964L113.677 130.944L113.681 130.006L116.863 130.02C116.864 129.802 116.818 129.609 116.724 129.441C116.63 129.272 116.499 129.14 116.331 129.045C116.166 128.947 115.973 128.898 115.753 128.897C115.523 128.896 115.319 128.948 115.141 129.054C114.966 129.157 114.828 129.298 114.728 129.475C114.628 129.65 114.576 129.845 114.572 130.06L114.569 130.951C114.567 131.221 114.616 131.455 114.715 131.652C114.816 131.849 114.958 132.001 115.142 132.108C115.327 132.215 115.545 132.27 115.799 132.271C115.967 132.271 116.121 132.248 116.261 132.202C116.401 132.155 116.52 132.084 116.62 131.99C116.72 131.896 116.796 131.78 116.849 131.643L118.248 131.741C118.175 132.077 118.028 132.37 117.807 132.62C117.588 132.868 117.306 133.061 116.959 133.199C116.616 133.335 116.219 133.402 115.769 133.4ZM121.724 133.426C121.165 133.423 120.685 133.303 120.284 133.064C119.885 132.823 119.579 132.491 119.365 132.066C119.154 131.641 119.049 131.153 119.052 130.601C119.054 130.043 119.164 129.553 119.381 129.133C119.601 128.71 119.911 128.381 120.312 128.146C120.713 127.909 121.19 127.791 121.741 127.794C122.217 127.796 122.634 127.884 122.99 128.058C123.347 128.233 123.629 128.476 123.836 128.79C124.043 129.103 124.156 129.471 124.176 129.892L122.748 129.886C122.709 129.614 122.603 129.394 122.431 129.228C122.262 129.059 122.038 128.974 121.761 128.973C121.527 128.972 121.322 129.035 121.146 129.162C120.973 129.286 120.837 129.469 120.739 129.71C120.641 129.951 120.591 130.244 120.589 130.587C120.588 130.935 120.634 131.231 120.728 131.475C120.824 131.72 120.959 131.906 121.134 132.035C121.308 132.163 121.513 132.228 121.747 132.229C121.92 132.23 122.075 132.195 122.213 132.124C122.353 132.054 122.468 131.952 122.559 131.817C122.651 131.68 122.713 131.516 122.742 131.324L124.169 131.33C124.144 131.747 124.029 132.113 123.824 132.43C123.621 132.744 123.342 132.989 122.986 133.165C122.63 133.341 122.209 133.428 121.724 133.426ZM128.637 131.027L128.651 127.895L130.163 127.901L130.14 133.356L128.687 133.349L128.692 132.359L128.635 132.358C128.51 132.677 128.305 132.933 128.017 133.126C127.732 133.319 127.385 133.415 126.975 133.413C126.611 133.411 126.29 133.327 126.014 133.16C125.738 132.993 125.522 132.757 125.367 132.451C125.215 132.145 125.138 131.778 125.138 131.352L125.153 127.879L126.666 127.886L126.652 131.089C126.653 131.411 126.738 131.666 126.908 131.854C127.077 132.041 127.305 132.136 127.592 132.137C127.774 132.138 127.945 132.097 128.104 132.015C128.263 131.931 128.391 131.806 128.489 131.64C128.589 131.475 128.638 131.27 128.637 131.027ZM131.35 133.361L131.374 127.906L132.84 127.913L132.836 128.864L132.893 128.865C132.994 128.527 133.162 128.272 133.397 128.1C133.632 127.926 133.902 127.839 134.208 127.84C134.283 127.841 134.365 127.846 134.453 127.856C134.54 127.866 134.617 127.879 134.683 127.896L134.677 129.238C134.606 129.217 134.508 129.197 134.383 129.18C134.258 129.163 134.143 129.154 134.039 129.154C133.816 129.153 133.617 129.2 133.441 129.297C133.268 129.391 133.13 129.523 133.028 129.693C132.928 129.863 132.877 130.059 132.876 130.281L132.863 133.367L131.35 133.361ZM135.442 133.379L135.465 127.924L136.978 127.931L136.954 133.385L135.442 133.379ZM136.228 127.224C136.003 127.223 135.811 127.148 135.65 126.998C135.492 126.846 135.414 126.664 135.415 126.454C135.416 126.245 135.496 126.067 135.655 125.918C135.817 125.768 136.01 125.693 136.235 125.694C136.46 125.695 136.651 125.771 136.809 125.923C136.97 126.073 137.049 126.252 137.048 126.461C137.047 126.671 136.966 126.852 136.805 127.003C136.645 127.151 136.453 127.225 136.228 127.224ZM141.091 127.948L141.086 129.085L137.801 129.071L137.806 127.934L141.091 127.948ZM138.558 126.631L140.071 126.637L140.048 131.722C140.048 131.862 140.069 131.971 140.111 132.049C140.153 132.125 140.212 132.179 140.288 132.21C140.366 132.241 140.456 132.257 140.557 132.257C140.629 132.258 140.7 132.252 140.771 132.24C140.842 132.227 140.896 132.216 140.934 132.209L141.167 133.336C141.091 133.359 140.985 133.386 140.847 133.416C140.71 133.449 140.543 133.468 140.346 133.474C139.982 133.487 139.662 133.437 139.388 133.325C139.116 133.212 138.905 133.038 138.755 132.803C138.604 132.568 138.531 132.272 138.535 131.915L138.558 126.631ZM142.978 135.457C142.786 135.456 142.606 135.44 142.438 135.408C142.273 135.379 142.136 135.342 142.027 135.296L142.373 134.169C142.55 134.224 142.71 134.254 142.852 134.259C142.996 134.265 143.121 134.232 143.225 134.162C143.332 134.091 143.419 133.971 143.486 133.801L143.576 133.57L141.643 127.951L143.234 127.958L144.346 131.968L144.403 131.969L145.56 127.968L147.162 127.975L145.015 134.01C144.912 134.303 144.773 134.558 144.597 134.775C144.423 134.994 144.203 135.163 143.938 135.28C143.672 135.399 143.352 135.458 142.978 135.457Z" fill="#CCC3C3"/>
</g>
<g filter="url(#filter1_d_1312_284)">
<rect x="148.37" y="194.802" width="110.055" height="26.0463" rx="13.0231" transform="rotate(-0.0378967 148.37 194.802)" fill="url(#paint3_linear_1312_284)"/>
<path d="M175.393 206.635L173.837 206.631C173.809 206.43 173.752 206.251 173.665 206.095C173.577 205.936 173.465 205.801 173.328 205.689C173.191 205.578 173.033 205.492 172.853 205.432C172.675 205.373 172.483 205.343 172.274 205.342C171.898 205.341 171.57 205.434 171.29 205.621C171.01 205.805 170.793 206.074 170.638 206.429C170.484 206.781 170.406 207.21 170.405 207.714C170.403 208.232 170.479 208.668 170.633 209.021C170.788 209.374 171.005 209.641 171.284 209.822C171.563 210.002 171.886 210.093 172.253 210.094C172.459 210.094 172.65 210.067 172.825 210.013C173.003 209.959 173.16 209.88 173.298 209.776C173.435 209.67 173.549 209.541 173.64 209.39C173.732 209.239 173.796 209.066 173.832 208.872L175.388 208.883C175.347 209.216 175.245 209.538 175.084 209.848C174.925 210.155 174.71 210.431 174.439 210.674C174.171 210.915 173.851 211.106 173.479 211.247C173.11 211.386 172.692 211.455 172.225 211.454C171.576 211.452 170.997 211.304 170.486 211.01C169.978 210.715 169.576 210.289 169.281 209.732C168.989 209.175 168.844 208.501 168.846 207.71C168.847 206.917 168.998 206.243 169.298 205.687C169.597 205.132 170.003 204.709 170.515 204.419C171.027 204.126 171.602 203.981 172.242 203.982C172.663 203.983 173.054 204.043 173.413 204.162C173.775 204.281 174.096 204.455 174.374 204.683C174.653 204.908 174.88 205.185 175.054 205.512C175.231 205.839 175.344 206.213 175.393 206.635ZM177.454 213.411C177.263 213.411 177.083 213.395 176.915 213.364C176.749 213.335 176.612 213.298 176.503 213.253L176.846 212.124C177.024 212.179 177.184 212.209 177.326 212.214C177.47 212.219 177.594 212.187 177.699 212.116C177.805 212.045 177.892 211.924 177.959 211.754L178.048 211.523L176.104 205.908L177.695 205.912L178.815 209.92L178.872 209.92L180.021 205.917L181.622 205.921L179.489 211.96C179.386 212.253 179.247 212.509 179.072 212.726C178.898 212.946 178.679 213.115 178.414 213.232C178.148 213.353 177.828 213.412 177.454 213.411ZM182.413 211.377L182.429 204.104L183.942 204.108L183.935 206.842L183.982 206.842C184.048 206.695 184.144 206.546 184.27 206.395C184.398 206.242 184.564 206.114 184.768 206.013C184.974 205.909 185.23 205.858 185.536 205.858C185.933 205.859 186.3 205.964 186.636 206.173C186.972 206.38 187.24 206.692 187.44 207.109C187.64 207.524 187.74 208.043 187.738 208.668C187.737 209.277 187.638 209.79 187.44 210.209C187.245 210.625 186.979 210.941 186.643 211.155C186.308 211.368 185.934 211.473 185.52 211.473C185.226 211.472 184.976 211.423 184.771 211.325C184.567 211.228 184.401 211.105 184.271 210.958C184.141 210.809 184.042 210.658 183.974 210.507L183.906 210.507L183.904 211.38L182.413 211.377ZM183.9 208.653C183.899 208.977 183.943 209.26 184.033 209.502C184.122 209.744 184.252 209.932 184.422 210.067C184.592 210.2 184.799 210.267 185.043 210.268C185.289 210.268 185.498 210.201 185.668 210.067C185.839 209.93 185.969 209.741 186.057 209.499C186.147 209.256 186.193 208.975 186.194 208.658C186.194 208.343 186.151 208.066 186.064 207.827C185.977 207.587 185.848 207.4 185.678 207.265C185.508 207.129 185.299 207.062 185.05 207.061C184.804 207.06 184.595 207.125 184.425 207.255C184.256 207.385 184.127 207.569 184.036 207.808C183.946 208.047 183.9 208.329 183.9 208.653ZM191.227 211.503C190.666 211.502 190.183 211.387 189.779 211.159C189.377 210.928 189.068 210.603 188.851 210.184C188.634 209.762 188.526 209.263 188.527 208.688C188.529 208.127 188.639 207.635 188.857 207.211C189.076 206.788 189.383 206.459 189.779 206.223C190.178 205.987 190.644 205.87 191.179 205.871C191.539 205.871 191.874 205.93 192.184 206.047C192.496 206.161 192.768 206.333 193 206.564C193.233 206.794 193.415 207.083 193.544 207.431C193.674 207.777 193.738 208.182 193.737 208.646L193.736 209.062L189.13 209.052L189.132 208.114L192.314 208.121C192.315 207.903 192.268 207.71 192.173 207.542C192.079 207.374 191.948 207.242 191.78 207.147C191.615 207.049 191.422 207.001 191.202 207C190.972 207 190.768 207.052 190.591 207.158C190.415 207.262 190.277 207.403 190.178 207.58C190.078 207.755 190.026 207.95 190.024 208.166L190.022 209.057C190.021 209.327 190.07 209.56 190.169 209.757C190.271 209.954 190.414 210.106 190.598 210.212C190.782 210.319 191.001 210.373 191.255 210.374C191.423 210.374 191.577 210.351 191.716 210.304C191.856 210.257 191.976 210.186 192.076 210.091C192.175 209.997 192.251 209.881 192.304 209.744L193.702 209.839C193.631 210.175 193.484 210.469 193.264 210.719C193.045 210.967 192.763 211.161 192.417 211.3C192.074 211.436 191.677 211.504 191.227 211.503ZM194.718 211.404L194.73 205.95L196.197 205.953L196.195 206.905L196.252 206.905C196.352 206.566 196.519 206.311 196.754 206.139C196.989 205.964 197.259 205.877 197.564 205.878C197.64 205.878 197.722 205.883 197.809 205.892C197.897 205.902 197.974 205.915 198.04 205.932L198.037 207.274C197.966 207.253 197.868 207.234 197.742 207.217C197.617 207.2 197.502 207.192 197.398 207.191C197.175 207.191 196.976 207.239 196.801 207.336C196.628 207.43 196.49 207.562 196.388 207.732C196.288 207.903 196.238 208.099 196.238 208.322L196.231 211.407L194.718 211.404ZM203.357 207.524L201.972 207.606C201.948 207.488 201.898 207.381 201.82 207.286C201.742 207.189 201.639 207.112 201.511 207.055C201.386 206.995 201.236 206.965 201.061 206.965C200.826 206.965 200.628 207.014 200.467 207.113C200.306 207.21 200.225 207.34 200.225 207.503C200.225 207.633 200.276 207.743 200.38 207.834C200.484 207.924 200.663 207.996 200.916 208.051L201.903 208.252C202.433 208.362 202.828 208.539 203.088 208.781C203.348 209.023 203.477 209.34 203.476 209.733C203.476 210.091 203.37 210.404 203.158 210.674C202.949 210.943 202.662 211.153 202.297 211.304C201.935 211.452 201.517 211.526 201.043 211.525C200.321 211.523 199.746 211.371 199.319 211.07C198.893 210.766 198.644 210.353 198.572 209.832L200.06 209.758C200.105 209.978 200.213 210.146 200.386 210.263C200.558 210.377 200.779 210.434 201.049 210.434C201.315 210.435 201.528 210.385 201.689 210.283C201.852 210.179 201.936 210.046 201.938 209.882C201.936 209.745 201.879 209.633 201.765 209.545C201.652 209.455 201.477 209.385 201.24 209.338L200.296 209.147C199.763 209.04 199.367 208.854 199.107 208.591C198.85 208.327 198.722 207.992 198.723 207.585C198.723 207.234 198.819 206.933 199.009 206.68C199.201 206.427 199.47 206.232 199.816 206.096C200.164 205.959 200.572 205.892 201.038 205.893C201.727 205.894 202.269 206.041 202.664 206.333C203.061 206.625 203.292 207.022 203.357 207.524ZM206.911 211.538C206.35 211.536 205.867 211.422 205.463 211.194C205.061 210.963 204.751 210.638 204.534 210.218C204.318 209.797 204.21 209.298 204.211 208.723C204.212 208.162 204.322 207.669 204.541 207.246C204.76 206.823 205.067 206.493 205.463 206.257C205.861 206.022 206.328 205.904 206.863 205.905C207.223 205.906 207.558 205.965 207.867 206.082C208.18 206.196 208.452 206.368 208.683 206.598C208.917 206.829 209.099 207.118 209.228 207.466C209.357 207.812 209.422 208.217 209.421 208.681L209.42 209.096L204.814 209.086L204.816 208.149L207.998 208.156C207.998 207.938 207.951 207.745 207.857 207.577C207.763 207.408 207.632 207.277 207.464 207.182C207.298 207.084 207.105 207.035 206.885 207.035C206.656 207.034 206.452 207.087 206.274 207.193C206.099 207.297 205.961 207.438 205.861 207.615C205.761 207.79 205.71 207.985 205.707 208.2L205.705 209.092C205.705 209.362 205.754 209.595 205.853 209.792C205.954 209.988 206.097 210.14 206.282 210.247C206.466 210.354 206.685 210.408 206.938 210.408C207.106 210.409 207.26 210.385 207.4 210.338C207.54 210.291 207.659 210.221 207.759 210.126C207.859 210.032 207.935 209.916 207.987 209.779L209.386 209.874C209.314 210.21 209.168 210.503 208.947 210.754C208.729 211.002 208.447 211.195 208.101 211.334C207.757 211.471 207.361 211.539 206.911 211.538ZM212.866 211.551C212.307 211.55 211.827 211.43 211.425 211.193C211.025 210.953 210.718 210.62 210.504 210.196C210.292 209.772 210.186 209.284 210.188 208.732C210.189 208.174 210.298 207.684 210.514 207.263C210.733 206.84 211.042 206.51 211.443 206.274C211.844 206.036 212.32 205.918 212.871 205.919C213.347 205.92 213.764 206.007 214.121 206.181C214.478 206.354 214.76 206.598 214.968 206.911C215.176 207.224 215.29 207.591 215.31 208.012L213.882 208.009C213.843 207.737 213.737 207.517 213.564 207.351C213.394 207.183 213.171 207.098 212.894 207.098C212.659 207.097 212.454 207.161 212.279 207.288C212.106 207.413 211.97 207.596 211.873 207.838C211.775 208.079 211.726 208.371 211.725 208.715C211.724 209.063 211.771 209.359 211.865 209.603C211.962 209.847 212.098 210.033 212.272 210.161C212.447 210.289 212.652 210.354 212.886 210.354C213.059 210.355 213.214 210.319 213.352 210.249C213.492 210.178 213.607 210.075 213.697 209.94C213.79 209.803 213.85 209.639 213.879 209.447L215.307 209.45C215.282 209.867 215.168 210.234 214.963 210.551C214.761 210.865 214.483 211.111 214.127 211.287C213.772 211.464 213.351 211.552 212.866 211.551ZM219.774 209.137L219.781 206.005L221.294 206.008L221.282 211.463L219.829 211.46L219.831 210.469L219.774 210.469C219.651 210.788 219.445 211.045 219.158 211.238C218.874 211.432 218.527 211.528 218.117 211.527C217.753 211.526 217.432 211.443 217.156 211.276C216.879 211.11 216.663 210.874 216.507 210.568C216.354 210.262 216.277 209.896 216.275 209.47L216.283 205.997L217.796 206.001L217.789 209.204C217.79 209.526 217.876 209.78 218.046 209.968C218.216 210.155 218.444 210.249 218.731 210.25C218.913 210.25 219.084 210.209 219.243 210.127C219.401 210.042 219.529 209.917 219.627 209.751C219.727 209.586 219.776 209.381 219.774 209.137ZM222.492 211.466L222.504 206.011L223.97 206.014L223.968 206.966L224.025 206.966C224.125 206.628 224.293 206.373 224.527 206.2C224.762 206.026 225.032 205.939 225.338 205.939C225.413 205.939 225.495 205.944 225.583 205.954C225.67 205.964 225.747 205.977 225.813 205.994L225.81 207.336C225.739 207.314 225.641 207.295 225.516 207.278C225.39 207.262 225.276 207.253 225.171 207.253C224.949 207.252 224.75 207.3 224.574 207.397C224.401 207.491 224.264 207.624 224.162 207.794C224.062 207.964 224.012 208.161 224.011 208.383L224.004 211.469L222.492 211.466ZM226.583 211.475L226.595 206.02L228.108 206.024L228.096 211.478L226.583 211.475ZM227.357 205.319C227.132 205.318 226.939 205.243 226.779 205.094C226.62 204.942 226.541 204.761 226.542 204.55C226.542 204.342 226.622 204.163 226.781 204.014C226.942 203.863 227.135 203.788 227.36 203.788C227.585 203.789 227.777 203.865 227.935 204.017C228.096 204.166 228.176 204.345 228.175 204.553C228.175 204.764 228.094 204.945 227.933 205.096C227.774 205.245 227.582 205.319 227.357 205.319ZM232.221 206.033L232.219 207.169L228.934 207.162L228.937 206.025L232.221 206.033ZM229.685 204.72L231.198 204.724L231.187 209.809C231.186 209.948 231.207 210.057 231.25 210.136C231.292 210.211 231.351 210.265 231.427 210.296C231.505 210.327 231.595 210.342 231.697 210.343C231.768 210.343 231.839 210.337 231.91 210.325C231.981 210.311 232.035 210.301 232.073 210.294L232.309 211.42C232.233 211.443 232.126 211.47 231.989 211.501C231.852 211.534 231.685 211.553 231.488 211.56C231.124 211.574 230.804 211.524 230.53 211.412C230.258 211.301 230.046 211.127 229.895 210.893C229.744 210.658 229.67 210.362 229.673 210.004L229.685 204.72ZM234.124 213.537C233.932 213.536 233.752 213.521 233.584 213.489C233.419 213.461 233.282 213.424 233.173 213.379L233.516 212.25C233.694 212.305 233.853 212.335 233.995 212.34C234.14 212.345 234.264 212.312 234.368 212.241C234.475 212.17 234.562 212.05 234.628 211.88L234.718 211.649L232.774 206.034L234.364 206.037L235.485 210.046L235.542 210.046L236.69 206.043L238.292 206.046L236.159 212.085C236.056 212.379 235.917 212.634 235.741 212.852C235.568 213.071 235.349 213.24 235.083 213.358C234.818 213.478 234.498 213.538 234.124 213.537Z" fill="#CCC3C3"/>
</g>
<g filter="url(#filter2_d_1312_284)">
<rect x="12.5986" y="119.29" width="110.055" height="26.0463" rx="13.0231" transform="rotate(25.3353 12.5986 119.29)" fill="url(#paint4_linear_1312_284)"/>
<path d="M31.9446 141.562L30.5407 140.892C30.6017 140.699 30.6263 140.512 30.6145 140.333C30.6037 140.153 30.5603 139.982 30.4843 139.823C30.4083 139.663 30.3018 139.518 30.1649 139.387C30.0301 139.257 29.8687 139.148 29.6806 139.058C29.3409 138.896 29.0047 138.839 28.672 138.888C28.3404 138.934 28.0287 139.084 27.7369 139.339C27.4461 139.591 27.1922 139.944 26.9751 140.4C26.7519 140.867 26.6338 141.294 26.6209 141.678C26.61 142.064 26.692 142.398 26.8666 142.681C27.0413 142.964 27.2943 143.184 27.6255 143.342C27.8114 143.431 27.9951 143.488 28.1767 143.514C28.3604 143.542 28.5366 143.538 28.7054 143.503C28.8752 143.466 29.0333 143.398 29.1797 143.3C29.3283 143.203 29.4604 143.075 29.576 142.915L30.9768 143.591C30.7968 143.875 30.5674 144.122 30.2886 144.333C30.0129 144.542 29.7008 144.699 29.3522 144.803C29.0068 144.906 28.6358 144.941 28.2391 144.909C27.8457 144.876 27.4385 144.76 27.0175 144.559C26.432 144.279 25.9717 143.897 25.6365 143.412C25.3035 142.928 25.1232 142.371 25.0956 141.742C25.0702 141.113 25.2276 140.442 25.5681 139.728C25.9095 139.013 26.3346 138.468 26.8433 138.094C27.3521 137.72 27.8999 137.512 28.4868 137.469C29.0748 137.425 29.6572 137.54 30.2341 137.815C30.6145 137.996 30.9416 138.218 31.2154 138.48C31.4914 138.743 31.7065 139.037 31.8608 139.362C32.0161 139.685 32.1025 140.032 32.12 140.402C32.1396 140.774 32.0811 141.16 31.9446 141.562ZM30.9034 148.568C30.7303 148.486 30.5745 148.394 30.4361 148.294C30.2987 148.197 30.1906 148.105 30.1117 148.018L30.9055 147.145C31.0423 147.271 31.1738 147.366 31.3 147.432C31.4283 147.498 31.5548 147.522 31.6794 147.502C31.8061 147.484 31.9361 147.412 32.0693 147.287L32.2488 147.117L32.8982 141.21L34.3342 141.895L33.6289 145.997L33.6802 146.021L36.4336 142.897L37.8791 143.586L33.3636 148.129C33.1453 148.35 32.9102 148.521 32.6583 148.642C32.4076 148.766 32.137 148.825 31.8468 148.818C31.5555 148.812 31.241 148.729 30.9034 148.568ZM36.2552 148.855L39.3862 142.291L40.7517 142.942L39.5745 145.41L39.6161 145.43C39.7392 145.326 39.8899 145.232 40.0684 145.15C40.25 145.066 40.4546 145.022 40.6822 145.018C40.913 145.012 41.1662 145.075 41.4418 145.207C41.8008 145.378 42.0872 145.63 42.3009 145.963C42.5157 146.293 42.6242 146.69 42.6264 147.153C42.6297 147.613 42.4968 148.126 42.2277 148.69C41.9658 149.239 41.6559 149.66 41.2982 149.954C40.9436 150.246 40.5682 150.418 40.172 150.467C39.779 150.516 39.3955 150.451 39.0216 150.273C38.7566 150.146 38.5521 149.995 38.408 149.819C38.266 149.643 38.1678 149.461 38.1135 149.273C38.0602 149.082 38.0351 148.904 38.0384 148.737L37.9775 148.708L37.6014 149.497L36.2552 148.855ZM38.7659 147.031C38.6263 147.323 38.5451 147.598 38.5223 147.855C38.4996 148.112 38.5361 148.337 38.6318 148.533C38.7286 148.726 38.887 148.875 39.1071 148.98C39.3294 149.086 39.5464 149.114 39.7584 149.066C39.9714 149.015 40.1693 148.9 40.3524 148.72C40.5385 148.538 40.6999 148.305 40.8365 148.018C40.972 147.734 41.0518 147.465 41.0756 147.212C41.0995 146.958 41.0636 146.734 40.9678 146.539C40.8721 146.343 40.712 146.192 40.4876 146.085C40.2654 145.979 40.0494 145.948 39.8394 145.993C39.6317 146.038 39.4357 146.149 39.2516 146.326C39.0674 146.503 38.9056 146.738 38.7659 147.031ZM44.1655 152.746C43.6591 152.504 43.2721 152.194 43.0045 151.814C42.7401 151.434 42.5998 151.008 42.5837 150.536C42.5685 150.061 42.6847 149.565 42.9324 149.046C43.174 148.539 43.4842 148.142 43.8633 147.853C44.2423 147.564 44.6612 147.398 45.12 147.355C45.5809 147.312 46.0528 147.406 46.5357 147.636C46.8605 147.791 47.1379 147.988 47.3678 148.226C47.601 148.463 47.7728 148.735 47.8834 149.042C47.996 149.351 48.0362 149.69 48.0039 150.06C47.9727 150.428 47.8571 150.821 47.6574 151.24L47.4785 151.615L43.3214 149.632L43.725 148.786L46.5968 150.156C46.6906 149.959 46.7309 149.765 46.7178 149.572C46.7047 149.38 46.6427 149.205 46.5317 149.047C46.4239 148.888 46.2707 148.761 46.072 148.666C45.8647 148.567 45.658 148.528 45.4519 148.548C45.2489 148.566 45.0643 148.634 44.8981 148.752C44.733 148.867 44.6029 149.021 44.5081 149.215L44.1243 150.019C44.0081 150.263 43.9526 150.495 43.9578 150.715C43.9651 150.936 44.0291 151.135 44.1499 151.31C44.2707 151.486 44.4454 151.628 44.6741 151.737C44.8258 151.81 44.9749 151.855 45.1213 151.872C45.2678 151.889 45.4063 151.877 45.5368 151.834C45.6673 151.791 45.7856 151.719 45.8917 151.618L47.1148 152.303C46.906 152.576 46.6482 152.779 46.3415 152.91C46.0379 153.041 45.7 153.095 45.3279 153.072C44.9589 153.048 44.5715 152.939 44.1655 152.746ZM47.3621 154.152L49.7103 149.229L51.0341 149.861L50.6243 150.72L50.6756 150.744C50.9111 150.481 51.1718 150.322 51.4578 150.267C51.7447 150.21 52.026 150.247 52.3017 150.379C52.3701 150.411 52.4418 150.451 52.5167 150.497C52.5917 150.543 52.6556 150.588 52.7083 150.632L52.1304 151.843C52.0754 151.793 51.9949 151.734 51.8888 151.665C51.7827 151.596 51.6826 151.539 51.5886 151.494C51.3877 151.399 51.1874 151.357 50.9874 151.369C50.7907 151.38 50.6097 151.441 50.4444 151.551C50.2813 151.662 50.1518 151.818 50.056 152.018L48.7275 154.804L47.3621 154.152ZM56.8301 154.349L55.5434 153.829C55.573 153.712 55.5729 153.594 55.5432 153.475C55.5145 153.354 55.4546 153.24 55.3637 153.134C55.2759 153.026 55.153 152.935 54.9949 152.859C54.7833 152.758 54.5835 152.718 54.3954 152.739C54.2083 152.757 54.0796 152.84 54.0093 152.987C53.9532 153.105 53.9528 153.227 54.0081 153.353C54.0634 153.479 54.1936 153.621 54.3988 153.779L55.2043 154.384C55.636 154.71 55.9175 155.038 56.0485 155.369C56.1796 155.699 56.1606 156.041 55.9914 156.396C55.8375 156.718 55.6074 156.956 55.301 157.109C54.9968 157.263 54.6475 157.33 54.2532 157.31C53.8621 157.288 53.4528 157.176 53.0255 156.972C52.3737 156.661 51.9192 156.278 51.6619 155.822C51.4077 155.365 51.3596 154.885 51.5176 154.384L52.8942 154.954C52.84 155.172 52.866 155.371 52.972 155.55C53.0791 155.727 53.2544 155.873 53.498 155.989C53.7373 156.104 53.9516 156.149 54.1407 156.127C54.333 156.103 54.4653 156.018 54.5378 155.872C54.5948 155.747 54.5908 155.62 54.526 155.492C54.4622 155.362 54.3336 155.225 54.1403 155.08L53.3687 154.503C52.9338 154.178 52.6554 153.841 52.5335 153.491C52.4137 153.143 52.4415 152.785 52.6168 152.418C52.7676 152.101 52.983 151.87 53.263 151.723C53.5452 151.576 53.8718 151.516 54.2429 151.541C54.6161 151.567 55.0132 151.68 55.4341 151.881C56.0559 152.177 56.4826 152.542 56.7141 152.975C56.9477 153.409 56.9864 153.867 56.8301 154.349ZM58.3213 159.498C57.8148 159.256 57.4278 158.946 57.1603 158.566C56.8959 158.186 56.7556 157.76 56.7394 157.288C56.7243 156.813 56.8405 156.317 57.0882 155.798C57.3297 155.291 57.64 154.894 58.019 154.605C58.3981 154.316 58.817 154.15 59.2757 154.107C59.7366 154.064 60.2085 154.158 60.6915 154.388C61.0163 154.543 61.2936 154.74 61.5236 154.978C61.7568 155.215 61.9286 155.487 62.0391 155.794C62.1518 156.103 62.192 156.442 62.1597 156.812C62.1284 157.18 62.0129 157.573 61.8131 157.992L61.6343 158.367L57.4771 156.384L57.8807 155.538L60.7526 156.908C60.8464 156.711 60.8867 156.517 60.8736 156.324C60.8605 156.132 60.7984 155.957 60.6875 155.799C60.5797 155.64 60.4265 155.513 60.2277 155.418C60.0205 155.319 59.8138 155.28 59.6076 155.3C59.4047 155.318 59.2201 155.386 59.0539 155.504C58.8887 155.619 58.7587 155.773 58.6638 155.967L58.2801 156.771C58.1639 157.015 58.1084 157.247 58.1135 157.467C58.1208 157.688 58.1849 157.887 58.3057 158.062C58.4265 158.238 58.6012 158.38 58.8299 158.489C58.9816 158.562 59.1307 158.606 59.2771 158.624C59.4236 158.641 59.562 158.629 59.6926 158.586C59.8231 158.543 59.9414 158.471 60.0475 158.37L61.2706 159.055C61.0618 159.328 60.804 159.531 60.4972 159.662C60.1936 159.793 59.8558 159.847 59.4837 159.824C59.1147 159.8 58.7272 159.691 58.3213 159.498ZM63.6964 162.062C63.1921 161.821 62.8093 161.507 62.5479 161.12C62.2898 160.732 62.1547 160.301 62.1427 159.825C62.1328 159.351 62.2466 158.865 62.4841 158.367C62.7246 157.863 63.0328 157.467 63.4087 157.179C63.7877 156.891 64.2087 156.726 64.6718 156.684C65.1358 156.641 65.6168 156.738 66.1147 156.975C66.5442 157.18 66.883 157.437 67.1313 157.747C67.3795 158.057 67.5304 158.398 67.5839 158.77C67.6374 159.141 67.5831 159.522 67.4209 159.912L66.1324 159.297C66.2133 159.034 66.2114 158.79 66.1268 158.566C66.0453 158.341 65.8795 158.169 65.6295 158.05C65.418 157.949 65.2056 157.919 64.9925 157.959C64.7825 157.997 64.5817 158.105 64.3901 158.281C64.1985 158.457 64.0289 158.7 63.8811 159.01C63.7313 159.324 63.6466 159.612 63.6271 159.873C63.6097 160.134 63.6526 160.361 63.7557 160.552C63.8588 160.742 64.0161 160.888 64.2276 160.989C64.3836 161.063 64.5388 161.098 64.6934 161.093C64.85 161.089 64.998 161.046 65.1373 160.963C65.2797 160.878 65.405 160.756 65.5132 160.595L66.8017 161.21C66.601 161.576 66.3404 161.858 66.0201 162.057C65.7029 162.254 65.3458 162.357 64.9489 162.364C64.5519 162.371 64.1344 162.271 63.6964 162.062ZM70.9722 162.841L72.3206 160.014L73.686 160.665L71.3378 165.588L70.0268 164.963L70.4534 164.069L70.4021 164.044C70.1534 164.28 69.858 164.423 69.5158 164.475C69.1759 164.528 68.821 164.467 68.4514 164.29C68.1223 164.133 67.8684 163.92 67.6898 163.652C67.5111 163.383 67.417 163.077 67.4074 162.734C67.4 162.392 67.487 162.028 67.6683 161.643L69.1635 158.508L70.5289 159.159L69.1499 162.05C69.0134 162.342 68.9819 162.609 69.0552 162.851C69.1285 163.093 69.2945 163.276 69.553 163.399C69.7176 163.478 69.8892 163.514 70.0681 163.507C70.2479 163.499 70.4173 163.44 70.5763 163.333C70.7374 163.226 70.8694 163.062 70.9722 162.841ZM72.4299 166.109L74.7782 161.186L76.1019 161.817L75.6922 162.676L75.7435 162.701C75.979 162.438 76.2397 162.279 76.5257 162.224C76.8126 162.167 77.0939 162.204 77.3696 162.336C77.438 162.368 77.5096 162.408 77.5846 162.454C77.6596 162.5 77.7234 162.545 77.7761 162.589L77.1983 163.8C77.1433 163.75 77.0628 163.691 76.9567 163.622C76.8506 163.553 76.7505 163.496 76.6565 163.451C76.4556 163.355 76.2552 163.314 76.0553 163.326C75.8586 163.337 75.6776 163.397 75.5123 163.507C75.3492 163.618 75.2197 163.774 75.1239 163.975L73.7954 166.761L72.4299 166.109ZM76.1231 167.871L78.4714 162.948L79.8368 163.599L77.4886 168.522L76.1231 167.871ZM79.46 162.64C79.257 162.543 79.115 162.393 79.0339 162.189C78.9559 161.984 78.9623 161.786 79.053 161.596C79.1427 161.408 79.2913 161.281 79.4986 161.215C79.7092 161.147 79.9159 161.162 80.1189 161.259C80.3219 161.356 80.4624 161.507 80.5403 161.712C80.6214 161.915 80.6171 162.111 80.5274 162.3C80.4367 162.49 80.2861 162.618 80.0756 162.686C79.8682 162.752 79.663 162.737 79.46 162.64ZM83.5492 165.37L83.06 166.395L80.0952 164.981L80.5844 163.956L83.5492 165.37ZM81.8201 163.097L83.1855 163.748L80.9963 168.338C80.9361 168.464 80.9085 168.572 80.9133 168.661C80.9192 168.747 80.9496 168.821 81.0048 168.881C81.062 168.943 81.1366 168.995 81.2285 169.039C81.2926 169.07 81.3593 169.095 81.4285 169.115C81.4987 169.133 81.5524 169.146 81.5897 169.156L81.3198 170.275C81.2412 170.264 81.1333 170.242 80.9961 170.211C80.8579 170.182 80.6986 170.128 80.5182 170.05C80.183 169.906 79.9155 169.724 79.7155 169.506C79.5177 169.288 79.4008 169.041 79.365 168.764C79.3291 168.487 79.3892 168.188 79.5452 167.866L81.8201 163.097ZM82.0528 172.965C81.8797 172.883 81.7239 172.791 81.5855 172.691C81.4481 172.594 81.34 172.502 81.2611 172.415L82.0549 171.542C82.1917 171.668 82.3232 171.763 82.4494 171.829C82.5777 171.895 82.7042 171.919 82.8288 171.899C82.9555 171.881 83.0855 171.809 83.2187 171.684L83.3982 171.514L84.0476 165.607L85.4836 166.292L84.7783 170.394L84.8296 170.418L87.583 167.294L89.0285 167.983L84.513 172.526C84.2947 172.747 84.0596 172.918 83.8077 173.039C83.557 173.164 83.2864 173.222 82.9962 173.215C82.7049 173.21 82.3904 173.126 82.0528 172.965Z" fill="#CCC3C3"/>
</g>
<g filter="url(#filter3_d_1312_284)">
<rect x="54.7197" y="199.55" width="110.055" height="26.0463" rx="13.0231" transform="rotate(-17.0135 54.7197 199.55)" fill="url(#paint5_linear_1312_284)"/>
<path d="M84.02 202.978L82.5314 203.428C82.4459 203.244 82.3386 203.09 82.2094 202.966C82.0796 202.839 81.9329 202.743 81.7692 202.676C81.6055 202.609 81.429 202.574 81.2397 202.569C81.0526 202.564 80.8594 202.592 80.66 202.652C80.2997 202.761 80.013 202.946 79.7998 203.206C79.586 203.463 79.4569 203.784 79.4125 204.169C79.3675 204.551 79.4181 204.983 79.5642 205.466C79.7145 205.962 79.9144 206.357 80.1639 206.65C80.4157 206.942 80.7014 207.134 81.0209 207.225C81.3404 207.316 81.6757 207.309 82.0269 207.203C82.2241 207.143 82.3986 207.062 82.5505 206.959C82.7046 206.855 82.8323 206.734 82.9335 206.594C83.0341 206.452 83.1054 206.296 83.1476 206.125C83.1921 205.953 83.2031 205.769 83.1809 205.573L84.6716 205.129C84.7298 205.46 84.7268 205.797 84.6626 206.141C84.6 206.481 84.4749 206.807 84.2873 207.119C84.1012 207.428 83.8509 207.704 83.5364 207.948C83.2234 208.188 82.8437 208.376 82.3974 208.511C81.7765 208.699 81.1789 208.727 80.6044 208.594C80.0321 208.461 79.5238 208.171 79.0793 207.724C78.6371 207.277 78.3014 206.675 78.0722 205.918C77.8423 205.159 77.7895 204.47 77.9138 203.851C78.038 203.232 78.3026 202.709 78.7076 202.282C79.1119 201.853 79.62 201.546 80.2318 201.361C80.6351 201.238 81.0261 201.182 81.4048 201.191C81.7858 201.199 82.1429 201.272 82.4761 201.408C82.8087 201.542 83.1061 201.74 83.3685 202.002C83.6331 202.264 83.8503 202.589 84.02 202.978ZM87.9702 208.857C87.7867 208.913 87.6101 208.95 87.4403 208.969C87.2734 208.99 87.1314 208.995 87.0141 208.983L87.0131 207.804C87.1988 207.804 87.3603 207.786 87.4976 207.75C87.6372 207.712 87.7466 207.645 87.8257 207.547C87.907 207.448 87.9548 207.307 87.9688 207.125L87.9869 206.878L84.4879 202.075L86.0105 201.614L88.2523 205.121L88.3067 205.104L88.2367 200.94L89.7695 200.476L89.4923 206.875C89.48 207.185 89.4215 207.47 89.317 207.729C89.2154 207.99 89.0549 208.216 88.8354 208.406C88.6166 208.598 88.3282 208.749 87.9702 208.857ZM92.1186 205.464L90.0106 198.503L91.4584 198.065L92.251 200.682L92.2952 200.668C92.3161 200.508 92.3646 200.338 92.4408 200.157C92.5185 199.972 92.6401 199.802 92.8054 199.645C92.9724 199.486 93.202 199.362 93.4943 199.273C93.8749 199.158 94.2563 199.152 94.6384 199.254C95.0199 199.353 95.3673 199.573 95.6806 199.914C95.9933 200.252 96.2402 200.72 96.4214 201.318C96.5977 201.901 96.6526 202.421 96.586 202.879C96.521 203.334 96.3588 203.713 96.0995 204.017C95.8418 204.317 95.5147 204.528 95.1182 204.648C94.8372 204.733 94.5841 204.759 94.3588 204.726C94.1358 204.692 93.9408 204.623 93.7736 204.521C93.6057 204.416 93.467 204.301 93.3574 204.176L93.2928 204.195L93.546 205.031L92.1186 205.464ZM92.7453 202.424C92.8393 202.735 92.9644 202.992 93.1205 203.197C93.2766 203.402 93.4557 203.545 93.658 203.624C93.8596 203.702 94.077 203.705 94.3104 203.635C94.546 203.563 94.7259 203.438 94.8499 203.26C94.9732 203.079 95.0418 202.86 95.0557 202.604C95.0711 202.344 95.0328 202.063 94.9409 201.759C94.8496 201.458 94.7274 201.205 94.5743 201.002C94.4211 200.799 94.2435 200.657 94.0412 200.577C93.839 200.497 93.6189 200.494 93.381 200.566C93.1453 200.637 92.9648 200.76 92.8394 200.934C92.7163 201.107 92.6463 201.321 92.6295 201.576C92.6127 201.831 92.6513 202.114 92.7453 202.424ZM100.586 203.011C100.049 203.173 99.5537 203.204 99.1004 203.104C98.6486 203.001 98.2578 202.781 97.9279 202.443C97.5973 202.102 97.3486 201.657 97.1819 201.106C97.0193 200.569 96.9808 200.067 97.0664 199.598C97.152 199.129 97.3497 198.724 97.6595 198.383C97.9715 198.041 98.3836 197.793 98.8956 197.638C99.24 197.533 99.5775 197.492 99.9079 197.513C100.24 197.531 100.55 197.616 100.839 197.769C101.13 197.921 101.388 198.144 101.613 198.44C101.838 198.733 102.018 199.101 102.152 199.546L102.273 199.943L97.8647 201.278L97.5929 200.381L100.638 199.459C100.575 199.25 100.474 199.079 100.334 198.946C100.195 198.812 100.031 198.725 99.8429 198.683C99.6562 198.638 99.4575 198.647 99.2467 198.711C99.027 198.778 98.8475 198.888 98.7085 199.041C98.571 199.192 98.4804 199.366 98.4367 199.565C98.3923 199.762 98.4002 199.963 98.4604 200.17L98.7188 201.023C98.797 201.282 98.9122 201.49 99.0643 201.65C99.2187 201.808 99.3997 201.912 99.6073 201.96C99.8149 202.008 100.04 201.996 100.282 201.923C100.443 201.874 100.584 201.807 100.704 201.721C100.824 201.635 100.917 201.532 100.985 201.413C101.053 201.293 101.092 201.16 101.102 201.014L102.468 200.697C102.497 201.039 102.443 201.362 102.305 201.666C102.168 201.967 101.955 202.235 101.665 202.469C101.376 202.7 101.016 202.88 100.586 203.011ZM103.896 201.897L102.315 196.676L103.719 196.251L103.994 197.162L104.049 197.146C104.046 196.793 104.131 196.5 104.306 196.266C104.479 196.031 104.712 195.869 105.004 195.78C105.077 195.758 105.156 195.739 105.243 195.723C105.33 195.707 105.407 195.697 105.475 195.693L105.864 196.978C105.79 196.978 105.691 196.989 105.566 197.009C105.441 197.03 105.329 197.055 105.229 197.085C105.016 197.15 104.84 197.254 104.7 197.397C104.562 197.538 104.469 197.705 104.421 197.897C104.375 198.089 104.385 198.292 104.449 198.505L105.344 201.458L103.896 201.897ZM111.025 195.664L109.725 196.147C109.668 196.04 109.588 195.953 109.486 195.885C109.383 195.815 109.262 195.771 109.123 195.754C108.986 195.733 108.834 195.749 108.666 195.799C108.442 195.867 108.267 195.972 108.142 196.114C108.016 196.254 107.976 196.402 108.024 196.558C108.061 196.682 108.143 196.773 108.269 196.829C108.395 196.885 108.587 196.902 108.845 196.881L109.847 196.785C110.387 196.735 110.816 196.788 111.135 196.944C111.454 197.1 111.671 197.365 111.785 197.742C111.888 198.084 111.878 198.414 111.755 198.734C111.634 199.053 111.421 199.337 111.116 199.588C110.812 199.836 110.434 200.028 109.981 200.165C109.29 200.375 108.695 200.398 108.198 200.234C107.703 200.067 107.344 199.746 107.123 199.268L108.524 198.762C108.631 198.96 108.784 199.089 108.983 199.15C109.181 199.209 109.41 199.199 109.668 199.121C109.922 199.044 110.111 198.934 110.236 198.79C110.362 198.642 110.402 198.49 110.357 198.333C110.315 198.203 110.227 198.112 110.093 198.061C109.958 198.008 109.771 197.993 109.53 198.016L108.572 198.11C108.031 198.162 107.598 198.1 107.272 197.924C106.949 197.748 106.729 197.465 106.611 197.075C106.509 196.739 106.512 196.423 106.62 196.126C106.73 195.828 106.931 195.563 107.222 195.331C107.515 195.099 107.885 194.915 108.331 194.78C108.991 194.58 109.552 194.563 110.014 194.727C110.48 194.89 110.817 195.202 111.025 195.664ZM115.596 198.465C115.059 198.627 114.564 198.659 114.111 198.558C113.659 198.455 113.268 198.235 112.938 197.897C112.608 197.557 112.359 197.111 112.192 196.561C112.03 196.024 111.991 195.521 112.077 195.052C112.162 194.583 112.36 194.178 112.67 193.837C112.982 193.495 113.394 193.247 113.906 193.092C114.25 192.988 114.588 192.946 114.918 192.967C115.25 192.985 115.561 193.071 115.849 193.223C116.14 193.375 116.398 193.599 116.624 193.894C116.849 194.187 117.028 194.556 117.163 195L117.283 195.397L112.875 196.732L112.603 195.835L115.649 194.913C115.585 194.704 115.484 194.533 115.345 194.4C115.205 194.267 115.042 194.179 114.853 194.137C114.667 194.092 114.468 194.102 114.257 194.165C114.037 194.232 113.858 194.342 113.719 194.495C113.581 194.646 113.491 194.821 113.447 195.019C113.403 195.216 113.411 195.417 113.471 195.624L113.729 196.477C113.807 196.736 113.923 196.944 114.075 197.104C114.229 197.262 114.41 197.366 114.618 197.414C114.825 197.463 115.05 197.45 115.293 197.377C115.454 197.328 115.594 197.261 115.714 197.175C115.834 197.089 115.928 196.987 115.995 196.867C116.063 196.748 116.102 196.615 116.112 196.468L117.478 196.151C117.507 196.493 117.453 196.816 117.315 197.12C117.179 197.421 116.965 197.689 116.675 197.923C116.386 198.154 116.027 198.334 115.596 198.465ZM121.296 196.739C120.761 196.901 120.267 196.927 119.813 196.817C119.361 196.704 118.97 196.476 118.641 196.133C118.314 195.789 118.071 195.353 117.911 194.825C117.749 194.29 117.71 193.79 117.794 193.324C117.88 192.856 118.08 192.45 118.394 192.107C118.708 191.763 119.129 191.51 119.657 191.35C120.112 191.212 120.536 191.174 120.928 191.236C121.32 191.298 121.661 191.448 121.951 191.687C122.241 191.926 122.458 192.243 122.6 192.641L121.234 193.054C121.116 192.805 120.951 192.627 120.738 192.518C120.526 192.407 120.287 192.391 120.022 192.471C119.798 192.539 119.62 192.66 119.49 192.833C119.361 193.003 119.285 193.218 119.262 193.477C119.239 193.736 119.277 194.03 119.377 194.359C119.478 194.692 119.609 194.961 119.77 195.167C119.934 195.373 120.118 195.511 120.322 195.583C120.527 195.654 120.742 195.656 120.966 195.588C121.131 195.538 121.269 195.459 121.38 195.351C121.493 195.243 121.573 195.111 121.62 194.956C121.669 194.798 121.679 194.623 121.651 194.431L123.017 194.017C123.115 194.423 123.113 194.807 123.01 195.17C122.908 195.529 122.714 195.845 122.425 196.118C122.137 196.391 121.76 196.598 121.296 196.739ZM127.198 192.413L126.29 189.416L127.738 188.977L129.319 194.198L127.929 194.618L127.642 193.67L127.587 193.687C127.562 194.028 127.441 194.333 127.223 194.602C127.007 194.87 126.703 195.064 126.311 195.183C125.962 195.288 125.631 195.302 125.318 195.224C125.005 195.145 124.73 194.983 124.491 194.736C124.256 194.488 124.075 194.161 123.949 193.753L122.942 190.429L124.39 189.991L125.319 193.057C125.414 193.364 125.571 193.583 125.788 193.712C126.005 193.842 126.251 193.865 126.525 193.782C126.7 193.729 126.851 193.64 126.979 193.515C127.106 193.387 127.192 193.23 127.237 193.043C127.284 192.856 127.271 192.646 127.198 192.413ZM130.477 193.847L128.896 188.626L130.3 188.201L130.576 189.112L130.63 189.096C130.627 188.743 130.713 188.45 130.887 188.216C131.06 187.981 131.293 187.819 131.586 187.73C131.658 187.708 131.738 187.689 131.824 187.673C131.911 187.656 131.988 187.647 132.057 187.643L132.446 188.928C132.371 188.928 132.272 188.939 132.147 188.959C132.022 188.98 131.91 189.005 131.81 189.035C131.597 189.1 131.421 189.204 131.281 189.347C131.143 189.488 131.05 189.655 131.002 189.847C130.957 190.039 130.966 190.242 131.031 190.455L131.925 193.408L130.477 193.847ZM134.393 192.661L132.812 187.44L134.26 187.002L135.841 192.222L134.393 192.661ZM133.336 186.547C133.121 186.612 132.914 186.597 132.717 186.501C132.521 186.402 132.393 186.251 132.332 186.05C132.271 185.85 132.296 185.656 132.404 185.468C132.514 185.276 132.677 185.148 132.892 185.082C133.107 185.017 133.313 185.034 133.509 185.133C133.706 185.229 133.835 185.377 133.895 185.576C133.956 185.778 133.932 185.975 133.822 186.166C133.713 186.355 133.551 186.482 133.336 186.547ZM138.197 185.81L138.526 186.897L135.382 187.849L135.053 186.762L138.197 185.81ZM135.388 185.295L136.836 184.856L138.31 189.723C138.35 189.857 138.402 189.955 138.465 190.018C138.528 190.078 138.6 190.112 138.682 190.119C138.765 190.126 138.856 190.115 138.953 190.085C139.021 190.064 139.088 190.038 139.152 190.006C139.216 189.972 139.265 189.946 139.299 189.928L139.853 190.937C139.788 190.981 139.694 191.038 139.571 191.108C139.449 191.179 139.295 191.247 139.109 191.31C138.765 191.43 138.445 191.476 138.149 191.449C137.857 191.421 137.604 191.317 137.391 191.137C137.178 190.957 137.021 190.695 136.919 190.352L135.388 185.295ZM142.208 192.431C142.024 192.487 141.847 192.524 141.678 192.544C141.511 192.565 141.369 192.569 141.251 192.558L141.25 191.378C141.436 191.379 141.598 191.361 141.735 191.324C141.874 191.287 141.984 191.219 142.063 191.121C142.144 191.022 142.192 190.882 142.206 190.699L142.224 190.453L138.725 185.65L140.248 185.189L142.49 188.695L142.544 188.679L142.474 184.514L144.007 184.05L143.73 190.449C143.717 190.76 143.659 191.045 143.554 191.304C143.453 191.565 143.292 191.79 143.073 191.98C142.854 192.173 142.566 192.323 142.208 192.431Z" fill="#CCC3C3"/>
</g>
<g filter="url(#filter4_d_1312_284)">
<rect x="146.906" y="140.477" width="110.055" height="26.0463" rx="13.0231" transform="rotate(17.1123 146.906 140.477)" fill="url(#paint6_linear_1312_284)"/>
<path d="M169.239 159.752L167.754 159.29C167.786 159.09 167.784 158.902 167.747 158.726C167.71 158.549 167.643 158.387 167.545 158.24C167.447 158.093 167.321 157.964 167.167 157.854C167.015 157.745 166.839 157.659 166.64 157.597C166.281 157.486 165.94 157.478 165.618 157.573C165.296 157.667 165.009 157.86 164.757 158.153C164.505 158.444 164.304 158.831 164.154 159.312C164 159.807 163.944 160.246 163.987 160.629C164.031 161.012 164.16 161.331 164.373 161.586C164.587 161.841 164.868 162.022 165.219 162.131C165.416 162.193 165.606 162.223 165.789 162.223C165.975 162.224 166.149 162.195 166.311 162.136C166.473 162.075 166.62 161.986 166.751 161.868C166.884 161.751 166.997 161.605 167.088 161.43L168.571 161.898C168.434 162.205 168.242 162.483 167.996 162.731C167.753 162.978 167.467 163.178 167.137 163.33C166.81 163.481 166.448 163.57 166.05 163.595C165.656 163.619 165.237 163.561 164.791 163.423C164.172 163.23 163.662 162.918 163.26 162.485C162.862 162.054 162.603 161.529 162.486 160.91C162.371 160.291 162.431 159.604 162.666 158.849C162.901 158.092 163.244 157.492 163.694 157.049C164.144 156.607 164.657 156.322 165.231 156.196C165.807 156.068 166.4 156.098 167.01 156.288C167.413 156.413 167.768 156.586 168.076 156.806C168.387 157.026 168.642 157.287 168.841 157.587C169.041 157.884 169.176 158.215 169.247 158.579C169.319 158.944 169.317 159.335 169.239 159.752ZM169.211 166.835C169.027 166.778 168.86 166.71 168.709 166.631C168.559 166.554 168.439 166.479 168.348 166.403L169.009 165.426C169.163 165.531 169.306 165.607 169.441 165.653C169.577 165.701 169.706 165.706 169.826 165.669C169.949 165.633 170.067 165.543 170.181 165.4L170.335 165.206L170.133 159.268L171.652 159.74L171.54 163.9L171.595 163.917L173.873 160.431L175.402 160.907L171.583 166.048C171.398 166.298 171.19 166.501 170.958 166.657C170.728 166.816 170.468 166.913 170.18 166.947C169.891 166.984 169.568 166.946 169.211 166.835ZM174.548 166.353L176.708 159.409L178.153 159.858L177.341 162.469L177.385 162.483C177.492 162.362 177.628 162.248 177.792 162.141C177.96 162.032 178.156 161.959 178.381 161.922C178.609 161.884 178.868 161.91 179.16 162.001C179.54 162.119 179.859 162.328 180.118 162.626C180.378 162.923 180.542 163.3 180.611 163.758C180.68 164.213 180.621 164.739 180.436 165.336C180.255 165.917 180.009 166.378 179.697 166.72C179.388 167.06 179.04 167.283 178.656 167.389C178.273 167.493 177.885 167.484 177.489 167.361C177.209 167.274 176.985 167.153 176.817 166.999C176.651 166.846 176.528 166.68 176.447 166.501C176.367 166.32 176.317 166.147 176.296 165.982L176.232 165.962L175.973 166.796L174.548 166.353ZM176.772 164.189C176.676 164.499 176.635 164.782 176.649 165.039C176.663 165.297 176.732 165.515 176.854 165.695C176.978 165.872 177.156 165.997 177.389 166.069C177.624 166.142 177.843 166.14 178.046 166.061C178.249 165.981 178.429 165.838 178.584 165.634C178.742 165.428 178.869 165.173 178.963 164.87C179.056 164.57 179.097 164.292 179.084 164.038C179.072 163.783 179.004 163.566 178.881 163.387C178.759 163.208 178.579 163.081 178.341 163.007C178.106 162.934 177.888 162.934 177.686 163.008C177.487 163.082 177.309 163.22 177.152 163.422C176.995 163.624 176.869 163.879 176.772 164.189ZM182.934 169.073C182.398 168.906 181.971 168.654 181.652 168.317C181.335 167.978 181.136 167.577 181.052 167.112C180.969 166.645 181.013 166.136 181.184 165.587C181.351 165.051 181.601 164.614 181.935 164.274C182.269 163.934 182.66 163.709 183.107 163.601C183.557 163.493 184.038 163.518 184.549 163.677C184.892 163.784 185.195 163.939 185.457 164.142C185.721 164.343 185.93 164.588 186.084 164.876C186.239 165.165 186.328 165.495 186.349 165.866C186.37 166.234 186.312 166.64 186.174 167.083L186.051 167.48L181.653 166.112L181.932 165.217L184.97 166.162C185.034 165.954 185.047 165.756 185.006 165.567C184.966 165.379 184.879 165.214 184.747 165.074C184.617 164.932 184.447 164.828 184.237 164.763C184.018 164.695 183.808 164.685 183.607 164.734C183.408 164.781 183.235 164.875 183.088 165.015C182.941 165.153 182.834 165.324 182.768 165.529L182.503 166.38C182.423 166.638 182.401 166.876 182.438 167.093C182.477 167.311 182.568 167.498 182.713 167.654C182.858 167.811 183.051 167.927 183.293 168.002C183.453 168.052 183.607 168.075 183.755 168.071C183.902 168.068 184.038 168.035 184.161 167.974C184.284 167.914 184.39 167.825 184.481 167.71L185.79 168.213C185.622 168.513 185.396 168.75 185.111 168.925C184.829 169.097 184.502 169.199 184.131 169.23C183.762 169.259 183.363 169.207 182.934 169.073ZM186.299 170.008L187.919 164.8L189.319 165.235L189.036 166.144L189.091 166.161C189.286 165.867 189.522 165.672 189.797 165.577C190.072 165.479 190.356 165.476 190.648 165.567C190.72 165.589 190.797 165.618 190.878 165.653C190.958 165.688 191.028 165.723 191.086 165.759L190.688 167.041C190.626 166.999 190.538 166.952 190.423 166.899C190.308 166.846 190.201 166.804 190.102 166.773C189.889 166.707 189.685 166.694 189.489 166.735C189.296 166.774 189.125 166.859 188.977 166.992C188.832 167.125 188.726 167.298 188.66 167.511L187.743 170.457L186.299 170.008ZM195.697 168.848L194.35 168.518C194.362 168.398 194.345 168.281 194.299 168.167C194.253 168.052 194.178 167.947 194.072 167.855C193.97 167.761 193.835 167.689 193.668 167.637C193.444 167.567 193.241 167.556 193.058 167.603C192.875 167.648 192.759 167.748 192.711 167.904C192.672 168.028 192.689 168.149 192.762 168.266C192.835 168.383 192.984 168.505 193.21 168.632L194.093 169.115C194.567 169.377 194.893 169.661 195.07 169.969C195.247 170.277 195.277 170.619 195.16 170.994C195.054 171.335 194.86 171.604 194.579 171.799C194.3 171.995 193.964 172.111 193.571 172.147C193.18 172.182 192.759 172.129 192.307 171.988C191.618 171.774 191.113 171.459 190.793 171.045C190.476 170.629 190.36 170.162 190.445 169.643L191.889 170.01C191.866 170.233 191.92 170.426 192.051 170.588C192.182 170.748 192.377 170.868 192.634 170.948C192.887 171.027 193.106 171.042 193.29 170.992C193.477 170.941 193.596 170.838 193.647 170.683C193.685 170.551 193.663 170.427 193.581 170.309C193.499 170.19 193.352 170.072 193.14 169.957L192.294 169.496C191.817 169.236 191.493 168.942 191.322 168.614C191.154 168.286 191.13 167.928 191.251 167.539C191.355 167.205 191.535 166.945 191.791 166.759C192.05 166.574 192.364 166.467 192.735 166.439C193.108 166.411 193.518 166.467 193.963 166.605C194.621 166.81 195.095 167.11 195.386 167.505C195.679 167.901 195.783 168.349 195.697 168.848ZM197.91 173.731C197.374 173.564 196.947 173.312 196.628 172.975C196.311 172.636 196.112 172.234 196.028 171.77C195.945 171.303 195.989 170.794 196.16 170.245C196.327 169.709 196.577 169.271 196.911 168.931C197.245 168.592 197.636 168.367 198.083 168.259C198.533 168.151 199.014 168.176 199.525 168.335C199.868 168.442 200.171 168.597 200.433 168.8C200.697 169.001 200.906 169.246 201.06 169.534C201.215 169.823 201.304 170.153 201.325 170.524C201.346 170.892 201.288 171.298 201.15 171.741L201.027 172.138L196.629 170.77L196.907 169.875L199.946 170.82C200.01 170.612 200.022 170.414 199.982 170.225C199.941 170.036 199.855 169.872 199.723 169.732C199.593 169.59 199.423 169.486 199.213 169.421C198.994 169.353 198.784 169.343 198.582 169.392C198.384 169.439 198.211 169.533 198.064 169.673C197.917 169.811 197.81 169.982 197.744 170.187L197.479 171.038C197.399 171.296 197.377 171.533 197.414 171.751C197.453 171.969 197.544 172.156 197.689 172.312C197.834 172.469 198.027 172.585 198.269 172.66C198.429 172.71 198.583 172.733 198.731 172.729C198.878 172.726 199.013 172.693 199.137 172.632C199.26 172.571 199.366 172.483 199.457 172.368L200.766 172.871C200.598 173.171 200.372 173.408 200.087 173.582C199.805 173.755 199.478 173.857 199.107 173.888C198.738 173.917 198.339 173.865 197.91 173.731ZM203.596 175.5C203.063 175.334 202.639 175.078 202.325 174.732C202.014 174.385 201.819 173.977 201.739 173.509C201.661 173.041 201.704 172.543 201.868 172.017C202.034 171.483 202.282 171.047 202.613 170.709C202.947 170.369 203.34 170.145 203.793 170.038C204.246 169.929 204.736 169.956 205.262 170.12C205.717 170.261 206.089 170.467 206.379 170.738C206.669 171.009 206.867 171.325 206.973 171.685C207.079 172.046 207.08 172.43 206.975 172.839L205.612 172.415C205.654 172.143 205.618 171.902 205.502 171.693C205.389 171.482 205.2 171.335 204.936 171.253C204.712 171.183 204.497 171.183 204.292 171.253C204.09 171.322 203.907 171.457 203.742 171.659C203.578 171.86 203.445 172.125 203.343 172.453C203.239 172.785 203.197 173.082 203.215 173.343C203.235 173.605 203.31 173.822 203.439 173.997C203.568 174.171 203.745 174.293 203.969 174.362C204.134 174.413 204.292 174.426 204.445 174.399C204.599 174.372 204.739 174.308 204.865 174.206C204.994 174.102 205.101 173.963 205.185 173.788L206.548 174.212C206.402 174.603 206.184 174.92 205.895 175.162C205.61 175.403 205.271 175.556 204.879 175.62C204.487 175.684 204.06 175.644 203.596 175.5ZM210.909 175.23L211.839 172.239L213.284 172.689L211.664 177.897L210.277 177.466L210.571 176.52L210.517 176.503C210.304 176.771 210.032 176.956 209.701 177.056C209.372 177.157 209.012 177.147 208.621 177.025C208.273 176.917 207.991 176.743 207.776 176.502C207.561 176.262 207.424 175.972 207.365 175.634C207.309 175.297 207.343 174.925 207.467 174.517L208.499 171.201L209.943 171.65L208.992 174.708C208.899 175.017 208.906 175.285 209.013 175.515C209.12 175.744 209.311 175.901 209.584 175.986C209.758 176.04 209.933 176.051 210.109 176.019C210.286 175.985 210.445 175.903 210.587 175.774C210.731 175.645 210.839 175.464 210.909 175.23ZM212.819 178.257L214.439 173.048L215.839 173.484L215.557 174.392L215.611 174.409C215.807 174.116 216.042 173.921 216.317 173.826C216.593 173.728 216.877 173.724 217.168 173.815C217.24 173.838 217.317 173.866 217.398 173.901C217.479 173.937 217.548 173.972 217.607 174.007L217.208 175.289C217.147 175.248 217.058 175.2 216.943 175.147C216.829 175.094 216.721 175.052 216.622 175.021C216.409 174.955 216.205 174.942 216.009 174.983C215.816 175.022 215.645 175.108 215.498 175.241C215.352 175.374 215.246 175.547 215.18 175.759L214.264 178.706L212.819 178.257ZM216.726 179.472L218.346 174.263L219.791 174.713L218.171 179.921L216.726 179.472ZM219.281 173.818C219.066 173.751 218.904 173.622 218.794 173.432C218.688 173.24 218.666 173.044 218.729 172.843C218.79 172.644 218.919 172.497 219.115 172.401C219.314 172.304 219.52 172.289 219.735 172.356C219.95 172.423 220.111 172.552 220.217 172.744C220.326 172.934 220.35 173.129 220.288 173.328C220.226 173.529 220.095 173.678 219.896 173.775C219.701 173.87 219.495 173.884 219.281 173.818ZM223.718 175.934L223.381 177.019L220.244 176.044L220.582 174.959L223.718 175.934ZM221.682 173.932L223.126 174.382L221.616 179.237C221.575 179.371 221.563 179.481 221.58 179.568C221.598 179.653 221.639 179.722 221.702 179.774C221.768 179.826 221.849 179.868 221.946 179.898C222.014 179.919 222.084 179.934 222.155 179.944C222.227 179.952 222.282 179.958 222.32 179.962L222.213 181.108C222.134 181.108 222.024 181.102 221.884 181.091C221.743 181.082 221.577 181.051 221.388 181C221.035 180.905 220.745 180.764 220.515 180.576C220.288 180.389 220.138 180.161 220.062 179.892C219.987 179.623 220.004 179.319 220.112 178.978L221.682 173.932ZM223.324 183.666C223.14 183.609 222.973 183.541 222.822 183.461C222.672 183.385 222.552 183.309 222.461 183.234L223.122 182.257C223.275 182.362 223.419 182.437 223.553 182.484C223.69 182.531 223.819 182.537 223.939 182.5C224.062 182.464 224.18 182.374 224.294 182.231L224.447 182.037L224.245 176.098L225.765 176.571L225.653 180.731L225.708 180.748L227.986 177.261L229.515 177.737L225.696 182.879C225.511 183.129 225.303 183.332 225.071 183.488C224.841 183.647 224.581 183.743 224.293 183.778C224.004 183.814 223.681 183.777 223.324 183.666Z" fill="#CCC3C3"/>
</g>
<g filter="url(#filter5_d_1312_284)">
<rect x="241.196" y="123.386" width="110.055" height="26.0463" rx="13.0231" transform="rotate(52.2617 241.196 123.386)" fill="url(#paint7_linear_1312_284)"/>
<path d="M248.359 152.004L247.411 150.771C247.553 150.626 247.659 150.471 247.729 150.306C247.802 150.14 247.84 149.968 247.845 149.792C247.849 149.615 247.82 149.437 247.757 149.259C247.696 149.082 247.601 148.911 247.474 148.746C247.245 148.447 246.971 148.245 246.652 148.137C246.336 148.028 245.99 148.021 245.614 148.116C245.241 148.209 244.854 148.409 244.455 148.717C244.044 149.033 243.745 149.36 243.56 149.697C243.375 150.036 243.297 150.371 243.325 150.702C243.353 151.033 243.478 151.344 243.702 151.635C243.828 151.798 243.965 151.932 244.115 152.038C244.267 152.146 244.426 152.222 244.592 152.267C244.76 152.311 244.932 152.323 245.107 152.301C245.283 152.282 245.459 152.227 245.635 152.137L246.577 153.374C246.288 153.546 245.972 153.663 245.628 153.724C245.287 153.786 244.938 153.784 244.58 153.719C244.226 153.654 243.879 153.518 243.539 153.31C243.204 153.103 242.893 152.814 242.609 152.444C242.213 151.93 241.976 151.381 241.897 150.797C241.819 150.214 241.911 149.636 242.171 149.062C242.433 148.49 242.877 147.963 243.504 147.481C244.133 146.998 244.758 146.704 245.381 146.602C246.004 146.499 246.587 146.561 247.129 146.789C247.674 147.015 248.141 147.382 248.531 147.888C248.788 148.222 248.979 148.568 249.105 148.925C249.232 149.285 249.29 149.644 249.281 150.004C249.273 150.363 249.193 150.711 249.04 151.049C248.89 151.389 248.663 151.707 248.359 152.004ZM244.258 157.779C244.141 157.627 244.043 157.475 243.965 157.323C243.887 157.174 243.832 157.043 243.801 156.929L244.904 156.511C244.969 156.685 245.043 156.83 245.126 156.945C245.211 157.062 245.313 157.141 245.432 157.18C245.554 157.221 245.702 157.216 245.878 157.164L246.115 157.094L249.369 152.122L250.339 153.383L247.852 156.72L247.887 156.765L251.757 155.226L252.734 156.496L246.65 158.501C246.356 158.599 246.069 158.645 245.789 158.639C245.509 158.637 245.242 158.566 244.986 158.428C244.729 158.292 244.486 158.075 244.258 157.779ZM248.9 160.458L254.664 156.023L255.586 157.222L253.419 158.889L253.447 158.926C253.604 158.889 253.781 158.874 253.977 158.881C254.177 158.889 254.38 158.942 254.585 159.041C254.793 159.141 254.99 159.312 255.176 159.554C255.419 159.869 255.56 160.224 255.6 160.617C255.641 161.009 255.559 161.412 255.351 161.825C255.145 162.238 254.795 162.634 254.3 163.015C253.817 163.386 253.35 163.622 252.898 163.722C252.45 163.822 252.037 163.804 251.662 163.669C251.289 163.535 250.977 163.303 250.724 162.975C250.545 162.742 250.431 162.515 250.383 162.292C250.335 162.072 250.33 161.865 250.367 161.672C250.406 161.478 250.465 161.308 250.543 161.161L250.502 161.107L249.809 161.64L248.9 160.458ZM251.964 159.968C251.707 160.166 251.51 160.374 251.374 160.593C251.237 160.812 251.168 161.029 251.165 161.247C251.163 161.463 251.237 161.667 251.386 161.861C251.536 162.056 251.717 162.18 251.928 162.233C252.14 162.284 252.369 162.271 252.614 162.193C252.862 162.116 253.112 161.98 253.363 161.787C253.613 161.595 253.806 161.391 253.942 161.176C254.078 160.961 254.147 160.744 254.15 160.527C254.153 160.31 254.079 160.102 253.927 159.905C253.777 159.71 253.599 159.585 253.392 159.529C253.186 159.475 252.961 159.486 252.716 159.56C252.472 159.635 252.221 159.771 251.964 159.968ZM254.19 167.509C253.848 167.065 253.644 166.612 253.577 166.153C253.514 165.694 253.582 165.25 253.781 164.822C253.982 164.393 254.311 164.002 254.767 163.652C255.211 163.31 255.668 163.096 256.137 163.01C256.605 162.924 257.054 162.966 257.483 163.135C257.913 163.306 258.291 163.603 258.617 164.027C258.837 164.312 258.995 164.613 259.092 164.93C259.193 165.247 259.223 165.567 259.182 165.891C259.143 166.217 259.025 166.537 258.829 166.853C258.634 167.167 258.353 167.465 257.986 167.748L257.656 168.001L254.848 164.351L255.591 163.779L257.531 166.301C257.704 166.168 257.828 166.013 257.903 165.836C257.979 165.658 258.003 165.474 257.975 165.283C257.951 165.092 257.872 164.91 257.738 164.735C257.598 164.553 257.431 164.424 257.239 164.349C257.049 164.273 256.854 164.25 256.652 164.28C256.453 164.308 256.267 164.387 256.095 164.516L255.388 165.06C255.175 165.224 255.02 165.406 254.925 165.604C254.831 165.805 254.799 166.011 254.827 166.222C254.855 166.433 254.946 166.64 255.101 166.84C255.203 166.974 255.316 167.081 255.438 167.163C255.561 167.245 255.69 167.296 255.826 167.317C255.962 167.338 256.1 167.328 256.24 167.285L257.02 168.45C256.711 168.599 256.389 168.663 256.056 168.641C255.726 168.62 255.401 168.515 255.079 168.326C254.761 168.138 254.465 167.866 254.19 167.509ZM256.403 170.211L260.727 166.885L261.621 168.047L260.867 168.628L260.901 168.673C261.23 168.545 261.535 168.521 261.815 168.602C262.096 168.681 262.33 168.841 262.517 169.083C262.563 169.143 262.609 169.211 262.655 169.286C262.701 169.361 262.737 169.43 262.764 169.493L261.701 170.311C261.674 170.242 261.629 170.153 261.566 170.043C261.502 169.934 261.439 169.838 261.376 169.755C261.24 169.579 261.08 169.451 260.896 169.371C260.716 169.292 260.527 169.264 260.33 169.287C260.134 169.312 259.948 169.392 259.772 169.528L257.326 171.41L256.403 170.211ZM264.756 174.673L263.844 173.628C263.924 173.537 263.977 173.431 264.004 173.312C264.034 173.191 264.032 173.062 263.999 172.926C263.969 172.791 263.901 172.653 263.794 172.515C263.651 172.329 263.491 172.202 263.315 172.135C263.139 172.067 262.987 172.083 262.858 172.182C262.754 172.262 262.699 172.37 262.691 172.507C262.683 172.645 262.735 172.831 262.846 173.065L263.291 173.968C263.528 174.455 263.63 174.875 263.598 175.229C263.565 175.582 263.393 175.879 263.081 176.119C262.798 176.337 262.485 176.444 262.143 176.442C261.802 176.442 261.46 176.343 261.118 176.146C260.779 175.95 260.465 175.665 260.176 175.289C259.736 174.717 259.504 174.169 259.481 173.646C259.462 173.124 259.636 172.675 260.004 172.299L260.973 173.431C260.826 173.601 260.759 173.789 260.773 173.997C260.788 174.203 260.878 174.413 261.042 174.627C261.204 174.837 261.374 174.975 261.553 175.041C261.735 175.107 261.892 175.091 262.023 174.993C262.13 174.908 262.184 174.793 262.184 174.65C262.186 174.505 262.134 174.324 262.027 174.107L261.6 173.244C261.36 172.757 261.264 172.33 261.314 171.963C261.365 171.599 261.551 171.292 261.874 171.044C262.152 170.83 262.449 170.721 262.765 170.717C263.083 170.714 263.401 170.808 263.721 170.998C264.042 171.19 264.345 171.471 264.629 171.841C265.049 172.387 265.264 172.905 265.275 173.396C265.286 173.889 265.114 174.315 264.756 174.673ZM263.754 179.94C263.412 179.495 263.207 179.043 263.141 178.583C263.077 178.124 263.145 177.681 263.345 177.253C263.546 176.823 263.874 176.433 264.33 176.082C264.775 175.74 265.232 175.526 265.7 175.44C266.169 175.354 266.618 175.396 267.046 175.565C267.477 175.736 267.855 176.033 268.181 176.457C268.4 176.743 268.559 177.043 268.656 177.36C268.756 177.677 268.786 177.997 268.746 178.321C268.707 178.647 268.589 178.968 268.393 179.283C268.198 179.597 267.917 179.896 267.549 180.179L267.22 180.432L264.411 176.781L265.154 176.21L267.094 178.732C267.267 178.599 267.391 178.444 267.467 178.266C267.542 178.088 267.566 177.904 267.539 177.713C267.515 177.523 267.435 177.34 267.301 177.166C267.161 176.984 266.995 176.855 266.802 176.779C266.613 176.704 266.417 176.681 266.216 176.71C266.016 176.738 265.831 176.817 265.658 176.947L264.952 177.49C264.738 177.655 264.584 177.836 264.488 178.035C264.395 178.235 264.362 178.441 264.39 178.653C264.418 178.864 264.51 179.07 264.664 179.271C264.767 179.404 264.879 179.511 265.002 179.593C265.125 179.675 265.254 179.727 265.39 179.748C265.525 179.769 265.663 179.758 265.804 179.716L266.584 180.881C266.274 181.029 265.953 181.093 265.62 181.072C265.29 181.051 264.964 180.946 264.643 180.757C264.324 180.569 264.028 180.296 263.754 179.94ZM267.385 184.66C267.045 184.217 266.845 183.764 266.788 183.3C266.733 182.837 266.808 182.391 267.013 181.962C267.219 181.535 267.54 181.153 267.977 180.817C268.42 180.476 268.874 180.263 269.34 180.176C269.808 180.091 270.258 180.134 270.69 180.307C271.124 180.478 271.509 180.782 271.845 181.22C272.135 181.597 272.321 181.98 272.402 182.368C272.483 182.757 272.463 183.129 272.342 183.485C272.222 183.841 272.001 184.155 271.68 184.429L270.809 183.298C271 183.1 271.109 182.882 271.135 182.644C271.164 182.406 271.094 182.178 270.926 181.958C270.783 181.772 270.607 181.649 270.399 181.588C270.194 181.528 269.966 181.533 269.716 181.603C269.465 181.673 269.204 181.813 268.932 182.022C268.656 182.235 268.45 182.453 268.315 182.676C268.181 182.902 268.117 183.123 268.122 183.34C268.128 183.557 268.202 183.758 268.345 183.944C268.45 184.081 268.573 184.182 268.713 184.248C268.854 184.315 269.006 184.343 269.168 184.332C269.333 184.322 269.5 184.269 269.669 184.175L270.54 185.306C270.195 185.542 269.835 185.675 269.459 185.707C269.087 185.74 268.722 185.669 268.365 185.496C268.008 185.323 267.681 185.044 267.385 184.66ZM273.519 188.649L276.002 186.739L276.924 187.938L272.601 191.264L271.716 190.113L272.501 189.509L272.466 189.464C272.138 189.561 271.809 189.556 271.481 189.447C271.154 189.34 270.865 189.125 270.616 188.8C270.393 188.511 270.263 188.206 270.226 187.886C270.188 187.565 270.243 187.25 270.39 186.94C270.538 186.631 270.78 186.346 271.116 186.085L273.869 183.967L274.791 185.166L272.253 187.119C271.999 187.317 271.85 187.541 271.806 187.79C271.761 188.039 271.827 188.277 272.001 188.504C272.112 188.649 272.249 188.759 272.412 188.834C272.576 188.908 272.753 188.933 272.944 188.908C273.136 188.886 273.328 188.8 273.519 188.649ZM273.339 192.223L277.662 188.897L278.557 190.06L277.802 190.64L277.837 190.685C278.166 190.557 278.47 190.534 278.75 190.614C279.032 190.693 279.266 190.854 279.452 191.096C279.498 191.156 279.544 191.223 279.59 191.299C279.636 191.374 279.673 191.443 279.7 191.505L278.636 192.324C278.61 192.255 278.565 192.165 278.502 192.056C278.438 191.946 278.375 191.85 278.311 191.767C278.175 191.591 278.016 191.463 277.832 191.383C277.652 191.304 277.463 191.276 277.266 191.299C277.07 191.325 276.884 191.405 276.707 191.541L274.262 193.422L273.339 192.223ZM275.834 195.466L280.157 192.14L281.08 193.339L276.757 196.665L275.834 195.466ZM281.178 192.314C281.041 192.136 280.982 191.937 281.002 191.719C281.026 191.501 281.121 191.327 281.288 191.199C281.453 191.072 281.643 191.026 281.858 191.06C282.076 191.096 282.254 191.202 282.391 191.381C282.528 191.559 282.585 191.757 282.562 191.975C282.542 192.194 282.449 192.367 282.284 192.494C282.117 192.622 281.924 192.669 281.706 192.633C281.491 192.599 281.315 192.492 281.178 192.314ZM283.588 196.599L282.687 197.292L280.684 194.689L281.585 193.996L283.588 196.599ZM283.075 193.79L283.998 194.989L279.967 198.09C279.857 198.175 279.783 198.258 279.747 198.34C279.713 198.42 279.707 198.499 279.729 198.578C279.752 198.659 279.795 198.739 279.857 198.82C279.9 198.876 279.948 198.929 280.001 198.978C280.056 199.026 280.097 199.062 280.126 199.088L279.379 199.963C279.314 199.917 279.227 199.85 279.119 199.76C279.009 199.671 278.892 199.551 278.766 199.399C278.532 199.119 278.376 198.836 278.297 198.551C278.219 198.267 278.227 197.994 278.32 197.731C278.413 197.468 278.603 197.228 278.887 197.012L283.075 193.79ZM278.814 202.694C278.697 202.542 278.6 202.39 278.521 202.238C278.443 202.089 278.388 201.958 278.357 201.844L279.46 201.426C279.525 201.6 279.599 201.745 279.682 201.86C279.767 201.977 279.869 202.056 279.989 202.095C280.11 202.136 280.258 202.131 280.434 202.079L280.671 202.009L283.925 197.037L284.895 198.298L282.408 201.635L282.443 201.68L286.313 200.141L287.29 201.411L281.207 203.416C280.912 203.514 280.625 203.56 280.345 203.554C280.065 203.552 279.798 203.481 279.542 203.343C279.285 203.207 279.042 202.99 278.814 202.694Z" fill="#CCC3C3"/>
</g>
<g filter="url(#filter6_d_1312_284)">
<rect x="148.287" y="70.458" width="110.055" height="26.0463" rx="13.0231" transform="rotate(42.247 148.287 70.458)" fill="url(#paint8_linear_1312_284)"/>
<path d="M160.317 97.3928L159.168 96.3438C159.283 96.176 159.361 96.005 159.401 95.8305C159.444 95.6543 159.452 95.4788 159.425 95.3041C159.399 95.1293 159.339 94.9594 159.247 94.7944C159.155 94.6309 159.033 94.4789 158.879 94.3384C158.601 94.0845 158.296 93.9324 157.964 93.8821C157.633 93.83 157.291 93.8832 156.938 94.0416C156.586 94.1983 156.24 94.4627 155.9 94.835C155.551 95.2178 155.314 95.5913 155.189 95.9556C155.067 96.3214 155.048 96.6649 155.133 96.9862C155.218 97.3074 155.396 97.5918 155.667 97.8393C155.819 97.9782 155.978 98.0866 156.144 98.1646C156.312 98.2442 156.481 98.2918 156.653 98.3075C156.826 98.3214 156.997 98.3028 157.166 98.2516C157.336 98.202 157.5 98.1175 157.657 97.9982L158.801 99.0525C158.546 99.2718 158.254 99.4416 157.926 99.562C157.602 99.6823 157.257 99.7414 156.894 99.7394C156.533 99.7373 156.168 99.6633 155.798 99.5175C155.431 99.3715 155.075 99.1413 154.731 98.8267C154.252 98.3892 153.923 97.8896 153.743 97.328C153.565 96.768 153.555 96.1828 153.712 95.5724C153.87 94.9637 154.216 94.3674 154.749 93.7836C155.284 93.198 155.849 92.8005 156.445 92.5909C157.04 92.3813 157.625 92.3415 158.199 92.4714C158.774 92.5996 159.298 92.8792 159.77 93.3103C160.081 93.5945 160.33 93.9017 160.516 94.2318C160.703 94.5635 160.823 94.9074 160.876 95.2636C160.931 95.6181 160.913 95.975 160.822 96.3344C160.733 96.6953 160.564 97.0482 160.317 97.3928ZM157.282 103.793C157.141 103.664 157.018 103.531 156.915 103.395C156.812 103.262 156.735 103.143 156.685 103.036L157.698 102.432C157.793 102.592 157.891 102.722 157.993 102.821C158.096 102.922 158.21 102.981 158.335 102.999C158.461 103.019 158.607 102.988 158.771 102.907L158.992 102.796L161.331 97.3338L162.506 98.4067L160.638 102.126L160.68 102.164L164.223 99.9755L165.406 101.056L159.764 104.088C159.491 104.236 159.216 104.332 158.94 104.374C158.664 104.42 158.388 104.398 158.112 104.306C157.835 104.216 157.559 104.046 157.282 103.793ZM162.319 105.624L167.225 100.255L168.341 101.275L166.497 103.294L166.531 103.325C166.679 103.261 166.851 103.216 167.045 103.189C167.244 103.161 167.452 103.179 167.671 103.241C167.894 103.303 168.117 103.437 168.343 103.643C168.637 103.911 168.837 104.235 168.945 104.616C169.054 104.995 169.043 105.406 168.91 105.849C168.779 106.291 168.503 106.742 168.082 107.204C167.671 107.653 167.252 107.966 166.825 108.143C166.4 108.319 165.991 108.374 165.598 108.306C165.208 108.238 164.86 108.065 164.554 107.785C164.337 107.587 164.185 107.383 164.099 107.173C164.014 106.964 163.973 106.761 163.976 106.565C163.98 106.367 164.008 106.189 164.06 106.031L164.01 105.985L163.421 106.63L162.319 105.624ZM165.252 104.609C165.033 104.849 164.876 105.088 164.779 105.327C164.683 105.566 164.652 105.793 164.687 106.007C164.723 106.22 164.832 106.409 165.012 106.573C165.193 106.739 165.393 106.83 165.61 106.845C165.828 106.859 166.051 106.806 166.279 106.687C166.51 106.568 166.732 106.391 166.946 106.157C167.158 105.924 167.313 105.69 167.409 105.454C167.506 105.219 167.537 104.994 167.502 104.779C167.467 104.565 167.358 104.373 167.174 104.206C166.993 104.04 166.795 103.947 166.581 103.928C166.369 103.911 166.15 103.96 165.922 104.076C165.694 104.192 165.471 104.37 165.252 104.609ZM168.756 111.648C168.341 111.27 168.062 110.86 167.916 110.419C167.774 109.978 167.763 109.53 167.885 109.073C168.009 108.615 168.264 108.174 168.652 107.749C169.031 107.335 169.443 107.045 169.89 106.879C170.337 106.713 170.786 106.676 171.237 106.768C171.691 106.861 172.115 107.088 172.51 107.449C172.775 107.692 172.984 107.96 173.134 108.255C173.288 108.55 173.374 108.86 173.39 109.186C173.408 109.514 173.348 109.85 173.209 110.195C173.072 110.538 172.848 110.881 172.535 111.223L172.254 111.53L168.854 108.424L169.486 107.731L171.835 109.877C171.982 109.717 172.077 109.542 172.121 109.354C172.164 109.166 172.156 108.981 172.096 108.797C172.039 108.614 171.929 108.448 171.766 108.3C171.597 108.145 171.411 108.047 171.208 108.006C171.008 107.964 170.812 107.976 170.619 108.04C170.427 108.102 170.258 108.212 170.111 108.369L169.509 109.027C169.327 109.227 169.207 109.432 169.148 109.645C169.09 109.858 169.094 110.067 169.158 110.27C169.223 110.473 169.349 110.66 169.536 110.831C169.66 110.944 169.789 111.031 169.924 111.09C170.059 111.149 170.196 111.177 170.333 111.175C170.47 111.172 170.604 111.137 170.735 111.071L171.706 112.083C171.427 112.283 171.122 112.402 170.79 112.438C170.461 112.475 170.122 112.428 169.773 112.298C169.427 112.168 169.088 111.951 168.756 111.648ZM171.405 113.924L175.084 109.897L176.167 110.886L175.525 111.588L175.567 111.627C175.868 111.444 176.164 111.368 176.454 111.398C176.745 111.427 177.003 111.544 177.229 111.75C177.285 111.801 177.342 111.86 177.4 111.926C177.458 111.992 177.506 112.053 177.544 112.11L176.639 113.101C176.601 113.038 176.541 112.958 176.459 112.861C176.378 112.764 176.299 112.68 176.222 112.61C176.058 112.46 175.878 112.362 175.683 112.315C175.492 112.269 175.301 112.274 175.111 112.331C174.922 112.39 174.753 112.501 174.603 112.666L172.522 114.944L171.405 113.924ZM180.406 116.866L179.326 115.994C179.389 115.891 179.423 115.778 179.429 115.655C179.437 115.531 179.413 115.405 179.357 115.277C179.304 115.148 179.213 115.025 179.084 114.907C178.911 114.749 178.731 114.652 178.545 114.617C178.361 114.58 178.214 114.622 178.104 114.743C178.016 114.839 177.98 114.955 177.996 115.092C178.012 115.229 178.096 115.402 178.246 115.613L178.841 116.426C179.159 116.864 179.333 117.26 179.362 117.614C179.391 117.968 179.274 118.29 179.008 118.58C178.767 118.844 178.478 119.005 178.14 119.062C177.805 119.121 177.451 119.083 177.08 118.949C176.712 118.815 176.353 118.588 176.003 118.269C175.47 117.782 175.147 117.283 175.033 116.772C174.923 116.26 175.016 115.788 175.313 115.354L176.465 116.3C176.349 116.493 176.316 116.69 176.366 116.892C176.417 117.093 176.542 117.284 176.741 117.466C176.937 117.645 177.129 117.751 177.316 117.784C177.507 117.818 177.658 117.775 177.77 117.656C177.861 117.553 177.894 117.431 177.869 117.289C177.846 117.146 177.763 116.978 177.62 116.783L177.05 116.007C176.728 115.569 176.56 115.165 176.545 114.795C176.532 114.427 176.662 114.093 176.937 113.792C177.173 113.534 177.447 113.375 177.757 113.315C178.07 113.258 178.4 113.295 178.748 113.427C179.097 113.56 179.444 113.784 179.789 114.098C180.297 114.563 180.599 115.036 180.695 115.518C180.792 116.001 180.696 116.45 180.406 116.866ZM180.335 122.226C179.921 121.847 179.641 121.438 179.495 120.997C179.353 120.556 179.343 120.107 179.465 119.651C179.588 119.193 179.844 118.752 180.232 118.327C180.61 117.913 181.023 117.623 181.469 117.457C181.916 117.291 182.365 117.254 182.817 117.345C183.27 117.439 183.694 117.666 184.089 118.027C184.355 118.27 184.563 118.538 184.714 118.833C184.868 119.128 184.953 119.438 184.97 119.764C184.988 120.092 184.928 120.428 184.789 120.773C184.652 121.116 184.427 121.459 184.114 121.801L183.834 122.108L180.433 119.002L181.066 118.309L183.415 120.455C183.562 120.295 183.657 120.12 183.7 119.932C183.744 119.744 183.735 119.559 183.675 119.375C183.618 119.192 183.508 119.026 183.346 118.877C183.176 118.723 182.99 118.625 182.787 118.583C182.588 118.542 182.391 118.554 182.198 118.618C182.006 118.68 181.837 118.79 181.69 118.947L181.089 119.605C180.907 119.805 180.786 120.01 180.727 120.222C180.67 120.436 180.673 120.645 180.738 120.848C180.802 121.051 180.928 121.238 181.115 121.409C181.239 121.522 181.369 121.609 181.504 121.668C181.639 121.727 181.775 121.755 181.912 121.752C182.05 121.75 182.184 121.715 182.315 121.649L183.286 122.661C183.006 122.861 182.701 122.979 182.369 123.016C182.041 123.053 181.702 123.006 181.352 122.876C181.006 122.746 180.667 122.529 180.335 122.226ZM184.732 126.242C184.32 125.866 184.045 125.454 183.907 125.008C183.773 124.561 183.769 124.109 183.896 123.651C184.024 123.194 184.275 122.763 184.647 122.355C185.024 121.943 185.434 121.654 185.877 121.488C186.324 121.322 186.774 121.286 187.229 121.381C187.686 121.475 188.118 121.707 188.525 122.079C188.877 122.4 189.126 122.745 189.273 123.114C189.421 123.483 189.466 123.853 189.409 124.224C189.352 124.595 189.189 124.943 188.921 125.269L187.867 124.306C188.021 124.078 188.09 123.844 188.074 123.605C188.062 123.366 187.953 123.153 187.749 122.967C187.576 122.809 187.381 122.718 187.166 122.694C186.953 122.67 186.73 122.714 186.496 122.827C186.261 122.94 186.028 123.123 185.796 123.377C185.562 123.634 185.397 123.884 185.303 124.128C185.21 124.373 185.185 124.602 185.228 124.815C185.271 125.027 185.379 125.213 185.552 125.371C185.68 125.487 185.818 125.566 185.968 125.606C186.119 125.648 186.273 125.649 186.43 125.61C186.591 125.571 186.747 125.49 186.897 125.368L187.951 126.331C187.652 126.622 187.321 126.817 186.957 126.914C186.596 127.01 186.224 127.004 185.842 126.896C185.46 126.788 185.09 126.57 184.732 126.242ZM191.467 129.105L193.579 126.792L194.696 127.812L191.017 131.84L189.945 130.86L190.613 130.128L190.571 130.09C190.265 130.243 189.94 130.295 189.598 130.245C189.257 130.196 188.935 130.034 188.633 129.758C188.364 129.512 188.183 129.235 188.09 128.925C187.997 128.616 187.996 128.296 188.087 127.965C188.179 127.636 188.368 127.313 188.654 126.997L190.996 124.433L192.113 125.453L189.953 127.818C189.738 128.057 189.63 128.304 189.629 128.557C189.629 128.81 189.735 129.033 189.946 129.226C190.081 129.349 190.235 129.433 190.408 129.479C190.582 129.523 190.761 129.517 190.945 129.46C191.13 129.405 191.304 129.286 191.467 129.105ZM191.91 132.656L195.589 128.628L196.672 129.618L196.03 130.32L196.072 130.359C196.374 130.176 196.67 130.1 196.959 130.13C197.25 130.159 197.509 130.276 197.734 130.482C197.79 130.533 197.847 130.592 197.906 130.658C197.964 130.724 198.012 130.785 198.05 130.842L197.144 131.833C197.106 131.77 197.046 131.69 196.965 131.593C196.884 131.496 196.804 131.412 196.727 131.342C196.563 131.192 196.384 131.094 196.189 131.047C195.997 131 195.806 131.006 195.616 131.063C195.428 131.122 195.259 131.233 195.109 131.398L193.027 133.676L191.91 132.656ZM194.931 135.415L198.61 131.388L199.727 132.408L196.048 136.436L194.931 135.415ZM199.646 131.382C199.48 131.23 199.387 131.045 199.369 130.826C199.354 130.607 199.418 130.42 199.56 130.264C199.7 130.111 199.88 130.032 200.097 130.029C200.318 130.026 200.512 130.1 200.678 130.252C200.844 130.403 200.934 130.589 200.949 130.807C200.968 131.026 200.906 131.212 200.766 131.366C200.624 131.522 200.442 131.601 200.221 131.604C200.004 131.608 199.812 131.533 199.646 131.382ZM202.764 135.183L201.998 136.022L199.572 133.806L200.339 132.967L202.764 135.183ZM201.771 132.505L202.888 133.526L199.458 137.28C199.364 137.383 199.306 137.478 199.285 137.564C199.265 137.649 199.273 137.728 199.308 137.802C199.345 137.878 199.401 137.95 199.476 138.018C199.529 138.066 199.585 138.11 199.645 138.149C199.708 138.186 199.755 138.215 199.788 138.235L199.204 139.227C199.132 139.193 199.035 139.142 198.913 139.072C198.789 139.004 198.652 138.906 198.503 138.779C198.224 138.543 198.021 138.292 197.893 138.024C197.767 137.759 197.727 137.488 197.773 137.213C197.819 136.938 197.964 136.669 198.207 136.407L201.771 132.505ZM199.123 142.015C198.981 141.885 198.859 141.752 198.755 141.616C198.652 141.484 198.576 141.364 198.525 141.257L199.539 140.653C199.633 140.813 199.731 140.943 199.833 141.042C199.936 141.143 200.05 141.203 200.175 141.22C200.302 141.24 200.447 141.209 200.611 141.128L200.832 141.017L203.172 135.555L204.346 136.628L202.478 140.347L202.52 140.385L206.064 138.197L207.246 139.277L201.604 142.31C201.331 142.458 201.057 142.553 200.78 142.596C200.504 142.642 200.228 142.619 199.953 142.527C199.676 142.438 199.399 142.267 199.123 142.015Z" fill="#CCC3C3"/>
</g>
<defs>
<filter id="filter0_d_1312_284" x="53.7441" y="114.558" width="118.056" height="34.1699" filterUnits="userSpaceOnUse" color-interpolation-filters="sRGB">
<feFlood flood-opacity="0" result="BackgroundImageFix"/>
<feColorMatrix in="SourceAlpha" type="matrix" values="0 0 0 0 0 0 0 0 0 0 0 0 0 0 0 0 0 0 127 0" result="hardAlpha"/>
<feOffset dx="0.5" dy="2"/>
<feGaussianBlur stdDeviation="2"/>
<feComposite in2="hardAlpha" operator="out"/>
<feColorMatrix type="matrix" values="0 0 0 0 0 0 0 0 0 0 0 0 0 0 0 0 0 0 0.25 0"/>
<feBlend mode="normal" in2="BackgroundImageFix" result="effect1_dropShadow_1312_284"/>
<feBlend mode="normal" in="SourceGraphic" in2="effect1_dropShadow_1312_284" result="shape"/>
</filter>
<filter id="filter1_d_1312_284" x="144.879" y="192.737" width="118.055" height="34.1025" filterUnits="userSpaceOnUse" color-interpolation-filters="sRGB">
<feFlood flood-opacity="0" result="BackgroundImageFix"/>
<feColorMatrix in="SourceAlpha" type="matrix" values="0 0 0 0 0 0 0 0 0 0 0 0 0 0 0 0 0 0 127 0" result="hardAlpha"/>
<feOffset dx="0.5" dy="2"/>
<feGaussianBlur stdDeviation="2"/>
<feComposite in2="hardAlpha" operator="out"/>
<feColorMatrix type="matrix" values="0 0 0 0 0 0 0 0 0 0 0 0 0 0 0 0 0 0 0.25 0"/>
<feBlend mode="normal" in2="BackgroundImageFix" result="effect1_dropShadow_1312_284"/>
<feBlend mode="normal" in="SourceGraphic" in2="effect1_dropShadow_1312_284" result="shape"/>
</filter>
<filter id="filter2_d_1312_284" x="2.27051" y="121.607" width="109.98" height="70.001" filterUnits="userSpaceOnUse" color-interpolation-filters="sRGB">
<feFlood flood-opacity="0" result="BackgroundImageFix"/>
<feColorMatrix in="SourceAlpha" type="matrix" values="0 0 0 0 0 0 0 0 0 0 0 0 0 0 0 0 0 0 127 0" result="hardAlpha"/>
<feOffset dx="0.5" dy="2"/>
<feGaussianBlur stdDeviation="2"/>
<feComposite in2="hardAlpha" operator="out"/>
<feColorMatrix type="matrix" values="0 0 0 0 0 0 0 0 0 0 0 0 0 0 0 0 0 0 0.25 0"/>
<feBlend mode="normal" in2="BackgroundImageFix" result="effect1_dropShadow_1312_284"/>
<feBlend mode="normal" in="SourceGraphic" in2="effect1_dropShadow_1312_284" result="shape"/>
</filter>
<filter id="filter3_d_1312_284" x="54.457" y="168.585" width="114.385" height="58.6338" filterUnits="userSpaceOnUse" color-interpolation-filters="sRGB">
<feFlood flood-opacity="0" result="BackgroundImageFix"/>
<feColorMatrix in="SourceAlpha" type="matrix" values="0 0 0 0 0 0 0 0 0 0 0 0 0 0 0 0 0 0 127 0" result="hardAlpha"/>
<feOffset dx="0.5" dy="2"/>
<feGaussianBlur stdDeviation="2"/>
<feComposite in2="hardAlpha" operator="out"/>
<feColorMatrix type="matrix" values="0 0 0 0 0 0 0 0 0 0 0 0 0 0 0 0 0 0 0.25 0"/>
<feBlend mode="normal" in2="BackgroundImageFix" result="effect1_dropShadow_1312_284"/>
<feBlend mode="normal" in="SourceGraphic" in2="effect1_dropShadow_1312_284" result="shape"/>
</filter>
<filter id="filter4_d_1312_284" x="138.994" y="141.729" width="114.343" height="58.7725" filterUnits="userSpaceOnUse" color-interpolation-filters="sRGB">
<feFlood flood-opacity="0" result="BackgroundImageFix"/>
<feColorMatrix in="SourceAlpha" type="matrix" values="0 0 0 0 0 0 0 0 0 0 0 0 0 0 0 0 0 0 127 0" result="hardAlpha"/>
<feOffset dx="0.5" dy="2"/>
<feGaussianBlur stdDeviation="2"/>
<feComposite in2="hardAlpha" operator="out"/>
<feColorMatrix type="matrix" values="0 0 0 0 0 0 0 0 0 0 0 0 0 0 0 0 0 0 0.25 0"/>
<feBlend mode="normal" in2="BackgroundImageFix" result="effect1_dropShadow_1312_284"/>
<feBlend mode="normal" in="SourceGraphic" in2="effect1_dropShadow_1312_284" result="shape"/>
</filter>
<filter id="filter5_d_1312_284" x="222.345" y="126.632" width="85.4648" height="100.482" filterUnits="userSpaceOnUse" color-interpolation-filters="sRGB">
<feFlood flood-opacity="0" result="BackgroundImageFix"/>
<feColorMatrix in="SourceAlpha" type="matrix" values="0 0 0 0 0 0 0 0 0 0 0 0 0 0 0 0 0 0 127 0" result="hardAlpha"/>
<feOffset dx="0.5" dy="2"/>
<feGaussianBlur stdDeviation="2"/>
<feComposite in2="hardAlpha" operator="out"/>
<feColorMatrix type="matrix" values="0 0 0 0 0 0 0 0 0 0 0 0 0 0 0 0 0 0 0.25 0"/>
<feBlend mode="normal" in2="BackgroundImageFix" result="effect1_dropShadow_1312_284"/>
<feBlend mode="normal" in="SourceGraphic" in2="effect1_dropShadow_1312_284" result="shape"/>
</filter>
<filter id="filter6_d_1312_284" x="132.648" y="73.8311" width="96.2344" height="90.5273" filterUnits="userSpaceOnUse" color-interpolation-filters="sRGB">
<feFlood flood-opacity="0" result="BackgroundImageFix"/>
<feColorMatrix in="SourceAlpha" type="matrix" values="0 0 0 0 0 0 0 0 0 0 0 0 0 0 0 0 0 0 127 0" result="hardAlpha"/>
<feOffset dx="0.5" dy="2"/>
<feGaussianBlur stdDeviation="2"/>
<feComposite in2="hardAlpha" operator="out"/>
<feColorMatrix type="matrix" values="0 0 0 0 0 0 0 0 0 0 0 0 0 0 0 0 0 0 0.25 0"/>
<feBlend mode="normal" in2="BackgroundImageFix" result="effect1_dropShadow_1312_284"/>
<feBlend mode="normal" in="SourceGraphic" in2="effect1_dropShadow_1312_284" result="shape"/>
</filter>
<linearGradient id="paint0_linear_1312_284" x1="154.929" y1="80.9025" x2="154.632" y2="227" gradientUnits="userSpaceOnUse">
<stop stop-color="#D9D9D9" stop-opacity="0"/>
<stop offset="1" stop-color="#199735" stop-opacity="0.62"/>
</linearGradient>
<linearGradient id="paint1_linear_1312_284" x1="154.929" y1="227.247" x2="154.929" y2="7.3146" gradientUnits="userSpaceOnUse">
<stop stop-color="#10AD33"/>
<stop offset="1" stop-color="#074715" stop-opacity="0"/>
</linearGradient>
<linearGradient id="paint2_linear_1312_284" x1="57.2637" y1="129.562" x2="167.318" y2="129.562" gradientUnits="userSpaceOnUse">
<stop stop-color="#7102A2"/>
<stop offset="1" stop-color="#520C72" stop-opacity="0"/>
</linearGradient>
<linearGradient id="paint3_linear_1312_284" x1="148.37" y1="207.825" x2="258.425" y2="207.825" gradientUnits="userSpaceOnUse">
<stop stop-color="#993D00" stop-opacity="0"/>
<stop offset="1" stop-color="#FF6600"/>
</linearGradient>
<linearGradient id="paint4_linear_1312_284" x1="12.5986" y1="132.313" x2="122.653" y2="132.313" gradientUnits="userSpaceOnUse">
<stop offset="0.510605" stop-color="#8C935F" stop-opacity="0.77"/>
<stop offset="1" stop-color="white" stop-opacity="0"/>
</linearGradient>
<linearGradient id="paint5_linear_1312_284" x1="54.7197" y1="212.573" x2="164.775" y2="212.573" gradientUnits="userSpaceOnUse">
<stop offset="0.245192" stop-color="#007BFF"/>
<stop offset="1" stop-color="#004A99" stop-opacity="0"/>
</linearGradient>
<linearGradient id="paint6_linear_1312_284" x1="146.906" y1="153.5" x2="256.961" y2="153.5" gradientUnits="userSpaceOnUse">
<stop stop-color="#3CB626"/>
<stop offset="1" stop-color="#1A5011" stop-opacity="0"/>
</linearGradient>
<linearGradient id="paint7_linear_1312_284" x1="241.196" y1="136.409" x2="351.251" y2="136.409" gradientUnits="userSpaceOnUse">
<stop stop-color="#3A3B00" stop-opacity="0"/>
<stop offset="1" stop-color="#9EA100"/>
</linearGradient>
<linearGradient id="paint8_linear_1312_284" x1="148.287" y1="83.4812" x2="258.342" y2="83.4812" gradientUnits="userSpaceOnUse">
<stop stop-color="#D001C1" stop-opacity="0"/>
<stop offset="1" stop-color="#D001C1"/>
</linearGradient>
</defs>
</svg>
