<svg width="904" height="329" viewBox="0 0 904 329" fill="none" xmlns="http://www.w3.org/2000/svg">
<g filter="url(#filter0_d_1312_233)">
<rect x="104.816" y="126.436" width="220.11" height="52.0926" rx="26.0463" transform="rotate(-16.8584 104.816 126.436)" fill="url(#paint0_linear_1312_233)"/>
<path d="M163.111 132.491L160.132 133.385C159.962 133.016 159.748 132.707 159.49 132.458C159.231 132.204 158.938 132.01 158.611 131.876C158.285 131.742 157.932 131.669 157.553 131.659C157.179 131.648 156.792 131.702 156.393 131.822C155.672 132.038 155.098 132.406 154.67 132.924C154.241 133.439 153.981 134.08 153.89 134.849C153.798 135.613 153.897 136.478 154.186 137.444C154.484 138.437 154.882 139.228 155.379 139.815C155.881 140.401 156.452 140.786 157.09 140.97C157.729 141.155 158.399 141.141 159.102 140.93C159.497 140.812 159.846 140.65 160.151 140.445C160.46 140.239 160.716 139.997 160.919 139.718C161.121 139.435 161.264 139.123 161.35 138.781C161.439 138.438 161.463 138.07 161.419 137.678L164.403 136.798C164.518 137.46 164.51 138.135 164.38 138.821C164.252 139.502 164 140.154 163.624 140.776C163.25 141.392 162.748 141.943 162.117 142.429C161.49 142.908 160.73 143.282 159.836 143.55C158.594 143.923 157.398 143.975 156.25 143.706C155.106 143.436 154.091 142.853 153.204 141.958C152.322 141.061 151.654 139.855 151.2 138.34C150.744 136.82 150.642 135.442 150.894 134.205C151.146 132.968 151.678 131.924 152.49 131.072C153.301 130.216 154.319 129.604 155.544 129.237C156.351 128.995 157.133 128.884 157.891 128.904C158.653 128.922 159.366 129.069 160.032 129.344C160.697 129.614 161.29 130.012 161.814 130.537C162.342 131.061 162.774 131.713 163.111 132.491ZM170.98 144.272C170.613 144.382 170.259 144.456 169.919 144.493C169.586 144.534 169.302 144.543 169.067 144.519L169.071 142.16C169.443 142.162 169.766 142.127 170.041 142.054C170.32 141.981 170.539 141.846 170.698 141.65C170.861 141.452 170.957 141.172 170.987 140.807L171.024 140.314L164.052 130.689L167.1 129.775L171.564 136.8L171.673 136.767L171.556 128.439L174.624 127.519L174.035 140.315C174.009 140.936 173.89 141.506 173.68 142.023C173.475 142.545 173.153 142.995 172.713 143.374C172.274 143.757 171.697 144.057 170.98 144.272ZM179.295 137.507L175.117 123.575L178.015 122.705L179.586 127.944L179.674 127.917C179.717 127.598 179.815 127.257 179.968 126.895C180.125 126.527 180.369 126.186 180.7 125.874C181.035 125.557 181.495 125.31 182.08 125.134C182.842 124.906 183.605 124.895 184.368 125.101C185.131 125.302 185.824 125.744 186.449 126.427C187.073 127.105 187.564 128.043 187.923 129.24C188.273 130.405 188.38 131.446 188.244 132.362C188.111 133.271 187.785 134.029 187.265 134.635C186.748 135.235 186.092 135.654 185.299 135.892C184.736 136.061 184.23 136.111 183.78 136.044C183.334 135.975 182.944 135.837 182.61 135.63C182.275 135.42 181.998 135.189 181.78 134.938L181.65 134.977L182.152 136.65L179.295 137.507ZM180.565 131.432C180.751 132.053 181 132.569 181.311 132.98C181.622 133.391 181.98 133.677 182.384 133.837C182.787 133.993 183.221 134.001 183.689 133.861C184.16 133.72 184.521 133.471 184.77 133.114C185.017 132.753 185.156 132.316 185.185 131.804C185.217 131.285 185.142 130.721 184.96 130.114C184.779 129.51 184.536 129.005 184.231 128.597C183.925 128.19 183.571 127.905 183.167 127.745C182.763 127.584 182.323 127.575 181.846 127.718C181.375 127.86 181.013 128.104 180.761 128.451C180.514 128.797 180.373 129.225 180.338 129.735C180.303 130.245 180.379 130.81 180.565 131.432ZM196.243 132.647C195.168 132.969 194.177 133.029 193.271 132.826C192.368 132.618 191.588 132.174 190.93 131.497C190.271 130.815 189.776 129.922 189.445 128.82C189.123 127.746 189.049 126.74 189.222 125.803C189.396 124.866 189.794 124.057 190.415 123.376C191.041 122.694 191.867 122.2 192.892 121.892C193.581 121.685 194.256 121.604 194.917 121.648C195.581 121.686 196.201 121.859 196.777 122.165C197.358 122.471 197.873 122.919 198.323 123.511C198.771 124.098 199.128 124.837 199.395 125.725L199.633 126.521L190.81 129.167L190.271 127.372L196.367 125.544C196.242 125.126 196.04 124.784 195.762 124.516C195.484 124.249 195.157 124.072 194.78 123.988C194.407 123.897 194.01 123.915 193.588 124.041C193.148 124.173 192.789 124.392 192.51 124.698C192.234 124.998 192.052 125.347 191.963 125.744C191.873 126.137 191.888 126.541 192.007 126.955L192.519 128.662C192.674 129.179 192.904 129.597 193.207 129.917C193.515 130.235 193.876 130.443 194.291 130.541C194.706 130.639 195.156 130.615 195.642 130.469C195.964 130.373 196.245 130.239 196.485 130.068C196.726 129.897 196.914 129.692 197.05 129.454C197.186 129.215 197.265 128.95 197.285 128.657L200.019 128.03C200.076 128.714 199.966 129.36 199.688 129.968C199.414 130.569 198.985 131.103 198.403 131.569C197.825 132.029 197.105 132.389 196.243 132.647ZM202.869 130.437L199.735 119.988L202.545 119.145L203.092 120.969L203.2 120.936C203.196 120.23 203.369 119.645 203.719 119.179C204.067 118.709 204.534 118.386 205.119 118.21C205.264 118.167 205.423 118.129 205.597 118.097C205.77 118.065 205.925 118.045 206.061 118.039L206.832 120.611C206.684 120.611 206.485 120.631 206.235 120.671C205.985 120.711 205.761 120.761 205.561 120.821C205.135 120.949 204.782 121.156 204.502 121.443C204.225 121.724 204.038 122.057 203.941 122.442C203.849 122.825 203.866 123.23 203.994 123.657L205.767 129.568L202.869 130.437ZM217.162 118.01L214.558 118.969C214.444 118.755 214.285 118.581 214.081 118.444C213.876 118.303 213.634 118.215 213.357 118.179C213.083 118.138 212.778 118.168 212.442 118.268C211.993 118.403 211.643 118.612 211.392 118.895C211.139 119.173 211.059 119.469 211.153 119.782C211.228 120.031 211.391 120.212 211.642 120.325C211.894 120.437 212.278 120.473 212.794 120.432L214.8 120.245C215.878 120.149 216.736 120.258 217.374 120.571C218.011 120.884 218.443 121.417 218.669 122.17C218.874 122.855 218.853 123.516 218.604 124.154C218.36 124.791 217.932 125.359 217.321 125.859C216.713 126.353 215.955 126.735 215.048 127.007C213.665 127.422 212.476 127.465 211.483 127.135C210.492 126.799 209.777 126.154 209.337 125.198L212.143 124.194C212.355 124.589 212.661 124.849 213.058 124.972C213.455 125.09 213.911 125.072 214.428 124.917C214.936 124.765 215.315 124.545 215.565 124.257C215.818 123.964 215.9 123.66 215.811 123.346C215.727 123.084 215.552 122.902 215.284 122.799C215.014 122.692 214.639 122.661 214.159 122.707L212.241 122.889C211.159 122.991 210.293 122.865 209.644 122.511C208.998 122.156 208.559 121.588 208.325 120.808C208.123 120.137 208.131 119.504 208.349 118.91C208.57 118.315 208.973 117.786 209.556 117.325C210.144 116.862 210.885 116.496 211.778 116.228C213.098 115.832 214.22 115.8 215.145 116.131C216.074 116.46 216.746 117.086 217.162 118.01ZM226.288 123.637C225.213 123.959 224.223 124.019 223.317 123.816C222.414 123.607 221.633 123.164 220.975 122.486C220.316 121.804 219.821 120.912 219.49 119.81C219.168 118.735 219.094 117.729 219.268 116.792C219.441 115.855 219.839 115.047 220.46 114.366C221.086 113.684 221.912 113.189 222.937 112.882C223.626 112.675 224.301 112.594 224.962 112.638C225.626 112.676 226.246 112.848 226.822 113.155C227.403 113.46 227.918 113.909 228.368 114.501C228.816 115.088 229.173 115.826 229.44 116.715L229.678 117.511L220.855 120.157L220.316 118.361L226.412 116.533C226.287 116.116 226.085 115.774 225.807 115.506C225.529 115.238 225.202 115.062 224.826 114.977C224.452 114.887 224.055 114.904 223.633 115.031C223.193 115.163 222.834 115.382 222.555 115.688C222.279 115.988 222.097 116.337 222.008 116.734C221.919 117.127 221.933 117.53 222.053 117.944L222.565 119.652C222.72 120.169 222.949 120.587 223.252 120.906C223.56 121.224 223.922 121.432 224.337 121.53C224.752 121.628 225.202 121.605 225.687 121.459C226.009 121.362 226.29 121.229 226.53 121.058C226.771 120.887 226.959 120.682 227.095 120.443C227.231 120.205 227.31 119.939 227.331 119.646L230.064 119.019C230.121 119.704 230.011 120.35 229.733 120.957C229.459 121.559 229.031 122.092 228.449 122.559C227.87 123.019 227.15 123.378 226.288 123.637ZM237.697 120.215C236.626 120.536 235.638 120.586 234.731 120.363C233.827 120.135 233.047 119.677 232.391 118.989C231.739 118.299 231.255 117.426 230.938 116.37C230.617 115.299 230.542 114.299 230.712 113.368C230.886 112.431 231.288 111.621 231.919 110.937C232.548 110.249 233.391 109.747 234.447 109.43C235.359 109.156 236.207 109.083 236.991 109.208C237.775 109.334 238.456 109.636 239.035 110.115C239.614 110.594 240.044 111.231 240.327 112.026L237.593 112.847C237.359 112.348 237.029 111.99 236.603 111.772C236.18 111.548 235.703 111.515 235.172 111.674C234.723 111.809 234.368 112.049 234.106 112.394C233.847 112.734 233.693 113.163 233.646 113.682C233.599 114.2 233.674 114.788 233.871 115.445C234.071 116.112 234.332 116.652 234.653 117.065C234.979 117.476 235.347 117.754 235.756 117.898C236.165 118.042 236.594 118.047 237.043 117.912C237.374 117.813 237.651 117.656 237.873 117.441C238.1 117.225 238.261 116.962 238.355 116.651C238.453 116.335 238.475 115.985 238.419 115.602L241.154 114.782C241.348 115.593 241.341 116.362 241.133 117.086C240.928 117.805 240.537 118.437 239.959 118.981C239.38 119.525 238.626 119.936 237.697 120.215ZM249.524 111.597L247.725 105.596L250.623 104.727L253.757 115.177L250.974 116.011L250.405 114.113L250.296 114.146C250.244 114.829 249.999 115.438 249.562 115.975C249.129 116.51 248.521 116.895 247.736 117.13C247.038 117.34 246.375 117.365 245.75 117.207C245.124 117.049 244.573 116.722 244.099 116.227C243.628 115.73 243.269 115.074 243.019 114.259L241.024 107.606L243.922 106.737L245.762 112.873C245.952 113.488 246.264 113.926 246.698 114.187C247.132 114.447 247.623 114.495 248.172 114.33C248.521 114.226 248.824 114.048 249.08 113.799C249.335 113.544 249.508 113.23 249.598 112.857C249.694 112.482 249.669 112.062 249.524 111.597ZM256.075 114.481L252.941 104.032L255.751 103.189L256.297 105.013L256.406 104.98C256.402 104.274 256.575 103.689 256.925 103.223C257.273 102.753 257.74 102.43 258.325 102.254C258.47 102.211 258.629 102.173 258.803 102.141C258.976 102.109 259.131 102.089 259.267 102.083L260.038 104.654C259.89 104.654 259.691 104.675 259.441 104.715C259.191 104.755 258.966 104.805 258.767 104.865C258.341 104.993 257.987 105.2 257.708 105.487C257.431 105.768 257.244 106.1 257.147 106.486C257.054 106.869 257.072 107.274 257.2 107.7L258.973 113.612L256.075 114.481ZM263.913 112.131L260.78 101.681L263.678 100.812L266.812 111.261L263.913 112.131ZM261.832 99.8977C261.401 100.027 260.988 99.9949 260.594 99.8016C260.203 99.6025 259.947 99.3011 259.826 98.8975C259.707 98.4984 259.756 98.1104 259.974 97.7335C260.195 97.3508 260.522 97.0948 260.952 96.9656C261.383 96.8364 261.794 96.8714 262.185 97.0705C262.579 97.2637 262.836 97.5599 262.956 97.959C263.077 98.3627 263.027 98.7558 262.805 99.1386C262.587 99.5154 262.263 99.7685 261.832 99.8977ZM271.557 98.4491L272.21 100.626L265.917 102.513L265.265 100.336L271.557 98.4491ZM265.942 97.4044L268.841 96.5353L271.762 106.277C271.842 106.545 271.946 106.741 272.072 106.866C272.197 106.987 272.341 107.055 272.504 107.07C272.671 107.084 272.853 107.062 273.048 107.004C273.184 106.963 273.316 106.911 273.446 106.847C273.574 106.779 273.672 106.728 273.74 106.692L274.843 108.712C274.711 108.801 274.523 108.914 274.277 109.052C274.033 109.195 273.725 109.329 273.353 109.455C272.663 109.692 272.022 109.783 271.432 109.727C270.847 109.671 270.342 109.461 269.917 109.099C269.492 108.737 269.179 108.213 268.978 107.527L265.942 97.4044ZM279.543 111.714C279.176 111.824 278.822 111.898 278.483 111.936C278.149 111.977 277.865 111.985 277.63 111.962L277.634 109.603C278.006 109.605 278.329 109.57 278.604 109.497C278.883 109.423 279.102 109.288 279.261 109.092C279.424 108.895 279.521 108.614 279.55 108.25L279.587 107.756L272.615 98.1319L275.663 97.2179L280.128 104.243L280.236 104.21L280.119 95.8816L283.187 94.9615L282.598 107.758C282.572 108.379 282.453 108.948 282.243 109.466C282.038 109.987 281.716 110.437 281.276 110.816C280.837 111.2 280.26 111.499 279.543 111.714Z" fill="#CCC3C3"/>
</g>
<g filter="url(#filter1_d_1312_233)">
<rect x="398.812" y="176.59" width="220.11" height="52.0926" rx="26.0463" transform="rotate(11.8499 398.812 176.59)" fill="url(#paint1_linear_1312_233)"/>
<path d="M447.031 209.905L443.989 209.258C444.017 208.852 443.978 208.478 443.872 208.136C443.766 207.79 443.602 207.479 443.38 207.204C443.158 206.929 442.883 206.696 442.556 206.506C442.233 206.316 441.868 206.178 441.46 206.091C440.724 205.934 440.044 205.981 439.419 206.23C438.796 206.475 438.26 206.913 437.811 207.544C437.363 208.17 437.034 208.976 436.824 209.962C436.608 210.976 436.578 211.861 436.732 212.615C436.891 213.37 437.206 213.981 437.677 214.45C438.149 214.918 438.744 215.228 439.461 215.381C439.864 215.467 440.249 215.493 440.614 215.459C440.984 215.427 441.325 215.337 441.637 215.191C441.95 215.039 442.226 214.834 442.465 214.575C442.709 214.317 442.906 214.006 443.056 213.641L446.096 214.302C445.878 214.939 445.547 215.527 445.103 216.066C444.665 216.602 444.131 217.053 443.501 217.417C442.877 217.778 442.172 218.02 441.386 218.143C440.605 218.263 439.759 218.226 438.847 218.031C437.578 217.761 436.504 217.233 435.626 216.446C434.753 215.659 434.142 214.661 433.795 213.449C433.452 212.239 433.446 210.86 433.775 209.313C434.105 207.762 434.678 206.504 435.493 205.54C436.308 204.576 437.276 203.915 438.398 203.558C439.52 203.197 440.707 203.15 441.957 203.416C442.782 203.591 443.521 203.869 444.176 204.251C444.835 204.633 445.391 205.105 445.842 205.666C446.295 206.222 446.625 206.856 446.832 207.568C447.043 208.281 447.11 209.06 447.031 209.905ZM448.274 224.017C447.899 223.937 447.553 223.832 447.237 223.702C446.925 223.577 446.672 223.449 446.477 223.315L447.614 221.248C447.939 221.429 448.239 221.553 448.515 221.621C448.796 221.691 449.053 221.678 449.286 221.582C449.524 221.487 449.743 221.287 449.944 220.981L450.214 220.567L448.722 208.776L451.834 209.439L452.376 217.745L452.487 217.768L456.384 210.407L459.517 211.074L452.854 222.015C452.532 222.546 452.155 222.989 451.722 223.342C451.292 223.701 450.793 223.941 450.225 224.062C449.656 224.188 449.006 224.173 448.274 224.017ZM458.816 222.078L461.844 207.851L464.803 208.481L463.665 213.83L463.755 213.849C463.946 213.59 464.196 213.338 464.504 213.094C464.818 212.846 465.196 212.665 465.637 212.551C466.083 212.433 466.605 212.437 467.202 212.564C467.98 212.73 468.655 213.086 469.225 213.634C469.797 214.177 470.193 214.898 470.413 215.796C470.635 216.691 470.615 217.749 470.355 218.972C470.102 220.162 469.696 221.126 469.137 221.864C468.584 222.598 467.933 223.106 467.186 223.387C466.444 223.665 465.668 223.718 464.858 223.545C464.283 223.423 463.815 223.224 463.453 222.949C463.095 222.674 462.819 222.366 462.625 222.025C462.433 221.679 462.301 221.343 462.23 221.018L462.098 220.99L461.734 222.699L458.816 222.078ZM462.849 217.36C462.713 217.994 462.684 218.566 462.759 219.076C462.835 219.586 463.011 220.008 463.288 220.343C463.566 220.674 463.944 220.889 464.421 220.991C464.903 221.093 465.338 221.048 465.728 220.855C466.119 220.658 466.45 220.341 466.722 219.905C466.999 219.465 467.204 218.935 467.336 218.315C467.467 217.699 467.497 217.139 467.425 216.634C467.353 216.13 467.179 215.711 466.901 215.376C466.624 215.041 466.242 214.822 465.756 214.718C465.274 214.616 464.84 214.656 464.452 214.84C464.069 215.025 463.74 215.332 463.464 215.762C463.189 216.193 462.984 216.725 462.849 217.36ZM476.015 225.956C474.918 225.723 474.02 225.299 473.323 224.686C472.631 224.07 472.16 223.306 471.908 222.396C471.658 221.481 471.652 220.46 471.891 219.335C472.125 218.237 472.543 217.319 473.146 216.581C473.748 215.843 474.485 215.324 475.357 215.026C476.234 214.728 477.195 214.691 478.242 214.914C478.946 215.064 479.577 215.317 480.136 215.673C480.7 216.025 481.161 216.474 481.519 217.02C481.882 217.567 482.118 218.208 482.228 218.943C482.339 219.673 482.298 220.492 482.104 221.4L481.931 222.212L472.922 220.295L473.312 218.461L479.536 219.786C479.627 219.36 479.615 218.962 479.499 218.594C479.384 218.226 479.182 217.914 478.892 217.659C478.608 217.4 478.251 217.225 477.821 217.133C477.371 217.038 476.951 217.057 476.559 217.192C476.173 217.322 475.846 217.541 475.577 217.847C475.31 218.148 475.129 218.509 475.035 218.929L474.664 220.673C474.551 221.201 474.552 221.678 474.664 222.104C474.782 222.53 474.999 222.886 475.316 223.172C475.632 223.457 476.039 223.652 476.534 223.758C476.863 223.828 477.174 223.845 477.467 223.811C477.76 223.776 478.023 223.687 478.257 223.543C478.491 223.4 478.688 223.204 478.847 222.957L481.545 223.72C481.266 224.348 480.859 224.862 480.324 225.261C479.795 225.657 479.163 225.919 478.428 226.049C477.7 226.174 476.895 226.144 476.015 225.956ZM482.888 227.201L485.159 216.531L488.028 217.142L487.632 219.003L487.743 219.027C488.079 218.406 488.512 217.976 489.042 217.735C489.573 217.49 490.138 217.431 490.735 217.558C490.883 217.59 491.041 217.633 491.209 217.688C491.376 217.743 491.521 217.8 491.644 217.86L491.085 220.486C490.955 220.415 490.771 220.337 490.532 220.252C490.294 220.168 490.072 220.104 489.869 220.06C489.433 219.968 489.024 219.98 488.641 220.097C488.263 220.21 487.94 220.412 487.67 220.703C487.404 220.995 487.225 221.359 487.132 221.794L485.848 227.831L482.888 227.201ZM501.394 223.167L498.649 222.757C498.652 222.515 498.597 222.286 498.484 222.068C498.371 221.846 498.202 221.652 497.975 221.488C497.754 221.32 497.473 221.199 497.13 221.127C496.671 221.029 496.264 221.044 495.908 221.171C495.552 221.294 495.341 221.515 495.273 221.835C495.219 222.09 495.275 222.327 495.441 222.546C495.607 222.765 495.927 222.981 496.4 223.193L498.248 223.993C499.24 224.427 499.941 224.934 500.349 225.515C500.758 226.096 500.881 226.771 500.717 227.539C500.569 228.239 500.232 228.808 499.707 229.249C499.187 229.69 498.539 229.983 497.763 230.127C496.992 230.268 496.144 230.24 495.218 230.043C493.805 229.743 492.743 229.209 492.029 228.442C491.322 227.672 491.005 226.762 491.078 225.713L494.021 226.18C494.018 226.629 494.161 227.003 494.451 227.302C494.741 227.596 495.151 227.8 495.679 227.912C496.197 228.022 496.635 228.011 496.993 227.879C497.356 227.744 497.573 227.516 497.646 227.198C497.698 226.928 497.632 226.684 497.446 226.466C497.261 226.242 496.947 226.035 496.504 225.844L494.734 225.082C493.737 224.652 493.038 224.126 492.638 223.503C492.242 222.882 492.129 222.173 492.299 221.376C492.445 220.691 492.756 220.14 493.232 219.723C493.712 219.308 494.319 219.037 495.052 218.913C495.79 218.789 496.616 218.824 497.528 219.018C498.875 219.305 499.875 219.816 500.528 220.55C501.184 221.285 501.473 222.157 501.394 223.167ZM506.695 232.486C505.598 232.252 504.7 231.829 504.003 231.216C503.311 230.599 502.84 229.835 502.588 228.925C502.338 228.01 502.332 226.99 502.572 225.864C502.805 224.767 503.223 223.849 503.826 223.111C504.428 222.372 505.165 221.854 506.037 221.555C506.914 221.258 507.876 221.221 508.922 221.443C509.626 221.593 510.257 221.846 510.816 222.202C511.38 222.554 511.841 223.004 512.199 223.549C512.562 224.096 512.798 224.737 512.908 225.472C513.019 226.202 512.978 227.021 512.784 227.929L512.612 228.742L503.602 226.824L503.992 224.99L510.216 226.315C510.307 225.889 510.295 225.492 510.179 225.124C510.064 224.755 509.862 224.444 509.572 224.188C509.289 223.93 508.931 223.754 508.501 223.663C508.051 223.567 507.631 223.586 507.239 223.721C506.853 223.852 506.526 224.07 506.258 224.376C505.99 224.677 505.809 225.038 505.715 225.459L505.344 227.202C505.231 227.73 505.232 228.207 505.344 228.633C505.462 229.06 505.679 229.416 505.996 229.701C506.312 229.986 506.719 230.182 507.214 230.287C507.543 230.357 507.854 230.375 508.147 230.34C508.44 230.306 508.703 230.217 508.937 230.073C509.171 229.929 509.368 229.734 509.527 229.487L512.225 230.25C511.946 230.878 511.539 231.392 511.004 231.791C510.475 232.186 509.843 232.449 509.108 232.578C508.38 232.704 507.575 232.673 506.695 232.486ZM518.345 234.965C517.252 234.733 516.361 234.301 515.673 233.67C514.989 233.036 514.525 232.259 514.28 231.341C514.04 230.423 514.035 229.425 514.264 228.346C514.497 227.253 514.912 226.339 515.508 225.604C516.111 224.866 516.853 224.349 517.734 224.052C518.616 223.751 519.597 223.715 520.676 223.945C521.607 224.143 522.386 224.485 523.013 224.972C523.641 225.459 524.093 226.052 524.37 226.75C524.648 227.448 524.72 228.213 524.586 229.047L521.793 228.452C521.828 227.903 521.711 227.43 521.442 227.034C521.178 226.634 520.776 226.377 520.234 226.261C519.775 226.164 519.348 226.204 518.952 226.381C518.562 226.554 518.221 226.857 517.931 227.289C517.641 227.721 517.424 228.273 517.281 228.944C517.136 229.625 517.106 230.224 517.189 230.74C517.278 231.257 517.467 231.678 517.756 232.001C518.046 232.324 518.42 232.534 518.878 232.632C519.216 232.703 519.534 232.699 519.832 232.617C520.135 232.536 520.403 232.382 520.635 232.156C520.873 231.926 521.059 231.629 521.195 231.266L523.987 231.86C523.767 232.665 523.392 233.336 522.862 233.872C522.337 234.404 521.691 234.77 520.922 234.969C520.153 235.168 519.294 235.167 518.345 234.965ZM532.859 233.087L534.163 226.96L537.122 227.59L534.851 238.26L532.01 237.656L532.423 235.717L532.311 235.694C531.938 236.268 531.43 236.685 530.789 236.945C530.152 237.207 529.433 237.252 528.632 237.082C527.919 236.93 527.326 236.634 526.853 236.195C526.38 235.756 526.055 235.205 525.876 234.542C525.702 233.881 525.702 233.133 525.875 232.298L527.32 225.504L530.28 226.134L528.946 232.4C528.817 233.031 528.88 233.564 529.135 234.001C529.391 234.438 529.799 234.716 530.359 234.835C530.716 234.911 531.067 234.901 531.411 234.805C531.757 234.704 532.059 234.512 532.318 234.228C532.582 233.946 532.762 233.565 532.859 233.087ZM537.218 238.764L539.489 228.094L542.358 228.705L541.962 230.566L542.073 230.59C542.409 229.969 542.842 229.538 543.372 229.298C543.903 229.053 544.468 228.994 545.065 229.121C545.213 229.152 545.371 229.196 545.539 229.251C545.706 229.306 545.851 229.363 545.974 229.423L545.415 232.049C545.285 231.978 545.101 231.9 544.862 231.815C544.624 231.731 544.402 231.667 544.199 231.623C543.763 231.53 543.354 231.543 542.971 231.66C542.594 231.773 542.27 231.975 542 232.266C541.734 232.558 541.555 232.922 541.462 233.357L540.178 239.394L537.218 238.764ZM545.223 240.468L547.494 229.797L550.453 230.427L548.182 241.097L545.223 240.468ZM549.273 228.738C548.833 228.645 548.487 228.419 548.234 228.06C547.987 227.697 547.907 227.31 547.995 226.898C548.081 226.49 548.311 226.174 548.683 225.948C549.061 225.719 549.47 225.651 549.91 225.744C550.35 225.838 550.694 226.066 550.941 226.428C551.194 226.787 551.277 227.17 551.19 227.578C551.102 227.99 550.869 228.311 550.491 228.54C550.119 228.766 549.713 228.832 549.273 228.738ZM558.499 232.14L558.026 234.363L551.6 232.995L552.073 230.772L558.499 232.14ZM554.076 228.526L557.035 229.156L554.918 239.104C554.86 239.377 554.856 239.599 554.907 239.769C554.959 239.935 555.053 240.064 555.188 240.156C555.328 240.249 555.498 240.316 555.697 240.359C555.836 240.388 555.977 240.406 556.121 240.413C556.266 240.414 556.377 240.416 556.454 240.418L556.451 242.719C556.293 242.734 556.073 242.743 555.791 242.746C555.509 242.754 555.174 242.723 554.787 242.655C554.068 242.531 553.463 242.304 552.972 241.972C552.486 241.641 552.143 241.214 551.944 240.693C551.745 240.171 551.723 239.561 551.876 238.863L554.076 228.526ZM559.131 247.61C558.756 247.53 558.41 247.425 558.094 247.295C557.782 247.171 557.529 247.042 557.335 246.908L558.472 244.841C558.796 245.022 559.096 245.146 559.372 245.214C559.653 245.284 559.91 245.271 560.143 245.175C560.381 245.081 560.6 244.88 560.801 244.574L561.071 244.16L559.579 232.37L562.691 233.032L563.233 241.338L563.344 241.362L567.241 234L570.374 234.667L563.711 245.608C563.389 246.14 563.012 246.582 562.579 246.935C562.149 247.294 561.65 247.534 561.082 247.655C560.513 247.781 559.863 247.766 559.131 247.61Z" fill="#CCC3C3"/>
</g>
<g filter="url(#filter2_d_1312_233)">
<rect x="230.977" y="138.602" width="220.11" height="52.0926" rx="26.0463" transform="rotate(-3.11557 230.977 138.602)" fill="url(#paint2_linear_1312_233)" fill-opacity="0.933333"/>
<path d="M286.164 158.334L283.057 158.494C282.979 158.095 282.845 157.744 282.654 157.441C282.463 157.133 282.224 156.875 281.939 156.667C281.653 156.459 281.327 156.305 280.962 156.205C280.601 156.105 280.213 156.066 279.797 156.088C279.045 156.126 278.399 156.347 277.861 156.749C277.322 157.147 276.917 157.708 276.646 158.433C276.375 159.154 276.266 160.018 276.317 161.025C276.371 162.06 276.569 162.922 276.913 163.611C277.261 164.3 277.724 164.809 278.3 165.14C278.877 165.47 279.532 165.617 280.264 165.579C280.676 165.558 281.054 165.484 281.398 165.357C281.747 165.23 282.053 165.055 282.317 164.833C282.58 164.606 282.794 164.337 282.958 164.025C283.127 163.713 283.237 163.361 283.288 162.97L286.395 162.824C286.349 163.495 286.181 164.148 285.892 164.784C285.606 165.415 285.207 165.988 284.693 166.503C284.183 167.013 283.565 167.429 282.837 167.751C282.114 168.068 281.286 168.25 280.355 168.298C279.059 168.365 277.886 168.131 276.834 167.598C275.787 167.064 274.94 166.256 274.291 165.176C273.648 164.095 273.285 162.765 273.204 161.185C273.122 159.601 273.35 158.238 273.889 157.096C274.427 155.954 275.192 155.066 276.184 154.432C277.175 153.793 278.309 153.441 279.586 153.375C280.427 153.331 281.214 153.409 281.945 153.609C282.68 153.808 283.339 154.12 283.92 154.545C284.501 154.966 284.984 155.493 285.367 156.128C285.755 156.762 286.021 157.497 286.164 158.334ZM291.008 171.646C290.625 171.666 290.264 171.654 289.925 171.61C289.592 171.57 289.313 171.511 289.091 171.432L289.656 169.141C290.016 169.232 290.338 169.275 290.623 169.269C290.912 169.264 291.156 169.185 291.357 169.032C291.563 168.88 291.723 168.63 291.838 168.282L291.991 167.812L287.505 156.807L290.683 156.643L293.351 164.527L293.464 164.522L295.329 156.404L298.528 156.239L294.916 168.529C294.742 169.126 294.492 169.651 294.165 170.104C293.842 170.561 293.422 170.922 292.905 171.186C292.388 171.454 291.755 171.608 291.008 171.646ZM300.692 167.051L299.943 152.524L302.965 152.369L303.247 157.83L303.339 157.825C303.456 157.525 303.632 157.218 303.867 156.902C304.107 156.582 304.425 156.309 304.821 156.085C305.221 155.856 305.727 155.725 306.337 155.694C307.131 155.653 307.875 155.823 308.568 156.205C309.26 156.581 309.829 157.176 310.274 157.987C310.718 158.794 310.973 159.821 311.037 161.07C311.1 162.285 310.957 163.321 310.607 164.178C310.262 165.031 309.765 165.689 309.116 166.154C308.471 166.614 307.735 166.865 306.908 166.908C306.321 166.938 305.817 166.867 305.396 166.694C304.979 166.521 304.633 166.295 304.358 166.015C304.083 165.731 303.869 165.441 303.716 165.145L303.581 165.152L303.671 166.897L300.692 167.051ZM303.369 161.451C303.403 162.099 303.522 162.659 303.726 163.132C303.931 163.605 304.21 163.968 304.564 164.22C304.919 164.467 305.339 164.578 305.826 164.553C306.318 164.528 306.727 164.371 307.054 164.084C307.38 163.792 307.618 163.401 307.768 162.91C307.923 162.413 307.984 161.848 307.951 161.215C307.919 160.586 307.803 160.037 307.603 159.568C307.404 159.1 307.127 158.74 306.772 158.488C306.418 158.236 305.993 158.122 305.496 158.148C305.004 158.173 304.595 158.325 304.268 158.603C303.945 158.88 303.707 159.262 303.552 159.749C303.397 160.236 303.336 160.803 303.369 161.451ZM318.309 166.356C317.189 166.414 316.212 166.236 315.38 165.824C314.553 165.407 313.9 164.791 313.422 163.976C312.944 163.157 312.675 162.173 312.616 161.024C312.558 159.903 312.725 158.909 313.116 158.04C313.507 157.171 314.086 156.48 314.851 155.966C315.621 155.452 316.54 155.168 317.609 155.113C318.328 155.076 319.003 155.157 319.634 155.357C320.27 155.552 320.832 155.867 321.319 156.301C321.81 156.736 322.204 157.294 322.5 157.976C322.796 158.653 322.967 159.454 323.015 160.381L323.058 161.211L313.859 161.685L313.762 159.813L320.117 159.485C320.095 159.05 319.98 158.67 319.774 158.344C319.568 158.018 319.292 157.769 318.946 157.597C318.605 157.42 318.215 157.343 317.775 157.366C317.316 157.389 316.915 157.517 316.571 157.748C316.232 157.974 315.972 158.269 315.792 158.634C315.612 158.994 315.53 159.39 315.547 159.82L315.639 161.601C315.667 162.14 315.79 162.6 316.009 162.983C316.233 163.365 316.534 163.652 316.914 163.846C317.294 164.04 317.737 164.124 318.243 164.098C318.579 164.081 318.884 164.017 319.158 163.908C319.432 163.799 319.663 163.645 319.852 163.446C320.041 163.247 320.18 163.007 320.27 162.727L323.074 162.768C322.967 163.447 322.706 164.048 322.293 164.572C321.883 165.091 321.34 165.507 320.664 165.822C319.993 166.132 319.208 166.31 318.309 166.356ZM325.271 165.784L324.709 154.889L327.639 154.738L327.737 156.639L327.85 156.633C328.014 155.947 328.321 155.419 328.771 155.05C329.221 154.675 329.751 154.473 330.361 154.441C330.513 154.433 330.676 154.435 330.852 154.444C331.028 154.454 331.183 154.472 331.317 154.499L331.455 157.18C331.311 157.145 331.113 157.117 330.861 157.097C330.609 157.076 330.378 157.072 330.17 157.082C329.726 157.105 329.334 157.223 328.994 157.435C328.658 157.642 328.398 157.921 328.212 158.272C328.031 158.622 327.952 159.02 327.975 159.464L328.292 165.628L325.271 165.784ZM342.107 157.107L339.349 157.42C339.29 157.186 339.177 156.979 339.011 156.797C338.845 156.612 338.632 156.469 338.371 156.368C338.114 156.263 337.811 156.219 337.461 156.237C336.993 156.261 336.603 156.381 336.291 156.596C335.98 156.807 335.833 157.075 335.849 157.401C335.863 157.661 335.978 157.876 336.195 158.045C336.413 158.214 336.777 158.34 337.289 158.422L339.281 158.718C340.352 158.881 341.159 159.19 341.704 159.646C342.249 160.101 342.542 160.721 342.582 161.506C342.619 162.22 342.441 162.858 342.048 163.418C341.66 163.979 341.109 164.429 340.397 164.769C339.689 165.105 338.862 165.297 337.916 165.345C336.474 165.42 335.309 165.179 334.422 164.622C333.54 164.061 332.999 163.264 332.799 162.231L335.762 161.922C335.875 162.357 336.11 162.681 336.467 162.895C336.824 163.104 337.272 163.195 337.811 163.167C338.34 163.14 338.761 163.016 339.072 162.797C339.387 162.572 339.539 162.296 339.527 161.969C339.508 161.695 339.381 161.477 339.145 161.314C338.908 161.146 338.551 161.027 338.074 160.956L336.168 160.678C335.093 160.52 334.282 160.192 333.734 159.694C333.192 159.195 332.9 158.54 332.858 157.726C332.822 157.026 332.98 156.414 333.332 155.888C333.689 155.363 334.206 154.945 334.882 154.635C335.563 154.325 336.369 154.146 337.301 154.098C338.677 154.027 339.774 154.262 340.594 154.803C341.418 155.343 341.923 156.112 342.107 157.107ZM349.635 164.741C348.514 164.799 347.538 164.622 346.706 164.209C345.879 163.792 345.226 163.176 344.748 162.362C344.269 161.543 344 160.558 343.941 159.409C343.883 158.289 344.05 157.294 344.442 156.425C344.833 155.556 345.411 154.865 346.177 154.351C346.947 153.838 347.866 153.553 348.935 153.498C349.653 153.461 350.328 153.542 350.96 153.742C351.596 153.937 352.157 154.252 352.644 154.687C353.136 155.121 353.53 155.679 353.826 156.361C354.121 157.038 354.293 157.84 354.341 158.767L354.384 159.596L345.184 160.071L345.088 158.198L351.443 157.871C351.42 157.436 351.306 157.055 351.1 156.729C350.893 156.403 350.617 156.154 350.272 155.982C349.931 155.805 349.54 155.728 349.101 155.751C348.642 155.775 348.241 155.902 347.897 156.133C347.558 156.359 347.298 156.655 347.118 157.02C346.937 157.38 346.856 157.775 346.873 158.206L346.965 159.986C346.993 160.525 347.116 160.986 347.335 161.368C347.558 161.75 347.86 162.038 348.24 162.232C348.62 162.425 349.062 162.509 349.568 162.483C349.904 162.466 350.209 162.403 350.483 162.294C350.757 162.185 350.989 162.031 351.178 161.831C351.367 161.632 351.506 161.392 351.596 161.113L354.4 161.153C354.293 161.832 354.032 162.433 353.618 162.957C353.209 163.476 352.666 163.893 351.99 164.207C351.318 164.517 350.533 164.695 349.635 164.741ZM361.53 164.128C360.414 164.186 359.442 163.999 358.614 163.567C357.79 163.131 357.141 162.5 356.667 161.676C356.198 160.852 355.935 159.889 355.878 158.787C355.821 157.671 355.985 156.681 356.372 155.817C356.764 154.948 357.347 154.257 358.121 153.743C358.896 153.224 359.834 152.936 360.936 152.88C361.886 152.831 362.727 152.96 363.459 153.269C364.191 153.577 364.781 154.033 365.229 154.635C365.678 155.238 365.945 155.959 366.031 156.799L363.179 156.946C363.071 156.406 362.836 155.979 362.473 155.666C362.116 155.348 361.66 155.203 361.107 155.232C360.639 155.256 360.236 155.405 359.899 155.678C359.567 155.946 359.317 156.327 359.148 156.819C358.979 157.311 358.912 157.9 358.947 158.586C358.983 159.281 359.108 159.867 359.322 160.345C359.541 160.822 359.832 161.179 360.195 161.416C360.558 161.653 360.974 161.76 361.442 161.736C361.787 161.718 362.093 161.631 362.36 161.475C362.632 161.319 362.851 161.101 363.016 160.823C363.187 160.539 363.29 160.204 363.327 159.818L366.179 159.671C366.174 160.506 365.985 161.25 365.611 161.905C365.242 162.555 364.711 163.075 364.02 163.466C363.329 163.857 362.499 164.078 361.53 164.128ZM375.066 158.566L374.744 152.31L377.766 152.154L378.327 163.049L375.426 163.198L375.324 161.219L375.211 161.225C374.998 161.876 374.615 162.411 374.063 162.828C373.515 163.245 372.833 163.474 372.015 163.516C371.286 163.554 370.637 163.422 370.067 163.119C369.497 162.817 369.04 162.368 368.696 161.774C368.357 161.18 368.164 160.458 368.115 159.607L367.758 152.67L370.779 152.514L371.109 158.912C371.147 159.555 371.346 160.054 371.705 160.41C372.065 160.766 372.531 160.93 373.103 160.9C373.467 160.881 373.803 160.781 374.112 160.599C374.42 160.413 374.662 160.149 374.839 159.808C375.02 159.467 375.096 159.053 375.066 158.566ZM380.744 162.924L380.182 152.03L383.112 151.879L383.21 153.78L383.323 153.774C383.487 153.087 383.794 152.559 384.244 152.19C384.694 151.816 385.225 151.613 385.834 151.582C385.986 151.574 386.149 151.575 386.325 151.585C386.501 151.595 386.656 151.613 386.79 151.639L386.929 154.32C386.785 154.285 386.586 154.257 386.334 154.237C386.082 154.217 385.852 154.212 385.643 154.223C385.199 154.246 384.807 154.363 384.467 154.575C384.131 154.782 383.871 155.061 383.685 155.412C383.504 155.763 383.425 156.16 383.448 156.605L383.766 162.769L380.744 162.924ZM388.917 162.503L388.355 151.608L391.377 151.453L391.938 162.347L388.917 162.503ZM389.801 150.126C389.351 150.149 388.958 150.02 388.621 149.738C388.289 149.452 388.112 149.099 388.09 148.678C388.069 148.262 388.209 147.896 388.51 147.582C388.816 147.263 389.194 147.092 389.643 147.069C390.092 147.046 390.483 147.177 390.816 147.463C391.152 147.745 391.332 148.093 391.353 148.51C391.375 148.93 391.233 149.3 390.927 149.62C390.625 149.934 390.25 150.103 389.801 150.126ZM399.592 151.029L399.709 153.299L393.148 153.637L393.031 151.367L399.592 151.029ZM394.386 148.68L397.408 148.525L397.931 158.682C397.946 158.961 397.999 159.176 398.093 159.328C398.185 159.475 398.309 159.575 398.464 159.628C398.623 159.682 398.804 159.703 399.007 159.693C399.149 159.686 399.291 159.666 399.431 159.635C399.572 159.6 399.679 159.573 399.754 159.555L400.345 161.779C400.196 161.834 399.986 161.899 399.715 161.975C399.444 162.055 399.113 162.113 398.721 162.147C397.995 162.213 397.351 162.149 396.791 161.955C396.236 161.761 395.795 161.437 395.468 160.985C395.142 160.532 394.962 159.949 394.93 159.235L394.386 148.68ZM404.198 165.812C403.815 165.831 403.454 165.819 403.115 165.775C402.781 165.735 402.503 165.676 402.281 165.598L402.846 163.307C403.206 163.397 403.528 163.44 403.812 163.435C404.101 163.429 404.346 163.35 404.547 163.198C404.752 163.045 404.912 162.795 405.027 162.448L405.181 161.978L400.695 150.972L403.873 150.809L406.541 158.693L406.654 158.687L408.518 150.569L411.717 150.404L408.105 162.694C407.932 163.291 407.682 163.816 407.354 164.269C407.032 164.727 406.612 165.087 406.094 165.351C405.577 165.62 404.945 165.773 404.198 165.812Z" fill="#CCC3C3"/>
</g>
<g filter="url(#filter3_d_1312_233)">
<rect x="224.943" y="181.535" width="220.11" height="52.0926" rx="26.0463" transform="rotate(15.5613 224.943 181.535)" fill="url(#paint3_linear_1312_233)"/>
<path d="M270.905 217.899L267.91 217.056C267.965 216.653 267.95 216.278 267.866 215.93C267.783 215.577 267.64 215.256 267.436 214.967C267.232 214.679 266.973 214.429 266.658 214.217C266.349 214.007 265.993 213.845 265.592 213.732C264.868 213.528 264.186 213.531 263.546 213.739C262.909 213.943 262.345 214.346 261.857 214.946C261.369 215.541 260.989 216.325 260.715 217.295C260.434 218.294 260.346 219.174 260.451 219.936C260.561 220.7 260.836 221.331 261.276 221.829C261.716 222.327 262.29 222.675 262.996 222.874C263.393 222.985 263.774 223.036 264.141 223.026C264.512 223.018 264.858 222.951 265.179 222.824C265.501 222.694 265.79 222.507 266.045 222.264C266.305 222.022 266.522 221.724 266.696 221.37L269.686 222.227C269.428 222.848 269.059 223.413 268.581 223.923C268.109 224.429 267.547 224.844 266.895 225.167C266.25 225.487 265.53 225.683 264.738 225.755C263.951 225.824 263.109 225.731 262.211 225.479C260.962 225.127 259.925 224.53 259.1 223.688C258.279 222.847 257.735 221.81 257.467 220.579C257.203 219.349 257.285 217.973 257.714 216.45C258.144 214.924 258.797 213.705 259.673 212.796C260.549 211.887 261.558 211.29 262.7 211.007C263.844 210.719 265.031 210.748 266.261 211.095C267.072 211.323 267.792 211.649 268.421 212.072C269.054 212.496 269.578 213.003 269.993 213.592C270.408 214.176 270.696 214.83 270.857 215.554C271.021 216.279 271.037 217.061 270.905 217.899ZM271.231 232.062C270.862 231.958 270.524 231.831 270.217 231.681C269.914 231.536 269.669 231.391 269.484 231.245L270.752 229.256C271.065 229.457 271.356 229.601 271.627 229.687C271.902 229.774 272.16 229.778 272.399 229.698C272.642 229.619 272.874 229.433 273.094 229.141L273.39 228.745L272.665 216.882L275.728 217.745L275.73 226.068L275.84 226.099L280.205 219.006L283.289 219.874L275.931 230.36C275.576 230.87 275.171 231.287 274.715 231.612C274.263 231.942 273.75 232.149 273.175 232.233C272.599 232.322 271.951 232.265 271.231 232.062ZM281.877 230.81L285.819 216.809L288.732 217.629L287.249 222.893L287.338 222.918C287.545 222.671 287.811 222.436 288.134 222.212C288.464 221.985 288.852 221.829 289.299 221.743C289.752 221.655 290.273 221.693 290.861 221.858C291.627 222.074 292.276 222.473 292.811 223.057C293.346 223.635 293.695 224.38 293.856 225.292C294.019 226.198 293.931 227.253 293.592 228.457C293.263 229.628 292.795 230.564 292.189 231.264C291.59 231.961 290.908 232.425 290.144 232.658C289.386 232.887 288.608 232.889 287.811 232.665C287.245 232.506 286.791 232.277 286.447 231.978C286.108 231.681 285.852 231.356 285.681 231.003C285.512 230.645 285.402 230.302 285.352 229.973L285.222 229.936L284.748 231.618L281.877 230.81ZM286.206 226.362C286.03 226.986 285.963 227.555 286.006 228.069C286.048 228.583 286.197 229.016 286.452 229.368C286.708 229.715 287.071 229.955 287.54 230.087C288.014 230.221 288.452 230.204 288.853 230.037C289.256 229.865 289.607 229.57 289.906 229.153C290.212 228.732 290.45 228.216 290.622 227.605C290.793 226.999 290.859 226.442 290.82 225.935C290.781 225.427 290.634 224.997 290.379 224.645C290.124 224.292 289.757 224.049 289.279 223.914C288.805 223.781 288.368 223.793 287.969 223.951C287.575 224.111 287.227 224.396 286.924 224.808C286.621 225.22 286.382 225.738 286.206 226.362ZM298.789 235.793C297.709 235.489 296.841 235.008 296.184 234.351C295.534 233.691 295.113 232.899 294.921 231.974C294.73 231.044 294.79 230.026 295.102 228.919C295.406 227.838 295.883 226.949 296.532 226.252C297.181 225.554 297.95 225.084 298.84 224.843C299.734 224.603 300.696 224.628 301.726 224.918C302.418 225.113 303.032 225.406 303.566 225.797C304.106 226.186 304.537 226.664 304.859 227.231C305.186 227.801 305.38 228.455 305.442 229.196C305.506 229.932 305.412 230.747 305.16 231.64L304.935 232.44L296.068 229.943L296.576 228.138L302.702 229.863C302.82 229.444 302.833 229.047 302.742 228.672C302.651 228.297 302.469 227.973 302.197 227.699C301.93 227.423 301.585 227.224 301.161 227.105C300.719 226.981 300.298 226.973 299.899 227.082C299.505 227.187 299.164 227.384 298.877 227.672C298.59 227.955 298.387 228.304 298.265 228.717L297.782 230.433C297.636 230.953 297.605 231.429 297.69 231.861C297.779 232.294 297.973 232.664 298.271 232.969C298.568 233.274 298.961 233.495 299.449 233.632C299.772 233.724 300.081 233.761 300.376 233.746C300.671 233.731 300.939 233.659 301.182 233.53C301.425 233.402 301.634 233.22 301.808 232.983L304.452 233.92C304.133 234.528 303.693 235.015 303.133 235.378C302.579 235.739 301.932 235.96 301.191 236.041C300.455 236.12 299.655 236.037 298.789 235.793ZM305.567 237.48L308.524 226.979L311.347 227.774L310.831 229.607L310.94 229.637C311.315 229.04 311.775 228.638 312.32 228.432C312.866 228.222 313.433 228.2 314.021 228.365C314.167 228.406 314.322 228.46 314.485 228.525C314.649 228.591 314.79 228.658 314.909 228.726L314.181 231.31C314.056 231.23 313.877 231.141 313.644 231.041C313.412 230.941 313.195 230.863 312.995 230.806C312.566 230.685 312.157 230.671 311.767 230.763C311.383 230.852 311.047 231.032 310.759 231.305C310.475 231.58 310.273 231.931 310.152 232.359L308.479 238.3L305.567 237.48ZM324.295 234.652L321.582 234.065C321.601 233.825 321.561 233.592 321.462 233.367C321.364 233.138 321.207 232.934 320.992 232.755C320.782 232.573 320.509 232.435 320.172 232.34C319.721 232.213 319.313 232.202 318.949 232.306C318.587 232.405 318.361 232.612 318.273 232.927C318.202 233.177 318.243 233.418 318.394 233.647C318.546 233.877 318.851 234.113 319.309 234.355L321.102 235.273C322.064 235.77 322.73 236.322 323.1 236.928C323.471 237.534 323.55 238.215 323.337 238.972C323.143 239.66 322.77 240.207 322.218 240.612C321.671 241.019 321.005 241.269 320.221 241.363C319.443 241.454 318.598 241.371 317.686 241.114C316.296 240.723 315.27 240.121 314.608 239.31C313.952 238.496 313.695 237.568 313.836 236.525L316.743 237.181C316.71 237.63 316.828 238.012 317.098 238.329C317.369 238.642 317.765 238.871 318.284 239.017C318.795 239.161 319.232 239.179 319.598 239.07C319.968 238.958 320.201 238.745 320.294 238.432C320.363 238.166 320.313 237.918 320.142 237.688C319.972 237.453 319.671 237.226 319.241 237.007L317.525 236.132C316.557 235.639 315.894 235.068 315.535 234.421C315.181 233.775 315.114 233.06 315.335 232.277C315.525 231.602 315.87 231.072 316.372 230.687C316.879 230.304 317.502 230.073 318.242 229.996C318.986 229.921 319.807 230.009 320.705 230.262C322.032 230.635 322.996 231.21 323.6 231.984C324.207 232.761 324.439 233.65 324.295 234.652ZM328.982 244.295C327.902 243.991 327.034 243.51 326.377 242.853C325.727 242.193 325.306 241.4 325.114 240.475C324.923 239.546 324.983 238.528 325.295 237.42C325.599 236.34 326.076 235.451 326.725 234.753C327.374 234.056 328.143 233.586 329.033 233.345C329.927 233.104 330.889 233.129 331.919 233.419C332.611 233.614 333.225 233.908 333.759 234.299C334.299 234.687 334.73 235.165 335.052 235.733C335.379 236.302 335.573 236.957 335.635 237.698C335.699 238.434 335.605 239.248 335.353 240.142L335.128 240.942L326.261 238.445L326.769 236.64L332.895 238.365C333.013 237.945 333.026 237.548 332.935 237.173C332.844 236.799 332.662 236.474 332.39 236.201C332.123 235.924 331.778 235.726 331.354 235.607C330.912 235.482 330.491 235.475 330.092 235.583C329.698 235.689 329.357 235.886 329.07 236.174C328.783 236.457 328.58 236.805 328.458 237.219L327.975 238.935C327.829 239.454 327.798 239.93 327.883 240.362C327.972 240.796 328.166 241.165 328.464 241.47C328.762 241.776 329.154 241.997 329.642 242.134C329.965 242.225 330.275 242.263 330.569 242.248C330.864 242.232 331.132 242.16 331.375 242.032C331.618 241.904 331.827 241.721 332.001 241.485L334.645 242.421C334.326 243.03 333.886 243.516 333.327 243.88C332.772 244.241 332.125 244.462 331.384 244.543C330.648 244.621 329.848 244.539 328.982 244.295ZM340.447 247.523C339.371 247.22 338.51 246.732 337.863 246.058C337.223 245.381 336.81 244.576 336.625 243.643C336.445 242.712 336.504 241.715 336.803 240.653C337.106 239.578 337.579 238.693 338.222 237.998C338.871 237.3 339.645 236.832 340.543 236.593C341.443 236.35 342.424 236.377 343.486 236.676C344.402 236.934 345.157 237.327 345.752 237.853C346.346 238.38 346.759 239 346.991 239.715C347.223 240.429 347.245 241.198 347.057 242.021L344.309 241.247C344.379 240.701 344.293 240.222 344.05 239.809C343.813 239.393 343.428 239.11 342.895 238.96C342.443 238.833 342.015 238.845 341.608 238.996C341.207 239.144 340.848 239.424 340.53 239.836C340.213 240.248 339.961 240.785 339.775 241.446C339.586 242.116 339.517 242.711 339.567 243.232C339.621 243.754 339.783 244.185 340.051 244.526C340.319 244.868 340.678 245.102 341.129 245.229C341.462 245.322 341.78 245.338 342.083 245.276C342.39 245.215 342.667 245.079 342.913 244.868C343.166 244.653 343.371 244.369 343.53 244.016L346.278 244.789C346.006 245.579 345.589 246.224 345.025 246.724C344.467 247.221 343.798 247.544 343.018 247.694C342.238 247.843 341.381 247.786 340.447 247.523ZM355.052 246.588L356.749 240.559L359.662 241.379L356.705 251.88L353.909 251.092L354.446 249.185L354.337 249.154C353.926 249.703 353.393 250.086 352.736 250.305C352.084 250.524 351.364 250.523 350.575 250.301C349.873 250.103 349.301 249.77 348.857 249.301C348.414 248.832 348.125 248.261 347.989 247.588C347.859 246.917 347.906 246.17 348.133 245.349L350.016 238.663L352.928 239.483L351.192 245.649C351.022 246.27 351.05 246.807 351.277 247.259C351.503 247.712 351.893 248.016 352.444 248.171C352.795 248.27 353.146 248.283 353.496 248.209C353.847 248.131 354.162 247.959 354.438 247.692C354.719 247.427 354.924 247.059 355.052 246.588ZM359.034 252.535L361.991 242.035L364.815 242.83L364.299 244.662L364.408 244.693C364.783 244.095 365.243 243.693 365.788 243.487C366.334 243.277 366.901 243.255 367.489 243.42C367.635 243.462 367.79 243.515 367.953 243.581C368.117 243.646 368.258 243.713 368.376 243.781L367.649 246.365C367.523 246.286 367.345 246.196 367.112 246.096C366.879 245.996 366.663 245.918 366.462 245.861C366.034 245.741 365.625 245.726 365.235 245.818C364.851 245.907 364.515 246.088 364.226 246.361C363.942 246.635 363.74 246.986 363.62 247.415L361.947 253.356L359.034 252.535ZM366.912 254.754L369.869 244.253L372.781 245.073L369.824 255.574L366.912 254.754ZM371.713 243.311C371.28 243.189 370.949 242.941 370.72 242.567C370.496 242.189 370.442 241.797 370.556 241.392C370.669 240.991 370.919 240.69 371.305 240.488C371.697 240.284 372.109 240.243 372.542 240.365C372.975 240.487 373.303 240.736 373.527 241.114C373.756 241.488 373.814 241.876 373.701 242.277C373.587 242.683 373.333 242.988 372.941 243.192C372.555 243.393 372.146 243.433 371.713 243.311ZM380.699 247.302L380.083 249.49L373.759 247.71L374.375 245.522L380.699 247.302ZM376.519 243.41L379.432 244.23L376.675 254.02C376.599 254.289 376.581 254.51 376.621 254.684C376.662 254.853 376.747 254.987 376.876 255.088C377.01 255.189 377.175 255.268 377.371 255.323C377.508 255.361 377.648 255.388 377.791 255.404C377.935 255.415 378.046 255.424 378.122 255.431L377.97 257.727C377.812 257.732 377.592 257.726 377.311 257.711C377.028 257.701 376.696 257.649 376.314 257.556C375.605 257.386 375.016 257.119 374.547 256.756C374.083 256.394 373.769 255.947 373.605 255.413C373.44 254.88 373.457 254.27 373.655 253.583L376.519 243.41ZM380.329 262.781C379.959 262.678 379.621 262.55 379.315 262.4C379.011 262.255 378.766 262.11 378.581 261.965L379.85 259.976C380.162 260.177 380.453 260.32 380.724 260.406C381 260.494 381.257 260.497 381.496 260.417C381.74 260.338 381.972 260.152 382.192 259.86L382.488 259.464L381.762 247.602L384.825 248.464L384.827 256.788L384.937 256.819L389.303 249.725L392.386 250.593L385.028 261.08C384.673 261.59 384.268 262.007 383.813 262.331C383.361 262.661 382.847 262.868 382.273 262.953C381.697 263.041 381.049 262.984 380.329 262.781Z" fill="#CCC3C3"/>
</g>
<g filter="url(#filter4_d_1312_233)">
<rect x="494.316" y="94.666" width="220.11" height="52.0926" rx="26.0463" transform="rotate(31.9199 494.316 94.666)" fill="url(#paint4_linear_1312_233)" fill-opacity="0.966667"/>
<path d="M528.175 142.505L525.54 140.853C525.705 140.481 525.797 140.117 525.815 139.759C525.835 139.397 525.787 139.049 525.673 138.715C525.559 138.38 525.38 138.067 525.138 137.776C524.9 137.487 524.605 137.232 524.252 137.011C523.614 136.611 522.959 136.421 522.287 136.441C521.617 136.457 520.964 136.684 520.326 137.123C519.69 137.557 519.104 138.201 518.569 139.056C518.018 139.934 517.686 140.754 517.572 141.515C517.462 142.279 517.548 142.962 517.83 143.563C518.112 144.165 518.564 144.661 519.186 145.051C519.535 145.269 519.887 145.426 520.242 145.52C520.6 145.616 520.951 145.649 521.295 145.618C521.641 145.584 521.97 145.486 522.284 145.324C522.601 145.166 522.893 144.941 523.159 144.65L525.787 146.314C525.365 146.837 524.852 147.276 524.25 147.63C523.654 147.983 522.998 148.223 522.282 148.349C521.572 148.474 520.827 148.46 520.046 148.306C519.272 148.15 518.489 147.824 517.699 147.329C516.6 146.64 515.773 145.775 515.218 144.734C514.668 143.696 514.437 142.548 514.527 141.291C514.62 140.037 515.087 138.739 515.927 137.4C516.77 136.056 517.739 135.071 518.836 134.445C519.932 133.819 521.068 133.531 522.244 133.581C523.423 133.627 524.553 133.989 525.636 134.668C526.351 135.116 526.95 135.631 527.434 136.214C527.922 136.799 528.282 137.433 528.514 138.115C528.748 138.793 528.84 139.502 528.79 140.241C528.744 140.983 528.539 141.738 528.175 142.505ZM524.5 156.186C524.175 155.983 523.886 155.765 523.634 155.535C523.384 155.31 523.19 155.102 523.053 154.91L524.831 153.359C525.074 153.64 525.313 153.86 525.549 154.019C525.788 154.18 526.034 154.256 526.286 154.246C526.542 154.239 526.817 154.126 527.11 153.908L527.506 153.611L530.151 142.025L532.847 143.715L530.505 151.702L530.601 151.763L536.788 146.186L539.502 147.887L529.489 155.877C529.004 156.266 528.498 156.552 527.97 156.735C527.443 156.925 526.892 156.979 526.317 156.898C525.74 156.821 525.134 156.584 524.5 156.186ZM535.067 157.983L542.794 145.659L545.357 147.266L542.452 151.9L542.53 151.949C542.799 151.77 543.12 151.619 543.493 151.496C543.873 151.371 544.29 151.331 544.743 151.374C545.203 151.417 545.691 151.6 546.209 151.924C546.883 152.347 547.394 152.913 547.742 153.623C548.093 154.33 548.218 155.143 548.116 156.062C548.017 156.978 547.635 157.966 546.971 159.025C546.325 160.056 545.613 160.822 544.835 161.323C544.063 161.823 543.278 162.077 542.479 162.085C541.687 162.091 540.94 161.874 540.238 161.434C539.741 161.122 539.369 160.775 539.123 160.392C538.881 160.011 538.728 159.627 538.663 159.24C538.601 158.849 538.592 158.488 538.637 158.159L538.523 158.087L537.595 159.567L535.067 157.983ZM540.474 154.935C540.129 155.484 539.905 156.011 539.801 156.516C539.697 157.021 539.718 157.478 539.863 157.888C540.011 158.294 540.292 158.626 540.705 158.885C541.122 159.147 541.547 159.254 541.979 159.206C542.414 159.154 542.834 158.971 543.239 158.654C543.65 158.337 544.024 157.909 544.361 157.372C544.696 156.838 544.916 156.322 545.021 155.824C545.127 155.326 545.107 154.872 544.962 154.462C544.816 154.052 544.533 153.715 544.111 153.451C543.694 153.19 543.272 153.079 542.845 153.118C542.422 153.16 542.007 153.336 541.6 153.646C541.194 153.955 540.819 154.385 540.474 154.935ZM549.891 167.528C548.94 166.932 548.243 166.226 547.798 165.411C547.36 164.594 547.179 163.715 547.255 162.774C547.334 161.828 547.679 160.868 548.29 159.893C548.886 158.943 549.594 158.224 550.413 157.737C551.232 157.25 552.102 157.016 553.024 157.035C553.949 157.057 554.865 157.351 555.772 157.92C556.382 158.302 556.888 158.756 557.29 159.282C557.699 159.807 557.978 160.387 558.127 161.023C558.28 161.661 558.282 162.344 558.133 163.072C557.987 163.796 557.667 164.551 557.174 165.337L556.733 166.041L548.928 161.148L549.924 159.56L555.316 162.94C555.547 162.571 555.672 162.194 555.69 161.808C555.708 161.423 555.625 161.061 555.441 160.722C555.263 160.381 554.988 160.094 554.615 159.86C554.225 159.616 553.824 159.49 553.41 159.482C553.002 159.472 552.62 159.565 552.263 159.76C551.908 159.951 551.614 160.228 551.382 160.591L550.435 162.101C550.148 162.559 549.984 163.007 549.944 163.445C549.908 163.886 549.99 164.295 550.189 164.672C550.389 165.049 550.704 165.372 551.133 165.641C551.418 165.819 551.704 165.943 551.991 166.011C552.278 166.079 552.556 166.086 552.825 166.031C553.094 165.976 553.345 165.86 553.58 165.682L555.852 167.325C555.375 167.819 554.816 168.162 554.177 168.354C553.544 168.543 552.86 168.573 552.126 168.443C551.398 168.311 550.653 168.006 549.891 167.528ZM555.92 171.056L561.714 161.813L564.199 163.371L563.188 164.984L563.285 165.044C563.813 164.576 564.367 164.32 564.948 164.276C565.531 164.228 566.082 164.366 566.599 164.691C566.727 164.771 566.861 164.866 566.999 164.975C567.138 165.084 567.254 165.188 567.349 165.287L565.923 167.561C565.825 167.45 565.679 167.313 565.484 167.152C565.289 166.99 565.103 166.854 564.926 166.744C564.549 166.507 564.161 166.378 563.761 166.357C563.367 166.334 562.994 166.412 562.64 166.593C562.291 166.776 561.998 167.056 561.761 167.434L558.483 172.663L555.92 171.056ZM574.686 173.617L572.248 172.29C572.334 172.064 572.361 171.829 572.329 171.586C572.3 171.338 572.207 171.099 572.051 170.867C571.901 170.633 571.678 170.423 571.381 170.237C570.984 169.988 570.596 169.862 570.218 169.86C569.842 169.853 569.567 169.988 569.393 170.265C569.255 170.486 569.226 170.728 569.307 170.991C569.388 171.254 569.614 171.566 569.986 171.928L571.447 173.313C572.23 174.061 572.714 174.778 572.899 175.464C573.084 176.15 572.967 176.826 572.55 177.492C572.17 178.097 571.658 178.517 571.015 178.75C570.375 178.986 569.666 179.039 568.887 178.909C568.115 178.777 567.327 178.459 566.525 177.956C565.301 177.189 564.486 176.323 564.08 175.358C563.679 174.392 563.694 173.429 564.123 172.468L566.727 173.917C566.569 174.337 566.575 174.738 566.745 175.118C566.917 175.494 567.232 175.826 567.689 176.112C568.138 176.394 568.554 176.534 568.935 176.533C569.322 176.53 569.605 176.391 569.782 176.117C569.924 175.882 569.945 175.629 569.846 175.36C569.749 175.087 569.525 174.785 569.174 174.453L567.773 173.131C566.984 172.384 566.508 171.65 566.346 170.928C566.188 170.209 566.325 169.504 566.757 168.814C567.13 168.22 567.611 167.809 568.201 167.581C568.795 167.356 569.458 167.31 570.189 167.445C570.925 167.582 571.688 167.898 572.478 168.393C573.646 169.125 574.41 169.948 574.77 170.861C575.135 171.777 575.107 172.696 574.686 173.617ZM576.467 184.189C575.517 183.593 574.819 182.887 574.374 182.072C573.936 181.256 573.755 180.377 573.832 179.435C573.91 178.49 574.255 177.529 574.866 176.555C575.462 175.604 576.17 174.885 576.989 174.398C577.808 173.912 578.679 173.678 579.6 173.697C580.526 173.718 581.442 174.013 582.348 174.581C582.958 174.964 583.464 175.418 583.866 175.944C584.275 176.468 584.554 177.048 584.703 177.684C584.857 178.322 584.859 179.005 584.71 179.733C584.563 180.457 584.243 181.212 583.75 181.999L583.309 182.703L575.504 177.81L576.5 176.221L581.892 179.601C582.123 179.232 582.248 178.855 582.266 178.47C582.284 178.084 582.201 177.722 582.017 177.383C581.839 177.042 581.564 176.755 581.191 176.521C580.802 176.277 580.4 176.151 579.986 176.143C579.579 176.134 579.196 176.226 578.839 176.422C578.484 176.613 578.191 176.89 577.958 177.252L577.011 178.763C576.724 179.22 576.561 179.668 576.52 180.107C576.484 180.548 576.566 180.957 576.766 181.333C576.965 181.71 577.28 182.033 577.709 182.302C577.994 182.481 578.28 182.604 578.567 182.672C578.854 182.74 579.132 182.747 579.401 182.692C579.67 182.637 579.922 182.521 580.156 182.344L582.429 183.987C581.951 184.481 581.393 184.824 580.753 185.015C580.12 185.205 579.436 185.234 578.702 185.104C577.975 184.972 577.23 184.667 576.467 184.189ZM586.559 190.516C585.612 189.922 584.923 189.211 584.493 188.382C584.069 187.552 583.9 186.663 583.985 185.717C584.074 184.772 584.411 183.833 584.997 182.898C585.591 181.951 586.294 181.235 587.107 180.75C587.926 180.263 588.8 180.032 589.73 180.056C590.662 180.075 591.595 180.378 592.53 180.964C593.336 181.47 593.951 182.059 594.373 182.732C594.795 183.404 595.017 184.116 595.038 184.867C595.059 185.618 594.863 186.361 594.452 187.098L592.033 185.582C592.254 185.078 592.306 184.593 592.189 184.129C592.079 183.663 591.789 183.283 591.32 182.989C590.922 182.74 590.508 182.63 590.075 182.661C589.649 182.69 589.225 182.857 588.804 183.164C588.383 183.47 587.99 183.914 587.626 184.495C587.256 185.085 587.022 185.637 586.923 186.15C586.829 186.667 586.862 187.126 587.023 187.529C587.184 187.932 587.463 188.258 587.86 188.507C588.153 188.69 588.454 188.795 588.762 188.82C589.074 188.848 589.378 188.796 589.674 188.663C589.976 188.528 590.253 188.313 590.505 188.019L592.924 189.535C592.441 190.216 591.859 190.717 591.177 191.039C590.501 191.358 589.768 191.48 588.978 191.404C588.188 191.327 587.381 191.031 586.559 190.516ZM600.836 193.733L604.163 188.425L606.727 190.032L600.932 199.275L598.471 197.732L599.523 196.053L599.427 195.993C598.879 196.404 598.259 196.621 597.567 196.646C596.88 196.673 596.189 196.469 595.495 196.034C594.877 195.647 594.422 195.166 594.128 194.591C593.835 194.015 593.718 193.386 593.778 192.703C593.841 192.022 594.098 191.319 594.546 190.594L598.236 184.709L600.799 186.316L597.396 191.744C597.058 192.292 596.934 192.815 597.025 193.313C597.115 193.811 597.403 194.212 597.888 194.517C598.197 194.71 598.53 194.821 598.887 194.849C599.246 194.873 599.596 194.797 599.936 194.619C600.281 194.444 600.581 194.148 600.836 193.733ZM602.982 200.561L608.777 191.318L611.262 192.876L610.251 194.488L610.347 194.549C610.876 194.081 611.43 193.825 612.011 193.781C612.594 193.733 613.144 193.871 613.662 194.196C613.79 194.276 613.924 194.371 614.062 194.48C614.2 194.589 614.317 194.693 614.412 194.792L612.986 197.066C612.888 196.955 612.742 196.818 612.547 196.657C612.352 196.495 612.166 196.359 611.989 196.249C611.612 196.012 611.224 195.883 610.824 195.862C610.43 195.839 610.057 195.917 609.703 196.098C609.354 196.281 609.061 196.561 608.824 196.939L605.546 202.168L602.982 200.561ZM609.916 204.908L615.711 195.665L618.274 197.272L612.479 206.515L609.916 204.908ZM617.745 195.28C617.364 195.042 617.117 194.71 617.002 194.286C616.894 193.861 616.952 193.47 617.176 193.113C617.398 192.76 617.722 192.541 618.149 192.457C618.583 192.371 618.99 192.448 619.371 192.687C619.752 192.926 619.997 193.258 620.105 193.683C620.219 194.107 620.166 194.495 619.944 194.848C619.72 195.205 619.392 195.427 618.958 195.513C618.531 195.597 618.126 195.519 617.745 195.28ZM625.244 201.641L624.037 203.567L618.47 200.077L619.678 198.152L625.244 201.641ZM622.33 196.729L624.893 198.337L619.491 206.954C619.342 207.19 619.263 207.397 619.252 207.575C619.244 207.749 619.288 207.902 619.383 208.035C619.483 208.17 619.619 208.291 619.791 208.399C619.912 208.475 620.038 208.54 620.171 208.596C620.307 208.647 620.41 208.687 620.482 208.715L619.689 210.875C619.536 210.835 619.326 210.768 619.061 210.674C618.793 210.585 618.489 210.441 618.148 210.245C617.516 209.881 617.026 209.46 616.678 208.979C616.335 208.502 616.16 207.984 616.152 207.426C616.144 206.867 616.332 206.287 616.716 205.684L622.33 196.729ZM620.529 216.389C620.204 216.186 619.915 215.968 619.663 215.738C619.412 215.513 619.219 215.305 619.082 215.113L620.859 213.562C621.102 213.843 621.342 214.063 621.577 214.222C621.817 214.383 622.063 214.459 622.315 214.449C622.571 214.442 622.846 214.329 623.139 214.111L623.535 213.814L626.18 202.228L628.875 203.918L626.534 211.905L626.63 211.966L632.817 206.389L635.531 208.09L625.517 216.08C625.033 216.469 624.527 216.755 623.999 216.938C623.472 217.128 622.921 217.182 622.346 217.101C621.768 217.024 621.163 216.787 620.529 216.389Z" fill="#CCC3C3"/>
</g>
<g filter="url(#filter5_d_1312_233)">
<rect x="566.2" y="88.9805" width="220.11" height="52.0926" rx="26.0463" transform="rotate(12.2958 566.2 88.9805)" fill="url(#paint5_linear_1312_233)"/>
<path d="M613.981 125.665L610.944 124.993C610.975 124.588 610.939 124.214 610.835 123.871C610.733 123.524 610.571 123.212 610.351 122.935C610.131 122.658 609.858 122.424 609.532 122.23C609.211 122.038 608.847 121.897 608.44 121.807C607.705 121.645 607.025 121.686 606.398 121.931C605.773 122.171 605.234 122.604 604.78 123.231C604.327 123.854 603.992 124.657 603.774 125.642C603.55 126.655 603.513 127.539 603.661 128.294C603.814 129.05 604.124 129.664 604.592 130.136C605.06 130.608 605.652 130.923 606.369 131.082C606.771 131.17 607.155 131.2 607.521 131.169C607.891 131.139 608.233 131.052 608.546 130.908C608.86 130.759 609.138 130.556 609.379 130.299C609.624 130.043 609.824 129.733 609.977 129.369L613.011 130.055C612.789 130.689 612.453 131.274 612.005 131.811C611.562 132.343 611.025 132.789 610.393 133.149C609.766 133.505 609.059 133.742 608.272 133.859C607.491 133.972 606.644 133.928 605.734 133.727C604.467 133.447 603.397 132.91 602.525 132.116C601.658 131.323 601.056 130.32 600.718 129.105C600.385 127.892 600.389 126.514 600.73 124.969C601.072 123.421 601.654 122.167 602.477 121.21C603.3 120.252 604.273 119.599 605.397 119.251C606.523 118.898 607.71 118.86 608.958 119.136C609.781 119.318 610.518 119.602 611.17 119.988C611.826 120.376 612.378 120.852 612.825 121.416C613.274 121.976 613.599 122.612 613.8 123.326C614.006 124.041 614.066 124.82 613.981 125.665ZM615.114 139.786C614.74 139.703 614.395 139.595 614.08 139.463C613.769 139.336 613.516 139.205 613.323 139.07L614.476 137.012C614.799 137.195 615.099 137.321 615.374 137.392C615.654 137.464 615.911 137.452 616.145 137.359C616.384 137.266 616.605 137.067 616.808 136.763L617.081 136.351L615.681 124.549L618.788 125.236L619.264 133.546L619.375 133.57L623.33 126.239L626.458 126.931L619.709 137.819C619.384 138.348 619.003 138.788 618.567 139.138C618.134 139.493 617.634 139.729 617.065 139.846C616.495 139.967 615.845 139.947 615.114 139.786ZM625.671 137.929L628.81 123.726L631.764 124.379L630.584 129.719L630.674 129.739C630.867 129.481 631.119 129.231 631.429 128.989C631.745 128.744 632.124 128.566 632.565 128.455C633.013 128.34 633.534 128.349 634.131 128.481C634.907 128.652 635.579 129.014 636.146 129.566C636.713 130.113 637.104 130.837 637.317 131.738C637.531 132.634 637.503 133.692 637.234 134.912C636.971 136.101 636.558 137.061 635.993 137.795C635.434 138.525 634.78 139.028 634.03 139.303C633.287 139.575 632.51 139.622 631.701 139.443C631.128 139.317 630.661 139.114 630.301 138.836C629.945 138.558 629.672 138.248 629.481 137.905C629.291 137.558 629.161 137.221 629.093 136.896L628.961 136.867L628.584 138.573L625.671 137.929ZM629.74 133.242C629.6 133.875 629.566 134.447 629.637 134.958C629.709 135.468 629.882 135.892 630.157 136.229C630.432 136.561 630.808 136.78 631.284 136.885C631.765 136.992 632.201 136.95 632.592 136.76C632.984 136.565 633.318 136.251 633.593 135.817C633.874 135.38 634.083 134.851 634.22 134.232C634.356 133.617 634.39 133.057 634.322 132.552C634.254 132.048 634.083 131.627 633.808 131.29C633.534 130.953 633.154 130.73 632.668 130.623C632.187 130.517 631.752 130.554 631.363 130.735C630.979 130.917 630.647 131.222 630.368 131.65C630.089 132.078 629.88 132.609 629.74 133.242ZM642.84 141.941C641.744 141.699 640.85 141.269 640.157 140.65C639.47 140.028 639.005 139.261 638.76 138.348C638.517 137.431 638.519 136.411 638.767 135.288C639.009 134.192 639.435 133.277 640.043 132.544C640.651 131.81 641.392 131.297 642.267 131.006C643.145 130.715 644.107 130.685 645.152 130.916C645.855 131.071 646.484 131.329 647.04 131.69C647.601 132.046 648.059 132.499 648.413 133.048C648.771 133.597 649.002 134.24 649.107 134.976C649.212 135.707 649.164 136.526 648.964 137.432L648.785 138.243L639.79 136.256L640.195 134.425L646.408 135.798C646.502 135.372 646.493 134.975 646.381 134.606C646.268 134.237 646.068 133.924 645.781 133.666C645.499 133.405 645.143 133.227 644.713 133.132C644.265 133.033 643.844 133.049 643.452 133.181C643.065 133.308 642.736 133.524 642.465 133.828C642.195 134.127 642.011 134.487 641.914 134.906L641.529 136.647C641.413 137.174 641.409 137.651 641.518 138.078C641.632 138.505 641.847 138.863 642.161 139.151C642.476 139.439 642.881 139.637 643.375 139.746C643.704 139.819 644.014 139.839 644.308 139.807C644.601 139.775 644.865 139.688 645.1 139.546C645.335 139.404 645.533 139.21 645.694 138.964L648.387 139.748C648.103 140.374 647.692 140.884 647.154 141.279C646.621 141.671 645.987 141.928 645.252 142.052C644.522 142.172 643.718 142.135 642.84 141.941ZM649.703 143.239L652.057 132.587L654.921 133.22L654.51 135.079L654.621 135.103C654.961 134.485 655.397 134.058 655.93 133.821C656.463 133.58 657.028 133.526 657.624 133.658C657.772 133.69 657.93 133.735 658.097 133.791C658.264 133.847 658.408 133.906 658.531 133.967L657.951 136.588C657.822 136.516 657.638 136.437 657.4 136.35C657.162 136.264 656.942 136.198 656.738 136.153C656.304 136.057 655.894 136.066 655.51 136.18C655.132 136.29 654.807 136.49 654.534 136.779C654.267 137.069 654.085 137.431 653.989 137.866L652.657 143.892L649.703 143.239ZM668.239 139.349L665.498 138.918C665.502 138.676 665.449 138.446 665.337 138.228C665.227 138.004 665.059 137.81 664.834 137.644C664.614 137.474 664.333 137.351 663.991 137.276C663.533 137.174 663.126 137.186 662.769 137.311C662.412 137.431 662.199 137.651 662.128 137.97C662.072 138.224 662.127 138.461 662.291 138.682C662.456 138.903 662.774 139.121 663.245 139.336L665.087 140.151C666.076 140.592 666.772 141.105 667.176 141.689C667.581 142.273 667.698 142.949 667.529 143.716C667.374 144.414 667.033 144.981 666.505 145.418C665.982 145.855 665.332 146.143 664.554 146.281C663.782 146.416 662.934 146.381 662.01 146.177C660.6 145.865 659.541 145.324 658.834 144.552C658.132 143.776 657.822 142.864 657.904 141.815L660.843 142.304C660.836 142.754 660.976 143.129 661.264 143.43C661.552 143.727 661.96 143.933 662.487 144.05C663.005 144.164 663.443 144.156 663.801 144.027C664.165 143.894 664.385 143.669 664.46 143.351C664.514 143.082 664.45 142.837 664.266 142.617C664.082 142.392 663.77 142.182 663.328 141.988L661.565 141.213C660.57 140.775 659.876 140.243 659.48 139.617C659.09 138.993 658.983 138.283 659.158 137.488C659.309 136.804 659.625 136.255 660.104 135.842C660.588 135.43 661.197 135.165 661.931 135.046C662.67 134.928 663.495 134.969 664.405 135.17C665.751 135.468 666.747 135.986 667.393 136.725C668.044 137.466 668.326 138.34 668.239 139.349ZM673.468 148.709C672.372 148.467 671.478 148.037 670.786 147.418C670.099 146.796 669.633 146.029 669.389 145.116C669.145 144.199 669.147 143.179 669.396 142.056C669.638 140.96 670.063 140.045 670.671 139.312C671.279 138.578 672.021 138.066 672.895 137.774C673.774 137.483 674.736 137.453 675.78 137.684C676.483 137.839 677.112 138.097 677.668 138.458C678.229 138.814 678.687 139.267 679.041 139.816C679.399 140.365 679.631 141.008 679.735 141.744C679.84 142.475 679.792 143.294 679.592 144.2L679.413 145.011L670.418 143.024L670.823 141.193L677.037 142.566C677.131 142.141 677.121 141.743 677.009 141.374C676.897 141.005 676.697 140.692 676.409 140.434C676.128 140.173 675.772 139.995 675.342 139.9C674.893 139.801 674.473 139.817 674.08 139.949C673.693 140.076 673.364 140.292 673.093 140.596C672.823 140.895 672.64 141.255 672.542 141.675L672.157 143.415C672.041 143.942 672.037 144.419 672.147 144.846C672.261 145.273 672.475 145.631 672.79 145.919C673.104 146.207 673.509 146.405 674.004 146.514C674.332 146.587 674.643 146.607 674.936 146.575C675.229 146.543 675.493 146.456 675.728 146.314C675.963 146.172 676.161 145.978 676.322 145.732L679.015 146.516C678.731 147.142 678.32 147.652 677.782 148.048C677.249 148.439 676.615 148.697 675.88 148.82C675.15 148.94 674.346 148.903 673.468 148.709ZM685.098 151.279C684.007 151.038 683.119 150.599 682.436 149.963C681.757 149.324 681.299 148.544 681.062 147.623C680.828 146.704 680.831 145.705 681.069 144.628C681.31 143.537 681.732 142.626 682.334 141.896C682.942 141.163 683.688 140.651 684.572 140.361C685.456 140.067 686.437 140.039 687.514 140.277C688.444 140.482 689.22 140.831 689.844 141.323C690.467 141.814 690.915 142.41 691.187 143.111C691.459 143.811 691.525 144.577 691.385 145.409L688.597 144.793C688.636 144.244 688.522 143.77 688.256 143.372C687.996 142.97 687.595 142.71 687.054 142.59C686.597 142.489 686.169 142.525 685.772 142.7C685.38 142.87 685.037 143.17 684.744 143.6C684.45 144.029 684.229 144.579 684.081 145.25C683.931 145.929 683.895 146.528 683.975 147.045C684.059 147.563 684.245 147.985 684.532 148.31C684.819 148.635 685.191 148.848 685.649 148.95C685.986 149.024 686.305 149.022 686.603 148.942C686.907 148.864 687.176 148.712 687.409 148.488C687.649 148.259 687.838 147.964 687.976 147.602L690.764 148.218C690.538 149.021 690.158 149.689 689.623 150.22C689.094 150.749 688.445 151.109 687.675 151.303C686.905 151.496 686.046 151.488 685.098 151.279ZM699.626 149.514L700.978 143.397L703.932 144.05L701.578 154.702L698.742 154.076L699.169 152.141L699.058 152.116C698.68 152.687 698.169 153.101 697.526 153.356C696.887 153.613 696.168 153.652 695.368 153.476C694.656 153.318 694.066 153.018 693.596 152.575C693.127 152.132 692.805 151.578 692.632 150.914C692.463 150.252 692.469 149.504 692.648 148.67L694.147 141.888L697.101 142.541L695.719 148.796C695.584 149.426 695.643 149.96 695.895 150.399C696.148 150.838 696.553 151.119 697.113 151.243C697.469 151.321 697.82 151.314 698.165 151.221C698.512 151.123 698.815 150.933 699.076 150.651C699.342 150.37 699.525 149.991 699.626 149.514ZM703.941 155.225L706.295 144.572L709.159 145.205L708.748 147.064L708.859 147.088C709.2 146.47 709.636 146.043 710.168 145.807C710.702 145.566 711.266 145.511 711.863 145.643C712.011 145.675 712.168 145.72 712.335 145.776C712.502 145.833 712.647 145.891 712.769 145.952L712.19 148.574C712.06 148.501 711.877 148.422 711.639 148.335C711.401 148.249 711.18 148.183 710.977 148.138C710.542 148.042 710.133 148.051 709.749 148.165C709.37 148.275 709.045 148.475 708.773 148.764C708.505 149.054 708.323 149.416 708.227 149.851L706.895 155.877L703.941 155.225ZM711.932 156.99L714.286 146.338L717.24 146.991L714.886 157.643L711.932 156.99ZM716.073 145.293C715.634 145.196 715.289 144.967 715.039 144.606C714.795 144.242 714.718 143.854 714.809 143.443C714.899 143.036 715.131 142.721 715.505 142.498C715.885 142.272 716.295 142.207 716.734 142.304C717.173 142.401 717.515 142.632 717.759 142.996C718.009 143.357 718.089 143.741 717.999 144.148C717.908 144.559 717.673 144.878 717.293 145.104C716.919 145.327 716.513 145.39 716.073 145.293ZM725.273 148.766L724.782 150.985L718.367 149.568L718.858 147.348L725.273 148.766ZM720.878 145.118L723.832 145.771L721.638 155.702C721.578 155.975 721.572 156.197 721.622 156.368C721.672 156.534 721.765 156.663 721.899 156.756C722.039 156.85 722.208 156.919 722.407 156.963C722.545 156.994 722.687 157.013 722.83 157.02C722.975 157.023 723.086 157.026 723.163 157.028L723.142 159.329C722.984 159.343 722.764 159.35 722.483 159.351C722.2 159.356 721.865 159.324 721.479 159.253C720.761 159.123 720.157 158.89 719.669 158.555C719.185 158.22 718.846 157.791 718.651 157.268C718.457 156.745 718.439 156.135 718.598 155.437L720.878 145.118ZM725.784 164.241C725.41 164.158 725.065 164.051 724.75 163.918C724.439 163.791 724.186 163.66 723.993 163.525L725.146 161.467C725.47 161.65 725.769 161.777 726.044 161.847C726.324 161.919 726.581 161.908 726.815 161.814C727.054 161.721 727.275 161.523 727.478 161.218L727.751 160.806L726.351 149.004L729.458 149.691L729.934 158.001L730.045 158.025L734 150.695L737.128 151.386L730.379 162.274C730.054 162.804 729.673 163.243 729.237 163.593C728.805 163.948 728.304 164.184 727.735 164.301C727.165 164.422 726.515 164.402 725.784 164.241Z" fill="#CCC3C3"/>
</g>
<g filter="url(#filter6_d_1312_233)">
<rect x="367.617" y="82.457" width="220.11" height="52.0926" rx="26.0463" transform="rotate(-13.592 367.617 82.457)" fill="url(#paint6_linear_1312_233)"/>
<path d="M425.473 91.8247L422.447 92.5471C422.298 92.1688 422.102 91.848 421.859 91.5848C421.615 91.3169 421.334 91.1066 421.015 90.9539C420.696 90.8012 420.348 90.7091 419.97 90.6775C419.598 90.6448 419.209 90.6769 418.803 90.7736C418.071 90.9485 417.477 91.2826 417.02 91.7762C416.562 92.2652 416.266 92.8908 416.132 93.6531C415.996 94.4108 416.046 95.2801 416.28 96.261C416.521 97.2696 416.873 98.0813 417.336 98.696C417.804 99.3097 418.351 99.7266 418.978 99.9469C419.605 100.167 420.275 100.192 420.989 100.022C421.39 99.926 421.748 99.7846 422.063 99.5973C422.384 99.4089 422.653 99.1815 422.872 98.9151C423.089 98.6441 423.25 98.3403 423.355 98.0038C423.464 97.6661 423.508 97.3003 423.487 96.9061L426.516 96.1976C426.593 96.8656 426.547 97.5387 426.378 98.2168C426.212 98.8891 425.924 99.5252 425.512 100.125C425.103 100.719 424.571 101.24 423.914 101.689C423.26 102.133 422.48 102.462 421.572 102.679C420.311 102.98 419.114 102.964 417.983 102.631C416.856 102.296 415.876 101.656 415.042 100.711C414.213 99.7653 413.614 98.5232 413.247 96.985C412.879 95.4422 412.856 94.0604 413.177 92.8396C413.499 91.6188 414.09 90.6064 414.95 89.8024C415.808 88.9939 416.859 88.4412 418.102 88.1443C418.922 87.9486 419.71 87.8823 420.465 87.9455C421.224 88.0075 421.929 88.1947 422.578 88.5071C423.225 88.8149 423.796 89.2459 424.288 89.8001C424.785 90.3532 425.18 91.028 425.473 91.8247ZM432.657 104.034C432.284 104.123 431.927 104.177 431.586 104.195C431.25 104.217 430.966 104.209 430.733 104.172L430.872 101.817C431.243 101.841 431.567 101.824 431.846 101.767C432.129 101.709 432.355 101.587 432.525 101.401C432.699 101.213 432.811 100.938 432.861 100.576L432.926 100.085L426.514 90.0791L429.609 89.3403L433.666 96.6082L433.777 96.5818L434.134 88.26L437.25 87.5162L435.932 100.258C435.871 100.877 435.72 101.439 435.48 101.944C435.246 102.452 434.899 102.883 434.438 103.237C433.978 103.595 433.385 103.86 432.657 104.034ZM441.344 97.7544L437.966 83.6065L440.909 82.904L442.179 88.2232L442.269 88.2018C442.33 87.8855 442.447 87.5508 442.621 87.1978C442.798 86.8391 443.061 86.5134 443.41 86.2208C443.762 85.9225 444.235 85.7025 444.829 85.5606C445.603 85.3759 446.365 85.4081 447.116 85.6573C447.866 85.9018 448.533 86.3827 449.118 87.0998C449.702 87.8123 450.139 88.7764 450.429 89.9923C450.712 91.1758 450.759 92.2209 450.571 93.1273C450.387 94.028 450.018 94.7659 449.464 95.3412C448.914 95.9107 448.236 96.2916 447.43 96.4841C446.859 96.6204 446.35 96.642 445.905 96.5488C445.463 96.4545 445.082 96.2949 444.761 96.0698C444.438 95.8401 444.175 95.5939 443.971 95.331L443.84 95.3623L444.245 97.0617L441.344 97.7544ZM442.958 91.7612C443.109 92.3922 443.328 92.9216 443.615 93.3496C443.902 93.7776 444.243 94.0833 444.637 94.2666C445.03 94.4453 445.464 94.4781 445.938 94.3648C446.417 94.2505 446.791 94.0225 447.06 93.6808C447.328 93.3345 447.491 92.9062 447.549 92.3957C447.611 91.8796 447.568 91.313 447.421 90.6958C447.275 90.0833 447.061 89.5648 446.779 89.1404C446.498 88.7159 446.16 88.412 445.766 88.2286C445.371 88.0453 444.932 88.0113 444.449 88.1268C443.97 88.2411 443.595 88.4645 443.324 88.797C443.057 89.1284 442.892 89.5475 442.828 90.0544C442.764 90.5614 442.807 91.1303 442.958 91.7612ZM458.541 93.8679C457.45 94.1285 456.457 94.1317 455.564 93.8776C454.675 93.6178 453.921 93.1309 453.303 92.4169C452.683 91.6982 452.24 90.7794 451.973 89.6603C451.712 88.5688 451.695 87.5603 451.922 86.6347C452.149 85.7092 452.592 84.9244 453.251 84.2802C453.915 83.635 454.767 83.1881 455.808 82.9396C456.508 82.7725 457.187 82.7298 457.844 82.8114C458.505 82.8873 459.114 83.0948 459.672 83.4338C460.235 83.7716 460.723 84.2488 461.138 84.8654C461.552 85.4773 461.867 86.2346 462.082 87.1372L462.275 87.9455L453.315 90.0845L452.88 88.2608L459.07 86.7831C458.968 86.3594 458.787 86.006 458.524 85.723C458.262 85.44 457.946 85.2454 457.575 85.1393C457.207 85.0274 456.809 85.0226 456.381 85.1249C455.934 85.2315 455.563 85.4297 455.267 85.7194C454.974 86.0034 454.773 86.3412 454.662 86.7328C454.55 87.1198 454.541 87.5233 454.637 87.9435L455.051 89.6775C455.176 90.2025 455.381 90.633 455.666 90.9691C455.955 91.3041 456.304 91.5323 456.713 91.6538C457.122 91.7753 457.572 91.7772 458.065 91.6596C458.392 91.5815 458.68 91.464 458.93 91.307C459.18 91.15 459.379 90.9563 459.529 90.7259C459.678 90.4955 459.772 90.2347 459.809 89.9434L462.574 89.4732C462.592 90.1602 462.445 90.7989 462.133 91.3893C461.825 91.974 461.367 92.4825 460.76 92.9147C460.156 93.3413 459.416 93.659 458.541 93.8679ZM465.282 92.0395L462.749 81.4286L465.602 80.7474L466.044 82.5988L466.155 82.5724C466.191 81.8677 466.397 81.2928 466.773 80.8477C467.147 80.3981 467.632 80.1023 468.226 79.9605C468.373 79.9253 468.534 79.8966 468.709 79.8743C468.884 79.8521 469.039 79.8417 469.176 79.8431L469.799 82.4544C469.651 82.4459 469.451 82.4547 469.2 82.4808C468.948 82.5068 468.721 82.544 468.518 82.5924C468.085 82.6957 467.721 82.8825 467.425 83.1527C467.133 83.4172 466.927 83.7388 466.808 84.1177C466.694 84.4955 466.689 84.9008 466.792 85.3337L468.225 91.3369L465.282 92.0395ZM480.26 80.4463L477.605 81.2553C477.504 81.036 477.356 80.8524 477.16 80.7045C476.963 80.552 476.727 80.4501 476.452 80.3989C476.18 80.3421 475.874 80.3543 475.533 80.4357C475.077 80.5445 474.716 80.7331 474.449 81.0013C474.181 81.2648 474.085 81.5555 474.161 81.8733C474.221 82.1266 474.373 82.3166 474.618 82.4432C474.862 82.5698 475.244 82.6273 475.762 82.6156L477.774 82.5439C478.857 82.5095 479.707 82.6667 480.326 83.0155C480.945 83.3643 481.345 83.921 481.528 84.6855C481.694 85.3809 481.634 86.04 481.35 86.6629C481.07 87.2847 480.611 87.8276 479.972 88.2917C479.336 88.75 478.558 89.0891 477.637 89.309C476.232 89.6444 475.043 89.6191 474.07 89.2332C473.101 88.8416 472.423 88.1563 472.039 87.1772L474.897 86.3342C475.087 86.7416 475.377 87.018 475.767 87.1634C476.156 87.3042 476.613 87.3119 477.138 87.1866C477.653 87.0635 478.044 86.8655 478.31 86.5927C478.58 86.3142 478.679 86.0155 478.607 85.6966C478.539 85.4306 478.374 85.2388 478.112 85.1212C477.849 84.9989 477.477 84.9467 476.994 84.9646L475.069 85.0371C473.983 85.0773 473.126 84.9022 472.498 84.5119C471.874 84.1206 471.467 83.5288 471.278 82.7367C471.115 82.0551 471.159 81.4239 471.41 80.8432C471.665 80.2614 472.097 79.7566 472.706 79.329C473.319 78.9002 474.08 78.5776 474.987 78.361C476.327 78.041 477.449 78.0725 478.354 78.4553C479.263 78.8371 479.898 79.5008 480.26 80.4463ZM489.051 86.5841C487.96 86.8447 486.967 86.8479 486.074 86.5938C485.185 86.334 484.431 85.8471 483.812 85.1331C483.193 84.4145 482.75 83.4956 482.482 82.3765C482.222 81.285 482.205 80.2765 482.432 79.351C482.659 78.4255 483.102 77.6406 483.761 76.9965C484.425 76.3512 485.277 75.9043 486.318 75.6559C487.018 75.4887 487.697 75.446 488.354 75.5276C489.014 75.6036 489.624 75.811 490.182 76.15C490.744 76.4879 491.233 76.9651 491.648 77.5816C492.062 78.1935 492.376 78.9508 492.592 79.8535L492.785 80.6617L483.825 82.8008L483.39 80.977L489.579 79.4993C489.478 79.0756 489.296 78.7223 489.034 78.4392C488.772 78.1562 488.455 77.9617 488.084 77.8555C487.717 77.7436 487.319 77.7388 486.891 77.8411C486.444 77.9477 486.073 78.1459 485.777 78.4356C485.484 78.7196 485.283 79.0574 485.172 79.449C485.06 79.836 485.051 80.2396 485.147 80.6598L485.561 82.3937C485.686 82.9187 485.891 83.3493 486.176 83.6853C486.465 84.0203 486.814 84.2485 487.223 84.37C487.631 84.4915 488.082 84.4934 488.575 84.3758C488.902 84.2977 489.19 84.1802 489.44 84.0232C489.69 83.8663 489.889 83.6726 490.039 83.4422C490.188 83.2118 490.282 82.9509 490.319 82.6596L493.084 82.1894C493.102 82.8764 492.955 83.5151 492.643 84.1055C492.335 84.6902 491.877 85.1987 491.27 85.631C490.666 86.0575 489.926 86.3752 489.051 86.5841ZM500.636 83.8184C499.549 84.0779 498.559 84.0708 497.666 83.7972C496.777 83.5178 496.024 83.016 495.408 82.2917C494.797 81.5663 494.363 80.667 494.107 79.5939C493.848 78.5071 493.83 77.5037 494.053 76.5839C494.28 75.6584 494.728 74.8724 495.396 74.2261C496.063 73.5751 496.933 73.1216 498.006 72.8654C498.932 72.6444 499.783 72.619 500.559 72.7891C501.334 72.9593 501.997 73.3 502.548 73.8112C503.098 74.3223 503.492 74.9828 503.729 75.7927L500.952 76.4557C500.747 75.9448 500.438 75.5682 500.025 75.3261C499.615 75.0783 499.141 75.0187 498.602 75.1473C498.146 75.2562 497.778 75.4756 497.496 75.8057C497.218 76.13 497.041 76.5496 496.964 77.0645C496.888 77.5793 496.929 78.1706 497.089 78.8384C497.25 79.5154 497.48 80.0691 497.777 80.4995C498.079 80.9287 498.43 81.227 498.831 81.3944C499.231 81.5617 499.659 81.5909 500.115 81.4821C500.451 81.4018 500.736 81.2607 500.97 81.0588C501.209 80.8558 501.384 80.6021 501.497 80.2978C501.613 79.9878 501.654 79.6397 501.62 79.2535L504.397 78.5905C504.544 79.412 504.494 80.1787 504.245 80.8903C504 81.5963 503.573 82.2045 502.965 82.7148C502.356 83.2251 501.58 83.593 500.636 83.8184ZM512.936 75.8876L511.481 69.7946L514.424 69.092L516.957 79.7029L514.132 80.3774L513.671 78.4501L513.561 78.4765C513.47 79.1554 513.191 79.7502 512.724 80.2608C512.261 80.7704 511.632 81.1203 510.835 81.3105C510.126 81.4798 509.463 81.4676 508.847 81.2739C508.232 81.0802 507.701 80.7225 507.255 80.201C506.814 79.6783 506.492 79.0031 506.289 78.1752L504.676 71.4191L507.619 70.7165L509.107 76.9476C509.261 77.5729 509.547 78.0278 509.966 78.3125C510.384 78.5972 510.872 78.673 511.429 78.5399C511.784 78.4553 512.096 78.2955 512.366 78.0607C512.635 77.8212 512.826 77.5177 512.938 77.1503C513.054 76.7817 513.053 76.3608 512.936 75.8876ZM519.311 79.1409L516.778 68.53L519.631 67.8489L520.073 69.7003L520.183 69.6739C520.22 68.9691 520.425 68.3943 520.801 67.9492C521.176 67.4996 521.66 67.2038 522.254 67.062C522.402 67.0268 522.563 66.9981 522.737 66.9758C522.912 66.9536 523.068 66.9432 523.205 66.9446L523.828 69.5559C523.68 69.5474 523.48 69.5562 523.228 69.5822C522.976 69.6083 522.749 69.6455 522.547 69.6939C522.114 69.7972 521.749 69.984 521.454 70.2542C521.161 70.5186 520.956 70.8403 520.837 71.2192C520.723 71.5969 520.717 72.0023 520.821 72.4352L522.254 78.4384L519.311 79.1409ZM527.271 77.2406L524.738 66.6297L527.681 65.9272L530.214 76.5381L527.271 77.2406ZM525.889 64.909C525.452 65.0134 525.042 64.958 524.66 64.7426C524.281 64.5215 524.042 64.206 523.944 63.7961C523.848 63.3909 523.919 63.0063 524.158 62.6425C524.401 62.273 524.741 62.036 525.179 61.9316C525.616 61.8271 526.024 61.8854 526.403 62.1065C526.786 62.3219 527.025 62.6322 527.122 63.0375C527.22 63.4474 527.147 63.8371 526.905 64.2066C526.665 64.5704 526.327 64.8045 525.889 64.909ZM535.682 64.017L536.21 66.2276L529.82 67.7531L529.292 65.5425L535.682 64.017ZM530.136 62.6539L533.079 61.9514L535.44 71.8438C535.505 72.1156 535.597 72.3175 535.716 72.4497C535.834 72.5773 535.974 72.6534 536.136 72.6781C536.302 72.7017 536.484 72.6898 536.682 72.6426C536.821 72.6096 536.956 72.5651 537.089 72.5091C537.22 72.4485 537.321 72.4024 537.392 72.371L538.377 74.4504C538.241 74.5317 538.046 74.6341 537.793 74.7577C537.542 74.886 537.226 75.0026 536.847 75.1077C536.145 75.3047 535.5 75.3587 534.915 75.2698C534.333 75.1798 533.841 74.942 533.437 74.5564C533.034 74.1708 532.751 73.6298 532.59 72.9333L530.136 62.6539ZM542.899 77.7155C542.526 77.8046 542.169 77.8582 541.827 77.8764C541.492 77.8981 541.208 77.8905 540.975 77.8536L541.114 75.4985C541.484 75.5219 541.809 75.5053 542.087 75.4485C542.371 75.3907 542.597 75.2685 542.767 75.0819C542.941 74.8943 543.053 74.6193 543.103 74.2569L543.168 73.7666L536.756 63.7605L539.851 63.0217L543.908 70.2896L544.019 70.2632L544.376 61.9414L547.491 61.1976L546.174 73.9399C546.112 74.5582 545.962 75.1199 545.722 75.625C545.488 76.1335 545.141 76.5645 544.68 76.9179C544.22 77.276 543.627 77.5418 542.899 77.7155Z" fill="#CCC3C3"/>
</g>
<path d="M903.632 0C895.77 17.1318 886.852 33.7538 876.964 49.7548C854.518 86.0906 827.064 119.187 795.81 148.054C749.832 190.56 695.659 223.837 637.422 246.238C578.333 269.005 515.07 280.615 451.816 280.6C451.816 280.6 451.816 280.6 451.816 280.6C388.562 280.615 325.299 269.005 266.21 246.238C207.973 223.837 153.8 190.56 107.822 148.054C76.5684 119.187 49.1144 86.0905 26.6685 49.7548C16.7805 33.7538 7.86199 17.1318 0 0C7.25118 17.3991 15.6236 34.352 25.0365 50.7277C46.4018 87.9145 73.1495 122.084 104.062 152.028C149.53 196.124 203.988 230.978 262.98 254.479C322.83 278.372 387.326 290.62 451.816 290.6C451.816 290.6 451.816 290.6 451.816 290.6C516.306 290.62 580.802 278.372 640.652 254.479C699.644 230.978 754.102 196.124 799.57 152.028C830.483 122.084 857.23 87.9145 878.596 50.7277C888.008 34.352 896.381 17.3991 903.632 0Z" fill="#10AD33" fill-opacity="0.7"/>
<defs>
<filter id="filter0_d_1312_233" x="104.244" y="65.0293" width="228.902" height="116.832" filterUnits="userSpaceOnUse" color-interpolation-filters="sRGB">
<feFlood flood-opacity="0" result="BackgroundImageFix"/>
<feColorMatrix in="SourceAlpha" type="matrix" values="0 0 0 0 0 0 0 0 0 0 0 0 0 0 0 0 0 0 127 0" result="hardAlpha"/>
<feOffset dx="1" dy="4"/>
<feGaussianBlur stdDeviation="4"/>
<feComposite in2="hardAlpha" operator="out"/>
<feColorMatrix type="matrix" values="0 0 0 0 0 0 0 0 0 0 0 0 0 0 0 0 0 0 0.25 0"/>
<feBlend mode="normal" in2="BackgroundImageFix" result="effect1_dropShadow_1312_233"/>
<feBlend mode="normal" in="SourceGraphic" in2="effect1_dropShadow_1312_233" result="shape"/>
</filter>
<filter id="filter1_d_1312_233" x="385.903" y="177.379" width="232.54" height="102.604" filterUnits="userSpaceOnUse" color-interpolation-filters="sRGB">
<feFlood flood-opacity="0" result="BackgroundImageFix"/>
<feColorMatrix in="SourceAlpha" type="matrix" values="0 0 0 0 0 0 0 0 0 0 0 0 0 0 0 0 0 0 127 0" result="hardAlpha"/>
<feOffset dx="1" dy="4"/>
<feGaussianBlur stdDeviation="4"/>
<feComposite in2="hardAlpha" operator="out"/>
<feColorMatrix type="matrix" values="0 0 0 0 0 0 0 0 0 0 0 0 0 0 0 0 0 0 0.25 0"/>
<feBlend mode="normal" in2="BackgroundImageFix" result="effect1_dropShadow_1312_233"/>
<feBlend mode="normal" in="SourceGraphic" in2="effect1_dropShadow_1312_233" result="shape"/>
</filter>
<filter id="filter2_d_1312_233" x="225.353" y="124.016" width="235.863" height="77.2246" filterUnits="userSpaceOnUse" color-interpolation-filters="sRGB">
<feFlood flood-opacity="0" result="BackgroundImageFix"/>
<feColorMatrix in="SourceAlpha" type="matrix" values="0 0 0 0 0 0 0 0 0 0 0 0 0 0 0 0 0 0 127 0" result="hardAlpha"/>
<feOffset dx="1" dy="4"/>
<feGaussianBlur stdDeviation="4"/>
<feComposite in2="hardAlpha" operator="out"/>
<feColorMatrix type="matrix" values="0 0 0 0 0 0 0 0 0 0 0 0 0 0 0 0 0 0 0.25 0"/>
<feBlend mode="normal" in2="BackgroundImageFix" result="effect1_dropShadow_1312_233"/>
<feBlend mode="normal" in="SourceGraphic" in2="effect1_dropShadow_1312_233" result="shape"/>
</filter>
<filter id="filter3_d_1312_233" x="209.994" y="183.561" width="229.965" height="113.18" filterUnits="userSpaceOnUse" color-interpolation-filters="sRGB">
<feFlood flood-opacity="0" result="BackgroundImageFix"/>
<feColorMatrix in="SourceAlpha" type="matrix" values="0 0 0 0 0 0 0 0 0 0 0 0 0 0 0 0 0 0 127 0" result="hardAlpha"/>
<feOffset dx="1" dy="4"/>
<feGaussianBlur stdDeviation="4"/>
<feComposite in2="hardAlpha" operator="out"/>
<feColorMatrix type="matrix" values="0 0 0 0 0 0 0 0 0 0 0 0 0 0 0 0 0 0 0.25 0"/>
<feBlend mode="normal" in2="BackgroundImageFix" result="effect1_dropShadow_1312_233"/>
<feBlend mode="normal" in="SourceGraphic" in2="effect1_dropShadow_1312_233" result="shape"/>
</filter>
<filter id="filter4_d_1312_233" x="469.603" y="100.496" width="210.711" height="156.936" filterUnits="userSpaceOnUse" color-interpolation-filters="sRGB">
<feFlood flood-opacity="0" result="BackgroundImageFix"/>
<feColorMatrix in="SourceAlpha" type="matrix" values="0 0 0 0 0 0 0 0 0 0 0 0 0 0 0 0 0 0 127 0" result="hardAlpha"/>
<feOffset dx="1" dy="4"/>
<feGaussianBlur stdDeviation="4"/>
<feComposite in2="hardAlpha" operator="out"/>
<feColorMatrix type="matrix" values="0 0 0 0 0 0 0 0 0 0 0 0 0 0 0 0 0 0 0.25 0"/>
<feBlend mode="normal" in2="BackgroundImageFix" result="effect1_dropShadow_1312_233"/>
<feBlend mode="normal" in="SourceGraphic" in2="effect1_dropShadow_1312_233" result="shape"/>
</filter>
<filter id="filter5_d_1312_233" x="553.051" y="89.9238" width="232.266" height="103.885" filterUnits="userSpaceOnUse" color-interpolation-filters="sRGB">
<feFlood flood-opacity="0" result="BackgroundImageFix"/>
<feColorMatrix in="SourceAlpha" type="matrix" values="0 0 0 0 0 0 0 0 0 0 0 0 0 0 0 0 0 0 127 0" result="hardAlpha"/>
<feOffset dx="1" dy="4"/>
<feGaussianBlur stdDeviation="4"/>
<feComposite in2="hardAlpha" operator="out"/>
<feColorMatrix type="matrix" values="0 0 0 0 0 0 0 0 0 0 0 0 0 0 0 0 0 0 0.25 0"/>
<feBlend mode="normal" in2="BackgroundImageFix" result="effect1_dropShadow_1312_233"/>
<feBlend mode="normal" in="SourceGraphic" in2="effect1_dropShadow_1312_233" result="shape"/>
</filter>
<filter id="filter6_d_1312_233" x="366.003" y="32.1152" width="231.416" height="107.59" filterUnits="userSpaceOnUse" color-interpolation-filters="sRGB">
<feFlood flood-opacity="0" result="BackgroundImageFix"/>
<feColorMatrix in="SourceAlpha" type="matrix" values="0 0 0 0 0 0 0 0 0 0 0 0 0 0 0 0 0 0 127 0" result="hardAlpha"/>
<feOffset dx="1" dy="4"/>
<feGaussianBlur stdDeviation="4"/>
<feComposite in2="hardAlpha" operator="out"/>
<feColorMatrix type="matrix" values="0 0 0 0 0 0 0 0 0 0 0 0 0 0 0 0 0 0 0.25 0"/>
<feBlend mode="normal" in2="BackgroundImageFix" result="effect1_dropShadow_1312_233"/>
<feBlend mode="normal" in="SourceGraphic" in2="effect1_dropShadow_1312_233" result="shape"/>
</filter>
<linearGradient id="paint0_linear_1312_233" x1="186.594" y1="151.39" x2="324.926" y2="152.482" gradientUnits="userSpaceOnUse">
<stop stop-color="#8C935F" stop-opacity="0.77"/>
<stop offset="1" stop-color="white" stop-opacity="0"/>
</linearGradient>
<linearGradient id="paint1_linear_1312_233" x1="398.812" y1="202.636" x2="618.922" y2="202.636" gradientUnits="userSpaceOnUse">
<stop stop-color="#993D00" stop-opacity="0"/>
<stop offset="0.9999" stop-color="#FF6600"/>
</linearGradient>
<linearGradient id="paint2_linear_1312_233" x1="230.977" y1="164.648" x2="451.086" y2="164.648" gradientUnits="userSpaceOnUse">
<stop stop-color="#7102A2"/>
<stop offset="1" stop-color="#520C72" stop-opacity="0"/>
</linearGradient>
<linearGradient id="paint3_linear_1312_233" x1="224.943" y1="207.581" x2="445.053" y2="207.581" gradientUnits="userSpaceOnUse">
<stop stop-color="#007BFF"/>
<stop offset="1" stop-color="#004A99" stop-opacity="0"/>
</linearGradient>
<linearGradient id="paint4_linear_1312_233" x1="494.316" y1="120.712" x2="714.426" y2="120.712" gradientUnits="userSpaceOnUse">
<stop stop-color="#3CB626"/>
<stop offset="1" stop-color="#1A5011" stop-opacity="0"/>
</linearGradient>
<linearGradient id="paint5_linear_1312_233" x1="566.2" y1="115.027" x2="786.31" y2="115.027" gradientUnits="userSpaceOnUse">
<stop stop-color="#3A3B00" stop-opacity="0"/>
<stop offset="0.9999" stop-color="#9EA100"/>
</linearGradient>
<linearGradient id="paint6_linear_1312_233" x1="367.617" y1="108.503" x2="587.727" y2="108.503" gradientUnits="userSpaceOnUse">
<stop stop-color="#AD10A2" stop-opacity="0"/>
<stop offset="1" stop-color="#D001C1"/>
</linearGradient>
</defs>
</svg>
